<?xml version="1.0" encoding="utf-8"?>
<!-- Generator: Adobe Illustrator 22.0.1, SVG Export Plug-In . SVG Version: 6.00 Build 0)  -->
<svg version="1.1" id="Layer_1" xmlns="http://www.w3.org/2000/svg" xmlns:xlink="http://www.w3.org/1999/xlink" x="0px" y="0px"
	 viewBox="0 0 75 75" style="enable-background:new 0 0 75 75;" xml:space="preserve">
<style type="text/css">
	.st0{fill:#010101;}
	.st1{fill:#7FBA56;}
	.st2{fill:#FFFFFF;}
	.st3{fill:#010201;}
	.st4{fill:#010401;}
	.st5{fill:#020601;}
	.st6{fill:#050D03;}
	.st7{fill:#77AF50;}
	.st8{fill:#72A74D;}
	.st9{fill:#7DB855;}
	.st10{fill:#6EA14A;}
	.st11{fill:#71A64D;}
</style>
<title>group</title>
<path class="st0" d="M75,37.5c0.6,18.9-15.6,37.1-37.4,36.6c-20.2,0.2-36.7-16-36.9-36.2s16-36.7,36.2-36.9c0.9,0,1.8,0,2.8,0.1
	C60,1.5,75.6,18.8,75,37.5z"/>
<g>
	<path class="st0" d="M75,37.5c0.6,19.4-16,38-38.4,37.5c-20-0.5-37-17.1-36.6-38.3C0.4,16.4,17.4-0.6,38.6,0
		C59.6,0.6,75.6,18.3,75,37.5z"/>
	<path class="st1" d="M37.6,72.7c-19.7,0-35.6-16.2-35.3-35.9C2.7,18,18.2,1.9,38.4,2.3c18.8,0.4,34.5,15.6,34.4,35.2
		C72.8,57.4,56.6,72.7,37.6,72.7z"/>
	<path class="st0" d="M32.1,39.1c-1.4-0.3-2.4-1.5-2.6-3.2c-0.2-1.6-0.4-3.1-0.6-4.7c0-0.4-0.2-0.6-0.5-0.7c-2-1.1-3.9-2.2-5.9-3.3
		c-0.9-0.5-1.4-1.3-1.3-2.4c0.1-1,0.7-1.7,1.7-2c0.2-0.1,0.3-0.2,0.3-0.4c0-2.6,1.2-3.6,3.7-3.6c0,0,0.1,0,0.1-0.1
		c-0.3-0.7-0.6-1.3-0.3-2.1c0.3-1.1,1.5-1.9,2.7-1.6c0.2,0,0.4,0.1,0.5-0.2c1.1-2.2,3-2.7,5.1-1.4c0.1-0.2,0.2-0.5,0.3-0.7
		c0.5-0.9,1.6-1.3,2.6-1.1c0.9,0.2,1.6,1.1,1.6,2.1c0,1.5,0,3,0,4.6c0.7-0.4,1.4-0.7,2.1-0.6c1.3,0.1,2.3,0.7,2.8,1.8
		c0.6,1.2,0.4,2.3-0.3,3.4c-0.2,0.3-0.3,0.4,0.1,0.7c1.1,0.7,1.9,1.8,2.7,2.9c0.4,0.5,0.5,1.2,0.3,1.8c-0.1,0.3,0,0.5,0.2,0.6
		c0.4,0.3,0.6,0.8,0.5,1.3c-0.3,1.4-0.3,2.7-0.4,4.1c0,0.3-0.1,0.6-0.4,0.9c-1,1.2-2,2.3-3,3.5c-0.4,0.5-0.8,0.8-1.4,0.9
		c-0.8,0.1-1.5,0.3-2.3,0.2c-0.3-0.4-0.1-0.8-0.1-1.2c0-0.2,0.1-0.3,0.3-0.4c0.2-0.1,0.3-0.1,0.5-0.1c1.2,0.1,1.9-0.5,2.5-1.3
		c0.5-0.7,1.1-1.3,1.6-1.9c0.4-0.4,0.6-0.9,0.6-1.5c0-0.9,0.1-1.8,0.2-2.7c0-0.4-0.2-0.5-0.5-0.3c-0.4,0.2-0.7,0.5-0.7,1
		c-0.1,0.5-0.1,1.1-0.2,1.6c-0.1,0.5-0.3,0.7-0.8,0.7c-0.6,0-1.3,0-1.9,0.1c-1.4,0.3-2.6,1.1-3.2,2.5c-0.3,0.6-0.6,0.6-1.5,0.2
		c-0.5-0.2-0.3-0.6-0.2-1c0.6-1.4,1.6-2.4,3-3c0.5-0.2,0.6-0.5,0.5-1c-0.3-1.6,0.1-3,0.7-4.4c0.4-0.8,1.6-0.9,2.2-0.3
		c0.4,0.4,0.7,0.8,1.1,1.2c0.2,0.2,0.5,0.4,0.8,0.1c0.3-0.2,0.3-0.6,0.1-0.8c-0.6-0.9-1.2-1.7-2.1-2.3c-0.6-0.5-1.2-0.4-1.8,0.1
		c-0.1,0.1-0.3,0.2-0.4,0.4c-0.3,0.5-0.7,0.8-1.4,0.7c-0.8-0.2-1.4-0.5-1.8-1.3c-0.2-0.4-0.2-0.8-0.2-1.2c0-3.1,0-6.1,0-9.2
		c0-0.2,0-0.5,0-0.7c0-0.3-0.2-0.5-0.5-0.5c-0.3,0-0.5,0.1-0.6,0.4c-0.1,0.3-0.1,0.5-0.1,0.8c0,3.1,0,6.1,0,9.2c0,0.3,0,0.7-0.1,1
		c-0.3,0.6-0.7,1.1-1.5,1.1c-0.7,0.1-1.3-0.3-1.6-1C33,23.9,32.5,23,32,22c-0.8-1.6-1.6-3.2-2.4-4.7c0-0.1-0.1-0.1-0.1-0.2
		c-0.2-0.3-0.4-0.5-0.8-0.3c-0.4,0.2-0.4,0.5-0.3,0.8c0.1,0.3,0.2,0.5,0.3,0.7c1.2,2.4,2.4,4.7,3.5,7.1c0.2,0.4,0.3,0.7,0.3,1.1
		c-0.1,1.4-1.3,2.1-2.6,1.4c-1.9-1-3.7-2.1-5.6-3.1c-0.2-0.1-0.5-0.3-0.7-0.4c-0.3-0.1-0.5-0.1-0.7,0.2c-0.2,0.2-0.1,0.5,0.1,0.7
		c0.2,0.2,0.4,0.3,0.7,0.5c2,1.1,3.9,2.2,5.9,3.3c0.6,0.3,0.8,0.7,0.9,1.3c0.2,1.8,0.5,3.6,0.7,5.3c0.1,0.6,0.3,1,0.8,1.3
		C32.9,37.8,32.9,38.3,32.1,39.1z"/>
	<path class="st2" d="M32.1,39.1c0-0.1,0.1-0.1,0.1-0.2c0.1-0.4,0.4-0.7,0.4-1.1c0-0.4-0.5-0.4-0.8-0.7c-0.6-0.5-0.7-1.2-0.8-1.9
		c-0.2-1.7-0.5-3.4-0.7-5.1c0-0.4-0.2-0.5-0.5-0.7c-2.1-1.2-4.3-2.4-6.4-3.6c-0.3-0.2-0.5-0.3-0.6-0.7c-0.1-0.3,0.1-0.6,0.3-0.8
		c0.3-0.2,0.6-0.1,0.9,0.1c2,1.1,3.9,2.2,5.9,3.3c0.9,0.5,1.6,0.5,2.1-0.1c0.5-0.5,0.6-1.3,0.2-2.1c-1.3-2.6-2.6-5.2-3.9-7.8
		c-0.3-0.6-0.1-1,0.4-1.2c0.5-0.1,0.7,0.1,0.9,0.5c1.3,2.5,2.5,4.9,3.8,7.4c0.1,0.3,0.3,0.6,0.5,0.8c0.5,0.5,1,0.6,1.6,0.4
		c0.5-0.2,1-0.9,1-1.5c0-3.3,0-6.7,0-10c0-0.5,0.1-1,0.7-1c0.5-0.1,0.8,0.2,0.8,0.9c0,1.6,0,3.1,0,4.7c0,1.8,0,3.5,0,5.3
		c0,1.2,0.9,2.1,2.1,2.1c0.3,0,0.5,0,0.6-0.3c0.1-0.2,0.3-0.5,0.6-0.7c0.7-0.7,1.4-0.7,2.1-0.2c0.9,0.6,1.5,1.6,2.2,2.5
		c0.3,0.4,0.2,0.8-0.2,1c-0.4,0.3-0.7,0.2-1-0.2c-0.5-0.5-1-1.1-1.5-1.6c-0.2-0.3-0.4-0.3-0.6,0c-0.2,0.2-0.4,0.5-0.7,0.3
		c-0.2-0.1-0.2,0.2-0.3,0.3c-0.7,1.6-1.1,3.2-0.6,4.9c0.1,0.4-0.2,0.4-0.3,0.4c-1.5,0.6-2.7,1.6-3.3,3.1c-0.2,0.5-0.2,0.7,0.4,0.9
		c0.6,0.2,0.9,0.2,1.2-0.5c0.7-1.6,2.2-2.2,3.9-2.5c0.4-0.1,0.8-0.1,1.2-0.1c0.5,0.1,0.8-0.1,0.8-0.6c0-0.5,0.1-1,0.2-1.5
		c0.1-0.9,0.8-1.4,1.7-1.3c-0.3,1.2-0.2,2.5-0.4,3.7c0,0.3-0.1,0.5-0.3,0.7c-0.8,0.9-1.6,1.9-2.4,2.8c-0.4,0.6-0.9,0.9-1.6,0.8
		c-0.1,0-0.2,0-0.2,0c-1,0.1-1,0.1-1,1c0,0.2,0,0.3,0,0.5C37.6,39.4,34.9,39.3,32.1,39.1z"/>
	<path class="st0" d="M63.8,49.1c2.9,2.8,1.3,8-2.7,9.6c-2.5,0.9-4.9,0.8-7-1.1c-0.9-0.9-1.3-1.9-1.2-3.2c0-0.6,0.3-1,0.7-1.3
		c0.9-0.7,2-0.2,2.2,1c0.2,1.3,0.7,1.9,2,2c2.6,0.3,4.4-1.2,4-4c-0.2-1.1-1.2-1.7-2.3-1.4c-0.4,0.1-0.7,0.2-1.1,0.2
		c-0.8,0-1.3-0.4-1.5-1.1c-0.2-0.8,0.1-1.6,0.8-1.9c0.5-0.2,0.9-0.3,1.5-0.3c0.5,0,1.1-0.1,1.6-0.1c1.3-0.2,2.1-1.1,2.3-2.4
		c0.1-0.8-0.1-1.2-0.7-1.5c-0.6-0.3-1.3-0.2-1.8,0.3c-0.2,0.2-0.4,0.5-0.5,0.8c-0.4,0.8-1.4,1.1-2.2,0.8c-0.8-0.3-1-1.2-0.7-2.1
		c0.3-0.9,1-1.6,1.8-2c1.9-0.9,3.8-1,5.7,0.1c1.4,0.8,2.1,2,1.9,3.7C66.4,46.7,65.4,48.2,63.8,49.1z"/>
	<path class="st0" d="M40.9,49.3c-0.3,0-0.6,0.1-0.8,0c-0.6-0.3-0.7,0-0.8,0.5c-0.2,0.6-0.4,1.2-0.6,1.8c-0.2,0.4-0.5,0.7-0.9,0.8
		c-0.4,0.1-0.8,0.1-1.1-0.2c-0.3-0.3-0.2-0.6-0.1-1c1-2.9,2.1-5.9,3.1-8.8c0.1-0.3,0.2-0.6,0.4-0.9c0.3-0.5,0.8-0.7,1.3-0.5
		c0.5,0.2,0.7,0.7,0.5,1.3c-0.2,0.7-0.5,1.4-0.7,2.1c0.4,0,0.7,0,1.1,0.1c0.7,0.2,1.3,0.6,1.5,1.4c0.2,0.8,0,1.5-0.5,2.1
		c-0.2,0.2-0.4,0.4-0.2,0.8c0.2,0.5,0,1-0.2,1.5c-0.1,0.2-0.2,0.4,0,0.5c0.2,0.1,0.4,0.1,0.6,0c0.8-0.4,1.1-1.2,1.4-2
		c0.2-0.6,0.8-0.8,1.4-0.5c0.3,0.2,0.5,0.4,0.2,0.7c-0.2,0.3-0.3,0.6-0.3,0.9c-0.3,1.6-2.1,2.9-3.7,2.8c-1.4-0.2-2-1.1-1.7-2.5
		C40.8,49.8,40.8,49.6,40.9,49.3z"/>
	<path class="st0" d="M18.4,44.4C18.5,44.4,18.5,44.5,18.4,44.4c2.3-0.1,3.2,1.1,2.5,3.2c-0.3,0.8-0.6,1.7-0.9,2.5
		c-0.1,0.2-0.2,0.4,0,0.6c0.2,0.2,0.4,0.1,0.7,0c0.4-0.2,0.6-0.5,1-0.8c-0.2,0.7-0.2,1.3,0.2,1.8c0.1,0.2,0,0.3-0.2,0.4
		c-0.8,0.6-2.3,0.6-3.1,0c-0.7-0.5-0.9-1.3-0.6-2.2c0.3-0.9,0.6-1.9,1-2.8c0.1-0.3,0.2-0.6-0.1-0.8c-0.3-0.2-0.6,0-0.8,0.1
		c-0.4,0.2-0.6,0.6-0.7,1c-0.5,1.4-1,2.7-1.5,4.1c-0.1,0.2-0.1,0.3-0.2,0.5c-0.3,0.5-0.7,0.7-1.2,0.6c-0.5-0.2-0.7-0.6-0.7-1.1
		c0-0.2,0.1-0.5,0.2-0.7c1-2.9,2.1-5.7,3.1-8.6c0.1-0.3,0.2-0.6,0.5-0.8c0.3-0.2,0.6-0.4,1-0.2c0.4,0.2,0.6,0.5,0.6,0.9
		c0,0.3-0.1,0.6-0.2,0.9C18.8,43.3,18.6,43.8,18.4,44.4z"/>
	<path class="st0" d="M13.9,49.4c-0.1,0.4-0.3,0.9-0.4,1.3c-0.1,0.2-0.2,0.5-0.2,0.7c0.2,0.6-0.2,0.7-0.7,0.9
		c-1.4,0.4-2.8,0.4-4.1-0.2c-1.5-0.7-2.1-2.2-1.6-3.8c0.6-1.8,1.2-3.6,1.9-5.4c0.7-1.9,2.6-2.7,4.4-2.1c1.6,0.6,2.1,2.7,1,4
		c-0.4,0.4-1,0.6-1.4,0.3c-0.5-0.3-0.6-0.7-0.4-1.3c0.1-0.3,0.2-0.8-0.2-1c-0.4-0.2-0.8,0-1.1,0.4c-0.1,0.2-0.2,0.4-0.3,0.7
		c-0.5,1.4-1,2.9-1.5,4.3c-0.2,0.7-0.5,1.4,0.1,2c0.6,0.6,1.4,0.8,2.3,0.6C12.6,50.5,13.2,50,13.9,49.4z"/>
	<path class="st0" d="M29.8,49.7c0,0.6,0.2,1.1,0.5,1.5c0.2,0.3,0.2,0.4-0.1,0.6c-1.1,0.9-2.7,1-3.8,0.1c-0.2-0.2-0.3-0.2-0.5,0
		c-0.5,0.4-1,0.7-1.7,0.7c-1.6,0-2.5-1.2-2-2.7c0.5-1.4,1-2.8,1.5-4.2c0.1-0.2,0.1-0.3,0.2-0.5c0.3-0.7,0.8-0.9,1.4-0.7
		c0.6,0.2,0.8,0.7,0.5,1.4c-0.5,1.3-0.9,2.6-1.4,3.9c-0.1,0.3-0.4,0.7-0.1,1c0.4,0.3,0.7-0.1,1-0.4c0.4-0.3,0.6-0.7,0.8-1.2
		c0.4-1.2,0.9-2.5,1.3-3.7c0.1-0.2,0.2-0.4,0.3-0.6c0.3-0.5,0.8-0.6,1.3-0.4c0.5,0.2,0.7,0.6,0.5,1.2c-0.5,1.4-1,2.8-1.4,4.1
		c-0.1,0.2-0.1,0.3-0.2,0.5c-0.1,0.2-0.1,0.3,0,0.5c0.1,0.1,0.3,0.1,0.5,0.1C29.1,50.6,29.4,50.1,29.8,49.7z"/>
	<path class="st0" d="M49.8,52.6c-0.7,0-1.4-0.2-2-0.5c-1.6-1-1.6-3.1,0-4c0.2-0.1,0.3-0.3,0.4-0.5c0.5-0.9,0.9-1.7,1.4-2.6
		c0.3-0.5,0.6-0.9,1.3-0.9c0.5-0.1,1,0.1,1.2,0.6c0.2,0.5,0.2,1-0.2,1.3c-0.3,0.3-0.3,0.5-0.1,0.8c0.3,0.5,0.6,1,0.8,1.5
		C53.6,50.5,52.3,52.6,49.8,52.6z"/>
	<path class="st0" d="M36.7,49.4c-0.2,0.6-0.6,1.2-0.6,1.8c0,1-0.7,1.1-1.4,1.2c-0.9,0.2-1.8,0.1-2.6-0.3c-1.4-0.6-1.9-1.8-1.5-3.2
		c0.3-0.9,0.6-1.8,0.9-2.7c0.6-1.4,2.1-2.2,3.5-1.8c1.5,0.5,1.9,2.3,1,3.5c-0.3,0.4-0.8,0.5-1.3,0.3C34.2,48,34,47.6,34.3,47
		c0.1-0.3,0.3-0.6-0.1-0.8c-0.4-0.2-0.6,0.2-0.7,0.5c-0.3,0.8-0.6,1.6-0.8,2.4c-0.3,0.8,0.2,1.5,1.1,1.6c0.9,0.1,1.6-0.2,2.2-0.8
		C36.2,49.8,36.4,49.6,36.7,49.4C36.6,49.4,36.6,49.4,36.7,49.4z"/>
	<path class="st3" d="M40.5,57c-0.1,0-0.1,0-0.2,0c-0.8-0.4-0.8,0.2-1,0.7c0,0.1-0.1,0.3-0.2,0.4c-0.2,0.2-0.4,0.3-0.7,0.2
		c-0.3-0.1-0.4-0.3-0.3-0.6c0.5-1.5,1.1-3,1.6-4.5c0.2-0.4,0.5-0.6,0.9-0.3c0.2,0.2,0.4,0.1,0.7,0.1c1,0,1.5,0.6,1.2,1.5
		C42.5,55,42.3,55.5,42,56C41.8,56.7,41.2,57,40.5,57z"/>
	<path class="st3" d="M48.9,57c-0.4-0.2-0.7-0.1-0.8,0.4c0,0.1,0,0.1-0.1,0.2c-0.1,0.4-0.3,0.9-0.9,0.7c-0.6-0.2-0.2-0.7-0.1-1
		c0.4-1.2,0.9-2.5,1.3-3.7c0.1-0.4,0.3-0.7,0.8-0.5c0.4,0.2,0.3,0.5,0.2,0.9c-0.2,0.4-0.3,0.7,0.4,0.8c0.6,0.1,0.8,0.9,0.4,1.4
		c-0.3,0.4-0.2,0.9-0.3,1.3c-0.1,0.3,0.2,0.2,0.3,0.1c0.3-0.2,0.4-0.5,0.5-0.8c0.1-0.3,0.3-0.5,0.7-0.3c0.3,0.1,0.2,0.4,0.1,0.6
		c-0.2,0.4-0.4,0.8-0.7,1c-0.5,0.4-1,0.5-1.6,0.2C48.7,57.9,48.8,57.4,48.9,57z"/>
	<path class="st3" d="M48,41.4c-0.6-0.7-0.7-1.3-0.2-1.8c0.4-0.5,1.1-0.5,1.6-0.1c0.5,0.4,0.6,1,0.5,1.6c-0.2,1.1-1.7,1.9-2.8,1.4
		c-0.3-0.1-0.4-0.3-0.4-0.6c0.1-0.3,0.3-0.5,0.6-0.4C47.6,41.5,47.8,41.6,48,41.4z"/>
	<path class="st4" d="M46.9,57c-0.3,1.3-0.9,1.7-2,1.3c-0.7-0.2-1-0.8-0.8-1.5c0.1-0.5,0.3-1,0.5-1.4c0.3-0.6,1-0.9,1.6-0.6
		c0.5,0.2,0.7,0.6,0.6,1.2c-0.1,0.3-0.2,0.6-0.6,0.6c-0.4,0-0.5-0.3-0.3-0.7c0-0.1,0-0.2-0.1-0.3c-0.1,0-0.2,0-0.3,0.1
		c-0.2,0.5-0.4,0.9-0.5,1.4c-0.1,0.3,0.2,0.5,0.6,0.5C46.2,57.6,46.5,57.3,46.9,57z"/>
	<path class="st5" d="M43.9,56.9c-0.2,0.5,0.5,0.7,0,1.1c-0.4,0.3-1.1,0.4-1.5,0.1C42,57.9,41.9,57.5,42,57c0.2-0.6,0.4-1.3,0.7-1.9
		c0.1-0.3,0.3-0.6,0.7-0.4c0.4,0.1,0.3,0.5,0.2,0.7c-0.2,0.5-0.4,1.1-0.6,1.6c0,0.2-0.3,0.4,0,0.5c0.2,0.2,0.4,0,0.6-0.2
		C43.7,57.2,43.7,57.2,43.9,56.9z"/>
	<path class="st6" d="M43.7,53c0.5,0,0.6,0.2,0.6,0.5c0,0.4-0.2,0.5-0.5,0.5c-0.3,0-0.5-0.2-0.5-0.5C43.3,53.2,43.4,53,43.7,53z"/>
	<path class="st2" d="M26.4,23.6c-1,0-1.7-0.7-1.7-1.7c0-1,0.7-1.8,1.7-1.7c1,0,1.7,0.7,1.7,1.7C28.1,22.9,27.4,23.6,26.4,23.6z"/>
	<path class="st2" d="M34.6,15.9c0,1-0.7,1.8-1.7,1.8c-0.9,0-1.7-0.8-1.7-1.7c0-1,0.8-1.7,1.7-1.7C33.9,14.1,34.6,14.9,34.6,15.9z"
		/>
	<path class="st2" d="M43.3,20.8c0,0.9-0.7,1.7-1.7,1.8c-0.9,0-1.8-0.8-1.8-1.7c0-0.9,0.8-1.7,1.7-1.7
		C42.5,19.1,43.3,19.9,43.3,20.8z"/>
	<path class="st1" d="M32.5,19.2c0.5-0.1,0.9,0,1.4-0.1c0.4-0.1,0.7-0.3,1.2-0.5c0,1.8,0,3.6,0,5.3c0,0-0.1,0-0.1,0
		C34.1,22.3,33.3,20.7,32.5,19.2z"/>
	<path class="st1" d="M29.4,23.4c0.5,1.1,1,2,1.4,3c0,0-0.1,0.1-0.1,0.1c-0.9-0.5-1.8-1-2.7-1.5C28.5,24.5,29,24.1,29.4,23.4z"/>
	<path class="st7" d="M43.1,30.2c0-0.2,0.1-0.4,0.1-0.6c0-0.1,0-0.3,0.1-0.3c0.1,0,0.2,0.1,0.2,0.1c0.2,0.1,0.1,0.3,0,0.4
		C43.4,29.9,43.3,30,43.1,30.2C43.1,30.2,43.1,30.2,43.1,30.2z"/>
	<path class="st8" d="M39.6,23.4c0.2,0.2,0.6,0.2,0.5,0.5c0,0.1-0.2,0.3-0.4,0.3C39.5,24.1,39.6,23.8,39.6,23.4z"/>
	<path class="st9" d="M43.1,30.2C43.1,30.2,43.1,30.2,43.1,30.2c0.1,0.2,0.1,0.4,0.1,0.7C43,30.5,43.1,30.3,43.1,30.2z"/>
	<path class="st9" d="M40.2,47.3c0.1-0.5,0.2-0.8,0.6-1.1c0.3-0.2,0.6-0.3,1-0.2c0.2,0.1,0.3,0.3,0.2,0.5c-0.1,0.4-0.4,0.6-0.8,0.7
		C40.8,47.4,40.5,47.3,40.2,47.3z"/>
	<path class="st9" d="M50.3,48.5c0.2,0.4,0.4,0.7,0.4,1.2c0,0.5-0.1,0.9-0.6,1.1c-0.5,0.2-0.9,0.2-1.4-0.3c0.5-0.1,0.9-0.2,1.2-0.6
		c0.3-0.4,0.3-0.9,0.3-1.3C50.1,48.5,50.2,48.5,50.3,48.5z"/>
	<path class="st10" d="M50.3,48.5c0,0-0.1,0.1-0.1,0.1c-0.1-0.2-0.2-0.3-0.3-0.6C50.2,48.2,50.3,48.3,50.3,48.5z"/>
	<path class="st1" d="M41.6,54.4c-0.1,0.4-0.3,0.9-0.5,1.4c-0.1,0.2-0.4,0.3-0.6,0.2c-0.3-0.1-0.3-0.3-0.2-0.6
		c0.1-0.5,0.3-0.9,0.5-1.4c0.1-0.3,0.4-0.3,0.6-0.3C41.5,53.8,41.6,54,41.6,54.4z"/>
	<path class="st11" d="M49,56c-0.2,0-0.3,0-0.3-0.2c0.1-0.2,0.2-0.4,0.5-0.4c0.1,0,0.3,0.1,0.2,0.2C49.4,55.9,49.2,56,49,56z"/>
</g>
</svg>
