<svg id="Layer_1" data-name="Layer 1" xmlns="http://www.w3.org/2000/svg" viewBox="0 0 75 75"><defs><style>.cls-1{fill:#010101;}.cls-2{fill:#7fbb57;}.cls-3{fill:#fff;}.cls-4{fill:#010201;}.cls-5{fill:#020301;}.cls-6{fill:#020502;}.cls-7{fill:#030602;}.cls-8{fill:#050d03;}.cls-9{fill:#fefefe;}.cls-10{fill:#7fbb56;}.cls-11{fill:#7eba56;}.cls-12{fill:#77af50;}.cls-13{fill:#72a74d;}.cls-14{fill:#7db955;}.cls-15{fill:#7db855;}.cls-16{fill:#6ea24a;}.cls-17{fill:#71a64c;}</style></defs><title>group</title><path class="cls-1" d="M74,37.5c.61,18.88-15.6,37.07-37.41,36.56A36.57,36.57,0,1,1,38.61,1C59,1.5,74.55,18.81,74,37.5Z"/><path class="cls-2" d="M37.56,71.83a34.33,34.33,0,1,1,34.33-34.3A34.39,34.39,0,0,1,37.56,71.83Z"/><path class="cls-1" d="M32.28,39a3.43,3.43,0,0,1-2.56-3.13c-.22-1.53-.44-3.06-.62-4.6a.8.8,0,0,0-.47-.7l-5.75-3.22a2.2,2.2,0,0,1-1.26-2.31,2.1,2.1,0,0,1,1.68-1.94c.23-.06.26-.16.26-.38.05-2.48,1.13-3.54,3.6-3.55,0,0,.06,0,.13-.06a2.74,2.74,0,0,1-.32-2,2.29,2.29,0,0,1,2.61-1.6c.23,0,.37.08.52-.21C31.16,13.18,33,12.67,35,13.9c.11-.24.2-.49.33-.72a2.26,2.26,0,0,1,2.58-1,2.07,2.07,0,0,1,1.55,2.08c0,1.47,0,2.93,0,4.48a3.79,3.79,0,0,1,2.07-.62A3.17,3.17,0,0,1,44,23.15c-.24.32-.25.43.1.66a10.55,10.55,0,0,1,2.59,2.82A2,2,0,0,1,47,28.38a.5.5,0,0,0,.19.63,1.24,1.24,0,0,1,.45,1.26c-.3,1.32-.24,2.68-.41,4a1.55,1.55,0,0,1-.37.87c-1,1.14-2,2.28-2.92,3.45a2.14,2.14,0,0,1-1.37.83,6.5,6.5,0,0,1-2.24.16,1.81,1.81,0,0,1-.11-1.19.43.43,0,0,1,.3-.35.94.94,0,0,1,.47-.12,2.56,2.56,0,0,0,2.45-1.3A21.57,21.57,0,0,1,45,34.76a2.23,2.23,0,0,0,.63-1.42c0-.87.14-1.75.19-2.62,0-.43-.15-.46-.47-.29a1.22,1.22,0,0,0-.72,1c-.06.52-.08,1-.16,1.58a.7.7,0,0,1-.82.69,7,7,0,0,0-1.88.14,4.35,4.35,0,0,0-3.14,2.4c-.26.57-.57.57-1.46.22-.53-.21-.32-.62-.18-1a5.39,5.39,0,0,1,2.91-2.91.72.72,0,0,0,.48-1,7.06,7.06,0,0,1,.72-4.33A1.38,1.38,0,0,1,43.27,27a13.36,13.36,0,0,0,1.08,1.18c.22.2.47.35.76.13a.56.56,0,0,0,.1-.82,8.63,8.63,0,0,0-2-2.28,1.28,1.28,0,0,0-1.78.09,1.88,1.88,0,0,0-.35.34c-.33.45-.69.81-1.32.67A2.27,2.27,0,0,1,38,25.06a2.88,2.88,0,0,1-.18-1.2V14.93a3.76,3.76,0,0,0,0-.67.48.48,0,0,0-.47-.47.55.55,0,0,0-.57.38,2.09,2.09,0,0,0-.07.79c0,3,0,6,0,9a2.27,2.27,0,0,1-.11,1A1.68,1.68,0,0,1,35.18,26a1.63,1.63,0,0,1-1.6-.94c-.48-.89-1-1.79-1.43-2.7-.76-1.56-1.6-3.07-2.38-4.62a1.51,1.51,0,0,0-.11-.22.54.54,0,0,0-.76-.3c-.35.16-.37.46-.26.78a7.89,7.89,0,0,0,.33.72c1.17,2.32,2.33,4.63,3.43,7a2.09,2.09,0,0,1,.28,1.11,1.63,1.63,0,0,1-2.48,1.38c-1.84-1-3.64-2-5.46-3a4.73,4.73,0,0,0-.71-.36.5.5,0,0,0-.64.2.51.51,0,0,0,.09.67,2.44,2.44,0,0,0,.65.45c1.9,1.07,3.8,2.14,5.71,3.19a1.58,1.58,0,0,1,.86,1.3c.23,1.74.46,3.48.72,5.21a2,2,0,0,0,.75,1.28C33,37.77,33,38.23,32.28,39Z"/><path class="cls-3" d="M32.28,39l.08-.17a3.2,3.2,0,0,0,.34-1c0-.4-.52-.41-.79-.64a2.62,2.62,0,0,1-.75-1.86c-.23-1.68-.48-3.35-.69-5a.79.79,0,0,0-.49-.68l-6.27-3.51a1.05,1.05,0,0,1-.61-.63.76.76,0,0,1,.33-.8c.28-.22.58-.09.85.06q2.87,1.61,5.74,3.2a1.63,1.63,0,0,0,2.07-.05,1.74,1.74,0,0,0,.18-2.08c-1.25-2.55-2.51-5.09-3.75-7.64A.77.77,0,0,1,28.94,17c.44-.14.67.11.86.47,1.23,2.4,2.47,4.79,3.71,7.19a2.49,2.49,0,0,0,.48.77,1.45,1.45,0,0,0,1.57.37,1.61,1.61,0,0,0,1-1.42V14.58c0-.51.11-.94.72-1s.76.21.76.84c0,1.53,0,3.06,0,4.59v5.14a2,2,0,0,0,2,2,.55.55,0,0,0,.59-.3,2.83,2.83,0,0,1,.55-.65,1.47,1.47,0,0,1,2.09-.16,9.85,9.85,0,0,1,2.15,2.4.7.7,0,0,1-.21,1,.65.65,0,0,1-1-.16c-.48-.53-1-1-1.44-1.58-.21-.25-.35-.26-.58,0s-.34.45-.72.28c-.2-.1-.22.18-.28.31a6.8,6.8,0,0,0-.57,4.79c.1.35-.15.36-.34.44a5.68,5.68,0,0,0-3.25,3c-.21.48-.18.66.37.83s.86.19,1.16-.47c.73-1.58,2.19-2.15,3.79-2.41a4.11,4.11,0,0,1,1.16-.05c.53.07.75-.07.76-.63a12,12,0,0,1,.15-1.46,1.38,1.38,0,0,1,1.63-1.24c-.25,1.2-.21,2.43-.36,3.64a1.35,1.35,0,0,1-.31.7c-.79.91-1.59,1.81-2.32,2.75a1.81,1.81,0,0,1-1.59.83,2.42,2.42,0,0,0-.25,0c-.94.08-.94.08-.94,1,0,.16,0,.32,0,.49Z"/><path class="cls-1" d="M63.15,48.77c2.83,2.73,1.29,7.84-2.64,9.33-2.45.92-4.81.8-6.84-1.06a3.7,3.7,0,0,1-1.22-3.14,1.68,1.68,0,0,1,.72-1.29,1.33,1.33,0,0,1,2.16,1,2,2,0,0,0,2,2c2.49.32,4.26-1.22,3.87-3.87a1.73,1.73,0,0,0-2.21-1.36,3.54,3.54,0,0,1-1.08.18,1.48,1.48,0,0,1-1.46-1.08,1.69,1.69,0,0,1,.77-1.9,2.89,2.89,0,0,1,1.41-.32,9.19,9.19,0,0,0,1.58-.13,2.55,2.55,0,0,0,2.22-2.34,1.25,1.25,0,0,0-.7-1.47,1.54,1.54,0,0,0-1.75.28,3.26,3.26,0,0,0-.51.76,1.69,1.69,0,0,1-2.14.77,1.51,1.51,0,0,1-.69-2,3.47,3.47,0,0,1,1.77-1.95,5.78,5.78,0,0,1,5.56.06,3.44,3.44,0,0,1,1.9,3.6A5.11,5.11,0,0,1,63.15,48.77Z"/><path class="cls-1" d="M40.83,49.05c-.32,0-.63.09-.83,0-.57-.32-.64,0-.77.45-.19.58-.41,1.14-.61,1.72a1.15,1.15,0,0,1-.87.78,1,1,0,0,1-1-.23.86.86,0,0,1-.09-1c1-2.85,2-5.71,3-8.56a7.75,7.75,0,0,1,.35-.91,1,1,0,0,1,1.3-.49.93.93,0,0,1,.52,1.26c-.21.69-.47,1.38-.71,2.08a5.22,5.22,0,0,1,1.06.06,1.89,1.89,0,0,1,1.45,1.34,2,2,0,0,1-.53,2.07c-.22.23-.37.37-.22.76a2.27,2.27,0,0,1-.19,1.48c0,.15-.2.37,0,.51a.56.56,0,0,0,.58-.05,3.5,3.5,0,0,0,1.35-2A.93.93,0,0,1,46,47.85c.32.16.46.35.22.72a2.48,2.48,0,0,0-.31.85,3.51,3.51,0,0,1-3.58,2.68,1.77,1.77,0,0,1-1.64-2.42A5.38,5.38,0,0,1,40.83,49.05Z"/><path class="cls-1" d="M18.91,44.22c.06,0,.08.06.1.06,2.15-.21,3.06,1,2.34,3-.29.83-.58,1.65-.88,2.47-.07.2-.18.4,0,.56a.57.57,0,0,0,.64,0c.37-.16.59-.5,1-.82a2,2,0,0,0,.2,1.78c.15.2,0,.27-.14.37a2.82,2.82,0,0,1-3,0,1.87,1.87,0,0,1-.62-2.19c.28-.91.61-1.81.92-2.71.1-.27.24-.55-.06-.77s-.55,0-.78.14a1.88,1.88,0,0,0-.69,1c-.46,1.33-.94,2.64-1.42,4a2.58,2.58,0,0,1-.18.46.93.93,0,0,1-1.15.54A.92.92,0,0,1,14.5,51a3,3,0,0,1,.18-.7l3-8.38a1.8,1.8,0,0,1,.49-.83.86.86,0,0,1,.95-.21.88.88,0,0,1,.56.86,2.68,2.68,0,0,1-.2.89Z"/><path class="cls-1" d="M14.54,49.15c-.15.41-.3.83-.43,1.25-.07.21-.22.45-.17.64.18.61-.22.71-.64.83a5.3,5.3,0,0,1-4-.24A3,3,0,0,1,7.74,48c.57-1.78,1.17-3.55,1.84-5.29a3.29,3.29,0,0,1,4.31-2,2.51,2.51,0,0,1,1,3.9,1.11,1.11,0,0,1-1.37.31.9.9,0,0,1-.39-1.26c.14-.34.24-.76-.18-1a.88.88,0,0,0-1.08.35,2.46,2.46,0,0,0-.32.65c-.5,1.39-1,2.79-1.5,4.19-.24.66-.53,1.33.07,1.93a2.4,2.4,0,0,0,2.26.62A4.48,4.48,0,0,0,14.54,49.15Z"/><path class="cls-1" d="M30,49.35a2.35,2.35,0,0,0,.46,1.47c.19.24.18.39-.06.6a2.82,2.82,0,0,1-3.68.07c-.2-.18-.29-.18-.48,0a2.48,2.48,0,0,1-1.66.68,1.87,1.87,0,0,1-1.94-2.6c.47-1.38,1-2.75,1.47-4.13.06-.15.1-.31.17-.46a1,1,0,0,1,1.36-.67c.54.2.74.69.5,1.36-.45,1.27-.92,2.52-1.36,3.78-.11.31-.42.71-.07,1s.72-.09,1-.35a2.69,2.69,0,0,0,.77-1.16c.42-1.2.86-2.41,1.29-3.61a3.05,3.05,0,0,1,.27-.61.94.94,0,0,1,1.24-.35.85.85,0,0,1,.51,1.15c-.46,1.34-.93,2.68-1.4,4-.05.15-.12.3-.17.46a.43.43,0,0,0,0,.46.47.47,0,0,0,.51.06C29.33,50.28,29.62,49.82,30,49.35Z"/><path class="cls-1" d="M49.44,52.25a3.79,3.79,0,0,1-1.92-.52,2.25,2.25,0,0,1,0-3.95,1,1,0,0,0,.38-.45c.45-.84.89-1.68,1.35-2.52a1.5,1.5,0,0,1,1.22-.9,1,1,0,0,1,1.14.61,1,1,0,0,1-.23,1.28c-.34.26-.29.48-.13.77.26.48.54,1,.79,1.45A2.76,2.76,0,0,1,49.44,52.25Z"/><path class="cls-4" d="M36.68,49.14a6,6,0,0,0-.58,1.71c0,1-.69,1.08-1.41,1.2a4.21,4.21,0,0,1-2.5-.29,2.49,2.49,0,0,1-1.48-3.16c.26-.87.56-1.74.9-2.59A2.81,2.81,0,0,1,35,44.3a2.18,2.18,0,0,1,1,3.41A.93.93,0,0,1,34.7,48a.8.8,0,0,1-.36-1.15c.13-.28.31-.63-.09-.78s-.6.18-.71.5c-.28.76-.56,1.53-.81,2.3a1.18,1.18,0,0,0,1.09,1.59A2.76,2.76,0,0,0,36,49.68c.2-.19.39-.39.59-.59Z"/><path class="cls-4" d="M40.43,56.53c-.06,0-.14,0-.18,0-.74-.42-.83.16-1,.63a1.53,1.53,0,0,1-.17.39.5.5,0,0,1-.65.18.44.44,0,0,1-.26-.6c.52-1.48,1-3,1.57-4.42.15-.42.49-.63.92-.33.22.16.43.09.64.09,1,0,1.46.6,1.2,1.5a12.71,12.71,0,0,1-.58,1.6A1.55,1.55,0,0,1,40.43,56.53Z"/><path class="cls-5" d="M48.63,56.48c-.41-.16-.68-.07-.75.39a1.22,1.22,0,0,1-.07.17c-.13.42-.28.91-.84.71s-.17-.67-.06-1c.4-1.21.84-2.41,1.26-3.62.12-.37.3-.68.73-.51s.3.53.17.83-.29.69.37.78a.84.84,0,0,1,.42,1.34c-.34.41-.15.86-.3,1.27s.2.17.32.08a1.49,1.49,0,0,0,.5-.75c.11-.32.33-.48.65-.33s.19.38.1.62a2.09,2.09,0,0,1-.67,1,1.33,1.33,0,0,1-1.53.24C48.42,57.44,48.52,56.94,48.63,56.48Z"/><path class="cls-5" d="M47.75,41.3c-.59-.71-.65-1.23-.2-1.73a1.16,1.16,0,0,1,1.59-.12A1.46,1.46,0,0,1,49.61,41a2.13,2.13,0,0,1-2.73,1.36c-.25-.11-.41-.28-.35-.55a.5.5,0,0,1,.59-.42A.73.73,0,0,0,47.75,41.3Z"/><path class="cls-6" d="M46.7,56.49c-.32,1.3-.87,1.63-1.92,1.25a1.17,1.17,0,0,1-.8-1.5,9.73,9.73,0,0,1,.49-1.37A1.27,1.27,0,0,1,46,54.24a.94.94,0,0,1,.57,1.15c-.06.33-.21.63-.58.59s-.51-.29-.33-.66c0-.1,0-.21-.09-.25a.18.18,0,0,0-.24.12,8,8,0,0,0-.44,1.33c-.05.32.23.48.56.51A1.6,1.6,0,0,0,46.7,56.49Z"/><path class="cls-7" d="M43.71,56.46c-.16.5.48.73,0,1.11a1.31,1.31,0,0,1-1.49.09.88.88,0,0,1-.35-1.12c.21-.63.42-1.26.65-1.89.11-.32.32-.55.68-.43s.3.45.21.72c-.16.52-.37,1-.53,1.55,0,.15-.26.35,0,.49s.42,0,.57-.21Z"/><path class="cls-8" d="M43.52,52.61c.44,0,.61.17.61.52a.52.52,0,0,1-1,0C43.1,52.84,43.24,52.6,43.52,52.61Z"/><path class="cls-9" d="M26.71,24a1.67,1.67,0,1,1,1.64-1.66A1.6,1.6,0,0,1,26.71,24Z"/><path class="cls-9" d="M34.72,16.39a1.67,1.67,0,1,1-3.33,0,1.67,1.67,0,1,1,3.33,0Z"/><path class="cls-9" d="M43.16,21.21a1.69,1.69,0,0,1-1.63,1.71,1.68,1.68,0,1,1-.06-3.36A1.69,1.69,0,0,1,43.16,21.21Z"/><path class="cls-10" d="M32.6,19.61a9,9,0,0,0,1.32-.12A11.18,11.18,0,0,0,35.05,19v5.17l-.09,0Z"/><path class="cls-11" d="M29.57,23.71,31,26.59l-.12.09L28.18,25.2A4.26,4.26,0,0,0,29.57,23.71Z"/><path class="cls-12" d="M42.93,30.34l.09-.59c0-.12,0-.27.15-.32s.17.08.24.14.07.25,0,.36l-.35.41C43,30.4,43,30.4,42.93,30.34Z"/><path class="cls-13" d="M39.52,23.75c.21.2.55.16.51.48,0,.11-.19.34-.34.27S39.5,24.11,39.52,23.75Z"/><path class="cls-14" d="M42.93,30.34H43v.71A1,1,0,0,1,42.93,30.34Z"/><path class="cls-15" d="M40.1,47.1a1.59,1.59,0,0,1,.56-1,.84.84,0,0,1,1-.16.43.43,0,0,1,.18.54.88.88,0,0,1-.79.66C40.73,47.12,40.44,47.1,40.1,47.1Z"/><path class="cls-14" d="M50,48.22a2.35,2.35,0,0,1,.38,1.14,1.06,1.06,0,0,1-.58,1.11,1.14,1.14,0,0,1-1.34-.26,1.77,1.77,0,0,0,1.18-.57,1.75,1.75,0,0,0,.25-1.28C49.81,48.24,49.87,48.21,50,48.22Z"/><path class="cls-16" d="M50,48.22l-.11.14-.33-.55A.59.59,0,0,1,50,48.22Z"/><path class="cls-11" d="M41.46,53.94c-.14.39-.3.89-.51,1.36a.47.47,0,0,1-.63.23.4.4,0,0,1-.24-.55,13.82,13.82,0,0,1,.49-1.36.5.5,0,0,1,.61-.27C41.44,53.4,41.45,53.62,41.46,53.94Z"/><path class="cls-17" d="M48.7,55.51c-.15,0-.33,0-.28-.17a.48.48,0,0,1,.47-.39c.13,0,.26.08.24.21A.38.38,0,0,1,48.7,55.51Z"/></svg>