<?xml version="1.0" encoding="utf-8"?>
<!-- Generator: Adobe Illustrator 22.0.1, SVG Export Plug-In . SVG Version: 6.00 Build 0)  -->
<svg version="1.1" id="Layer_1" xmlns="http://www.w3.org/2000/svg" xmlns:xlink="http://www.w3.org/1999/xlink" x="0px" y="0px"
	 viewBox="0 0 296 239" style="enable-background:new 0 0 296 239;" xml:space="preserve">
<style type="text/css">
	.st0{fill:#3466AA;}
</style>
<title>graphics</title>
<rect x="114.5" y="89.9" transform="matrix(0.7071 -0.7071 0.7071 0.7071 -27.8767 115.5538)" class="st0" width="22" height="3.2"/>
<path class="st0" d="M111.1,77c-3.9,3.9-4.3,10-1,14.4L125.5,76C121.1,72.7,115,73.1,111.1,77z"/>
<rect x="110.1" y="85.4" transform="matrix(0.7071 -0.7071 0.7071 0.7071 -26.0344 111.1015)" class="st0" width="22" height="3.2"/>
<path class="st0" d="M173,132.2L137.8,97c-0.6-0.6-0.6-1.6,0-2.2c0.6-0.6,1.6-0.6,2.2,0l35.2,35.2l5,0.6L136.7,87l-15.6,15.6
	l43.5,43.5l-0.6-5l-35.2-35.2c-0.6-0.6-0.6-1.6,0-2.2c0.6-0.6,1.6-0.6,2.2,0l35.2,35.2l7.5,0.8L173,132.2z"/>
<path class="st0" d="M176.3,133.2l0.9,8.1c0,0.1,0,0.2,0,0.3c0,0,0,0.1,0,0.1c0,0.1,0,0.2-0.1,0.3c0,0.1-0.1,0.2-0.1,0.3
	c0,0.1-0.1,0.1-0.2,0.2c-0.1,0.1-0.2,0.2-0.2,0.2c-0.1,0.1-0.1,0.1-0.2,0.1c-0.1,0-0.2,0.1-0.3,0.1l-0.2,0.1h-0.4l-8-0.9l0.8,7
	l16.9,4l-1.2-1.2c-0.5-0.7-0.3-1.7,0.4-2.2c0.5-0.4,1.2-0.4,1.7-0.1l1.2,1.2l-4-16.9L176.3,133.2z"/>
<path d="M191.6,155.9c0-0.1,0-0.2,0-0.3l-5.6-23.3c0,0,0,0,0-0.1c0-0.1,0-0.1,0-0.2c0-0.1-0.1-0.3-0.2-0.4c0,0-0.1-0.1-0.1-0.1
	c0,0,0-0.1-0.1-0.1l-56.8-56.7c-5.8-5.2-14.8-4.8-20,1c-4.9,5.4-4.9,13.6,0,19l56.7,56.7l0,0l0.1,0.1c0.1,0.1,0.2,0.1,0.3,0.2
	l0.2,0.1c0,0,0.1,0,0.1,0.1l23.4,5.6c0.1,0,0.2,0,0.4,0c0.2,0,0.4,0,0.6-0.1c0.2-0.1,0.4-0.2,0.5-0.3c0.1-0.1,0.2-0.3,0.3-0.5
	l0.1-0.1C191.6,156.2,191.6,156,191.6,155.9C191.6,155.8,191.6,155.9,191.6,155.9z M111.1,77c3.9-3.9,10-4.3,14.4-1l-15.4,15.3
	C106.8,87,107.2,80.9,111.1,77z M112.2,93.7l15.6-15.6l2.2,2.2l-15.6,15.6L112.2,93.7z M116.6,98.1l15.6-15.6l2.2,2.2l-15.6,15.6
	L116.6,98.1z M166.3,138.9l-35.2-35.2c-0.6-0.6-1.6-0.6-2.2,0c-0.6,0.6-0.6,1.6,0,2.2l0,0l35.2,35.2l0.6,5l-43.5-43.5L136.7,87
	l43.5,43.5l-5-0.6L140,94.8c-0.6-0.6-1.6-0.6-2.2,0c-0.6,0.6-0.6,1.6,0,2.2l35.2,35.2l0.8,7.5L166.3,138.9z M186,149.7
	c-0.6-0.6-1.6-0.6-2.2,0c-0.6,0.6-0.6,1.6,0,2.2l1.2,1.2l-16.9-4l-0.8-7l8,0.9h0.4l0.2-0.1c0.1,0,0.2-0.1,0.3-0.1
	c0.1,0,0.2-0.1,0.2-0.1c0.1-0.1,0.2-0.1,0.2-0.2c0.1-0.1,0.1-0.1,0.2-0.2c0.1-0.1,0.1-0.2,0.1-0.3c0-0.1,0.1-0.2,0.1-0.3
	c0,0,0-0.1,0-0.1c0-0.1,0-0.2,0-0.3l-0.9-8.1l7,0.8l4,16.9L186,149.7z"/>
<polygon points="287.9,84 258.2,113.7 147.6,3 113,37.6 118.6,43.2 147.6,14.1 154.3,20.9 154.2,20.9 155.1,21.8 155.1,21.7 
	156.9,23.5 156.9,23.6 158.3,25.1 158.3,24.9 252.6,119.2 218.9,152.9 224.5,158.5 293.5,89.6 "/>
<polygon points="148,224.9 42.9,119.9 76.6,86.2 71,80.6 2.1,149.5 7.7,155.1 37.3,125.4 148,236.1 182.6,201.5 177,195.9 "/>
</svg>
