<?xml version="1.0" standalone="no"?>
<!DOCTYPE svg PUBLIC "-//W3C//DTD SVG 20010904//EN"
 "http://www.w3.org/TR/2001/REC-SVG-20010904/DTD/svg10.dtd">
<svg version="1.0" xmlns="http://www.w3.org/2000/svg"
 width="1008.000000pt" height="1008.000000pt" viewBox="0 0 1008.000000 1008.000000"
 preserveAspectRatio="xMidYMid meet">
<metadata>
Created by potrace 1.11, written by Peter Selinger 2001-2013
</metadata>
<g transform="translate(0.000000,1008.000000) scale(0.100000,-0.100000)"
fill="#000000" stroke="none">
<path d="M4437 8412 l-587 -587 95 -94 c52 -52 99 -91 103 -88 4 4 226 226
494 493 l486 487 1787 -1788 1787 -1788 -573 -573 -573 -573 95 -96 94 -95
1167 1167 c642 643 1170 1171 1173 1174 7 7 -175 191 -186 187 -5 -2 -233
-227 -508 -501 l-498 -499 -1881 1881 c-1034 1035 -1882 1881 -1884 1881 -1 0
-267 -264 -591 -588z"/>
<path d="M4946 8097 c-9 -7 -18 -19 -19 -27 -2 -8 -5 -19 -8 -25 -7 -12 -3
-151 5 -184 9 -40 29 -51 96 -56 114 -7 137 22 133 174 -3 86 -16 117 -55 125
-52 10 -133 7 -152 -7z m156 -35 c18 -18 16 -188 -3 -207 -15 -15 -89 -27 -89
-15 0 5 -9 6 -19 3 -15 -4 -21 3 -30 30 -13 38 -9 173 5 187 21 19 117 21 136
2z"/>
<path d="M4792 7738 c-40 -11 -54 -47 -54 -144 0 -128 19 -154 115 -156 99 -3
116 14 122 120 6 100 -4 151 -31 169 -26 17 -106 23 -152 11z m129 -38 c20
-13 22 -195 1 -212 -21 -18 -104 -21 -126 -5 -16 11 -19 27 -19 94 1 92 7 120
31 126 31 7 98 5 113 -3z"/>
<path d="M5121 7739 c-58 -12 -66 -28 -68 -137 -2 -136 14 -160 102 -164 60
-3 114 13 121 35 13 39 15 51 14 122 0 88 -15 134 -43 139 -52 11 -94 12 -126
5z m120 -50 c13 -26 14 -188 1 -201 -5 -5 -37 -12 -71 -15 -59 -6 -61 -5 -71
21 -11 29 -13 147 -4 183 6 23 24 29 91 32 34 1 45 -3 54 -20z"/>
<path d="M4549 7698 c-21 -23 -39 -48 -39 -55 0 -24 25 -14 57 24 26 29 32 33
32 17 0 -10 1 -70 2 -131 2 -102 4 -113 21 -113 10 0 18 7 19 18 2 79 1 171
-3 178 -3 5 -2 17 1 28 4 10 5 31 3 47 -7 44 -44 39 -93 -13z"/>
<path d="M5393 7692 c-36 -40 -40 -48 -26 -56 12 -7 24 0 50 30 l33 39 0 -133
c0 -124 1 -132 19 -132 19 0 20 9 23 128 4 167 3 172 -30 171 -19 0 -40 -14
-69 -47z"/>
<path d="M4183 7282 c-32 -36 -39 -50 -30 -60 9 -11 17 -7 43 22 18 20 34 36
37 36 3 0 5 -34 5 -75 0 -41 3 -78 6 -84 4 -5 3 -12 -2 -15 -4 -2 -6 -22 -4
-44 3 -33 7 -39 23 -35 17 5 19 15 17 102 -1 53 1 102 5 108 4 6 4 14 -1 16
-4 3 -7 21 -6 40 2 30 -1 34 -25 35 -19 0 -37 -12 -68 -46z"/>
<path d="M4435 7322 c-37 -28 -75 -80 -69 -96 6 -15 12 -12 45 20 22 21 39 34
40 29 0 -6 0 -62 -1 -127 -1 -64 3 -119 7 -121 30 -19 38 41 34 266 -1 32 -4
37 -23 37 -13 0 -27 -4 -33 -8z"/>
<path d="M4611 7321 c-8 -5 -17 -18 -19 -28 -10 -39 -14 -139 -7 -188 5 -42
11 -54 33 -67 33 -18 144 -17 167 2 24 20 35 80 31 163 -5 112 -16 124 -113
126 -43 1 -84 -3 -92 -8z m153 -41 c6 -6 12 -50 13 -101 2 -109 -5 -119 -82
-119 -65 0 -76 14 -77 93 -1 119 0 125 30 135 34 12 101 7 116 -8z"/>
<path d="M4934 7283 c-35 -36 -41 -47 -31 -58 10 -11 18 -7 47 23 l35 37 3
-125 c3 -118 10 -148 34 -134 4 3 8 72 8 153 l0 149 -27 0 c-19 0 -40 -14 -69
-45z"/>
<path d="M5153 7320 c-13 -5 -23 -17 -24 -27 0 -10 -3 -27 -6 -38 -9 -37 -9
-130 1 -169 12 -49 48 -66 131 -60 97 6 105 27 96 231 -2 53 -33 73 -110 72
-36 0 -76 -4 -88 -9z m153 -31 c17 -28 20 -153 5 -191 -8 -21 -18 -28 -38 -30
-40 -2 -95 1 -99 5 -19 18 -20 195 -2 213 20 20 122 22 134 3z"/>
<path d="M5473 7283 c-23 -26 -39 -51 -37 -55 10 -16 33 -7 54 22 12 17 25 28
29 25 5 -2 8 -55 7 -116 -2 -83 1 -115 12 -125 7 -8 17 -12 21 -9 5 2 8 71 7
152 l-1 148 -25 3 c-20 2 -35 -8 -67 -45z"/>
<path d="M5685 7316 c-21 -15 -25 -29 -29 -111 -4 -74 7 -142 27 -162 19 -19
111 -25 156 -9 42 14 52 41 53 147 0 85 -7 118 -31 136 -22 17 -152 17 -176
-1z m162 -44 c8 -34 8 -142 -1 -176 -5 -19 -13 -26 -34 -28 -57 -3 -95 1 -106
12 -12 12 -15 194 -3 206 10 10 86 21 115 16 14 -3 25 -14 29 -30z"/>
<path d="M3911 6901 c-33 -26 -44 -112 -26 -226 7 -52 29 -64 118 -66 91 -3
116 34 113 170 -2 80 -19 126 -48 129 -101 9 -138 7 -157 -7z m155 -34 c13
-13 10 -195 -3 -208 -7 -7 -37 -13 -69 -14 -54 -2 -57 -1 -69 27 -17 43 -10
179 11 195 17 12 118 13 130 0z"/>
<path d="M4259 6910 c-36 -9 -52 -52 -51 -144 0 -130 20 -157 113 -158 107 0
128 28 124 170 -2 86 -20 131 -53 133 -71 4 -112 4 -133 -1z m136 -53 c16 -23
17 -171 0 -194 -15 -20 -107 -26 -132 -8 -25 18 -25 192 0 210 26 19 116 13
132 -8z"/>
<path d="M4840 6913 c-59 -8 -69 -13 -78 -45 -14 -45 -15 -164 -1 -205 14 -45
37 -54 119 -52 94 3 103 13 108 128 5 103 -9 158 -41 166 -33 8 -79 11 -107 8z
m101 -54 c11 -17 8 -194 -4 -205 -15 -15 -127 -10 -137 6 -11 16 -13 152 -4
187 3 12 13 24 23 26 32 9 113 0 122 -14z"/>
<path d="M5555 6912 c-44 -4 -58 -34 -61 -129 -3 -98 11 -152 44 -164 32 -12
129 -11 153 2 28 15 40 54 40 131 0 89 -10 137 -30 147 -18 10 -101 17 -146
13z m117 -41 c11 -2 24 -55 22 -96 -1 -22 -2 -53 -3 -70 -1 -16 -5 -36 -10
-44 -10 -15 -111 -24 -132 -11 -15 10 -24 112 -15 174 5 30 13 46 24 49 15 3
95 2 114 -2z"/>
<path d="M3680 6864 c-33 -36 -39 -48 -29 -55 12 -7 57 23 80 55 4 5 7 -44 7
-110 0 -151 -1 -144 20 -144 17 0 18 12 18 150 l0 150 -27 0 c-19 0 -39 -13
-69 -46z"/>
<path d="M4562 6861 c-35 -41 -39 -50 -25 -56 12 -4 27 5 50 32 l32 38 1 -132
c0 -126 1 -133 20 -133 19 0 20 7 20 150 l0 150 -28 0 c-22 0 -39 -12 -70 -49z"/>
<path d="M5104 6865 c-34 -36 -39 -46 -28 -56 11 -9 21 -3 49 26 l35 38 1
-109 c1 -60 0 -119 -1 -131 -1 -17 4 -23 19 -23 18 0 20 7 23 73 2 39 2 107 0
150 -3 76 -4 77 -30 77 -19 0 -39 -13 -68 -45z"/>
<path d="M5312 6867 c-47 -48 -49 -52 -26 -61 10 -4 25 5 42 24 15 16 30 30
34 30 5 0 7 -54 7 -120 -1 -67 1 -123 4 -127 3 -3 13 -3 21 0 11 5 14 33 14
151 l0 146 -27 0 c-18 0 -40 -14 -69 -43z"/>
<path d="M5823 6862 c-36 -39 -40 -48 -26 -55 12 -7 24 0 49 27 18 20 34 36
36 36 2 0 2 -58 2 -130 -2 -106 1 -130 12 -130 27 0 32 47 25 273 -1 23 -5 27
-28 26 -20 0 -40 -13 -70 -47z"/>
<path d="M6032 6867 c-31 -31 -39 -46 -32 -57 8 -12 16 -8 48 23 l38 37 0
-127 c0 -121 1 -128 19 -128 19 0 20 8 22 148 l2 147 -27 0 c-19 0 -41 -13
-70 -43z"/>
<path d="M6248 6869 c-40 -44 -45 -54 -27 -65 7 -4 26 10 45 32 l33 39 2 -115
c1 -63 1 -123 0 -132 -2 -12 5 -18 18 -18 20 0 21 5 21 150 l0 150 -27 -1
c-19 0 -40 -13 -65 -40z"/>
<path d="M3264 6493 c-26 -19 -37 -61 -36 -138 0 -44 3 -89 6 -100 2 -11 5
-24 5 -28 2 -20 73 -37 129 -32 61 6 91 28 93 69 8 144 -1 211 -30 225 -22 10
-153 13 -167 4z m150 -44 c10 -9 17 -158 9 -189 -6 -23 -28 -31 -84 -32 -61
-1 -71 16 -72 109 0 100 7 121 41 125 36 5 95 -2 106 -13z"/>
<path d="M3587 6454 c-50 -48 -53 -54 -35 -65 9 -6 25 3 49 27 l36 35 1 -113
c0 -152 -1 -147 20 -145 17 1 18 13 19 151 l0 151 -24 0 c-15 0 -41 -16 -66
-41z"/>
<path d="M3794 6453 c-35 -36 -42 -48 -33 -59 9 -11 17 -7 45 21 18 19 35 35
37 35 2 0 4 -57 3 -127 -1 -112 1 -126 17 -129 9 -1 18 1 18 4 5 22 4 292 0
293 -3 0 -14 2 -24 4 -12 2 -35 -14 -63 -42z"/>
<path d="M4000 6455 c-33 -33 -40 -47 -33 -60 8 -14 14 -12 41 19 17 20 34 36
36 36 3 0 7 -57 8 -127 3 -111 5 -126 21 -129 19 -2 18 -5 18 161 0 150 2 143
-25 143 -15 0 -40 -16 -66 -43z"/>
<path d="M4225 6486 c-35 -15 -39 -28 -38 -149 0 -123 11 -139 100 -143 103
-5 132 25 133 142 2 137 -15 162 -108 162 -32 0 -71 -6 -87 -12z m126 -25 c22
-1 35 -59 31 -143 -2 -55 -7 -70 -22 -78 -28 -15 -109 -15 -123 -1 -14 14 -19
178 -6 203 8 15 53 26 89 22 8 -2 22 -3 31 -3z"/>
<path d="M4544 6492 c-34 -22 -52 -155 -31 -232 13 -50 29 -63 87 -66 66 -3
117 12 131 37 24 45 17 206 -10 249 -11 16 -156 26 -177 12z m138 -37 c31 -12
36 -181 6 -211 -18 -18 -114 -22 -131 -5 -10 10 -18 144 -10 185 8 38 78 54
135 31z"/>
<path d="M4873 6490 c-54 -23 -57 -251 -4 -284 19 -12 74 -16 124 -10 66 8 77
31 74 162 -3 126 -8 133 -104 138 -37 2 -78 0 -90 -6z m145 -47 c13 -18 15
-36 14 -120 -1 -68 -14 -90 -54 -94 -92 -10 -108 7 -108 116 0 84 11 113 47
117 49 6 88 -1 101 -19z"/>
<path d="M5194 6454 c-37 -38 -43 -49 -33 -61 11 -12 17 -9 44 21 18 20 34 36
37 36 3 0 5 -54 4 -121 0 -72 3 -124 9 -129 26 -21 32 9 31 149 -1 142 -1 144
-24 147 -16 3 -35 -9 -68 -42z"/>
<path d="M5407 6487 c-23 -18 -34 -73 -30 -157 3 -97 3 -97 24 -116 23 -21
123 -27 165 -9 39 16 48 46 46 157 -1 84 -12 115 -46 128 -34 13 -141 11 -159
-3z m151 -32 c20 -19 22 -186 2 -210 -15 -17 -125 -21 -135 -5 -10 16 -16 131
-9 172 5 32 11 39 37 46 28 8 96 5 105 -3z"/>
<path d="M5729 6458 c-21 -21 -39 -45 -39 -53 0 -28 20 -24 47 10 15 19 31 35
34 35 3 0 5 -51 4 -112 -1 -118 6 -151 29 -142 10 4 13 37 12 152 -1 146 -1
147 -24 148 -14 1 -38 -13 -63 -38z"/>
<path d="M5940 6493 c-23 -6 -36 -50 -39 -130 -3 -84 12 -148 37 -158 61 -24
176 -9 187 24 6 20 17 90 17 106 -4 102 -20 154 -50 156 -49 5 -139 6 -152 2z
m118 -32 c15 -1 26 -10 32 -27 12 -30 15 -142 5 -173 -12 -40 -125 -47 -146
-9 -14 25 -13 162 1 188 10 18 39 28 70 24 8 -1 25 -3 38 -3z"/>
<path d="M6252 6480 c-19 -23 -22 -36 -24 -115 -5 -159 18 -180 184 -166 31 2
49 46 53 123 4 75 -9 153 -28 165 -5 3 -46 7 -89 9 -68 2 -82 0 -96 -16z m162
-31 c5 -4 10 -46 12 -93 4 -116 -8 -130 -108 -127 -52 1 -56 19 -49 188 1 25
7 33 29 41 30 10 102 5 116 -9z"/>
<path d="M6588 6489 c-32 -20 -45 -184 -19 -247 9 -21 24 -35 45 -41 40 -13
136 -6 151 11 22 23 31 71 29 148 -2 103 -13 126 -61 135 -47 7 -128 4 -145
-6z m156 -39 c11 -11 16 -138 7 -182 -6 -31 -13 -35 -71 -39 -61 -3 -69 0 -78
34 -5 17 -7 55 -6 82 1 28 2 62 3 77 1 22 7 29 34 36 37 10 98 5 111 -8z"/>
<path d="M1252 5188 l-1172 -1173 93 -93 c50 -50 96 -91 100 -89 5 1 233 227
507 502 l499 499 1882 -1883 1882 -1883 588 588 589 589 -38 38 c-68 72 -144
142 -153 142 -5 0 -229 -219 -497 -488 l-489 -487 -1786 1787 -1787 1788 573
572 572 573 -95 95 -95 95 -1173 -1172z"/>
<path d="M3110 6064 c-30 -13 -40 -47 -40 -144 0 -102 9 -128 46 -140 68 -23
173 -9 175 22 0 7 3 22 5 33 8 33 7 148 0 183 -4 18 -17 37 -28 43 -28 15
-124 17 -158 3z m144 -56 c7 -16 11 -62 10 -105 -3 -94 -14 -106 -92 -100 -29
3 -56 8 -59 11 -4 3 -7 47 -9 97 -3 112 7 126 86 126 48 0 53 -2 64 -29z"/>
<path d="M3638 6068 c-37 -13 -51 -67 -46 -172 5 -96 14 -114 69 -125 47 -10
127 2 146 22 13 13 17 38 19 109 2 112 -8 156 -39 163 -40 10 -123 11 -149 3z
m143 -55 c11 -30 9 -186 -3 -199 -10 -10 -125 -10 -135 -1 -12 13 -19 130 -10
175 9 44 13 46 90 50 43 3 48 1 58 -25z"/>
<path d="M3987 6072 c-56 -5 -70 -33 -68 -135 2 -148 2 -146 41 -159 41 -14
133 -12 161 2 26 14 33 49 33 152 -1 93 -15 132 -50 135 -11 1 -32 3 -49 5
-16 2 -47 2 -68 0z m113 -42 c10 -6 14 -34 14 -109 0 -55 -3 -103 -6 -107 -4
-3 -35 -7 -69 -8 -59 -1 -62 0 -74 27 -18 42 -11 178 10 193 19 14 104 17 125
4z"/>
<path d="M4533 6072 c-12 -2 -40 -24 -63 -49 -34 -38 -39 -48 -26 -55 11 -6
24 2 49 28 l34 37 0 -114 c1 -154 0 -149 22 -149 18 0 19 9 19 150 0 83 -3
152 -7 153 -3 2 -16 1 -28 -1z"/>
<path d="M5495 6072 c-20 -4 -105 -80 -105 -93 0 -4 7 -10 16 -13 10 -4 24 5
41 24 13 17 28 30 32 30 3 0 6 -55 6 -122 0 -117 1 -123 21 -126 20 -3 21 0
20 147 -1 82 -3 151 -6 153 -3 3 -14 2 -25 0z"/>
<path d="M6098 6072 c-40 -5 -60 -43 -61 -121 -1 -109 10 -161 39 -171 62 -24
167 -12 185 21 14 27 19 172 7 219 -8 32 -16 40 -42 46 -35 8 -88 10 -128 6z
m133 -65 c8 -30 5 -184 -4 -193 -3 -3 -33 -7 -67 -9 -60 -3 -62 -2 -74 25 -10
24 -13 86 -7 162 2 33 28 47 88 45 53 -2 57 -4 64 -30z"/>
<path d="M6425 6072 c-16 -2 -35 -8 -42 -13 -21 -18 -33 -149 -19 -214 3 -11
5 -26 5 -32 3 -37 153 -61 200 -32 25 17 35 72 28 169 -6 87 -25 120 -70 121
-17 0 -41 1 -52 2 -11 1 -33 1 -50 -1z m125 -48 c7 -8 13 -51 14 -101 3 -110
-7 -123 -88 -119 -31 2 -59 6 -63 10 -4 4 -7 50 -8 102 0 79 3 98 17 108 25
18 114 18 128 0z"/>
<path d="M6975 6070 c-28 -11 -92 -83 -87 -98 6 -20 20 -14 55 23 l33 35 1
-122 c1 -68 2 -126 2 -130 1 -5 9 -8 19 -8 16 0 17 13 17 150 1 93 -3 151 -10
153 -5 3 -19 1 -30 -3z"/>
<path d="M2882 6028 c-22 -23 -38 -48 -35 -55 8 -21 20 -16 56 23 l33 36 -1
-131 c-1 -120 0 -131 17 -131 10 0 18 3 19 8 0 4 2 71 2 150 l2 142 -27 0
c-18 0 -39 -13 -66 -42z"/>
<path d="M3412 6022 c-31 -36 -38 -50 -30 -60 9 -10 18 -6 42 23 17 19 34 35
37 35 3 0 6 -56 5 -124 -1 -111 1 -125 16 -129 24 -7 26 8 26 164 l1 136 -29
1 c-22 0 -37 -10 -68 -46z"/>
<path d="M4266 6028 c-38 -41 -43 -53 -25 -63 6 -4 26 10 45 30 l34 38 1 -29
c1 -49 -1 -215 -4 -227 -1 -7 7 -11 18 -9 28 5 32 12 15 22 -11 7 -12 10 -2
10 10 0 12 29 10 133 l-3 132 -27 1 c-19 1 -37 -10 -62 -38z"/>
<path d="M4710 6057 c-14 -7 -30 -27 -36 -45 -10 -31 -10 -146 0 -187 2 -11 5
-23 5 -28 2 -22 110 -37 169 -23 42 10 54 39 53 126 -1 96 -9 143 -28 158 -22
16 -131 15 -163 -1z m141 -38 c15 -24 15 -187 0 -202 -16 -16 -105 -19 -125
-4 -16 12 -19 28 -20 99 0 56 4 91 13 101 21 26 117 30 132 6z"/>
<path d="M5016 6031 c-30 -30 -37 -43 -31 -61 6 -20 9 -19 45 22 l39 43 0
-128 c-1 -71 2 -131 5 -134 3 -3 12 -3 21 0 12 5 15 30 15 152 l0 145 -27 0
c-19 -1 -41 -14 -67 -39z"/>
<path d="M5221 6025 c-38 -41 -45 -65 -21 -65 5 0 24 16 43 36 l34 36 0 -118
c1 -152 0 -144 21 -144 16 0 18 12 18 150 l0 150 -27 0 c-19 0 -39 -13 -68
-45z"/>
<path d="M5643 6027 c-34 -36 -39 -46 -28 -60 11 -15 15 -13 40 18 15 19 30
35 34 35 4 0 7 -55 7 -122 0 -116 1 -123 19 -123 19 0 20 8 22 148 l2 147 -28
0 c-20 0 -39 -12 -68 -43z"/>
<path d="M5850 6025 c-37 -37 -42 -47 -30 -55 11 -7 24 0 51 26 l35 35 0 -130
c-1 -116 1 -130 17 -135 20 -5 19 -15 21 162 l2 142 -26 0 c-17 0 -40 -15 -70
-45z"/>
<path d="M6760 6062 c-8 -2 -30 -22 -49 -44 -28 -32 -32 -41 -20 -49 10 -6 22
-1 41 21 15 16 30 30 33 30 3 0 5 -56 5 -124 0 -123 4 -142 28 -127 9 6 12 46
10 151 -3 150 -5 154 -48 142z"/>
<path d="M7147 6030 c-35 -37 -44 -59 -31 -73 4 -4 23 12 44 35 l37 42 -1
-123 c-1 -129 3 -148 27 -138 12 4 14 32 14 151 l0 146 -27 0 c-18 0 -38 -12
-63 -40z"/>
<path d="M2530 5643 c-8 -3 -31 -25 -51 -47 -29 -32 -35 -44 -26 -55 9 -11 17
-7 44 24 18 21 34 36 34 34 1 -2 3 -59 4 -127 1 -67 5 -125 8 -129 3 -3 13 -3
20 0 12 4 14 34 13 154 -1 154 -4 163 -46 146z"/>
<path d="M2694 5602 c-34 -36 -41 -49 -32 -60 10 -11 17 -7 44 22 18 20 35 36
37 36 2 0 3 -51 2 -112 -2 -131 1 -147 23 -144 15 3 17 21 17 152 l0 149 -24
1 c-17 1 -38 -13 -67 -44z"/>
<path d="M2918 5643 c-17 -4 -28 -33 -35 -93 -8 -62 0 -148 16 -178 19 -36
154 -43 188 -9 18 18 24 49 25 137 1 126 -10 141 -109 145 -37 1 -75 0 -85 -2z
m144 -46 c17 -27 14 -185 -4 -203 -12 -13 -61 -19 -106 -15 -20 2 -34 51 -33
116 1 96 7 109 46 117 33 7 89 -2 97 -15z"/>
<path d="M3280 5642 c-8 -2 -32 -23 -52 -46 -27 -31 -34 -46 -27 -56 7 -12 16
-8 44 22 19 21 36 37 36 35 1 -1 3 -57 4 -124 0 -67 4 -125 8 -129 3 -4 13 -4
20 -1 12 4 14 34 14 150 0 153 -3 161 -47 149z"/>
<path d="M3451 5641 c-18 -12 -22 -27 -28 -117 -6 -95 9 -148 46 -163 31 -13
139 -12 147 1 3 5 9 6 14 3 5 -3 11 -1 14 4 16 26 24 163 12 216 -2 11 -5 24
-5 28 -3 28 -164 50 -200 28z m156 -51 c3 -11 8 -20 12 -20 4 0 7 -13 7 -30 0
-16 -4 -30 -8 -30 -5 0 -6 -6 -1 -12 12 -20 13 -40 1 -61 -5 -11 -6 -17 -1
-14 5 4 10 0 10 -8 0 -8 -4 -12 -9 -9 -4 3 -8 -2 -8 -10 0 -10 -9 -17 -22 -17
-122 -8 -129 -1 -127 122 2 104 5 108 87 109 46 0 55 -3 59 -20z"/>
<path d="M3786 5601 c-34 -35 -43 -50 -36 -61 9 -12 16 -9 45 22 19 21 36 34
36 30 1 -4 2 -61 3 -127 1 -113 2 -120 21 -120 19 0 20 7 20 147 0 82 -2 148
-5 149 -3 0 -12 2 -21 4 -10 2 -37 -18 -63 -44z"/>
<path d="M4039 5641 c-8 -3 -32 -25 -54 -49 -30 -34 -36 -45 -26 -55 10 -9 19
-5 42 21 16 17 32 32 37 32 4 0 7 -56 7 -125 0 -119 1 -125 20 -125 19 0 20 6
20 146 0 119 -3 147 -15 154 -8 4 -22 5 -31 1z"/>
<path d="M4230 5640 c-18 -4 -27 -16 -36 -46 -13 -46 -10 -194 5 -222 16 -30
94 -41 162 -22 31 9 38 16 47 50 5 21 9 78 8 125 -2 108 -12 120 -99 121 -34
0 -73 -2 -87 -6z m134 -41 c6 -5 10 -52 10 -105 0 -122 -2 -124 -126 -115 -9
0 -20 10 -23 22 -11 33 -13 141 -3 176 7 28 13 32 46 35 47 4 84 -1 96 -13z"/>
<path d="M4530 5603 c-22 -25 -40 -49 -40 -53 0 -22 20 -16 51 16 l34 35 5
-128 c4 -105 8 -128 20 -128 21 0 25 31 22 175 l-3 128 -24 0 c-17 0 -38 -15
-65 -45z"/>
<path d="M4735 5633 c-8 -8 -15 -17 -16 -21 0 -4 -3 -16 -5 -27 -17 -76 -1
-209 26 -228 25 -17 99 -21 149 -7 46 12 54 33 54 145 -1 108 -2 113 -23 133
-26 24 -162 28 -185 5z m160 -34 c15 -15 16 -183 2 -203 -15 -20 -107 -29
-128 -12 -19 15 -21 29 -22 118 0 82 9 104 46 110 34 5 91 -2 102 -13z"/>
<path d="M5065 5602 c-35 -37 -41 -49 -32 -60 9 -12 17 -8 44 22 18 20 35 36
37 36 2 0 3 -58 2 -129 -1 -122 0 -128 19 -127 19 1 20 8 21 152 l1 152 -24 0
c-15 0 -40 -17 -68 -46z"/>
<path d="M5300 5640 c0 -6 -4 -9 -9 -6 -4 3 -15 -2 -24 -12 -44 -49 -41 -248
4 -272 22 -12 122 -11 156 1 33 12 45 45 48 131 4 89 -8 144 -33 156 -27 14
-142 15 -142 2z m124 -40 c14 -14 14 -196 0 -210 -13 -13 -107 -21 -124 -10
-18 11 -21 31 -22 123 0 101 12 117 85 111 28 -2 56 -9 61 -14z"/>
<path d="M5601 5641 c-31 -20 -45 -141 -27 -238 6 -34 13 -43 38 -52 38 -14
108 -14 142 -1 36 13 48 44 50 124 3 90 -10 152 -32 162 -22 9 -157 13 -171 5z
m130 -30 c31 -2 39 -51 31 -193 -2 -19 -10 -29 -31 -36 -16 -6 -38 -9 -48 -7
-10 2 -28 4 -40 4 -34 1 -43 48 -34 198 1 24 47 44 86 38 11 -2 27 -4 36 -4z"/>
<path d="M5923 5605 c-24 -25 -43 -49 -43 -54 0 -23 27 -15 56 16 17 18 33 33
35 33 2 0 3 -55 3 -122 -1 -75 3 -126 9 -130 27 -17 32 5 31 145 -1 78 -2 144
-3 147 0 3 -11 6 -23 7 -14 1 -37 -14 -65 -42z"/>
<path d="M6135 5602 c-48 -52 -50 -58 -31 -65 9 -4 27 7 45 29 17 18 32 34 34
34 2 0 3 -56 4 -125 0 -69 3 -128 5 -131 3 -2 12 -2 20 1 12 5 15 30 16 133 0
70 -1 137 -4 149 -7 35 -44 25 -89 -25z"/>
<path d="M6353 5640 c-28 -11 -36 -38 -38 -128 -3 -106 11 -149 53 -163 39
-13 136 -6 157 11 17 14 28 78 27 154 -2 94 -9 114 -45 124 -41 13 -126 14
-154 2z m150 -40 c14 -12 12 -186 -2 -209 -11 -17 -116 -20 -133 -3 -13 13
-19 151 -9 191 6 20 15 27 42 32 37 6 89 1 102 -11z"/>
<path d="M6683 5615 c-56 -63 -57 -65 -45 -77 9 -9 20 -2 47 28 19 21 35 35
36 29 1 -5 2 -64 3 -129 1 -103 3 -119 18 -122 9 -1 18 5 20 15 3 13 2 261 -1
282 -3 19 -53 3 -78 -26z"/>
<path d="M6893 5637 c-31 -14 -44 -62 -42 -149 2 -88 13 -122 42 -135 29 -13
126 -13 155 0 31 14 45 75 40 176 -6 107 -20 122 -112 120 -34 -1 -71 -6 -83
-12z m141 -37 c5 -5 11 -53 14 -107 4 -96 4 -99 -19 -110 -35 -15 -111 -7
-126 14 -13 17 -18 139 -7 180 3 12 18 26 33 31 30 11 91 6 105 -8z"/>
<path d="M7206 5603 c-35 -38 -42 -50 -33 -61 9 -12 17 -8 44 22 18 20 35 36
38 36 2 0 3 -47 2 -104 -3 -121 2 -148 26 -152 16 -2 17 10 15 148 -3 146 -4
151 -25 154 -15 3 -35 -10 -67 -43z"/>
<path d="M7403 5616 c-18 -33 -24 -168 -10 -218 4 -15 20 -34 35 -42 36 -19
147 -15 166 5 21 21 32 77 31 149 -3 117 -30 142 -148 138 -54 -1 -59 -4 -74
-32z m154 -5 c18 -1 30 -58 28 -127 -3 -76 -12 -104 -33 -105 -52 -5 -108 2
-117 14 -8 12 -12 118 -6 189 1 19 46 35 90 32 14 -1 31 -3 38 -3z"/>
<path d="M2095 5224 c-5 -1 -23 -5 -38 -8 -36 -8 -49 -42 -51 -131 -3 -97 10
-144 43 -157 50 -20 179 -6 182 19 0 5 3 17 5 28 3 11 6 56 6 100 2 89 -15
137 -47 141 -69 9 -91 11 -100 8z m87 -43 c24 -5 33 -190 10 -213 -15 -15
-113 -22 -131 -9 -11 7 -15 34 -15 106 -1 113 5 122 81 120 26 -1 51 -3 55 -4z"/>
<path d="M2395 5220 c-46 -8 -63 -51 -60 -157 0 -49 7 -98 13 -110 15 -27 60
-40 125 -37 80 4 99 34 99 157 0 89 -15 135 -46 142 -38 8 -100 11 -131 5z
m125 -50 c11 -17 12 -26 12 -90 1 -119 -3 -124 -79 -127 -75 -2 -81 7 -79 120
1 71 4 91 18 101 24 18 117 14 128 -4z"/>
<path d="M3107 5215 c-32 -16 -46 -69 -41 -156 5 -105 14 -124 61 -136 90 -22
161 4 164 61 10 152 1 209 -33 227 -28 15 -124 18 -151 4z m135 -43 c20 -16
20 -181 0 -204 -16 -20 -117 -22 -132 -3 -12 15 -16 159 -6 193 10 30 107 41
138 14z"/>
<path d="M3789 5225 c-3 -2 -25 -5 -49 -7 -40 -3 -47 -7 -62 -38 -32 -63 -19
-248 17 -251 18 -2 34 -6 38 -9 7 -7 96 -5 120 3 36 12 46 40 47 130 1 120
-14 160 -63 162 -13 1 -28 4 -34 8 -5 4 -12 5 -14 2z m42 -44 c9 -1 20 -15 25
-33 11 -41 3 -173 -12 -188 -14 -14 -113 -15 -127 -1 -14 14 -21 117 -13 175
8 53 14 55 127 47z"/>
<path d="M4309 5222 c-58 -5 -71 -27 -75 -132 -3 -110 11 -155 53 -164 76 -16
151 -4 169 26 24 39 9 255 -18 259 -13 2 -28 6 -30 9 -5 4 -64 5 -99 2z m99
-47 c10 -9 13 -38 13 -105 -1 -113 -6 -120 -84 -120 -42 0 -49 3 -57 26 -12
29 -13 174 -2 190 4 6 14 13 22 17 17 6 100 0 108 -8z"/>
<path d="M4638 5224 c-2 -1 -17 -4 -33 -7 -43 -5 -57 -41 -57 -144 1 -104 12
-137 55 -150 65 -19 150 -5 168 28 14 28 25 224 11 216 -5 -4 -13 4 -16 18 -4
15 -15 27 -29 29 -34 8 -96 14 -99 10z m106 -73 c7 -14 12 -35 11 -46 -2 -11
-6 -47 -9 -79 -3 -33 -8 -61 -10 -64 -3 -2 -34 -7 -70 -9 -79 -7 -79 -7 -79
112 -1 96 8 112 61 117 59 5 82 -3 96 -31z"/>
<path d="M4942 5219 c-23 -3 -47 -10 -54 -17 -14 -14 -23 -145 -14 -206 9 -60
35 -78 114 -78 103 -1 121 25 118 168 -2 126 -32 151 -164 133z m116 -43 c4
-4 8 -48 9 -97 3 -107 -8 -124 -78 -127 -68 -4 -82 12 -81 91 0 83 9 124 29
136 19 10 110 8 121 -3z"/>
<path d="M5258 5218 c-36 -13 -46 -42 -49 -143 -2 -94 8 -132 40 -145 59 -24
158 -14 179 18 26 40 24 207 -3 259 -5 9 -96 19 -106 12 -8 -4 -18 -4 -24 0
-5 5 -22 4 -37 -1z m127 -35 c21 -1 31 -45 30 -123 -1 -45 -7 -86 -12 -91 -6
-6 -38 -13 -71 -16 -56 -5 -61 -4 -73 18 -8 15 -12 56 -11 108 1 67 4 86 19
96 10 7 21 11 25 9 5 -3 8 -1 8 4 0 5 16 6 38 2 20 -3 42 -7 47 -7z"/>
<path d="M5606 5222 c-19 -4 -96 -79 -96 -93 0 -23 26 -18 50 10 15 17 31 31
35 31 3 0 6 -24 5 -52 -1 -29 -1 -86 -1 -125 1 -66 3 -73 21 -73 23 0 22 -10
21 164 0 71 -4 132 -8 136 -5 4 -17 5 -27 2z"/>
<path d="M6531 5215 c-39 -13 -52 -38 -56 -107 -3 -35 0 -48 10 -48 8 0 12 -8
10 -18 -2 -11 1 -40 7 -65 8 -40 14 -48 41 -55 50 -14 140 -13 158 1 50 38 37
282 -16 288 -5 1 -22 3 -37 5 -16 1 -28 -2 -28 -8 0 -7 -4 -7 -12 -1 -24 18
-43 20 -77 8z m128 -35 c12 0 23 -9 27 -22 12 -37 7 -177 -6 -193 -15 -18
-125 -21 -136 -4 -4 6 -8 30 -9 52 -1 23 -8 43 -14 45 -6 2 -8 9 -4 15 4 6 8
29 9 51 3 42 25 69 49 60 7 -3 16 -1 20 5 4 8 12 8 25 1 10 -5 28 -10 39 -10z"/>
<path d="M7300 5219 c-18 -4 -35 -11 -40 -15 -25 -28 -32 -132 -16 -222 9 -49
31 -63 101 -66 98 -5 126 25 129 136 2 86 -11 146 -35 159 -24 12 -96 16 -139
8z m123 -48 c15 -15 14 -188 0 -202 -7 -7 -36 -14 -66 -17 -70 -6 -80 7 -82
106 -2 92 4 115 36 123 33 8 100 2 112 -10z"/>
<path d="M2683 5174 c-37 -38 -42 -48 -32 -60 11 -13 17 -9 48 26 l36 42 0
-131 c-1 -94 2 -132 11 -135 25 -9 30 21 28 154 -1 74 -2 138 -3 143 -3 21
-49 2 -88 -39z"/>
<path d="M2884 5178 c-24 -24 -44 -49 -44 -55 0 -23 30 -13 60 20 l29 32 2
-45 c0 -25 1 -83 2 -130 2 -68 5 -85 17 -85 18 0 27 85 22 218 -3 79 -5 87
-24 87 -11 0 -39 -19 -64 -42z"/>
<path d="M3409 5172 c-21 -24 -39 -48 -39 -53 0 -21 38 -7 59 21 12 17 25 29
29 26 4 -2 7 -57 6 -121 -1 -103 1 -117 18 -126 10 -5 19 -8 19 -7 1 2 2 72 3
155 l1 153 -28 -2 c-19 -2 -41 -16 -68 -46z"/>
<path d="M4031 5175 c-35 -37 -41 -48 -31 -60 10 -12 16 -8 42 21 16 18 33 34
37 34 3 0 6 -56 5 -125 0 -92 3 -126 13 -129 7 -3 15 0 19 6 6 9 9 180 5 276
-2 38 -42 28 -90 -23z"/>
<path d="M5757 5208 c-28 -15 -39 -56 -38 -140 1 -92 11 -123 48 -140 37 -18
125 -16 156 5 30 19 34 38 32 149 -3 123 -12 134 -107 135 -40 1 -81 -3 -91
-9z m149 -43 c15 -20 12 -194 -4 -204 -7 -4 -34 -8 -61 -10 -54 -2 -80 15 -82
52 -4 81 0 149 10 161 22 26 117 27 137 1z"/>
<path d="M6056 5176 c-21 -25 -38 -48 -38 -53 1 -20 24 -11 57 22 l35 37 0
-131 c0 -129 0 -131 23 -131 22 0 22 0 19 150 l-3 150 -28 0 c-20 0 -37 -12
-65 -44z"/>
<path d="M6300 5173 c-35 -40 -38 -48 -25 -56 13 -7 24 0 50 29 l33 37 4 -62
c1 -33 1 -61 -2 -61 -4 0 -5 -93 -1 -137 1 -6 9 -9 19 -6 14 3 18 14 17 51 0
26 3 64 6 84 3 21 4 40 1 43 -3 3 -5 32 -5 65 0 59 0 60 -28 60 -20 0 -38 -12
-69 -47z"/>
<path d="M6861 5202 c-8 -9 -26 -29 -40 -45 -20 -22 -22 -30 -12 -40 10 -10
18 -5 42 21 16 17 32 32 36 32 5 0 7 -56 7 -126 -2 -121 -1 -125 19 -122 20 3
21 9 21 151 l1 147 -30 0 c-16 -1 -36 -8 -44 -18z"/>
<path d="M7047 5173 c-28 -34 -35 -49 -27 -57 8 -8 20 -1 46 26 19 21 34 32
35 25 1 -6 1 -65 1 -129 -1 -110 0 -118 19 -118 14 0 19 7 20 28 1 34 1 243 0
260 -1 6 -13 12 -28 11 -21 0 -38 -13 -66 -46z"/>
<path d="M7587 5178 c-40 -46 -43 -53 -25 -64 7 -4 24 8 43 30 17 21 32 32 33
24 1 -7 3 -28 5 -45 2 -18 0 -33 -4 -33 -4 0 -4 -13 1 -29 4 -16 6 -31 4 -34
-12 -12 -6 -90 9 -104 15 -15 17 -15 24 5 10 25 9 265 -1 281 -15 24 -53 11
-89 -31z"/>
<path d="M7813 5210 c-27 -11 -35 -37 -38 -125 -2 -87 11 -142 38 -157 28 -15
100 -18 143 -7 45 13 56 41 56 147 0 102 -13 138 -54 146 -43 8 -119 6 -145
-4z m133 -35 c27 -6 30 -21 29 -117 -2 -96 -11 -108 -79 -108 -78 0 -81 5 -81
114 0 81 3 97 19 109 17 13 66 14 112 2z"/>
<path d="M2433 4789 c-12 -4 -25 -18 -29 -31 -12 -35 -12 -177 -1 -214 13 -42
39 -53 120 -51 96 3 101 11 104 147 3 142 -5 153 -103 156 -38 1 -79 -2 -91
-7z m146 -43 c21 -22 20 -181 -2 -204 -20 -19 -111 -22 -130 -3 -12 12 -20
170 -10 197 12 31 114 38 142 10z"/>
<path d="M2757 4792 c-27 -6 -40 -47 -43 -134 -3 -91 10 -142 40 -155 31 -14
117 -16 149 -4 37 14 49 50 49 146 0 80 -11 127 -32 140 -12 8 -136 13 -163 7z
m150 -61 c15 -60 5 -173 -17 -195 -13 -13 -110 -10 -124 4 -12 12 -15 194 -4
206 12 11 70 20 105 16 26 -3 35 -10 40 -31z"/>
<path d="M3079 4781 c-22 -18 -24 -27 -26 -120 -3 -143 6 -158 99 -168 56 -5
113 11 124 35 4 9 8 58 10 107 4 118 -10 151 -63 158 -81 11 -120 8 -144 -12z
m156 -31 c18 -15 19 -195 1 -209 -7 -6 -36 -12 -64 -14 -73 -5 -85 10 -84 112
0 44 6 89 11 100 16 28 106 36 136 11z"/>
<path d="M3643 4793 c-7 -3 -13 -14 -13 -24 0 -11 4 -17 10 -14 20 12 122 7
131 -6 5 -8 9 -55 9 -105 0 -105 -5 -113 -71 -115 -93 -4 -86 -15 -86 127 -1
69 -3 127 -6 130 -3 3 -13 -6 -22 -20 -13 -19 -17 -47 -16 -108 1 -99 11 -144
34 -142 9 1 15 -2 12 -6 -13 -21 130 -26 157 -6 28 21 39 58 40 134 1 101 -8
139 -35 148 -26 8 -126 13 -144 7z"/>
<path d="M4395 4794 c-5 -1 -22 -5 -36 -8 -15 -3 -30 -14 -34 -23 -12 -30 -14
-179 -3 -216 12 -40 34 -52 101 -56 62 -3 103 14 115 47 14 41 15 143 2 195
-11 41 -16 47 -44 52 -45 8 -90 12 -101 9z m106 -57 c17 -30 12 -179 -6 -197
-18 -17 -111 -18 -128 -1 -14 14 -20 180 -8 200 10 16 66 28 104 23 15 -3 32
-14 38 -25z"/>
<path d="M4884 4790 c-12 -5 -24 -13 -27 -17 -19 -31 -25 -207 -7 -228 5 -6 8
-14 5 -17 -13 -13 29 -30 82 -35 107 -9 134 18 135 136 0 79 -9 132 -25 148
-15 15 -133 24 -163 13z m146 -60 c11 -41 6 -178 -7 -191 -17 -17 -112 -14
-130 3 -10 10 -14 38 -14 89 0 112 5 124 51 131 53 7 93 -6 100 -32z"/>
<path d="M5199 4752 c-21 -25 -39 -48 -39 -53 0 -23 23 -16 54 17 l35 38 3
-129 c3 -114 5 -128 21 -131 16 -2 17 9 15 149 -3 149 -3 150 -26 152 -16 1
-35 -12 -63 -43z"/>
<path d="M5410 4783 c-28 -20 -41 -143 -24 -231 8 -43 49 -64 117 -61 102 5
117 27 112 169 -3 98 -8 116 -38 127 -39 13 -146 10 -167 -4z m162 -58 c15
-52 9 -168 -10 -187 -5 -5 -30 -10 -56 -12 -73 -5 -87 12 -88 105 0 41 3 85 6
97 9 26 55 41 105 33 28 -5 36 -12 43 -36z"/>
<path d="M5729 4779 c-21 -21 -21 -21 -24 -129 -3 -107 7 -136 52 -151 45 -15
141 -6 162 16 13 12 16 39 16 130 0 142 -2 145 -109 150 -66 3 -80 1 -97 -16z
m160 -34 c22 -21 19 -181 -3 -203 -22 -23 -115 -21 -132 3 -15 21 -15 193 0
202 18 11 80 21 101 16 11 -3 26 -11 34 -18z"/>
<path d="M6068 4793 c-37 -9 -57 -144 -34 -240 11 -48 37 -63 112 -63 89 0
114 27 115 124 2 165 -5 177 -106 180 -39 1 -77 1 -87 -1z m145 -42 c12 -12
15 -161 4 -193 -6 -18 -17 -29 -30 -30 -42 -3 -102 3 -110 11 -11 11 -16 157
-7 190 4 15 15 25 30 28 13 2 25 5 27 7 6 6 78 -5 86 -13z"/>
<path d="M6379 4766 c-14 -23 -18 -49 -17 -115 2 -107 11 -137 48 -150 36 -12
128 -8 155 7 25 12 29 32 29 137 1 139 -6 148 -128 150 -66 1 -69 0 -87 -29z
m172 -33 c13 -34 8 -178 -7 -193 -9 -9 -73 -15 -114 -11 -19 1 -40 73 -29 93
4 8 4 20 0 27 -11 17 4 92 20 102 8 5 38 9 67 9 48 0 53 -2 63 -27z"/>
<path d="M6751 4792 c-20 -7 -81 -74 -81 -89 0 -23 19 -23 37 -1 10 13 25 24
34 26 13 2 15 -14 15 -115 0 -110 1 -118 20 -118 18 0 19 8 20 147 0 153 -3
164 -45 150z"/>
<path d="M6921 4753 c-22 -24 -41 -47 -41 -52 0 -23 28 -14 57 18 38 42 34 55
36 -118 2 -91 4 -104 20 -107 19 -3 19 -1 19 161 -1 150 1 141 -26 141 -14 0
-39 -16 -65 -43z"/>
<path d="M7144 4750 c-33 -34 -40 -48 -32 -58 9 -10 19 -6 48 23 l37 36 -1
-111 c-1 -117 6 -154 26 -148 10 4 13 44 14 154 l1 149 -25 0 c-17 0 -40 -15
-68 -45z"/>
<path d="M7340 4750 c-33 -39 -37 -50 -26 -59 11 -9 19 -4 42 24 15 19 30 35
33 35 3 0 6 -56 5 -125 -1 -124 4 -144 29 -128 16 10 18 293 2 294 -5 0 -18 2
-27 4 -11 2 -33 -15 -58 -45z"/>
<path d="M7592 4792 c-23 -7 -82 -75 -82 -94 0 -26 14 -22 42 10 43 52 45 49
44 -86 0 -119 1 -127 20 -127 18 0 19 9 20 147 1 126 -1 147 -15 151 -9 2 -22
2 -29 -1z"/>
<path d="M3416 4768 c-10 -13 -28 -33 -39 -46 -17 -18 -18 -25 -8 -35 10 -9
19 -4 47 27 39 44 36 56 36 -116 -1 -100 1 -108 19 -108 14 0 19 7 20 28 1 44
1 246 0 260 -2 21 -55 14 -75 -10z"/>
<path d="M3928 4750 c-40 -41 -45 -54 -27 -65 6 -4 26 10 45 31 l34 39 0 -132
c0 -126 1 -133 20 -133 19 0 20 7 20 150 l0 150 -27 -1 c-19 0 -40 -13 -65
-39z"/>
<path d="M4128 4750 c-40 -42 -45 -54 -27 -65 6 -4 26 10 45 31 l34 39 0 -132
c0 -126 1 -133 20 -133 19 0 20 7 20 150 l0 150 -27 0 c-20 0 -39 -12 -65 -40z"/>
<path d="M4676 4768 c-10 -13 -28 -33 -39 -46 -16 -18 -18 -25 -8 -35 9 -9 19
-4 46 28 l34 40 2 -55 c0 -30 1 -90 1 -132 -1 -71 1 -78 19 -78 10 0 19 6 20
13 0 6 1 74 2 150 l2 137 -30 0 c-20 0 -37 -8 -49 -22z"/>
<path d="M2884 4360 c-12 -5 -27 -24 -33 -42 -15 -46 -16 -145 -2 -195 10 -35
17 -43 47 -53 66 -22 172 1 176 38 10 119 4 210 -17 238 -10 14 -29 19 -81 20
-38 1 -79 -2 -90 -6z m144 -48 c7 -10 12 -47 12 -97 0 -91 -9 -110 -55 -117
-57 -9 -87 4 -100 42 -8 22 -9 41 -3 53 5 10 5 17 -1 17 -10 0 -9 19 2 38 5 6
4 12 -2 12 -21 0 10 59 36 67 36 12 96 4 111 -15z"/>
<path d="M3234 4346 c-9 -12 -28 -33 -42 -49 -21 -22 -23 -30 -13 -40 10 -10
18 -5 42 21 16 17 32 32 36 32 5 0 8 -55 8 -122 0 -116 1 -123 20 -123 19 0
20 7 20 147 l0 146 -27 4 c-18 3 -32 -2 -44 -16z"/>
<path d="M3469 4362 c-60 -5 -72 -28 -75 -135 -3 -147 16 -172 128 -170 87 1
108 32 108 157 0 94 -14 133 -51 141 -40 9 -66 11 -110 7z m109 -46 c9 -9 10
-202 1 -210 -4 -4 -29 -9 -56 -13 -43 -5 -54 -2 -72 16 -20 20 -22 31 -19 107
2 90 4 97 28 107 19 8 108 2 118 -7z"/>
<path d="M3982 4359 c-19 -4 -39 -12 -45 -18 -12 -12 -15 -171 -4 -221 3 -14
6 -28 6 -33 2 -14 56 -29 108 -28 96 1 115 25 118 153 1 83 0 89 -26 118 -15
16 -32 30 -36 31 -36 5 -94 4 -121 -2z m110 -38 c24 -3 35 -33 32 -88 -9 -129
-14 -138 -90 -142 -48 -3 -73 17 -75 57 -8 135 0 169 39 174 23 3 63 3 94 -1z"/>
<path d="M4491 4323 c-40 -43 -52 -73 -30 -73 7 0 27 17 45 38 l33 37 1 -132
c0 -126 1 -133 20 -133 19 0 20 7 20 149 l0 149 -24 4 c-20 4 -34 -4 -65 -39z"/>
<path d="M4755 4362 c-25 -5 -95 -77 -95 -97 0 -25 20 -17 56 23 l34 37 0
-132 c0 -126 1 -133 20 -133 19 0 20 7 20 149 0 83 -3 152 -7 154 -5 2 -17 2
-28 -1z"/>
<path d="M4922 4359 c-39 -15 -49 -66 -38 -191 1 -16 3 -39 4 -53 3 -31 31
-46 102 -52 64 -6 119 15 121 45 1 9 3 32 3 49 1 18 5 35 8 39 4 3 4 12 1 19
-4 13 -8 42 -12 102 -3 51 -130 70 -131 21 0 -5 18 -8 39 -8 22 0 43 -4 46
-10 26 -42 20 -214 -8 -218 -22 -4 -61 -5 -94 -3 -30 1 -33 4 -40 44 -6 38 -7
86 -4 145 1 13 11 27 26 34 14 6 25 19 25 28 0 18 -15 21 -48 9z"/>
<path d="M5265 4357 c-11 -5 -34 -26 -52 -46 -23 -27 -29 -41 -22 -51 8 -13
13 -11 32 10 53 58 52 59 52 -78 0 -120 1 -127 20 -127 19 0 20 7 20 147 0
157 -4 168 -50 145z"/>
<path d="M5456 4336 c-65 -67 -69 -73 -50 -80 11 -4 27 6 50 31 l34 37 0 -132
c0 -125 1 -132 20 -132 19 0 20 7 20 149 0 143 -1 149 -21 154 -15 4 -30 -4
-53 -27z"/>
<path d="M5667 4362 c-16 -2 -30 -11 -33 -20 -3 -9 -9 -24 -13 -32 -12 -24 -5
-189 9 -215 33 -61 206 -45 216 20 7 42 7 162 0 193 -4 18 -17 37 -29 43 -21
12 -101 18 -150 11z m128 -46 c16 -11 18 -27 18 -105 0 -54 -5 -97 -11 -103
-17 -17 -106 -19 -128 -3 -16 11 -19 27 -19 105 0 79 3 94 19 106 25 18 96 18
121 0z"/>
<path d="M6025 4362 c-20 -4 -95 -78 -95 -93 0 -25 27 -18 56 14 17 21 34 37
36 37 1 0 2 -58 1 -130 -2 -123 -1 -130 18 -130 11 0 19 7 20 18 5 112 2 267
-6 277 -5 6 -19 10 -30 7z"/>
<path d="M6197 4357 c-33 -11 -44 -46 -45 -146 0 -124 21 -153 113 -152 105 1
118 15 123 130 5 102 -8 157 -41 167 -33 11 -120 11 -150 1z m137 -42 c14 -15
18 -36 18 -115 0 -35 -9 -91 -17 -98 -13 -13 -125 -7 -134 6 -5 8 -9 51 -10
97 -2 70 1 87 17 103 24 24 104 29 126 7z"/>
<path d="M6564 4361 c-5 -3 -27 -25 -49 -49 -30 -33 -36 -45 -27 -54 9 -9 19
-5 45 20 18 18 35 32 38 32 2 0 5 -55 4 -122 0 -116 1 -123 20 -126 19 -3 20
3 20 144 0 140 -1 147 -21 154 -11 5 -25 5 -30 1z"/>
<path d="M6762 4362 c-38 -6 -54 -44 -56 -135 -3 -142 15 -168 117 -169 71 0
105 17 113 57 17 95 8 204 -21 234 -12 13 -103 21 -153 13z m123 -46 c16 -12
19 -27 19 -105 0 -57 -4 -95 -11 -102 -18 -18 -107 -21 -129 -4 -16 11 -19 27
-19 103 0 56 5 95 12 104 17 20 103 23 128 4z"/>
<path d="M7118 4361 c-37 -8 -105 -88 -88 -104 9 -9 19 -3 46 27 19 22 34 33
35 25 0 -8 1 -67 2 -131 0 -113 1 -118 21 -118 21 0 22 3 20 150 0 83 -3 152
-5 153 -2 2 -16 1 -31 -2z"/>
<path d="M3741 4315 c-33 -35 -41 -49 -32 -58 9 -9 19 -4 42 21 16 17 33 32
37 32 4 0 7 -58 6 -128 -1 -125 0 -128 20 -125 20 4 21 10 20 151 l0 147 -25
3 c-19 2 -36 -9 -68 -43z"/>
<path d="M4277 4318 c-39 -45 -43 -53 -27 -63 6 -4 23 7 39 24 16 17 32 31 35
31 3 0 6 -56 6 -125 0 -118 1 -125 20 -125 22 0 22 0 22 189 0 96 -6 110 -43
111 -9 0 -32 -19 -52 -42z"/>
<path d="M3751 3924 c-36 -15 -42 -33 -43 -132 -1 -139 13 -159 117 -161 63
-1 77 1 95 19 21 21 22 24 24 135 2 91 -10 134 -41 142 -45 11 -122 9 -152 -3z
m139 -34 c20 -12 22 -192 3 -211 -7 -7 -38 -13 -68 -13 -76 0 -79 5 -77 144 0
49 5 67 18 77 21 15 102 17 124 3z"/>
<path d="M4602 3925 c-24 -11 -32 -22 -38 -51 -8 -42 -8 -137 0 -169 2 -11 5
-26 5 -32 2 -24 57 -42 121 -40 56 2 66 6 84 30 17 24 21 42 20 115 0 105 -8
139 -34 147 -40 13 -127 12 -158 0z m147 -40 c3 -4 6 -49 7 -100 2 -110 -1
-115 -80 -121 -70 -6 -74 2 -73 121 0 87 1 90 26 101 25 12 108 10 120 -1z"/>
<path d="M4928 3926 c-28 -14 -38 -58 -36 -156 1 -85 11 -114 42 -127 28 -13
153 -10 167 4 17 17 26 76 24 154 -4 94 -7 109 -30 122 -26 14 -140 16 -167 3z
m126 -38 c3 2 10 -6 15 -19 13 -34 8 -186 -6 -200 -7 -7 -33 -12 -59 -12 -55
0 -74 18 -75 72 0 20 -1 60 -2 89 -2 69 19 86 90 71 18 -4 34 -4 37 -1z"/>
<path d="M5894 3932 c-44 -7 -57 -36 -60 -128 -3 -147 15 -174 119 -174 77 0
95 8 107 45 21 65 13 216 -14 243 -12 13 -109 22 -152 14z m128 -44 c8 -14 10
-24 11 -95 2 -104 -12 -123 -89 -123 -55 0 -69 19 -70 100 -1 99 4 117 35 129
33 12 102 6 113 -11z"/>
<path d="M6424 3929 c-36 -13 -47 -39 -52 -117 -5 -98 9 -155 43 -170 14 -7
55 -12 90 -12 59 0 66 2 82 27 12 18 19 52 22 105 4 101 -4 145 -31 159 -25
13 -126 19 -154 8z m137 -40 c5 -8 9 -58 8 -111 l-1 -98 -34 -9 c-30 -8 -103
-5 -114 6 -8 8 -13 161 -6 189 4 13 17 29 29 33 32 12 108 6 118 -10z"/>
<path d="M3300 3889 c-19 -23 -36 -47 -38 -55 -6 -25 25 -15 49 16 13 16 27
30 32 30 4 0 7 -56 7 -125 0 -118 1 -125 20 -125 19 0 20 7 20 150 l0 150 -27
0 c-20 0 -38 -12 -63 -41z"/>
<path d="M3522 3883 c-32 -34 -40 -48 -30 -54 20 -13 25 -11 58 29 l31 37 -1
-80 c-3 -175 -2 -185 20 -185 18 0 19 8 19 150 l0 150 -27 0 c-20 0 -39 -13
-70 -47z"/>
<path d="M4059 3889 c-19 -23 -34 -46 -33 -50 1 -5 2 -15 3 -21 1 -7 19 7 41
31 l40 44 0 -131 c0 -125 1 -132 20 -132 19 0 20 7 20 150 l0 150 -29 0 c-21
0 -37 -10 -62 -41z"/>
<path d="M4272 3924 c-27 -12 -39 -59 -38 -150 2 -109 18 -143 69 -146 76 -3
131 2 143 14 34 34 33 247 -2 272 -17 13 -147 20 -172 10z m149 -46 c10 -15
13 -69 10 -162 -1 -38 -27 -56 -79 -56 -71 0 -76 7 -78 101 -3 95 6 126 38
131 42 7 101 0 109 -14z"/>
<path d="M5245 3897 c-58 -63 -59 -66 -41 -73 10 -4 26 5 45 25 16 17 32 31
35 31 3 0 5 -44 5 -97 -1 -164 -2 -162 21 -156 19 5 20 14 20 154 l0 149 -28
0 c-18 0 -37 -11 -57 -33z"/>
<path d="M5465 3912 c-53 -47 -68 -71 -55 -86 10 -13 17 -10 46 25 l34 41 0
-131 c0 -124 1 -131 20 -131 14 0 20 7 21 23 3 78 4 254 1 265 -6 18 -44 14
-67 -6z"/>
<path d="M5651 3885 c-35 -38 -40 -49 -30 -61 10 -12 16 -9 43 21 17 19 34 35
37 35 3 0 5 -51 4 -112 -2 -127 0 -138 24 -138 15 0 17 15 17 148 l-1 147 -26
3 c-20 2 -35 -8 -68 -43z"/>
<path d="M6220 3917 c-47 -39 -72 -76 -63 -92 8 -14 14 -12 42 20 18 21 35 34
38 31 3 -3 7 -59 7 -123 1 -110 2 -118 21 -118 18 0 19 8 20 148 l0 147 -25 0
c-14 0 -32 -6 -40 -13z"/>
<path d="M6731 3888 c-22 -24 -41 -48 -41 -55 0 -23 28 -14 55 18 14 17 28 29
31 26 3 -3 5 -59 5 -126 -1 -114 0 -121 19 -121 19 0 20 7 20 150 l0 150 -24
0 c-15 0 -39 -16 -65 -42z"/>
<path d="M3753 3497 c-25 -11 -37 -64 -36 -162 2 -105 26 -135 112 -135 107 0
126 24 125 155 0 100 -16 144 -53 146 -100 5 -129 5 -148 -4z m155 -44 c12
-30 8 -191 -5 -204 -16 -16 -121 -20 -131 -5 -12 19 -14 39 -15 120 -1 94 9
106 90 106 42 0 55 -4 61 -17z"/>
<path d="M4135 3501 c-30 -9 -47 -22 -78 -60 -21 -25 -25 -37 -17 -45 8 -8 20
-1 45 26 19 20 36 34 38 30 2 -4 3 -62 3 -130 -1 -118 0 -123 19 -120 19 3 20
10 20 146 0 79 -2 147 -5 151 -3 4 -14 5 -25 2z"/>
<path d="M4288 3496 c-23 -17 -34 -65 -33 -141 3 -134 23 -160 120 -157 96 4
116 30 117 147 1 84 -6 124 -26 143 -17 18 -156 24 -178 8z m158 -48 c10 -34
9 -187 -3 -199 -12 -12 -116 -20 -132 -9 -14 8 -23 132 -14 187 6 36 15 40 90
42 45 1 53 -2 59 -21z"/>
<path d="M5042 3497 c-29 -13 -35 -36 -37 -131 -3 -99 10 -141 44 -156 32 -13
146 -7 165 10 37 30 38 239 2 269 -18 15 -145 21 -174 8z m148 -46 c13 -25 17
-123 7 -173 -5 -25 -14 -38 -25 -39 -77 -5 -114 -4 -119 5 -10 15 -12 178 -3
202 7 17 18 21 68 23 52 2 62 -1 72 -18z"/>
<path d="M5415 3502 c-24 -5 -95 -79 -95 -98 0 -24 22 -15 57 24 l34 37 -2
-120 c-1 -154 -2 -145 21 -145 19 0 20 7 20 149 0 83 -3 152 -7 154 -5 2 -17
2 -28 -1z"/>
<path d="M5590 3500 c-37 -9 -50 -57 -46 -169 2 -51 9 -98 15 -105 35 -34 166
-35 200 -2 17 17 26 126 17 200 -6 43 -13 59 -29 67 -24 13 -119 19 -157 9z
m140 -49 c16 -30 13 -186 -4 -200 -18 -15 -108 -22 -127 -11 -11 7 -14 33 -14
110 0 116 2 120 82 120 42 0 54 -4 63 -19z"/>
<path d="M5943 3502 c-26 -4 -106 -88 -98 -102 10 -17 25 -11 52 20 13 17 28
30 33 30 4 0 7 -48 6 -107 -3 -125 1 -145 23 -141 14 3 16 23 16 151 1 82 -2
149 -5 151 -3 1 -15 0 -27 -2z"/>
<path d="M6154 3502 c-32 -5 -105 -84 -94 -102 8 -12 16 -8 48 23 l38 38 0
-128 c-1 -121 0 -128 19 -128 19 0 20 7 20 143 0 79 -2 146 -5 150 -3 4 -14 6
-26 4z"/>
<path d="M4603 3453 c-34 -39 -39 -50 -27 -56 11 -7 25 2 50 30 l34 38 0 -132
c0 -126 1 -133 20 -133 19 0 20 7 20 150 l0 150 -28 0 c-20 0 -38 -12 -69 -47z"/>
<path d="M4830 3473 c-12 -16 -30 -36 -38 -46 -12 -14 -13 -20 -3 -30 10 -9
20 -4 47 28 l34 40 0 -132 c0 -126 1 -133 20 -133 19 0 20 7 20 150 l0 150
-28 0 c-19 0 -36 -9 -52 -27z"/>
<path d="M6303 3457 c-29 -31 -39 -48 -33 -58 7 -11 16 -7 43 19 18 17 35 32
38 32 3 0 5 -55 5 -122 -1 -116 0 -123 19 -123 19 0 20 7 21 148 l0 147 -26 0
c-18 0 -39 -14 -67 -43z"/>
<path d="M4748 3092 c-24 -5 -40 -52 -42 -129 -4 -96 9 -148 40 -162 49 -22
168 -11 179 18 28 70 22 234 -10 261 -13 11 -132 20 -167 12z m131 -41 c26
-17 35 -174 12 -210 -12 -18 -115 -21 -133 -3 -7 7 -12 45 -12 103 0 78 3 93
19 105 21 16 92 18 114 5z"/>
<path d="M4195 3074 c-26 -26 -36 -135 -21 -222 9 -49 27 -62 95 -67 111 -7
133 15 136 138 2 77 -7 130 -26 151 -5 5 -44 11 -88 12 -62 3 -84 0 -96 -12z
m158 -33 c9 -9 16 -149 10 -185 -7 -34 -57 -46 -129 -31 -23 5 -24 8 -24 119
0 83 8 103 43 108 31 5 91 -2 100 -11z"/>
<path d="M4524 3044 c-25 -27 -41 -51 -37 -60 8 -22 18 -17 52 24 l30 37 1
-128 c0 -106 3 -129 15 -134 9 -3 18 -3 22 0 4 5 8 221 4 278 -1 9 -11 19 -22
22 -16 4 -32 -5 -65 -39z"/>
<path d="M5054 3069 c-15 -17 -20 -40 -22 -113 -4 -97 12 -161 39 -164 113
-13 155 -8 175 23 28 42 24 229 -5 258 -6 6 -47 12 -90 14 -69 2 -81 0 -97
-18z m160 -29 c10 -10 17 -161 9 -191 -3 -10 -15 -21 -27 -25 -30 -10 -97 -6
-112 6 -16 14 -17 195 -1 208 25 21 111 22 131 2z"/>
<path d="M5373 3063 c-14 -21 -18 -49 -18 -130 0 -128 11 -144 102 -148 86 -3
110 9 124 58 16 58 6 204 -15 225 -12 12 -38 17 -96 19 -77 2 -81 1 -97 -24z
m163 -28 c15 -20 15 -179 1 -199 -8 -10 -30 -16 -65 -17 -68 -3 -78 11 -79
109 -1 95 7 120 44 124 47 6 87 -1 99 -17z"/>
<path d="M5708 3078 c-28 -21 -36 -58 -34 -148 2 -84 17 -135 39 -138 76 -10
126 -9 154 5 27 13 33 22 39 61 11 75 11 124 -2 170 -7 24 -15 46 -18 49 -3 3
-40 8 -83 10 -55 3 -83 0 -95 -9z m154 -41 c6 -10 12 -64 10 -88 -1 -3 -2 -29
-3 -58 -2 -28 -8 -56 -15 -62 -17 -14 -113 -14 -127 0 -13 13 -19 148 -8 187
4 15 15 28 25 30 10 1 20 5 23 7 9 9 88 -4 95 -16z"/>
<path d="M4577 2656 c-23 -18 -28 -43 -28 -139 -1 -89 13 -133 44 -143 35 -11
110 -12 140 -1 38 13 49 45 52 142 2 86 -12 135 -41 146 -33 13 -148 9 -167
-5z m159 -41 c9 -12 10 -124 2 -193 -3 -28 -112 -32 -140 -4 -13 13 -17 150
-6 184 7 18 18 28 36 30 46 6 96 -2 108 -17z"/>
<path d="M4890 2625 c-31 -32 -41 -48 -36 -62 7 -16 12 -13 42 20 22 23 36 33
39 25 3 -7 6 -64 7 -127 3 -101 5 -114 21 -117 17 -2 18 8 15 148 -3 144 -4
151 -24 154 -14 2 -35 -11 -64 -41z"/>
<path d="M5092 2619 c-35 -38 -40 -48 -28 -58 11 -9 20 -4 44 24 17 19 33 35
35 35 3 0 5 -42 5 -92 1 -168 0 -164 21 -165 17 -1 18 7 17 150 l-1 151 -25 1
c-18 0 -38 -13 -68 -46z"/>
<path d="M5313 2659 c-12 -4 -26 -23 -33 -43 -13 -41 -12 -181 3 -213 11 -26
55 -42 112 -42 94 0 118 34 114 166 -2 89 -19 132 -52 134 -98 6 -125 5 -144
-2z m143 -41 c17 -13 18 -179 1 -201 -14 -20 -104 -31 -128 -16 -16 9 -24 143
-12 189 8 31 14 36 49 40 42 6 73 2 90 -12z"/>
<path d="M4958 2244 c-25 -8 -40 -57 -40 -131 1 -108 13 -148 50 -161 35 -12
140 -6 157 8 24 20 32 63 31 151 -3 123 -13 136 -108 137 -40 0 -80 -2 -90 -4z
m147 -47 c18 -24 13 -196 -6 -208 -15 -10 -112 -10 -129 1 -8 5 -15 112 -11
187 2 39 120 55 146 20z"/>
</g>
</svg>
