<?xml version="1.0" standalone="no"?>
<!DOCTYPE svg PUBLIC "-//W3C//DTD SVG 20010904//EN"
 "http://www.w3.org/TR/2001/REC-SVG-20010904/DTD/svg10.dtd">
<svg version="1.0" xmlns="http://www.w3.org/2000/svg"
 width="1250.000000pt" height="1250.000000pt" viewBox="0 0 1250.000000 1250.000000"
 preserveAspectRatio="xMidYMid meet">
<metadata>
Created by potrace 1.11, written by Peter Selinger 2001-2013
</metadata>
<g transform="translate(0.000000,1250.000000) scale(0.100000,-0.100000)"
fill="#000000" stroke="none">
<path d="M0 6250 l0 -3961 1848 4 c1016 2 1867 7 1892 10 42 6 101 13 175 22
41 4 127 17 145 20 315 65 474 116 695 227 55 27 107 56 116 64 8 8 19 14 22
14 22 0 197 139 283 225 178 176 299 367 382 605 30 87 66 229 77 310 4 24 8
47 10 50 19 30 29 1190 12 1300 -25 152 -60 292 -93 370 -156 359 -398 623
-721 786 -88 45 -262 111 -308 118 -19 3 -32 16 -16 16 17 0 153 69 246 125
163 99 310 232 406 368 89 127 168 316 185 444 2 19 6 38 8 42 25 40 26 1249
2 1377 -3 12 -7 39 -10 60 -3 22 -8 50 -11 64 -3 14 -7 35 -9 47 -32 167 -129
393 -230 536 -91 128 -273 296 -411 380 -45 27 -269 137 -291 142 -10 3 -57
18 -104 34 -117 41 -262 77 -405 100 -141 23 -183 29 -375 48 -36 4 -842 8
-1792 10 l-1728 4 0 -3961z m3105 2501 c248 -43 399 -153 467 -342 22 -63 23
-72 25 -514 3 -490 2 -508 -55 -625 -37 -76 -140 -177 -222 -216 -81 -39 -185
-70 -270 -80 -36 -5 -335 -8 -665 -9 l-600 0 -2 890 c-1 490 0 895 2 900 4 15
1229 11 1320 -4z m230 -3195 c22 -4 51 -11 65 -16 14 -4 38 -11 54 -15 78 -17
213 -98 273 -163 77 -84 135 -218 149 -342 5 -36 8 -209 7 -385 0 -251 -4
-336 -16 -392 -18 -84 -62 -182 -107 -239 -86 -108 -246 -196 -420 -230 -180
-35 -247 -38 -925 -38 l-630 -1 -1 918 -1 918 756 -4 c416 -2 774 -7 796 -11z"/>
<path d="M6630 6250 l0 -3960 893 0 892 0 0 1198 0 1197 745 1 c905 2 1094 8
1390 50 104 15 273 44 280 49 4 2 22 7 40 10 59 10 218 55 318 89 516 175 891
492 1095 926 43 90 90 209 102 260 1 3 4 12 8 20 12 31 51 197 61 266 9 57 15
95 21 129 16 92 20 273 20 965 0 669 -4 878 -20 980 -2 14 -6 45 -9 70 -4 25
-8 56 -11 70 -9 45 -15 74 -21 105 -3 17 -20 84 -39 150 -113 399 -303 684
-614 918 -107 81 -261 166 -411 227 -30 12 -64 26 -75 31 -52 23 -285 90 -360
105 -11 2 -40 8 -65 14 -88 19 -313 52 -450 65 -30 3 -86 8 -125 12 -38 4
-879 8 -1867 10 l-1798 4 0 -3961z m3405 2358 c11 -3 43 -9 70 -13 148 -21
308 -87 394 -162 27 -24 68 -71 90 -104 46 -68 96 -213 108 -310 4 -35 8 -305
8 -599 0 -473 -2 -545 -18 -625 -19 -97 -27 -121 -65 -205 -32 -68 -33 -70
-107 -144 -69 -70 -145 -113 -260 -150 -177 -56 -248 -60 -1120 -61 l-720 0 0
1193 0 1193 800 -4 c440 -2 809 -6 820 -9z"/>
</g>
</svg>
