<svg id="Layer_1" data-name="Layer 1" xmlns="http://www.w3.org/2000/svg" viewBox="0 0 62.65 50"><defs><style>.cls-1{fill:#231f20;}.cls-2{fill:#b4bbbf;}</style></defs><title>BytePushersLogoWebIcon</title><polygon class="cls-1" points="60.92 17.48 54.65 23.75 31.25 0.36 23.94 7.67 25.12 8.85 31.25 2.72 32.67 4.14 32.66 4.15 32.84 4.34 32.86 4.32 33.22 4.68 33.22 4.72 33.53 5.03 33.53 4.99 53.47 24.93 46.35 32.05 47.52 33.23 62.1 18.66 60.92 17.48"/><polygon class="cls-1" points="31.34 47.28 9.13 25.07 16.25 17.95 15.07 16.77 0.5 31.34 1.68 32.52 7.95 26.25 31.34 49.64 38.66 42.33 37.48 41.15 31.34 47.28"/><path class="cls-2" d="M19.75,25.53c-.31,0-.41-.05-.44-.09a1.67,1.67,0,0,1-.06-.65,1.62,1.62,0,0,1,.06-.65s.13-.09.44-.09H20v-.22h-.21c-.34,0-.55.05-.62.14a1.4,1.4,0,0,0-.12.75,1.83,1.83,0,0,0,.11.84c.09.12.29.18.63.18H20v-.21Z"/><polygon class="cls-2" points="35.71 33.73 35.71 31.87 35.38 31.87 34.87 32.42 34.86 32.44 35.02 32.59 35.47 32.09 35.47 33.73 35.71 33.73"/><polygon class="cls-2" points="34.39 33.73 34.39 31.87 34.06 31.87 33.55 32.42 33.54 32.44 33.7 32.59 34.14 32.09 34.14 33.73 34.39 33.73"/><polygon class="cls-2" points="21.65 32.42 21.64 32.44 21.8 32.59 22.25 32.09 22.25 33.73 22.49 33.73 22.49 31.87 22.16 31.87 21.65 32.42"/><polygon class="cls-2" points="20.23 32.42 20.22 32.44 20.37 32.59 20.82 32.09 20.82 33.73 21.07 33.73 21.07 31.87 20.74 31.87 20.23 32.42"/><polygon class="cls-2" points="25.55 32.09 25.55 33.73 25.79 33.73 25.79 31.87 25.47 31.87 24.96 32.42 24.94 32.44 25.1 32.59 25.55 32.09"/><path class="cls-2" d="M23.78,33.73c.34,0,.55,0,.64-.17a1.7,1.7,0,0,0,.1-.78,1.76,1.76,0,0,0-.11-.81c-.07-.09-.28-.14-.63-.14s-.54.05-.62.14a1.41,1.41,0,0,0-.11.75,1.92,1.92,0,0,0,.1.84C23.24,33.68,23.45,33.73,23.78,33.73Zm-.43-1.6s.12-.09.43-.09.41.05.44.09a1.67,1.67,0,0,1,.06.65,1.62,1.62,0,0,1-.06.65s-.13.09-.44.09-.41-.05-.43-.09a1.5,1.5,0,0,1-.07-.65A1.54,1.54,0,0,1,23.35,32.13Z"/><path class="cls-2" d="M26.43,32a1.41,1.41,0,0,0-.11.75,1.92,1.92,0,0,0,.1.84c.09.12.3.17.63.17s.55,0,.64-.17a1.87,1.87,0,0,0,.1-.78,1.76,1.76,0,0,0-.11-.81c-.07-.09-.28-.14-.63-.14S26.51,31.88,26.43,32Zm1.06.16a1.67,1.67,0,0,1,.06.65,1.62,1.62,0,0,1-.06.65s-.13.09-.44.09-.41-.05-.43-.09a1.53,1.53,0,0,1-.07-.65,1.53,1.53,0,0,1,.07-.65s.12-.09.43-.09S27.46,32.09,27.49,32.13Z"/><path class="cls-2" d="M29.81,33.08c0-.09,0-.19,0-.3a1.76,1.76,0,0,0-.11-.81c-.08-.09-.28-.14-.63-.14s-.54.05-.62.14a1.38,1.38,0,0,0-.12.75,1.86,1.86,0,0,0,.11.84h0a.88.88,0,0,0,.61.15c.34,0,.54,0,.63-.17A1.14,1.14,0,0,0,29.81,33.08Zm-.24.12a.6.6,0,0,1-.05.23s-.13.09-.44.09a1.27,1.27,0,0,1-.32,0,.17.17,0,0,1-.12-.06,3.55,3.55,0,0,1,0-1.3s.13-.09.44-.09.41.05.44.09a1.67,1.67,0,0,1,.06.65C29.58,33,29.58,33.09,29.57,33.2Z"/><path class="cls-2" d="M27.08,20.45v-.13a.84.84,0,0,0-.24-.06v.19Z"/><polygon class="cls-2" points="32.71 18.57 32.19 19.14 32.35 19.29 32.8 18.79 32.8 20.43 32.96 20.43 32.96 18.57 32.71 18.57"/><rect class="cls-2" x="35.55" y="20.21" width="0.11" height="0.23"/><rect class="cls-2" x="36.71" y="20.21" width="0.24" height="0.23"/><path class="cls-2" d="M42.34,18.57h-.07l.07,0Z"/><path class="cls-2" d="M19.79,20.24c-.31,0-.41,0-.44-.09a1.73,1.73,0,0,1-.07-.65,1.5,1.5,0,0,1,.07-.65s.13-.09.44-.09H20v-.21h-.17c-.34,0-.55,0-.63.14a1.48,1.48,0,0,0-.11.74,2,2,0,0,0,.1.85c.09.12.3.17.64.17H20v-.2Z"/><path class="cls-2" d="M25.08,20.45c.34,0,.55-.05.64-.17l0-.07h-.32a1.39,1.39,0,0,1-.35,0,1.3,1.3,0,0,1-.34,0h-.32l0,.07C24.54,20.4,24.75,20.45,25.08,20.45Z"/><path class="cls-2" d="M23.69,20.28l0-.07H23.4a1.3,1.3,0,0,1-.34,0,1.33,1.33,0,0,1-.35,0h-.16v.16a1.29,1.29,0,0,0,.51.08C23.39,20.45,23.6,20.4,23.69,20.28Z"/><path class="cls-2" d="M38.27,20.45c.33,0,.54-.05.63-.17l0-.07h-.32a1.94,1.94,0,0,1-.68,0H37.6a.25.25,0,0,0,0,.07C37.73,20.4,37.93,20.45,38.27,20.45Z"/><path class="cls-2" d="M40.3,20.45h.24a2.9,2.9,0,0,0-.89-.19l0,0C39.76,20.4,40,20.45,40.3,20.45Z"/><path class="cls-2" d="M31.08,29.38h.23c.11,0,.18,0,.21.08a1.89,1.89,0,0,1,.06.65,1.94,1.94,0,0,1-.06.65s-.1.07-.31.08h-.13c-.31,0-.41-.05-.44-.09a1.11,1.11,0,0,1-.06-.48l-.21.32a.65.65,0,0,0,.07.28c.09.12.3.18.64.18h.11a.69.69,0,0,0,.52-.17,1.62,1.62,0,0,0,.1-.77,1.78,1.78,0,0,0-.1-.81.61.61,0,0,0-.4-.14H31c0,.07,0,.14-.05.21Z"/><polygon class="cls-2" points="19.7 29.74 19.68 29.75 19.84 29.9 19.96 29.77 19.96 29.45 19.7 29.74"/><polygon class="cls-2" points="19.84 21.79 19.83 21.8 19.96 21.93 19.96 21.65 19.84 21.79"/><polygon class="cls-2" points="44.51 21.78 44.66 21.93 45.11 21.43 45.11 23.08 45.36 23.08 45.36 21.21 45.03 21.21 44.52 21.77 44.51 21.78"/><path class="cls-2" d="M27.87,21.78l.16.15.08-.09a2.64,2.64,0,0,0,0-.29l-.2.22Z"/><path class="cls-2" d="M30.64,22.92a.62.62,0,0,0,.07-.23,3.91,3.91,0,0,0,0-.55c0-.14,0-.26,0-.37A4.07,4.07,0,0,1,30.54,23,.39.39,0,0,0,30.64,22.92Z"/><path class="cls-2" d="M24.05,25.66H23a1.51,1.51,0,0,0,1.08,0Z"/><path class="cls-2" d="M36.07,22.14a1.55,1.55,0,0,0-.11-.8c-.05-.08-.19-.12-.41-.14v.21c.14,0,.2.05.22.08a1.54,1.54,0,0,1,.07.65,1.5,1.5,0,0,1-.07.65s-.08.07-.22.08v.22a.59.59,0,0,0,.42-.17A1.68,1.68,0,0,0,36.07,22.14Z"/><path class="cls-2" d="M43.83,22.14V23a.3.3,0,0,0,.13-.09,1.68,1.68,0,0,0,.1-.78,1.55,1.55,0,0,0-.11-.8.3.3,0,0,0-.21-.11,2.72,2.72,0,0,1,0,.3A2.38,2.38,0,0,1,43.83,22.14Z"/><polygon class="cls-2" points="18.23 24.09 18.23 25.74 18.47 25.74 18.47 23.87 18.15 23.87 17.62 24.44 17.78 24.59 18.23 24.09"/><rect class="cls-2" x="25.38" y="25.66" width="0.24" height="0.08"/><path class="cls-2" d="M43.7,24.57l.45-.5v1.65h.24V23.85h-.32l-.32.35q0,.19-.06.36Z"/><path class="cls-2" d="M27.17,25.73l-.58-.05a1.29,1.29,0,0,0,.44.06Z"/><path class="cls-2" d="M32.68,25.44a1.77,1.77,0,0,1-.07-.65,1.73,1.73,0,0,1,.07-.65s.09-.08.28-.09v-.21a1.12,1.12,0,0,0-.38.07.18.18,0,0,0-.08.06,1.4,1.4,0,0,0-.12.75,1.89,1.89,0,0,0,.1.84.39.39,0,0,0,.1.08.92.92,0,0,0,.38.09v-.21C32.77,25.51,32.7,25.47,32.68,25.44Z"/><polygon class="cls-2" points="25.43 27.02 25.37 27.08 25.53 27.23 25.98 26.73 25.98 28.38 26.22 28.38 26.22 26.52 25.9 26.52 25.43 27.02"/><path class="cls-2" d="M19.7,28.17c-.31,0-.41-.05-.44-.09a1.5,1.5,0,0,1-.07-.65,1.5,1.5,0,0,1,.07-.65s.13-.09.44-.09l.26,0v-.22H19.7c-.34,0-.55,0-.62.14a1.34,1.34,0,0,0-.12.74,1.86,1.86,0,0,0,.1.84c.09.12.3.18.64.18l.26,0v-.21Z"/><path class="cls-2" d="M23.64,28.2a1.57,1.57,0,0,0,.11-.77c0-.15,0-.29,0-.4a.79.79,0,0,0-.09-.41c-.08-.1-.28-.14-.63-.14a1.78,1.78,0,0,0-.46.05v.31l0-.06s.13-.09.44-.09.41,0,.44.09a.67.67,0,0,1,.05.25c0,.11,0,.24,0,.4a1.62,1.62,0,0,1-.06.65s-.13.09-.44.09-.41-.05-.44-.09l0-.06v.3a1.38,1.38,0,0,0,.46.06C23.35,28.38,23.55,28.32,23.64,28.2Z"/><path class="cls-2" d="M31.25,26.78a1.62,1.62,0,0,1,.06.65,1.62,1.62,0,0,1-.06.65.32.32,0,0,1-.2.07v.22h0a.51.51,0,0,0,.36-.16,1.57,1.57,0,0,0,.11-.77,1.76,1.76,0,0,0-.11-.81c-.07-.09-.26-.13-.56-.14a1.6,1.6,0,0,1,.05.21C31.15,26.7,31.22,26.74,31.25,26.78Z"/><path class="cls-2" d="M42,28.36h.24V26.78l-.24.1Z"/><path class="cls-2" d="M41.41,27.07l.16.14.24-.27-.38.11h0Z"/><polygon class="cls-2" points="42.75 27.05 42.73 27.07 42.89 27.21 43.34 26.72 43.34 28.36 43.58 28.36 43.58 26.5 43.26 26.5 42.75 27.05"/><path class="cls-2" d="M36.69,27.43a1.5,1.5,0,0,1-.07.65s-.12.09-.43.09-.41-.05-.44-.09a1.53,1.53,0,0,1-.07-.65.91.91,0,0,1,0-.17h-.14v.94h0c.09.12.3.18.64.18s.54-.06.63-.18a1.62,1.62,0,0,0,.1-.77v-.17h-.23Z"/><path class="cls-2" d="M38.69,27.43a1.89,1.89,0,0,1-.06.65s-.13.09-.44.09-.41-.05-.44-.09a1.84,1.84,0,0,1-.06-.65v-.17h-.24v.1a1.8,1.8,0,0,0,.11.84q.12.18.63.18t.63-.18a1.62,1.62,0,0,0,.1-.77v-.18h-.23Z"/><path class="cls-2" d="M40.77,27.43a1.62,1.62,0,0,1-.06.65s-.13.09-.44.09-.41-.05-.44-.09a1.84,1.84,0,0,1-.06-.65v-.19h-.23v.11a1.86,1.86,0,0,0,.1.84c.09.12.29.18.63.18s.54-.06.63-.18a1.57,1.57,0,0,0,.11-.77c0-.11,0-.21,0-.3l-.23,0Z"/><polygon class="cls-2" points="28.96 15.21 28.96 13.35 28.64 13.35 28.13 13.9 28.11 13.92 28.27 14.06 28.72 13.57 28.72 15.21 28.96 15.21"/><polygon class="cls-2" points="23.23 13.57 23.23 15.21 23.47 15.21 23.47 13.35 23.15 13.35 22.64 13.9 22.63 13.92 22.78 14.06 23.23 13.57"/><polygon class="cls-2" points="32.32 15.21 32.32 13.35 32 13.35 31.48 13.9 31.47 13.92 31.63 14.06 32.08 13.57 32.08 15.21 32.32 15.21"/><polygon class="cls-2" points="33.61 15.21 33.61 13.35 33.28 13.35 32.77 13.9 32.76 13.92 32.92 14.06 33.37 13.57 33.37 15.21 33.61 15.21"/><polygon class="cls-2" points="35.96 13.9 35.95 13.92 36.11 14.06 36.56 13.57 36.56 15.21 36.8 15.21 36.8 13.35 36.48 13.35 35.96 13.9"/><polygon class="cls-2" points="37.83 13.57 37.83 15.21 38.08 15.21 38.08 13.35 37.75 13.35 37.24 13.9 37.23 13.92 37.38 14.06 37.83 13.57"/><polygon class="cls-2" points="39.17 13.57 39.17 15.21 39.41 15.21 39.41 13.35 39.09 13.35 38.57 13.9 38.56 13.92 38.72 14.06 39.17 13.57"/><path class="cls-2" d="M24.84,15.23c.34,0,.54-.06.63-.18a1.57,1.57,0,0,0,.11-.77,1.76,1.76,0,0,0-.11-.81c-.08-.09-.28-.14-.63-.14s-.54,0-.62.14a1.37,1.37,0,0,0-.11.74,1.86,1.86,0,0,0,.1.84C24.3,15.17,24.5,15.23,24.84,15.23Zm-.44-1.6s.13-.09.44-.09.41.05.44.09a1.62,1.62,0,0,1,.06.65,1.62,1.62,0,0,1-.06.65s-.13.09-.44.09-.41,0-.44-.09a1.84,1.84,0,0,1-.06-.65A1.84,1.84,0,0,1,24.4,13.63Z"/><path class="cls-2" d="M26.16,14.21a1.86,1.86,0,0,0,.1.84q.14.18.63.18c.34,0,.54-.06.63-.18a1.57,1.57,0,0,0,.11-.77,1.76,1.76,0,0,0-.11-.81c-.08-.09-.28-.14-.63-.14s-.54,0-.62.14A1.37,1.37,0,0,0,26.16,14.21Zm.29-.58s.13-.09.44-.09.41.05.44.09a1.62,1.62,0,0,1,.06.65,1.62,1.62,0,0,1-.06.65s-.13.09-.44.09-.41,0-.44-.09a1.62,1.62,0,0,1-.06-.65A1.62,1.62,0,0,1,26.45,13.63Z"/><path class="cls-2" d="M29.65,13.47a1.37,1.37,0,0,0-.11.74,1.86,1.86,0,0,0,.1.84q.13.18.63.18c.34,0,.55-.06.64-.18a1.77,1.77,0,0,0,.1-.77,1.76,1.76,0,0,0-.11-.81c-.07-.09-.28-.14-.63-.14S29.73,13.37,29.65,13.47Zm1.06.16a1.62,1.62,0,0,1,.06.65,1.62,1.62,0,0,1-.06.65s-.13.09-.44.09-.41,0-.43-.09a1.53,1.53,0,0,1-.07-.65,1.53,1.53,0,0,1,.07-.65s.12-.09.43-.09S30.68,13.59,30.71,13.63Z"/><polygon class="cls-2" points="33.88 8.42 33.88 10.06 34.13 10.06 34.13 8.2 33.8 8.2 33.29 8.75 33.28 8.77 33.44 8.92 33.88 8.42"/><polygon class="cls-2" points="28.6 8.42 28.6 10.06 28.84 10.06 28.84 8.2 28.52 8.2 28.01 8.75 28 8.77 28.15 8.92 28.6 8.42"/><path class="cls-2" d="M30.19,10.08c.34,0,.54-.05.63-.17a1.66,1.66,0,0,0,.11-.78,1.76,1.76,0,0,0-.11-.81c-.07-.09-.28-.14-.63-.14s-.54.05-.62.14a1.41,1.41,0,0,0-.11.75,1.92,1.92,0,0,0,.1.84C29.65,10,29.86,10.08,30.19,10.08Zm-.44-1.6s.13-.09.44-.09.41,0,.44.09a1.62,1.62,0,0,1,.06.65,1.62,1.62,0,0,1-.06.65s-.13.09-.44.09-.41,0-.44-.09a1.84,1.84,0,0,1-.06-.65A1.84,1.84,0,0,1,29.75,8.48Z"/><path class="cls-2" d="M31.4,9.07a1.86,1.86,0,0,0,.11.84c.09.12.29.17.63.17s.54-.05.63-.17a1.66,1.66,0,0,0,.11-.78,1.76,1.76,0,0,0-.11-.81c-.08-.09-.28-.14-.63-.14s-.54.05-.62.14A1.38,1.38,0,0,0,31.4,9.07Zm.3-.59s.13-.09.44-.09.41,0,.44.09a1.62,1.62,0,0,1,.06.65,1.62,1.62,0,0,1-.06.65s-.13.09-.44.09-.41,0-.44-.09a1.62,1.62,0,0,1-.06-.65A1.62,1.62,0,0,1,31.7,8.48Z"/><path class="cls-2" d="M31.29,7.81q.5,0,.63-.18a1.68,1.68,0,0,0,.1-.78,1.57,1.57,0,0,0-.11-.8c-.07-.1-.28-.15-.62-.15s-.55,0-.62.14a1.4,1.4,0,0,0-.12.75,2.06,2.06,0,0,0,.1.84C30.74,7.75,31,7.81,31.29,7.81Zm-.44-1.6s.13-.1.44-.1.41,0,.43.09a1.58,1.58,0,0,1,.07.65,1.5,1.5,0,0,1-.07.65s-.12.1-.43.1-.41,0-.44-.1a1.5,1.5,0,0,1-.07-.65A1.47,1.47,0,0,1,30.85,6.21Z"/><path class="cls-2" d="M34.15,14.21a1.86,1.86,0,0,0,.1.84c.09.12.29.18.63.18s.54-.06.63-.18a1.57,1.57,0,0,0,.11-.77,1.76,1.76,0,0,0-.11-.81c-.08-.09-.28-.14-.63-.14s-.54,0-.62.14A1.37,1.37,0,0,0,34.15,14.21Zm.29-.58s.13-.09.44-.09.41.05.44.09a1.62,1.62,0,0,1,.06.65,1.62,1.62,0,0,1-.06.65s-.13.09-.44.09-.41,0-.44-.09a1.62,1.62,0,0,1-.06-.65A1.62,1.62,0,0,1,34.44,13.63Z"/><polygon class="cls-2" points="27.67 10.98 27.67 12.63 27.91 12.63 27.91 10.76 27.59 10.76 27.08 11.32 27.06 11.33 27.22 11.48 27.67 10.98"/><polygon class="cls-2" points="26.35 10.98 26.35 12.63 26.59 12.63 26.59 10.76 26.27 10.76 25.75 11.32 25.74 11.33 25.9 11.48 26.35 10.98"/><polygon class="cls-2" points="31.25 12.63 31.25 10.76 30.93 10.76 30.41 11.32 30.4 11.33 30.56 11.48 31.01 10.98 31.01 12.63 31.25 12.63"/><polygon class="cls-2" points="33.75 11.33 33.91 11.48 34.35 10.98 34.35 12.63 34.6 12.63 34.6 10.76 34.27 10.76 33.76 11.32 33.75 11.33"/><path class="cls-2" d="M28.47,11.63a1.92,1.92,0,0,0,.1.84c.09.12.29.18.63.18s.54-.06.63-.18a1.66,1.66,0,0,0,.11-.78,1.76,1.76,0,0,0-.11-.81c-.08-.09-.28-.14-.63-.14s-.54,0-.62.14A1.41,1.41,0,0,0,28.47,11.63Zm.29-.59s.13-.09.44-.09.41.05.44.09a1.67,1.67,0,0,1,.06.65,1.62,1.62,0,0,1-.06.65c0,.05-.13.09-.44.09s-.41,0-.44-.09a1.62,1.62,0,0,1-.06-.65A1.67,1.67,0,0,1,28.76,11Z"/><path class="cls-2" d="M31.92,10.88a1.53,1.53,0,0,0-.11.75,1.92,1.92,0,0,0,.1.84q.14.18.63.18c.34,0,.55-.06.64-.18a1.7,1.7,0,0,0,.1-.78,1.76,1.76,0,0,0-.11-.81c-.07-.09-.28-.14-.63-.14S32,10.79,31.92,10.88ZM33,11a1.54,1.54,0,0,1,.07.65,1.5,1.5,0,0,1-.07.65c0,.05-.13.09-.44.09s-.41,0-.43-.09a1.5,1.5,0,0,1-.07-.65,1.54,1.54,0,0,1,.07-.65s.12-.09.43-.09S33,11,33,11Z"/><path class="cls-2" d="M35.88,12.65c.34,0,.54-.06.63-.18a1.66,1.66,0,0,0,.11-.78,1.76,1.76,0,0,0-.11-.81c-.08-.09-.28-.14-.63-.14s-.54,0-.62.14a1.41,1.41,0,0,0-.11.75,1.92,1.92,0,0,0,.1.84Q35.39,12.65,35.88,12.65ZM35.44,11s.13-.09.44-.09.41.05.44.09a1.67,1.67,0,0,1,.06.65,1.62,1.62,0,0,1-.06.65c0,.05-.13.09-.44.09s-.41,0-.44-.09a1.62,1.62,0,0,1-.06-.65A1.67,1.67,0,0,1,35.44,11Z"/><polygon class="cls-2" points="32.28 32.42 32.27 32.44 32.42 32.59 32.87 32.09 32.87 33.73 33.12 33.73 33.12 31.87 32.79 31.87 32.28 32.42"/><polygon class="cls-2" points="39.05 33.73 39.05 31.87 38.72 31.87 38.21 32.42 38.2 32.44 38.35 32.59 38.8 32.09 38.8 33.73 39.05 33.73"/><polygon class="cls-2" points="41.56 32.42 41.55 32.44 41.7 32.59 42.15 32.09 42.15 33.73 42.39 33.73 42.39 31.87 42.07 31.87 41.56 32.42"/><path class="cls-2" d="M36.26,32.72a1.92,1.92,0,0,0,.1.84c.09.12.3.17.64.17s.54,0,.63-.17a1.7,1.7,0,0,0,.1-.78,1.62,1.62,0,0,0-.11-.81c-.07-.09-.28-.14-.62-.14s-.55.05-.62.14A1.38,1.38,0,0,0,36.26,32.72Zm.3-.59S36.69,32,37,32s.41.05.43.09a1.54,1.54,0,0,1,.07.65,1.5,1.5,0,0,1-.07.65s-.12.09-.43.09-.41-.05-.44-.09a3.05,3.05,0,0,1,0-1.3Z"/><path class="cls-2" d="M40.34,31.83c-.34,0-.54.05-.62.14a1.38,1.38,0,0,0-.12.75,1.86,1.86,0,0,0,.11.84c.09.12.29.17.63.17s.54,0,.63-.17a1.66,1.66,0,0,0,.11-.78A1.76,1.76,0,0,0,41,32C40.89,31.88,40.69,31.83,40.34,31.83Zm.44,1.6s-.13.09-.44.09-.41-.05-.44-.09a1.62,1.62,0,0,1-.06-.65,1.67,1.67,0,0,1,.06-.65S40,32,40.34,32s.41.05.44.09a1.67,1.67,0,0,1,.06.65A1.62,1.62,0,0,1,40.78,33.43Z"/><path class="cls-2" d="M33.5,39.71c-.34,0-.54,0-.62.14a1.34,1.34,0,0,0-.12.74,1.8,1.8,0,0,0,.11.84c.09.12.29.18.63.18s.54-.06.63-.18a1.57,1.57,0,0,0,.11-.77,1.76,1.76,0,0,0-.11-.81C34.05,39.75,33.85,39.71,33.5,39.71Zm.44,1.6s-.13.09-.44.09-.41,0-.44-.09a3.55,3.55,0,0,1,0-1.3s.13-.09.44-.09.41,0,.44.09a1.62,1.62,0,0,1,.06.65A1.84,1.84,0,0,1,33.94,41.31Z"/><polygon class="cls-2" points="22.61 16.16 22.61 17.81 22.85 17.81 22.85 15.94 22.53 15.94 22.01 16.5 22 16.51 22.16 16.66 22.61 16.16"/><polygon class="cls-2" points="23.3 16.49 23.46 16.64 23.91 16.14 23.91 17.79 24.15 17.79 24.15 15.93 23.82 15.93 23.31 16.48 23.3 16.49"/><polygon class="cls-2" points="32.85 17.79 32.85 15.93 32.53 15.93 32.01 16.48 32 16.49 32.16 16.64 32.61 16.14 32.61 17.79 32.85 17.79"/><polygon class="cls-2" points="36.15 17.79 36.15 15.93 35.83 15.93 35.32 16.48 35.3 16.49 35.46 16.64 35.91 16.14 35.91 17.79 36.15 17.79"/><path class="cls-2" d="M26.11,16.05a1.37,1.37,0,0,0-.11.74,1.89,1.89,0,0,0,.1.84q.13.18.63.18c.34,0,.54-.06.63-.18a1.57,1.57,0,0,0,.11-.77,1.73,1.73,0,0,0-.11-.81c-.08-.1-.28-.14-.63-.14S26.19,16,26.11,16.05Zm1.06.16a1.62,1.62,0,0,1,.06.65,1.62,1.62,0,0,1-.06.65s-.13.09-.44.09-.41-.05-.44-.09a1.84,1.84,0,0,1-.06-.65,1.84,1.84,0,0,1,.06-.65s.13-.09.44-.09S27.14,16.17,27.17,16.21Z"/><path class="cls-2" d="M20.8,17.81q.49,0,.63-.18a1.62,1.62,0,0,0,.1-.77,1.6,1.6,0,0,0-.11-.81c-.07-.1-.28-.14-.62-.14s-.55,0-.62.14a1.34,1.34,0,0,0-.12.74,1.89,1.89,0,0,0,.1.84C20.25,17.75,20.46,17.81,20.8,17.81Zm-.44-1.6s.13-.09.44-.09.41.05.43.09a1.5,1.5,0,0,1,.07.65,1.5,1.5,0,0,1-.07.65s-.12.09-.43.09-.41-.05-.44-.09a1.84,1.84,0,0,1-.06-.65A1.84,1.84,0,0,1,20.36,16.21Z"/><path class="cls-2" d="M34.14,17.81c.34,0,.55-.06.64-.18a1.62,1.62,0,0,0,.1-.77,1.73,1.73,0,0,0-.11-.81c-.07-.1-.28-.14-.63-.14s-.54,0-.62.14a1.48,1.48,0,0,0-.11.74,1.89,1.89,0,0,0,.1.84Q33.65,17.81,34.14,17.81Zm-.43-1.6s.13-.09.43-.09.41.05.44.09a1.5,1.5,0,0,1,.07.65,1.5,1.5,0,0,1-.07.65s-.13.09-.44.09-.4-.05-.43-.09a1.5,1.5,0,0,1-.07-.65A1.5,1.5,0,0,1,33.71,16.21Z"/><path class="cls-2" d="M37.41,15.91c-.34,0-.54,0-.62.14a1.48,1.48,0,0,0-.11.74,1.89,1.89,0,0,0,.1.84q.13.18.63.18c.34,0,.55-.06.64-.18a1.62,1.62,0,0,0,.1-.77,1.73,1.73,0,0,0-.11-.81C38,16,37.76,15.91,37.41,15.91Zm.44,1.6s-.13.09-.44.09-.4-.05-.43-.09a1.53,1.53,0,0,1-.07-.65,1.53,1.53,0,0,1,.07-.65s.12-.09.43-.09.41.05.44.09a1.5,1.5,0,0,1,.07.65A1.5,1.5,0,0,1,37.85,17.51Z"/><path class="cls-2" d="M30.77,17.81c.34,0,.55-.06.64-.18a1.62,1.62,0,0,0,.1-.77,1.73,1.73,0,0,0-.11-.81c-.07-.1-.28-.14-.63-.14s-.54,0-.62.14a1.48,1.48,0,0,0-.11.74,1.89,1.89,0,0,0,.1.84Q30.28,17.81,30.77,17.81Zm-.43-1.6s.12-.09.43-.09.41.05.44.09a1.73,1.73,0,0,1,.07.65,1.73,1.73,0,0,1-.07.65s-.13.09-.44.09-.41-.05-.43-.09a1.5,1.5,0,0,1-.07-.65A1.5,1.5,0,0,1,30.34,16.21Z"/><polygon class="cls-2" points="25.43 17.79 25.43 15.93 25.1 15.93 24.59 16.48 24.58 16.49 24.73 16.64 25.18 16.14 25.18 17.79 25.43 17.79"/><path class="cls-2" d="M28.11,17.63c.09.12.3.18.64.18s.54-.06.63-.18a1.62,1.62,0,0,0,.1-.77,1.6,1.6,0,0,0-.11-.81c-.07-.1-.28-.14-.62-.14s-.55,0-.62.14a1.34,1.34,0,0,0-.12.74A1.89,1.89,0,0,0,28.11,17.63Zm.2-1.42s.13-.09.44-.09.41.05.43.09a1.5,1.5,0,0,1,.07.65,1.5,1.5,0,0,1-.07.65s-.12.09-.43.09-.41-.05-.44-.09a1.5,1.5,0,0,1-.07-.65A1.5,1.5,0,0,1,28.31,16.21Z"/><path class="cls-2" d="M38.71,16.79a1.89,1.89,0,0,0,.1.84q.13.18.63.18c.34,0,.54-.06.63-.18a1.57,1.57,0,0,0,.11-.77,1.73,1.73,0,0,0-.11-.81c-.08-.1-.28-.14-.63-.14s-.54,0-.62.14A1.37,1.37,0,0,0,38.71,16.79Zm.29-.58s.13-.09.44-.09.41.05.44.09a1.62,1.62,0,0,1,.06.65,1.62,1.62,0,0,1-.06.65s-.13.09-.44.09-.41-.05-.44-.09a1.84,1.84,0,0,1-.06-.65A1.84,1.84,0,0,1,39,16.21Z"/><path class="cls-2" d="M32,37.09c-.34,0-.55,0-.62.14a1.34,1.34,0,0,0-.12.74,1.86,1.86,0,0,0,.1.84c.09.12.3.18.64.18s.54-.06.63-.18a3,3,0,0,0,0-1.58C32.51,37.13,32.31,37.09,32,37.09Zm.43,1.6s-.12.09-.43.09-.41-.05-.44-.09a3.05,3.05,0,0,1,0-1.3s.13-.09.44-.09.41.05.43.09a3.05,3.05,0,0,1,0,1.3Z"/><path class="cls-2" d="M36,37.09c-.34,0-.54,0-.62.14a1.34,1.34,0,0,0-.12.74,1.8,1.8,0,0,0,.11.84c.09.12.29.18.63.18s.54-.06.63-.18a1.57,1.57,0,0,0,.11-.77,1.76,1.76,0,0,0-.11-.81C36.55,37.13,36.35,37.09,36,37.09Zm.44,1.6s-.13.09-.44.09-.41-.05-.44-.09a3.55,3.55,0,0,1,0-1.3s.13-.09.44-.09.41.05.44.09a3.55,3.55,0,0,1,0,1.3Z"/><path class="cls-2" d="M34,37.09c-.34,0-.54,0-.62.14a1.37,1.37,0,0,0-.11.74,1.86,1.86,0,0,0,.1.84q.13.18.63.18c.34,0,.55-.06.64-.18a3,3,0,0,0,0-1.58C34.53,37.13,34.32,37.09,34,37.09Zm.44,1.6s-.13.09-.44.09-.41-.05-.43-.09a3.05,3.05,0,0,1,0-1.3s.12-.09.43-.09.41.05.44.09a3.55,3.55,0,0,1,0,1.3Z"/><path class="cls-2" d="M41.49,17.81c.34,0,.54-.06.63-.18a1.57,1.57,0,0,0,.11-.77,1.73,1.73,0,0,0-.11-.81c-.08-.1-.28-.14-.63-.14s-.54,0-.62.14a1.34,1.34,0,0,0-.12.74,1.83,1.83,0,0,0,.11.84C41,17.75,41.15,17.81,41.49,17.81Zm-.44-1.6s.13-.09.44-.09.41.05.44.09a1.62,1.62,0,0,1,.06.65,1.62,1.62,0,0,1-.06.65s-.13.09-.44.09-.4,0-.44-.09a1.62,1.62,0,0,1-.06-.65A1.62,1.62,0,0,1,41.05,16.21Z"/><polygon class="cls-2" points="31.5 18.79 31.5 20.43 31.74 20.43 31.74 18.57 31.42 18.57 30.91 19.12 30.9 19.14 31.05 19.29 31.5 18.79"/><polygon class="cls-2" points="23.5 29.2 23.24 29.49 23.52 29.49 23.58 29.42 23.58 29.49 23.82 29.49 23.82 29.2 23.5 29.2"/><path class="cls-2" d="M26.84,29.18l-.25.28.3,0,0,0v0l.25,0v-.23Z"/><polygon class="cls-2" points="40.27 29.74 40.26 29.75 40.42 29.9 40.87 29.4 40.87 31.05 41.11 31.05 41.11 29.18 40.79 29.18 40.27 29.74"/><polygon class="cls-2" points="37.68 31.05 37.68 29.18 37.35 29.18 36.84 29.74 36.83 29.75 36.98 29.9 37.43 29.4 37.43 31.05 37.68 31.05"/><polygon class="cls-2" points="32.71 29.18 32.2 29.74 32.19 29.75 32.34 29.9 32.79 29.4 32.79 31.05 32.96 31.05 32.96 29.18 32.71 29.18"/><path class="cls-2" d="M18.4,29.15c-.34,0-.55,0-.62.14a1.34,1.34,0,0,0-.12.74,1.89,1.89,0,0,0,.1.84c.09.12.3.18.64.18s.54-.06.63-.18a1.62,1.62,0,0,0,.1-.77,1.6,1.6,0,0,0-.11-.81C19,29.19,18.74,29.15,18.4,29.15Zm.43,1.6s-.12.09-.43.09-.41-.05-.44-.09a1.73,1.73,0,0,1-.07-.65,1.5,1.5,0,0,1,.07-.65s.13-.09.44-.09.41.05.43.09a1.5,1.5,0,0,1,.07.65A1.54,1.54,0,0,1,18.83,30.75Z"/><path class="cls-2" d="M25.1,29.16c-.34,0-.55.05-.63.14a.5.5,0,0,0-.07.19h.25v0s.13-.09.44-.09.4.05.43.09h.26a.39.39,0,0,0-.07-.17C25.65,29.21,25.44,29.16,25.1,29.16Z"/><path class="cls-2" d="M39.61,30.89a1.65,1.65,0,0,0,.1-.77,1.6,1.6,0,0,0-.11-.81c-.07-.1-.28-.15-.62-.15s-.55.05-.62.14a1.4,1.4,0,0,0-.12.75,1.89,1.89,0,0,0,.1.84c.09.12.3.18.64.18S39.52,31,39.61,30.89Zm-1.07-.12a1.77,1.77,0,0,1-.07-.65,1.73,1.73,0,0,1,.07-.65s.13-.09.44-.09.41.05.43.09a1.53,1.53,0,0,1,.07.65,1.56,1.56,0,0,1-.07.65s-.12.09-.43.09S38.57,30.81,38.54,30.77Z"/><polygon class="cls-2" points="43.62 29.74 43.61 29.75 43.77 29.9 44.21 29.4 44.21 31.05 44.46 31.05 44.46 29.18 44.13 29.18 43.62 29.74"/><path class="cls-2" d="M42.41,29.16c-.34,0-.54.05-.62.14a1.56,1.56,0,0,0-.11.75,1.89,1.89,0,0,0,.1.84q.13.18.63.18c.34,0,.55-.06.64-.18a1.65,1.65,0,0,0,.1-.77,1.6,1.6,0,0,0-.11-.81Q42.94,29.16,42.41,29.16Zm.44,1.61s-.13.09-.44.09-.4-.05-.43-.09a1.54,1.54,0,0,1-.07-.65,1.5,1.5,0,0,1,.07-.65s.13-.09.43-.09.41.05.44.09a1.5,1.5,0,0,1,.07.65A1.54,1.54,0,0,1,42.85,30.77Z"/><polygon class="cls-2" points="23.84 21.45 23.84 23.1 24.08 23.1 24.08 21.23 23.76 21.23 23.25 21.79 23.23 21.8 23.39 21.95 23.84 21.45"/><polygon class="cls-2" points="25.14 21.45 25.14 23.1 25.38 23.1 25.38 21.23 25.06 21.23 24.55 21.79 24.53 21.8 24.69 21.95 25.14 21.45"/><polygon class="cls-2" points="17.07 21.43 17.07 23.08 17.32 23.08 17.32 21.21 16.99 21.21 16.48 21.77 16.47 21.78 16.62 21.93 17.07 21.43"/><polygon class="cls-2" points="15.77 21.43 15.77 23.08 16.02 23.08 16.02 21.21 15.69 21.21 15.18 21.77 15.17 21.78 15.32 21.93 15.77 21.43"/><polygon class="cls-2" points="32.05 23.08 32.05 21.21 31.73 21.21 31.21 21.77 31.2 21.78 31.36 21.93 31.81 21.43 31.81 23.08 32.05 23.08"/><polygon class="cls-2" points="36.54 21.77 36.53 21.78 36.69 21.93 37.13 21.43 37.13 23.08 37.38 23.08 37.38 21.21 37.05 21.21 36.54 21.77"/><polygon class="cls-2" points="37.86 21.77 37.85 21.78 38.01 21.93 38.46 21.43 38.46 23.08 38.7 23.08 38.7 21.21 38.38 21.21 37.86 21.77"/><path class="cls-2" d="M40.72,22.14a1.73,1.73,0,0,0-.1-.8c-.08-.1-.28-.15-.63-.15s-.55,0-.62.14a1.38,1.38,0,0,0-.12.75,1.83,1.83,0,0,0,.11.84c.09.12.29.18.63.18s.54-.06.63-.18A1.68,1.68,0,0,0,40.72,22.14Zm-.29.65c0,.05-.13.1-.44.1s-.41-.05-.44-.1a1.62,1.62,0,0,1-.06-.65,1.67,1.67,0,0,1,.06-.65s.13-.09.44-.09.41.05.44.09a1.88,1.88,0,0,1,.06.65A1.84,1.84,0,0,1,40.43,22.79Z"/><path class="cls-2" d="M46.64,23.1c.34,0,.54-.06.63-.18a1.63,1.63,0,0,0,.11-.78,1.67,1.67,0,0,0-.11-.8c-.08-.1-.28-.15-.63-.15s-.54,0-.62.14a1.38,1.38,0,0,0-.12.75,1.86,1.86,0,0,0,.11.84C46.1,23,46.3,23.1,46.64,23.1Zm-.44-1.61s.13-.09.44-.09.41.05.44.09a1.67,1.67,0,0,1,.06.65,1.62,1.62,0,0,1-.06.65c0,.05-.13.1-.44.1s-.41-.05-.44-.1a1.84,1.84,0,0,1-.06-.65A1.88,1.88,0,0,1,46.2,21.49Z"/><polygon class="cls-2" points="17 25.74 17.24 25.74 17.24 23.87 16.92 23.87 16.41 24.43 16.4 24.44 16.55 24.59 17 24.09 17 25.74"/><polygon class="cls-2" points="36.31 35.09 36.3 35.1 36.45 35.25 36.9 34.75 36.9 36.4 37.14 36.4 37.14 34.53 36.82 34.53 36.31 35.09"/><polygon class="cls-2" points="37.61 35.09 37.59 35.1 37.75 35.25 38.2 34.75 38.2 36.4 38.44 36.4 38.44 34.53 38.12 34.53 37.61 35.09"/><polygon class="cls-2" points="38.92 35.09 38.91 35.1 39.06 35.25 39.51 34.75 39.51 36.4 39.75 36.4 39.75 34.53 39.43 34.53 38.92 35.09"/><polygon class="cls-2" points="37.9 23.85 37.39 24.41 37.37 24.42 37.53 24.57 37.98 24.07 37.98 25.08 38.22 25.08 38.22 23.85 37.9 23.85"/><polygon class="cls-2" points="46.9 24.41 46.89 24.42 47.05 24.57 47.49 24.07 47.49 25.72 47.74 25.72 47.74 23.85 47.41 23.85 46.9 24.41"/><path class="cls-2" d="M13.2,23.83c-.34,0-.54.05-.62.14a1.44,1.44,0,0,0-.11.75,1.89,1.89,0,0,0,.1.84q.13.18.63.18c.34,0,.55-.06.64-.18a1.81,1.81,0,0,0,.1-.77,1.73,1.73,0,0,0-.11-.81Q13.73,23.83,13.2,23.83Zm.44,1.61s-.13.09-.44.09-.41-.05-.44-.09a1.94,1.94,0,0,1-.06-.65,1.89,1.89,0,0,1,.06-.65s.13-.09.44-.09.41.05.44.09a1.62,1.62,0,0,1,.06.65A1.67,1.67,0,0,1,13.64,25.44Z"/><path class="cls-2" d="M15.88,25.56a1.65,1.65,0,0,0,.1-.77,1.6,1.6,0,0,0-.11-.81c-.07-.1-.28-.15-.62-.15s-.55.05-.63.14a1.56,1.56,0,0,0-.11.75,1.89,1.89,0,0,0,.1.84c.09.12.3.18.64.18S15.79,25.68,15.88,25.56Zm-1.07-.12a1.54,1.54,0,0,1-.07-.65,1.5,1.5,0,0,1,.07-.65s.13-.09.44-.09.4.05.43.09a1.5,1.5,0,0,1,.07.65,1.54,1.54,0,0,1-.07.65s-.12.09-.43.09S14.84,25.48,14.81,25.44Z"/><path class="cls-2" d="M31,25.74c.34,0,.54-.06.63-.18a1.6,1.6,0,0,0,.11-.77,1.73,1.73,0,0,0-.11-.81c-.08-.1-.28-.15-.63-.15s-.54.05-.62.14a1.44,1.44,0,0,0-.11.75,2.15,2.15,0,0,0,.09.83l0,0C30.51,25.68,30.71,25.74,31,25.74Zm-.44-1.6s.13-.09.44-.09.41.05.44.09a1.62,1.62,0,0,1,.06.65,1.67,1.67,0,0,1-.06.65s-.13.09-.44.09-.41-.05-.44-.09a1.67,1.67,0,0,1-.06-.65A1.62,1.62,0,0,1,30.6,24.14Z"/><path class="cls-2" d="M39.43,23.85l-.51.56h0l.16.15.45-.5v1l.24,0V23.85Z"/><path class="cls-2" d="M36.92,24c-.08-.1-.28-.15-.63-.15s-.54.05-.62.14a1.4,1.4,0,0,0-.12.75c0,.14,0,.26,0,.36h.23v-.29a1.84,1.84,0,0,1,.06-.65s.13-.09.44-.09.41.05.44.09a1.62,1.62,0,0,1,.06.65v.29H37c0-.09,0-.18,0-.29A1.73,1.73,0,0,0,36.92,24Z"/><path class="cls-2" d="M45.71,23.83c-.34,0-.54.05-.62.14a1.44,1.44,0,0,0-.11.75,1.89,1.89,0,0,0,.1.84c.09.12.29.18.63.18s.54-.06.63-.18a1.6,1.6,0,0,0,.11-.77,1.73,1.73,0,0,0-.11-.81C46.26,23.88,46.06,23.83,45.71,23.83Zm.44,1.61s-.13.09-.44.09-.41-.05-.44-.09a1.88,1.88,0,0,1-.06-.65,1.84,1.84,0,0,1,.06-.65s.13-.09.44-.09.41.05.44.09a1.62,1.62,0,0,1,.06.65A1.67,1.67,0,0,1,46.15,25.44Z"/><path class="cls-2" d="M49.69,24q-.11-.15-.63-.15c-.34,0-.54.05-.62.14a1.56,1.56,0,0,0-.11.75,1.89,1.89,0,0,0,.1.84q.14.18.63.18c.34,0,.55-.06.64-.18a1.65,1.65,0,0,0,.1-.77A1.73,1.73,0,0,0,49.69,24Zm-.19,1.46s-.13.09-.44.09-.4-.05-.43-.09a1.56,1.56,0,0,1-.07-.65,1.53,1.53,0,0,1,.07-.65s.12-.09.43-.09.41.05.44.09a1.5,1.5,0,0,1,.07.65A1.54,1.54,0,0,1,49.5,25.44Z"/><polygon class="cls-2" points="28.42 38.99 28.67 38.99 28.67 37.13 28.34 37.13 27.83 37.68 27.82 37.69 27.98 37.84 28.42 37.34 28.42 38.99"/><path class="cls-2" d="M26.64,37.09c-.34,0-.54,0-.62.14a1.37,1.37,0,0,0-.11.74,1.86,1.86,0,0,0,.1.84q.14.18.63.18c.34,0,.54-.06.63-.18a1.57,1.57,0,0,0,.11-.77,1.76,1.76,0,0,0-.11-.81C27.19,37.13,27,37.09,26.64,37.09Zm.44,1.6s-.13.09-.44.09-.41-.05-.44-.09a3.55,3.55,0,0,1,0-1.3s.13-.09.44-.09.41.05.44.09a3.55,3.55,0,0,1,0,1.3Z"/><path class="cls-2" d="M30.72,38a1.76,1.76,0,0,0-.11-.81c-.07-.1-.28-.14-.63-.14s-.54,0-.62.14a1.48,1.48,0,0,0-.11.74,1.86,1.86,0,0,0,.1.84q.13.18.63.18c.34,0,.55-.06.64-.18A1.62,1.62,0,0,0,30.72,38Zm-.3.65s-.13.09-.44.09-.4-.05-.43-.09a3.05,3.05,0,0,1,0-1.3s.12-.09.43-.09.41.05.44.09a3.05,3.05,0,0,1,0,1.3Z"/><polygon class="cls-2" points="29.21 36.4 29.21 34.53 28.89 34.53 28.38 35.09 28.36 35.1 28.52 35.25 28.97 34.75 28.97 36.4 29.21 36.4"/><polygon class="cls-2" points="30.52 36.4 30.52 34.53 30.2 34.53 29.69 35.09 29.68 35.1 29.83 35.25 30.28 34.75 30.28 36.4 30.52 36.4"/><polygon class="cls-2" points="33.02 35.1 33.17 35.25 33.62 34.75 33.62 36.4 33.87 36.4 33.87 34.53 33.54 34.53 33.03 35.09 33.02 35.1"/><polygon class="cls-2" points="25.05 35.09 25.03 35.1 25.19 35.25 25.64 34.75 25.64 36.4 25.88 36.4 25.88 34.53 25.56 34.53 25.05 35.09"/><path class="cls-2" d="M23.84,34.5c-.34,0-.54,0-.62.13a1.56,1.56,0,0,0-.11.75,1.89,1.89,0,0,0,.1.84q.13.18.63.18c.34,0,.55-.06.64-.18a1.65,1.65,0,0,0,.1-.77,1.73,1.73,0,0,0-.11-.81C24.4,34.54,24.19,34.5,23.84,34.5Zm.44,1.6s-.13.09-.44.09-.4,0-.43-.09a1.54,1.54,0,0,1-.07-.65,1.5,1.5,0,0,1,.07-.65s.13-.09.43-.09.41,0,.44.09a1.5,1.5,0,0,1,.07.65A1.54,1.54,0,0,1,24.28,36.1Z"/><path class="cls-2" d="M27.81,34.64c-.08-.1-.28-.14-.63-.14s-.54,0-.62.13a1.44,1.44,0,0,0-.11.75,1.89,1.89,0,0,0,.1.84q.14.18.63.18c.34,0,.54-.06.63-.18a1.57,1.57,0,0,0,.11-.77A1.73,1.73,0,0,0,27.81,34.64Zm-.19,1.46s-.13.09-.44.09-.41,0-.44-.09a1.88,1.88,0,0,1-.06-.65,1.84,1.84,0,0,1,.06-.65s.13-.09.44-.09.41,0,.44.09a1.62,1.62,0,0,1,.06.65A1.67,1.67,0,0,1,27.62,36.1Z"/><path class="cls-2" d="M31.22,34.63a1.4,1.4,0,0,0-.12.75,1.83,1.83,0,0,0,.11.84c.09.12.29.18.63.18s.54-.06.63-.18a1.57,1.57,0,0,0,.11-.77,1.73,1.73,0,0,0-.11-.81c-.08-.1-.28-.14-.63-.14S31.3,34.54,31.22,34.63Zm1.06.17a1.62,1.62,0,0,1,.06.65,1.67,1.67,0,0,1-.06.65s-.13.09-.44.09-.41,0-.44-.09a1.67,1.67,0,0,1-.06-.65,1.62,1.62,0,0,1,.06-.65s.13-.09.44-.09S32.25,34.76,32.28,34.8Z"/><path class="cls-2" d="M35.92,35.45a1.73,1.73,0,0,0-.11-.81c-.07-.1-.28-.14-.63-.14s-.54,0-.62.13a1.44,1.44,0,0,0-.11.75,1.89,1.89,0,0,0,.1.84q.14.18.63.18c.34,0,.55-.06.64-.18A1.77,1.77,0,0,0,35.92,35.45Zm-.3.65s-.13.09-.44.09-.41,0-.43-.09a1.54,1.54,0,0,1-.07-.65,1.5,1.5,0,0,1,.07-.65s.12-.09.43-.09.41,0,.44.09a1.62,1.62,0,0,1,.06.65A1.67,1.67,0,0,1,35.62,36.1Z"/><polygon class="cls-2" points="30.7 41.59 30.94 41.59 30.94 39.72 30.62 39.72 30.11 40.28 30.09 40.29 30.25 40.44 30.7 39.94 30.7 41.59"/><polygon class="cls-2" points="31.41 40.28 31.39 40.29 31.55 40.44 32 39.94 32 41.59 32.24 41.59 32.24 39.72 31.92 39.72 31.41 40.28"/><path class="cls-2" d="M29,39.69c-.34,0-.54,0-.62.14a1.37,1.37,0,0,0-.11.74,1.89,1.89,0,0,0,.1.84q.13.18.63.18t.63-.18a1.57,1.57,0,0,0,.11-.77,1.73,1.73,0,0,0-.11-.81C29.54,39.73,29.33,39.69,29,39.69Zm.44,1.6s-.13.09-.44.09-.41-.05-.44-.09a1.67,1.67,0,0,1-.06-.65,1.62,1.62,0,0,1,.06-.65s.13-.09.44-.09.41.05.44.09a1.62,1.62,0,0,1,.06.65A1.67,1.67,0,0,1,29.42,41.29Z"/><path class="cls-2" d="M31.31,42.29c-.34,0-.54.05-.62.14a1.4,1.4,0,0,0-.12.75,1.83,1.83,0,0,0,.11.84c.09.12.29.18.63.18s.54-.06.63-.18a1.6,1.6,0,0,0,.11-.77,1.73,1.73,0,0,0-.11-.81C31.86,42.34,31.66,42.29,31.31,42.29Zm.44,1.61s-.13.09-.44.09-.41-.05-.44-.09a1.67,1.67,0,0,1-.06-.65,1.62,1.62,0,0,1,.06-.65s.13-.09.44-.09.41.05.44.09a1.84,1.84,0,0,1,.06.65A1.88,1.88,0,0,1,31.75,43.9Z"/><polygon class="cls-2" points="32.88 28.36 32.88 26.5 32.56 26.5 32.05 27.05 32.03 27.07 32.19 27.21 32.64 26.72 32.64 28.36 32.88 28.36"/><polygon class="cls-2" points="45.37 27.05 45.36 27.07 45.52 27.21 45.96 26.72 45.96 28.36 46.21 28.36 46.21 26.5 45.88 26.5 45.37 27.05"/><polygon class="cls-2" points="46.63 27.05 46.61 27.07 46.77 27.21 47.22 26.72 47.22 28.36 47.46 28.36 47.46 26.5 47.14 26.5 46.63 27.05"/><path class="cls-2" d="M15.61,26.48c-.34,0-.54,0-.62.14a1.48,1.48,0,0,0-.11.74,1.86,1.86,0,0,0,.1.84q.13.18.63.18c.34,0,.55-.06.64-.18a1.62,1.62,0,0,0,.1-.77,1.76,1.76,0,0,0-.11-.81C16.17,26.52,16,26.48,15.61,26.48Zm.44,1.6s-.13.09-.44.09-.41-.05-.43-.09a1.53,1.53,0,0,1-.07-.65,1.5,1.5,0,0,1,.07-.65s.12-.09.43-.09.41,0,.44.09a1.5,1.5,0,0,1,.07.65A1.5,1.5,0,0,1,16.05,28.08Z"/><path class="cls-2" d="M18.34,27.43a1.62,1.62,0,0,0-.11-.81c-.07-.1-.27-.14-.62-.14s-.55,0-.62.14a1.34,1.34,0,0,0-.12.74,1.86,1.86,0,0,0,.1.84c.09.12.3.18.64.18s.54-.06.63-.18A1.62,1.62,0,0,0,18.34,27.43Zm-.3.65s-.12.09-.43.09-.41-.05-.44-.09a1.84,1.84,0,0,1-.06-.65,1.62,1.62,0,0,1,.06-.65s.13-.09.44-.09.41,0,.43.09a1.5,1.5,0,0,1,.07.65A1.5,1.5,0,0,1,18,28.08Z"/><path class="cls-2" d="M31.76,33.56a1.7,1.7,0,0,0,.1-.78,1.81,1.81,0,0,0-.1-.81c-.08-.09-.28-.14-.63-.14l-.33,0c-.15,0-.25.06-.29.12a2.82,2.82,0,0,0-.12.75,1.86,1.86,0,0,0,.11.84c.09.12.29.17.63.17S31.67,33.68,31.76,33.56Zm-1.07-.13a1.84,1.84,0,0,1-.06-.65,2.52,2.52,0,0,1,0-.6l0,0v0c0-.06.19-.09.43-.09s.41.05.44.09a1.67,1.67,0,0,1,.06.65,1.62,1.62,0,0,1-.06.65s-.13.09-.44.09S30.72,33.47,30.69,33.43Z"/><path class="cls-2" d="M43.37,18.79v1a5.41,5.41,0,0,1,.23.68h0V18.57h-.32l-.41.44a1.07,1.07,0,0,1,.14.16Z"/><polygon class="cls-2" points="44.74 18.79 44.74 20.43 44.98 20.43 44.98 18.57 44.66 18.57 44.17 19.1 44.13 19.14 44.29 19.29 44.74 18.79"/><path class="cls-2" d="M30.15,18.85a1,1,0,0,1,.06.33,2.49,2.49,0,0,1,.24.49V19.5a1.76,1.76,0,0,0-.11-.81c-.07-.09-.28-.14-.63-.14h-.16a2.59,2.59,0,0,1,.3.21C30.05,18.78,30.13,18.82,30.15,18.85Z"/><polygon class="cls-2" points="18.24 18.79 18.24 20.43 18.48 20.43 18.48 18.57 18.16 18.57 17.63 19.14 17.79 19.29 18.24 18.79"/><path class="cls-2" d="M35.63,29.38c.31,0,.41.05.44.09a1.5,1.5,0,0,1,.07.65,1.54,1.54,0,0,1-.07.65s-.13.09-.44.09h-.08v.21h.08c.34,0,.55-.06.64-.18a1.27,1.27,0,0,0,.1-.6v-.35a1.35,1.35,0,0,0-.11-.63q-.1-.15-.63-.15h-.08v.21Z"/><path class="cls-2" d="M26.7,23.1q.51,0,.63-.18a1.66,1.66,0,0,0,.11-.78,3.12,3.12,0,0,0,0-.6.44.44,0,0,0-.07-.2.46.46,0,0,0-.33-.13l-.3,0c-.34,0-.54,0-.62.14a1.41,1.41,0,0,0-.11.75,1.92,1.92,0,0,0,.1.84Q26.21,23.1,26.7,23.1Zm-.44-1.61s.13-.09.44-.09.41.05.44.09a1.67,1.67,0,0,1,.06.65,1.62,1.62,0,0,1-.06.65c0,.05-.13.1-.44.1s-.41-.05-.44-.1a1.89,1.89,0,0,1-.06-.65A1.94,1.94,0,0,1,26.26,21.49Z"/><path class="cls-2" d="M22.76,22.14a1.67,1.67,0,0,0-.11-.8.26.26,0,0,0-.1-.07V23a.27.27,0,0,0,.1-.08A1.66,1.66,0,0,0,22.76,22.14Z"/><path class="cls-2" d="M17.91,22.08a1.92,1.92,0,0,0,.1.84q.14.18.63.18h0c.32,0,.51-.06.6-.17a1.7,1.7,0,0,0,.1-.78,1.67,1.67,0,0,0-.11-.8c-.07-.1-.26-.14-.59-.15h0c-.34,0-.54,0-.62.14A1.53,1.53,0,0,0,17.91,22.08Zm.3-.59s.12-.09.43-.09h0c.28,0,.37.05.4.09a1.77,1.77,0,0,1,.07.65,1.73,1.73,0,0,1-.07.65s-.12.09-.4.09h0c-.31,0-.4-.05-.43-.1a1.5,1.5,0,0,1-.07-.65A1.54,1.54,0,0,1,18.21,21.49Z"/><path class="cls-2" d="M32.86,22.79a1.62,1.62,0,0,1-.06-.65,1.67,1.67,0,0,1,.06-.65.17.17,0,0,1,.1,0v-.22a.46.46,0,0,0-.28.11,1.38,1.38,0,0,0-.12.75,2.06,2.06,0,0,0,.1.84.47.47,0,0,0,.3.14v-.21C32.9,22.83,32.87,22.81,32.86,22.79Z"/><path class="cls-2" d="M29.54,24.71v.18a1,1,0,0,1,.23.12,1.55,1.55,0,0,0,0-.22c0-.16,0-.31,0-.42a.69.69,0,0,0,0-.22,1.1,1.1,0,0,1-.21.14A3.73,3.73,0,0,1,29.54,24.71Z"/><path class="cls-2" d="M40.55,24.79a1.84,1.84,0,0,1,.06-.65s.13-.09.44-.09h0c0-.07,0-.14,0-.21h-.07c-.34,0-.54.05-.62.14a1.44,1.44,0,0,0-.11.75v.16a1.57,1.57,0,0,0,.23-.09Z"/><polygon class="cls-2" points="24.2 27.02 24.13 27.08 24.29 27.23 24.74 26.73 24.74 28.38 24.98 28.38 24.98 26.52 24.66 26.52 24.2 27.02"/><polygon class="cls-2" points="44.14 27.05 44.13 27.07 44.29 27.21 44.74 26.72 44.74 28.36 44.98 28.36 44.98 26.5 44.66 26.5 44.14 27.05"/><path class="cls-2" d="M26.92,26.62a1,1,0,0,0-.11.49v.25a1.86,1.86,0,0,0,.1.84c.09.12.29.18.63.18s.54-.06.63-.18h0a1.88,1.88,0,0,0,.09-.75,1.76,1.76,0,0,0-.11-.81c-.08-.1-.28-.14-.63-.14S27,26.52,26.92,26.62Zm1.06.16a1.62,1.62,0,0,1,.06.65c0,.13,0,.25,0,.34a1,1,0,0,1-.05.31s-.13.09-.44.09-.41-.05-.44-.09a1.62,1.62,0,0,1-.06-.65,2.71,2.71,0,0,1,0-.29.94.94,0,0,1,.05-.36s.13-.09.44-.09S28,26.74,28,26.78Z"/><path class="cls-1" d="M22.51,27.43a2.78,2.78,0,0,0,0,.59V26.84a1.52,1.52,0,0,0,0,.19C22.51,27.14,22.51,27.27,22.51,27.43Z"/><polygon class="cls-1" points="28.93 29.74 28.92 29.75 29.08 29.9 29.53 29.4 29.53 31.05 29.77 31.05 29.77 29.18 29.45 29.18 28.93 29.74"/><path class="cls-1" d="M20.48,24.79a1.78,1.78,0,0,0-.1-.81c-.06-.08-.2-.12-.42-.14v.22c.15,0,.21.05.23.08a1.62,1.62,0,0,1,.06.65,1.67,1.67,0,0,1-.06.65s-.08.06-.23.08v.21a.59.59,0,0,0,.42-.17A1.65,1.65,0,0,0,20.48,24.79Z"/><polygon class="cls-1" points="29.29 26.73 29.29 28.38 29.54 28.38 29.54 26.52 29.21 26.52 28.7 27.07 28.69 27.08 28.84 27.23 29.29 26.73"/><polygon class="cls-1" points="21.55 18.81 21.55 20.45 21.8 20.45 21.8 18.59 21.47 18.59 20.96 19.14 20.95 19.16 21.1 19.3 21.55 18.81"/><path class="cls-1" d="M27.08,18.59h-.32l-.51.55,0,0,.16.14.45-.49v1.45a.84.84,0,0,1,.24.06Z"/><polygon class="cls-1" points="28.14 18.79 28.14 20.43 28.39 20.43 28.39 18.57 28.06 18.57 27.54 19.14 27.69 19.29 28.14 18.79"/><path class="cls-1" d="M20.52,19.5a1.62,1.62,0,0,0-.11-.81c-.06-.08-.21-.12-.45-.13v.21c.17,0,.24.05.26.08a1.5,1.5,0,0,1,.07.65,1.5,1.5,0,0,1-.07.65s-.08.07-.26.09v.2a.62.62,0,0,0,.46-.16A1.7,1.7,0,0,0,20.52,19.5Z"/><path class="cls-1" d="M24.65,20.15a1.53,1.53,0,0,1-.07-.65,1.5,1.5,0,0,1,.07-.65s.12-.09.43-.09.41,0,.44.09a1.62,1.62,0,0,1,.06.65,1.62,1.62,0,0,1-.06.65.17.17,0,0,1-.09.06h.32a2.27,2.27,0,0,0,.07-.71,1.76,1.76,0,0,0-.11-.81c-.07-.09-.28-.14-.63-.14s-.54,0-.62.14a1.37,1.37,0,0,0-.11.74,2.65,2.65,0,0,0,.07.78h.32A.17.17,0,0,1,24.65,20.15Z"/><path class="cls-1" d="M22.71,20.21a.17.17,0,0,1-.09-.06,1.73,1.73,0,0,1-.07-.65,1.5,1.5,0,0,1,.07-.65s.13-.09.44-.09.4,0,.43.09a1.5,1.5,0,0,1,.07.65,1.5,1.5,0,0,1-.07.65.17.17,0,0,1-.09.06h.32a2.27,2.27,0,0,0,.07-.71,1.62,1.62,0,0,0-.11-.81c-.07-.09-.28-.14-.62-.14s-.55,0-.63.14a1.48,1.48,0,0,0-.11.74,2,2,0,0,0,.1.85l.13.09v-.16Z"/><path class="cls-1" d="M30.34,30.05a4.17,4.17,0,0,0,0,.56l.21-.32v-.17a1.84,1.84,0,0,1,.06-.65s.09-.07.27-.09c0-.07,0-.14.05-.21-.27,0-.44,0-.5.13A1.4,1.4,0,0,0,30.34,30.05Z"/><polygon class="cls-1" points="20.29 31.05 20.53 31.05 20.53 29.18 20.21 29.18 19.96 29.45 19.96 29.77 20.29 29.4 20.29 31.05"/><path class="cls-1" d="M21.82,29.17h0c-.34,0-.54.05-.62.14a1.56,1.56,0,0,0-.11.75,1.89,1.89,0,0,0,.1.84q.13.18.63.18h0c.34,0,.54-.06.63-.18a1.65,1.65,0,0,0,.1-.77,1.6,1.6,0,0,0-.11-.81C22.37,29.21,22.17,29.17,21.82,29.17Zm.43,1.6s-.12.09-.43.09h0c-.3,0-.4-.05-.43-.09a1.54,1.54,0,0,1-.07-.65,1.5,1.5,0,0,1,.07-.65s.13-.09.43-.09h0c.31,0,.4.05.43.09a1.73,1.73,0,0,1,.07.65A1.77,1.77,0,0,1,22.25,30.77Z"/><polygon class="cls-1" points="20.43 21.45 20.43 23.1 20.68 23.1 20.68 21.23 20.35 21.23 19.96 21.65 19.96 21.93 19.98 21.95 20.43 21.45"/><path class="cls-1" d="M28.48,21.43v1.65h.24V21.21H28.4l-.31.34a2.64,2.64,0,0,1,0,.29Z"/><path class="cls-1" d="M30.63,21.34q-.11-.15-.63-.15c-.34,0-.54,0-.62.14a1.53,1.53,0,0,0-.11.75,1.92,1.92,0,0,0,.1.84q.14.18.63.18a1.2,1.2,0,0,0,.54-.1,4.07,4.07,0,0,0,.19-1.23,1,1,0,0,0-.1-.43Zm-.19,1.45c0,.05-.13.1-.44.1s-.4-.05-.43-.1a1.53,1.53,0,0,1-.07-.65,1.56,1.56,0,0,1,.07-.65s.12-.09.43-.09.41.05.44.09a1.54,1.54,0,0,1,.07.65A1.5,1.5,0,0,1,30.44,22.79Z"/><path class="cls-1" d="M24.14,25.58a1.33,1.33,0,0,0,.1-.68.28.28,0,0,0,0-.09,1.73,1.73,0,0,0-.11-.81c-.08-.1-.28-.15-.63-.15s-.54,0-.62.14a1.38,1.38,0,0,0-.12.75.81.81,0,0,0,0,.16,1.4,1.4,0,0,0,.1.68.24.24,0,0,0,.09.08h1.08A.24.24,0,0,0,24.14,25.58ZM24,24.9a1.44,1.44,0,0,1-.06.56s-.13.09-.44.09-.41-.05-.44-.09A1.44,1.44,0,0,1,23,24.9v-.09a1.62,1.62,0,0,1,.06-.65c0-.05.13-.1.44-.1s.41.05.44.1a1.62,1.62,0,0,1,.06.65v.09Z"/><polygon class="cls-1" points="21.53 24.09 21.53 25.74 21.78 25.74 21.78 23.87 21.45 23.87 20.94 24.43 20.93 24.44 21.09 24.59 21.53 24.09"/><polygon class="cls-1" points="25.62 23.87 25.3 23.87 24.79 24.43 24.77 24.44 24.93 24.59 25.38 24.09 25.38 25.66 25.62 25.66 25.62 23.87"/><path class="cls-1" d="M27.67,25.56a1.65,1.65,0,0,0,.1-.77,1.73,1.73,0,0,0-.11-.81c-.07-.1-.27-.14-.62-.15h0c-.34,0-.54.05-.62.14a1.46,1.46,0,0,0-.11.73v0a1.89,1.89,0,0,0,.1.84.39.39,0,0,0,.19.12l.58.05A.67.67,0,0,0,27.67,25.56Zm-1.07-.12a1.54,1.54,0,0,1-.07-.65v-.17c0-.33,0-.45.07-.48s.11-.09.39-.09h0c.31,0,.41.05.44.09a1.84,1.84,0,0,1,.06.65,1.88,1.88,0,0,1-.06.65s-.13.09-.44.09S26.62,25.48,26.6,25.44Z"/><polygon class="cls-1" points="21.46 26.73 21.46 28.38 21.7 28.38 21.7 26.52 21.38 26.52 20.87 27.07 20.85 27.08 21.01 27.23 21.46 26.73"/><path class="cls-1" d="M20.43,27.43a1.62,1.62,0,0,0-.11-.81c-.05-.07-.17-.11-.36-.13v.22c.11,0,.16,0,.17.07a1.5,1.5,0,0,1,.07.65,1.5,1.5,0,0,1-.07.65s-.06.05-.17.07v.21a.49.49,0,0,0,.37-.16A1.62,1.62,0,0,0,20.43,27.43Z"/><path class="cls-1" d="M22.51,27.43c0-.16,0-.29,0-.4a1.52,1.52,0,0,1,0-.19v-.31a.31.31,0,0,0-.16.09.77.77,0,0,0-.1.41c0,.1,0,.21,0,.33a1.86,1.86,0,0,0,.1.84.32.32,0,0,0,.17.12V28A2.78,2.78,0,0,1,22.51,27.43Z"/><path class="cls-1" d="M30.19,26.62h0a1.54,1.54,0,0,0-.11.74,1.8,1.8,0,0,0,.11.84c.09.12.29.18.63.18h.24v-.22h-.24c-.31,0-.41-.05-.44-.09a1.84,1.84,0,0,1-.06-.65,2,2,0,0,1,.06-.64h0s.13-.09.44-.09h.12a1.6,1.6,0,0,0-.05-.21h-.07C30.47,26.48,30.27,26.52,30.19,26.62Z"/><polygon class="cls-1" points="22.99 29.76 22.98 29.77 23.13 29.92 23.52 29.49 23.24 29.49 22.99 29.76"/><rect class="cls-1" x="23.58" y="29.49" width="0.24" height="1.58"/><path class="cls-1" d="M26.33,29.74h0l.16.15.41-.46-.3,0Z"/><path class="cls-1" d="M26.92,31.05h.25V29.41l-.25,0Z"/><path class="cls-1" d="M25.6,30.12a1.54,1.54,0,0,1-.07.65s-.12.09-.43.09-.41-.05-.44-.09a1.54,1.54,0,0,1-.07-.65,1.78,1.78,0,0,1,.06-.63H24.4a2.67,2.67,0,0,0,0,.56,1.89,1.89,0,0,0,.1.84c.09.12.3.18.64.18s.54-.06.63-.18a1.65,1.65,0,0,0,.1-.77,3.39,3.39,0,0,0,0-.64h-.25A1.81,1.81,0,0,1,25.6,30.12Z"/><path class="cls-1" d="M30.42,25.57l0,0h0Z"/><path class="cls-1" d="M29,19.28v.15a2,2,0,0,0,.1.85c.09.12.3.17.63.17h.05a.75.75,0,0,0,.59-.17,1.35,1.35,0,0,0,.1-.61,2.49,2.49,0,0,0-.24-.49v.32a1.62,1.62,0,0,1-.06.65s-.13.09-.44.09h0c-.3,0-.4,0-.42-.09a1.53,1.53,0,0,1-.07-.65v0a1.39,1.39,0,0,1,.07-.61s.12-.09.43-.09h.14a2.59,2.59,0,0,0-.3-.21.71.71,0,0,0-.46.14A1.1,1.1,0,0,0,29,19.28Z"/><polygon class="cls-1" points="27.62 29.74 27.61 29.75 27.77 29.9 28.22 29.4 28.22 31.05 28.46 31.05 28.46 29.18 28.14 29.18 27.62 29.74"/><path class="cls-1" d="M22,21.19a1.78,1.78,0,0,0-.46,0,.45.45,0,0,0-.16.09,1.41,1.41,0,0,0-.11.75,1.92,1.92,0,0,0,.1.84.38.38,0,0,0,.17.11,1.39,1.39,0,0,0,.46.07,1.15,1.15,0,0,0,.53-.1V21.27A1.33,1.33,0,0,0,22,21.19Zm0,1.7c-.31,0-.41-.05-.44-.1h0a1.92,1.92,0,0,1-.06-.65,1.89,1.89,0,0,1,.06-.64h0s.13-.09.44-.09.41.05.44.09a1.88,1.88,0,0,1,.06.65,1.84,1.84,0,0,1-.06.65C22.43,22.84,22.33,22.89,22,22.89Z"/><path class="cls-1" d="M29,23.83c-.34,0-.54.05-.62.14a1.44,1.44,0,0,0-.11.75,1.89,1.89,0,0,0,.1.84.24.24,0,0,0,.09.08,1.05,1.05,0,0,0,.54.1c.34,0,.55-.06.64-.18a1.29,1.29,0,0,0,.09-.55,1,1,0,0,0-.23-.12,1.23,1.23,0,0,1-.06.55s-.13.09-.44.09a1.39,1.39,0,0,1-.32,0,.33.33,0,0,1-.12-.06,1.94,1.94,0,0,1-.06-.65,1.89,1.89,0,0,1,.06-.65s.13-.09.44-.09.41.05.44.09a.4.4,0,0,1,0,.15,1.1,1.1,0,0,0,.21-.14.3.3,0,0,0-.06-.17Q29.57,23.83,29,23.83Z"/><path class="cls-1" d="M41.81,26.94l.21-.06v-.16Z"/><rect class="cls-1" x="32.96" y="18.57" width="0.08" height="1.87"/><polygon class="cls-1" points="34.1 20.43 34.35 20.43 34.35 18.57 34.02 18.57 33.51 19.12 33.5 19.14 33.66 19.29 34.1 18.79 34.1 20.43"/><polygon class="cls-1" points="35.66 20.21 35.66 18.57 35.33 18.57 34.82 19.12 34.81 19.14 34.97 19.29 35.41 18.79 35.41 20.43 35.55 20.43 35.55 20.21 35.66 20.21"/><polygon class="cls-1" points="36.95 18.57 36.63 18.57 36.12 19.12 36.1 19.14 36.26 19.29 36.71 18.79 36.71 20.21 36.95 20.21 36.95 18.57"/><path class="cls-1" d="M41.5,19.14l.15.15.43-.48,0,0v1.64h.24V18.61l-.07,0H42Z"/><path class="cls-1" d="M37.83,20.15a1.84,1.84,0,0,1-.06-.65,1.62,1.62,0,0,1,.06-.65s.13-.09.44-.09.41,0,.44.09a1.62,1.62,0,0,1,.06.65,1.62,1.62,0,0,1-.06.65.21.21,0,0,1-.1.06h.32A2.23,2.23,0,0,0,39,19.5a1.81,1.81,0,0,0-.1-.81c-.08-.09-.28-.14-.63-.14s-.54,0-.62.14a1.34,1.34,0,0,0-.12.74,3.06,3.06,0,0,0,.07.78h.33C37.87,20.19,37.84,20.17,37.83,20.15Z"/><path class="cls-1" d="M40.93,20.28A1.66,1.66,0,0,0,41,19.5a1.76,1.76,0,0,0-.11-.81c-.08-.09-.28-.14-.63-.14s-.54,0-.62.14a1.37,1.37,0,0,0-.11.74,2.31,2.31,0,0,0,.08.82,2.9,2.9,0,0,1,.89.19A.55.55,0,0,0,40.93,20.28Zm-1.07-.13a1.84,1.84,0,0,1-.06-.65,1.62,1.62,0,0,1,.06-.65s.13-.09.44-.09.41,0,.44.09a1.62,1.62,0,0,1,.06.65,1.62,1.62,0,0,1-.06.65s-.13.09-.44.09S39.89,20.19,39.86,20.15Z"/><polygon class="cls-1" points="33.54 29.74 33.52 29.75 33.68 29.9 34.13 29.4 34.13 31.05 34.37 31.05 34.37 29.18 34.05 29.18 33.54 29.74"/><path class="cls-1" d="M35.34,22.89c-.31,0-.41-.05-.44-.1a1.73,1.73,0,0,1-.07-.65,1.77,1.77,0,0,1,.07-.65s.13-.09.44-.09h.21V21.2h-.21c-.35,0-.55,0-.63.14a1.53,1.53,0,0,0-.11.75,1.92,1.92,0,0,0,.1.84c.09.12.3.18.64.18h.21v-.22Z"/><path class="cls-1" d="M42.7,21.33a1.53,1.53,0,0,0-.11.75,1.92,1.92,0,0,0,.1.84c.09.12.3.18.64.18a1.09,1.09,0,0,0,.5-.09V22.3a1.18,1.18,0,0,1-.07.49c0,.05-.12.1-.43.1s-.41-.05-.44-.1a1.5,1.5,0,0,1-.07-.65,1.54,1.54,0,0,1,.07-.65s.13-.09.44-.09.4.05.43.09,0,0,0,0a2.72,2.72,0,0,0,0-.3,1.53,1.53,0,0,0-.41,0C43,21.19,42.78,21.24,42.7,21.33Z"/><polygon class="cls-1" points="34.22 24.41 34.21 24.42 34.36 24.57 34.81 24.07 34.81 25.72 35.06 25.72 35.06 23.85 34.73 23.85 34.22 24.41"/><polygon class="cls-1" points="42.84 24.07 42.84 25.72 43.09 25.72 43.09 23.85 42.76 23.85 42.25 24.41 42.23 24.42 42.39 24.57 42.84 24.07"/><path class="cls-1" d="M43.55,24.42l.14.14q0-.16.06-.36l-.19.21Z"/><path class="cls-1" d="M33.75,25.56a1.65,1.65,0,0,0,.1-.77,1.6,1.6,0,0,0-.11-.81c-.07-.1-.28-.15-.62-.15H33v.21h.16c.31,0,.4.05.43.09a1.5,1.5,0,0,1,.07.65,1.54,1.54,0,0,1-.07.65s-.12.09-.43.09H33v.21h.16Q33.62,25.74,33.75,25.56Z"/><path class="cls-1" d="M42,26.72v.16l.24-.1V26.5h-.32l-.51.55.38-.11Z"/><path class="cls-1" d="M34.17,26.48c-.34,0-.54,0-.62.14a1.48,1.48,0,0,0-.11.74,1.86,1.86,0,0,0,.1.84q.14.18.63.18c.34,0,.55-.06.64-.18a1.62,1.62,0,0,0,.1-.77,1.62,1.62,0,0,0-.11-.81C34.73,26.52,34.52,26.48,34.17,26.48Zm.44,1.6s-.13.09-.44.09-.4-.05-.43-.09a1.53,1.53,0,0,1-.07-.65,1.5,1.5,0,0,1,.07-.65s.13-.09.43-.09.41,0,.44.09a1.5,1.5,0,0,1,.07.65A1.73,1.73,0,0,1,34.61,28.08Z"/><path class="cls-1" d="M36.19,26.48c-.35,0-.55,0-.63.14a1.48,1.48,0,0,0-.11.74,1.92,1.92,0,0,0,.1.84v-.94h.14c0-.33,0-.44.06-.48s.13-.09.44-.09.4,0,.43.09a1,1,0,0,1,.07.48h.23a1.25,1.25,0,0,0-.11-.64C36.74,26.52,36.53,26.48,36.19,26.48Z"/><path class="cls-1" d="M38.19,26.48c-.34,0-.55,0-.62.14a1.21,1.21,0,0,0-.12.64h.24a1.05,1.05,0,0,1,.06-.48s.13-.09.44-.09.41,0,.44.09a1.38,1.38,0,0,1,.06.48h.23a1.23,1.23,0,0,0-.11-.63C38.74,26.52,38.54,26.48,38.19,26.48Z"/><path class="cls-1" d="M40.27,26.48c-.34,0-.54,0-.62.14a1.13,1.13,0,0,0-.11.63h.23a1.32,1.32,0,0,1,.06-.46s.13-.09.44-.09.41,0,.44.09a.93.93,0,0,1,.06.38l.23,0a1.09,1.09,0,0,0-.1-.51C40.82,26.52,40.62,26.48,40.27,26.48Z"/><rect class="cls-1" x="32.96" y="29.18" width="0.07" height="1.87"/><rect class="cls-1" x="37.98" y="25.08" width="0.24" height="0.64"/><path class="cls-1" d="M39.51,25.72h.24V25l-.24,0Z"/><path class="cls-1" d="M36.73,25.44s-.13.09-.44.09-.41-.05-.44-.09a1,1,0,0,1-.06-.36h-.23a1.06,1.06,0,0,0,.1.48c.09.12.29.18.63.18s.54-.06.63-.18a1,1,0,0,0,.1-.48h-.23A1.22,1.22,0,0,1,36.73,25.44Z"/><path class="cls-1" d="M43.37,20.43h.23a5.41,5.41,0,0,0-.23-.68Z"/><path class="cls-1" d="M42.76,19.14l.16.15.1-.12a1.07,1.07,0,0,0-.14-.16l-.08.09Z"/><path class="cls-1" d="M34.9,30.05a1.89,1.89,0,0,0,.1.84.71.71,0,0,0,.55.18v-.21c-.24,0-.33-.06-.35-.09a1.56,1.56,0,0,1-.07-.65,1.53,1.53,0,0,1,.07-.65s.11-.08.35-.09v-.21c-.29,0-.47,0-.54.13A1.56,1.56,0,0,0,34.9,30.05Z"/><polygon class="cls-1" points="41.79 21.43 41.79 23.08 42.03 23.08 42.03 21.21 41.71 21.21 41.2 21.77 41.18 21.78 41.34 21.93 41.79 21.43"/><path class="cls-1" d="M33.24,23.09h.06q.5,0,.63-.18a1.7,1.7,0,0,0,.1-.78,1.55,1.55,0,0,0-.11-.8c-.07-.1-.27-.15-.62-.15h-.1l-.24,0v.22a.7.7,0,0,1,.24,0h.1c.31,0,.41.05.43.09a1.54,1.54,0,0,1,.07.65,1.5,1.5,0,0,1-.07.65c0,.05-.12.1-.43.1h-.1a1.09,1.09,0,0,1-.24,0v.21a.88.88,0,0,0,.24,0Z"/><path class="cls-1" d="M41.68,24c-.07-.09-.26-.14-.56-.14,0,.07,0,.14,0,.21.29,0,.39.05.42.09a1.62,1.62,0,0,1,.06.65,1.67,1.67,0,0,1-.06.65s-.13.09-.44.09-.41-.05-.44-.09a1.88,1.88,0,0,1-.06-.65,1.57,1.57,0,0,1-.23.09,1.54,1.54,0,0,0,.1.68q.13.18.63.18a1.61,1.61,0,0,0,.42,0,.43.43,0,0,0,.22-.13,1.81,1.81,0,0,0,.1-.77c0-.12,0-.22,0-.32A1,1,0,0,0,41.68,24Z"/></svg>