<?xml version="1.0" encoding="utf-8"?>
<!-- Generator: Adobe Illustrator 22.0.1, SVG Export Plug-In . SVG Version: 6.00 Build 0)  -->
<svg version="1.1" id="Layer_1" xmlns="http://www.w3.org/2000/svg" xmlns:xlink="http://www.w3.org/1999/xlink" x="0px" y="0px"
	 viewBox="0 0 296 239" style="enable-background:new 0 0 296 239;" xml:space="preserve">
<style type="text/css">
	.st0{fill:#3466AA;}
</style>
<title>graphics</title>
<path class="st0" d="M144.6,82.9c-14.2,3-24.1,17.3-21.9,31.6c0.8,5.1,2.9,9.8,6.1,13.9c5.2,7,8.7,15.1,10.3,23.7
	c0.5,3,0.8,6.1,1.2,9.3h20.5c0.8-4.6,1.3-9.1,2.4-13.6c1.8-7.7,5.6-14.5,10.3-20.8c4.3-5.7,6.2-12.9,5.2-20
	c-1.8-15.4-15.8-26.4-31.2-24.6C146.4,82.5,145.5,82.7,144.6,82.9z M126,113.9c-0.1-0.9-0.2-1.8-0.3-2.7c0-2.1,0.7-3.1,2.1-3.1
	c1.4,0,2,0.9,2.1,3c0,0.8,0.1,1.6,0.2,2.3c0.2,1.1-0.6,2.2-1.7,2.4c0,0,0,0,0,0c-1.1,0.2-2.1-0.5-2.3-1.6
	C126,114.2,126,114.1,126,113.9z M142.4,145c-1.1,0-2-0.8-2.2-1.8c-1.9-5.5-4.5-10.7-7.8-15.5c-1.2-1.8-2.5-3.6-3.6-5.4
	c-0.9-1.4-0.6-2.6,0.6-3.3s2.1-0.1,3,1.3s1.8,2.8,2.8,4.2c3.8,5.3,6.8,11.2,8.9,17.4C144.7,143.6,143.9,145,142.4,145z M173.4,120.4
	c-0.9,1.6-1.8,3.3-2.9,4.9c-0.6,1-1.8,1.3-2.7,0.7c-0.1,0-0.1-0.1-0.2-0.1c-1-0.7-1.2-2-0.5-2.9c0,0,0,0,0-0.1
	c0.9-1.5,1.7-3,2.6-4.4c0.4-0.9,1.4-1.3,2.4-1c0.9,0.3,1.6,1.1,1.5,2.1C173.6,119.8,173.5,120.1,173.4,120.4L173.4,120.4z
	 M175.4,112.1c0,0.4-0.1,0.8-0.2,1.2c-0.3,1.1-1.4,1.7-2.5,1.4c-0.9-0.2-1.5-1-1.5-1.9c-0.1-0.7,0-1.5,0-2.2
	c0.1-11.2-8.8-20.5-20.1-20.8c-0.2,0-0.4,0-0.6,0c-1.1,0-2-1-2-2.1c0,0,0,0,0-0.1c0-1.1,0.9-2,2-2c0.1,0,0.1,0,0.2,0
	c5.8,0,11.3,2,15.7,5.8C172.7,96.4,176,104.1,175.4,112.1L175.4,112.1z"/>
<path class="st0" d="M140.1,173.3l21,2.4V174l-21-2.4V173.3z"/>
<path class="st0" d="M140.1,167.4l21,2.4v-4.2h-21V167.4z"/>
<path class="st0" d="M141,177.6c0.8,1.8,2.6,3,4.6,3c3.3,0,6.6,0.1,9.9,0c0.9-0.1,1.8-0.3,2.7-0.6l-0.1-0.4L141,177.6z"/>
<path d="M150.6,74.5c1.1,0,1.9-0.8,2-1.9c0-0.3,0-0.6,0-0.9c0-3.4,0-6.8,0-10.2c0.1-1.1-0.4-2.2-1.3-2.8h-1.5
	c-0.4,0.7-1.2,1.3-1.2,1.9c-0.1,4-0.1,7.9,0,11.9C148.6,73.7,149.5,74.5,150.6,74.5C150.6,74.5,150.6,74.5,150.6,74.5z"/>
<path d="M182.2,103.6c-3.8-17.5-20.2-28.1-37.9-24.9c-16.9,3.1-28.7,20.4-25.6,37.3c1.1,5.5,3.5,10.7,6.9,15.1
	c3.7,5.1,6.5,10.8,8.2,16.9c1.6,5.8,2.3,11.7,2,17.7c0,3.6,0,6.1,0,8.5c-0.2,5.6,4.2,10.2,9.8,10.4c0.2,0,0.4,0,0.6,0h8.5
	c6.3,0,10.6-4.3,10.6-10.6c0-4.4-0.1-8.9,0.1-13.3c0.1-3.2,0.5-6.4,1.1-9.5c1.6-8.1,5.3-15.3,10.1-21.9
	C182.3,122.1,184.3,112.6,182.2,103.6z M155.6,180.5c-3.3,0.1-6.6,0.1-9.9,0c-2,0-3.8-1.2-4.6-3l17.2,2l0.1,0.4
	C157.4,180.2,156.5,180.4,155.6,180.5L155.6,180.5z M161.1,175.7l-21-2.4v-1.7l21,2.4V175.7z M161.1,169.8l-21-2.4v-1.8h21V169.8z
	 M173.4,127c-4.7,6.3-8.4,13.1-10.3,20.8c-1,4.4-1.6,8.9-2.4,13.6h-20.5c-0.4-3.1-0.6-6.2-1.2-9.3c-1.5-8.6-5-16.7-10.3-23.7
	c-3.2-4.1-5.2-8.8-6.1-13.9c-2.2-14.3,7.7-28.6,21.9-31.6c15.2-3.4,30.2,6.2,33.5,21.4c0.2,0.9,0.4,1.9,0.5,2.8
	C179.6,114.1,177.7,121.3,173.4,127z"/>
<path d="M200.3,108.7c-1.9,0-3.7,0-5.5,0s-3.6,0-5.4,0c-1.5,0-2.4,0.8-2.4,2c0,1.2,0.9,2.1,2.1,2.1c0.1,0,0.2,0,0.3,0
	c3.7,0,7.4,0,11.1,0c1.1,0.1,2.2-0.7,2.3-1.8c0-0.1,0-0.2,0-0.3C202.6,109.5,201.7,108.7,200.3,108.7z"/>
<path d="M111.9,112.9c1.5,0,2.5-0.9,2.4-2.2s-1-2-2.4-2c-3.6,0-7.2,0-10.8,0c-1.5,0-2.4,0.7-2.4,2s0.9,2.1,2.4,2.2
	c1.8,0,3.6,0,5.4,0S110.1,112.9,111.9,112.9z"/>
<path d="M170.2,79.7c0.3-0.2,1-0.4,1.3-0.9c2-3.4,4-6.8,6-10.3c0.5-1,0.2-2.1-0.8-2.7c-0.9-0.6-2.1-0.4-2.7,0.5c0,0,0,0,0,0.1
	c-2,3.4-4.1,6.8-6,10.3C167.2,78.1,168.3,79.7,170.2,79.7z"/>
<path d="M195,134.1c-3.4-2-6.8-4-10.3-6c-0.9-0.5-2.1-0.2-2.6,0.7c0,0,0,0.1,0,0.1c-0.6,0.9-0.3,2.1,0.6,2.7c3.4,2,6.8,4,10.3,6
	c1.4,0.8,2.9-0.3,2.9-2.3C195.8,135.1,195.5,134.4,195,134.1z"/>
<path d="M125.5,71.4c1.4,2.4,2.7,4.8,4.1,7.1c0.4,0.9,1.4,1.4,2.4,1.1c1-0.2,1.6-1.2,1.5-2.2c-0.1-0.3-0.2-0.6-0.3-0.9
	c-1.9-3.3-3.8-6.7-5.8-10c-0.5-1-1.7-1.3-2.7-0.8c0,0,0,0-0.1,0c-1,0.6-1.4,1.8-0.8,2.8c0,0,0,0,0,0.1
	C124.4,69.6,125,70.4,125.5,71.4z"/>
<path d="M106.4,87.6l9.9,5.7c0.8,0.5,1.8,0.4,2.5-0.2c0.8-0.8,0.9-2.1,0.1-2.9c-0.2-0.2-0.4-0.4-0.6-0.5c-3.2-1.9-6.4-3.7-9.6-5.5
	c-0.5-0.3-1.1-0.5-1.7-0.7c-0.5,0.5-1.3,1-1.6,1.7C105.1,86.2,105.5,87.2,106.4,87.6z"/>
<path d="M184.9,93.4c3.3-1.9,6.6-3.8,9.9-5.7c0.5-0.4,0.8-0.8,1.1-1.3c0-2.2-1.6-3.1-3.2-2.2c-3.3,1.8-6.5,3.8-9.8,5.7
	c-1,0.5-1.4,1.7-1,2.7s1.7,1.4,2.7,1C184.7,93.4,184.8,93.4,184.9,93.4L184.9,93.4z"/>
<path d="M116.4,128.2c-3.4,1.9-6.7,3.8-10,5.8c-1,0.5-1.4,1.7-0.9,2.7c0,0.1,0.1,0.1,0.1,0.2c0.5,1,1.7,1.3,2.7,0.8
	c0.1,0,0.1-0.1,0.2-0.1c3.3-1.9,6.6-3.8,9.9-5.7c0.5-0.4,0.8-0.8,1.1-1.4C119.5,128.4,117.9,127.4,116.4,128.2z"/>
<path d="M166.5,91.3c-4.4-3.7-9.9-5.8-15.7-5.8c-1.1-0.1-2.1,0.7-2.2,1.8c0,0.1,0,0.1,0,0.2c-0.1,1.1,0.8,2.1,1.9,2.2c0,0,0,0,0.1,0
	c0.2,0,0.4,0,0.6,0c11.2,0.3,20.2,9.6,20.1,20.8c0,0.7-0.1,1.5,0,2.2c0,1.1,0.9,2,2,2c0.9,0,1.7-0.6,1.9-1.5
	c0.1-0.4,0.2-0.8,0.2-1.2C176,104.1,172.7,96.4,166.5,91.3z"/>
<path d="M135.2,124.5c-1-1.4-1.9-2.8-2.8-4.2s-1.9-1.9-3-1.3s-1.5,1.9-0.6,3.3c1.1,1.8,2.4,3.6,3.6,5.4c3.3,4.8,5.9,10,7.8,15.5
	c0.2,1,1.1,1.8,2.2,1.8c1.5,0,2.4-1.4,1.8-3.1C142,135.7,139,129.8,135.2,124.5z"/>
<path d="M172.1,117.5c-0.9-0.3-1.9,0.1-2.4,1c-0.9,1.5-1.7,3-2.6,4.4c-0.7,0.9-0.5,2.3,0.4,3c0,0,0,0,0.1,0c0.9,0.7,2.1,0.5,2.8-0.4
	c0-0.1,0.1-0.1,0.1-0.2c1-1.6,1.9-3.2,2.9-4.9c0.1-0.3,0.2-0.6,0.3-0.9C173.7,118.6,173.1,117.7,172.1,117.5z"/>
<path d="M130.1,113.5c0-0.8-0.2-1.5-0.2-2.3c-0.1-2-0.7-3-2.1-3s-2.1,1-2.1,3.1c0.1,0.9,0.2,1.8,0.3,2.7c0,1.1,0.9,2,2,2
	c0.1,0,0.2,0,0.3,0C129.5,115.7,130.3,114.6,130.1,113.5C130.1,113.5,130.1,113.5,130.1,113.5z"/>
<polygon points="288.3,84 258.7,113.7 148,3 113.4,37.6 119,43.2 148,14.1 154.7,20.9 154.6,20.9 155.5,21.8 155.6,21.7 157.3,23.5 
	157.3,23.6 158.8,25.1 158.8,24.9 253.1,119.2 219.4,152.9 225,158.5 293.9,89.6 "/>
<polygon points="148.4,224.9 43.4,119.9 77.1,86.2 71.5,80.6 2.5,149.5 8.1,155.1 37.8,125.4 148.4,236.1 183,201.5 177.4,195.9 "/>
</svg>
