<svg id="Layer_1" data-name="Layer 1" xmlns="http://www.w3.org/2000/svg" viewBox="0 0 1650 150"><title>graphics</title><path d="M57.14,115.88H15.46V18.12h38.6c20.4,0,27.88,8.22,27.88,21.44v10c0,7-3.07,12-10.85,15.41A18.46,18.46,0,0,1,85.47,83v9.54C85.47,106.33,76.66,115.88,57.14,115.88Zm2.79-73.1c0-4.25-2.64-6.9-8.81-6.9H37.47V58.19H51.12c5.88,0,8.81-2.93,8.81-6.9Zm3.52,40.81c0-5.44-3.37-8.22-9.25-8.22H37.47V98.12H51.12c6.9,0,12.33-1.47,12.33-8.52Z"/><path d="M160.67,87.7v28.18h-22V87.7L108.27,18.12h23l18.36,45.36L168,18.12h23Z"/><path d="M266.12,37.64v78.24h-22V37.64H217.83V18.12h74.56V37.64Z"/><path d="M324.3,115.88V18.12h61.49V37.64H346.31V55.55h36.4V75.08h-36.4V96.36h39.48v19.52Z"/><path d="M513.42,86.23H496.69v29.65h-22V18.12H514.6c23.78,0,32.58,9.4,32.58,27.75V58.64C547.18,77,537.2,86.23,513.42,86.23Zm11.75-38.31c0-7-2.5-10.28-11.75-10.28H496.69V67.15h16.73c9.69,0,11.75-3.67,11.75-10.72Z"/><path d="M654,18.12V87.4c0,14.83-9.25,29.95-36.84,29.95s-36.84-15.12-36.84-29.95V18.12h22V85.35c0,7.92,3.82,12.48,14.83,12.48s14.82-4.56,14.82-12.48V18.12Z"/><path d="M721.52,117.35c-11.3,0-23.19-2.5-31.56-6.32l3.67-17a93,93,0,0,0,28.18,4.69c11.31,0,13.51-2.2,13.51-10.42,0-8.81-.45-9.83-16.44-13.35-23.63-5.14-27.15-9.84-27.15-31,0-19.52,6.89-27.3,33.75-27.3a142.16,142.16,0,0,1,29.65,3.23l-2.2,18.49c-11.15-1.91-18.35-2.79-27.15-2.79-9.84,0-12,1.76-12,9,0,9.39.44,9.53,15.85,13.2C756,64.06,757.34,69.2,757.34,88.43S751,117.35,721.52,117.35Z"/><path d="M846.92,115.88V76.54H815.37v39.34h-22V18.12h22V57h31.55V18.12h22v97.76Z"/><path d="M908.63,115.88V18.12h61.5V37.64H930.64V55.55h36.41V75.08H930.64V96.36h39.49v19.52Z"/><path d="M1042.54,85.5h-12.92v30.38h-22V18.12h40.66c23.78,0,32.59,9.4,32.59,27.75v12c0,12.18-4.41,20.4-14.25,24.51l23.64,33.47h-26.12Zm16.29-37.58c0-7.34-2.78-10.28-11.74-10.28h-17.47V66.41h17.47c9.4,0,11.74-3.37,11.74-10.71Z"/><path d="M1151.21,117.35c-11.3,0-23.18-2.5-31.55-6.32l3.67-17a92.87,92.87,0,0,0,28.18,4.69c11.3,0,13.51-2.2,13.51-10.42,0-8.81-.44-9.83-16.45-13.35-23.62-5.14-27.15-9.84-27.15-31,0-19.52,6.9-27.3,33.76-27.3a142.23,142.23,0,0,1,29.65,3.23l-2.21,18.49c-11.15-1.91-18.34-2.79-27.15-2.79-9.84,0-12,1.76-12,9,0,9.39.45,9.53,15.86,13.2C1185.71,64.06,1187,69.2,1187,88.43S1180.72,117.35,1151.21,117.35Z"/><path d="M1231.12,137.75l-9.55-5.43,8.37-16.44h-7V91.52H1244v25.83Z"/><path d="M1335.82,115.88V18.12h22v97.76Z"/><path d="M1419.22,51.59v64.29h-21V18.12h27l32.15,67.38V18.12h21v97.76h-27.15Z"/><path d="M1537.88,83.88c0,8.51,2.8,13.5,13.65,13.5A161.6,161.6,0,0,0,1576.79,95l3.08,19.23a131.63,131.63,0,0,1-28.34,3.09c-24.65,0-35.66-12.19-35.66-29.95V46.6c0-17.76,11-29.94,35.66-29.94a132.25,132.25,0,0,1,28.34,3.08L1576.79,39a161.6,161.6,0,0,0-25.26-2.35c-10.85,0-13.65,5-13.65,13.5Z"/><path d="M1616.61,115.88V91.52h21.14v24.36Z"/></svg>