<svg id="Layer_1" data-name="Layer 1" xmlns="http://www.w3.org/2000/svg" viewBox="0 0 203 93"><defs><style>.cls-1{fill:#8c8c8c;}</style></defs><title>graphics</title><path class="cls-1" d="M79.92,44.82V85.59c-.72,0-1.38.13-2,.13q-36.15,0-72.29,0c-1.73,0-2.17-.48-2.17-2.19q.09-37.72,0-75.46c0-1.83.54-2.43,2.3-2.23a30.92,30.92,0,0,0,3.5,0V8.32c0,14.1,0,28.19,0,42.29,0,13.62,8.65,24,22.07,26.08,4.25.66,8.68.07,13,.32a7.07,7.07,0,0,0,6.45-2.67c2.12-2.56,4.57-4.85,7.26-7.65-1.21-.09-1.9-.2-2.6-.2H35.13c-7.36,0-14.4-6.19-15.32-13.47a41,41,0,0,1-.33-5.19q0-19.84,0-39.68a6.15,6.15,0,0,1,.05-1.49c.06-.28.45-.7.64-.67a1.23,1.23,0,0,1,.9.61,5.79,5.79,0,0,1,.08,1.67c0,13.85,0,27.7,0,41.54A14.8,14.8,0,0,0,32.36,64.47a9.16,9.16,0,0,0,2.38.32q11.74,0,23.48,0a3,3,0,0,0,1.92-.4c3.21-3.16,6.34-6.41,9.88-10-1.18-.07-1.81-.15-2.45-.15-9.56,0-19.13,0-28.69,0a10.9,10.9,0,0,1-3.65-.51c-2.66-1-3.41-3.2-3.41-5.83q0-17.13,0-34.28c0-2-.07-4,0-6,0-.56.57-1.11.88-1.66a5,5,0,0,1,.66,1.66c0,11,0,22,0,33,0,2.42,0,4.84,0,7.26,0,3.12,1.44,4.65,4.53,4.67q16.31.07,32.6,0a3.87,3.87,0,0,0,2.2-1.07C75.22,49.23,77.59,47,79.92,44.82Z"/><path class="cls-1" d="M44.5,6H79.82V41.29H44.5Z"/><path class="cls-1" d="M89,23V5.8H92V20.42h8.72V23Z"/><path class="cls-1" d="M112.09,20.27a.78.78,0,0,0,.82.9,4.3,4.3,0,0,0,.48-.05V23a4.46,4.46,0,0,1-1.69.32c-1.23,0-1.92-.51-2.07-1.52a4.63,4.63,0,0,1-1.84,1.1,6.62,6.62,0,0,1-2.33.42,5.7,5.7,0,0,1-2.14-.4,3.53,3.53,0,0,1-1.57-1.22,3.28,3.28,0,0,1-.6-2,3.39,3.39,0,0,1,.66-2.23,3.49,3.49,0,0,1,1.61-1.12,14.8,14.8,0,0,1,2.48-.53l1.92-.27a3.15,3.15,0,0,0,1.28-.42,1.09,1.09,0,0,0,.46-1c0-1.13-.85-1.69-2.55-1.69s-2.58.66-2.73,2h-2.74a3.81,3.81,0,0,1,1.74-3.2,7.46,7.46,0,0,1,3.9-1,6.56,6.56,0,0,1,3.46.87,2.92,2.92,0,0,1,1.45,2.7Zm-2.73-3.47a5.63,5.63,0,0,1-2.19.56,9.09,9.09,0,0,0-2.47.59,1.58,1.58,0,0,0-.83,1.59,1.32,1.32,0,0,0,.77,1.25,3.8,3.8,0,0,0,1.68.38,4,4,0,0,0,2.07-.59,2,2,0,0,0,1-1.77Z"/><path class="cls-1" d="M116.8,23,113,10.58h2.89l2.46,9.26,2.33-9.26h2.69l2.26,9.26,2.52-9.26h2.76L127,23h-2.74l-2.34-9.27L119.61,23Z"/><path class="cls-1" d="M132.14,23V10.58h2.52V13q.62-2.67,4.65-2.67v2.62c-.52-.06-.89-.1-1.12-.1a3.09,3.09,0,0,0-1.72.5,3.33,3.33,0,0,0-1.19,1.47,5.27,5.27,0,0,0-.44,2.26l0,5.93Z"/><path class="cls-1" d="M141.56,17.48a4.82,4.82,0,0,0,.35,1.84A3.14,3.14,0,0,0,143,20.67a3.25,3.25,0,0,0,1.83.5,2.87,2.87,0,0,0,3-2.06h2.58a5,5,0,0,1-2,3.09,5.85,5.85,0,0,1-3.59,1.14,6.19,6.19,0,0,1-3.26-.83,5.3,5.3,0,0,1-2.08-2.31,7.69,7.69,0,0,1-.71-3.4,7.33,7.33,0,0,1,.73-3.27,5.81,5.81,0,0,1,2.09-2.38,6,6,0,0,1,6.21,0,5.68,5.68,0,0,1,2.07,2.3,6.89,6.89,0,0,1,.73,3.16,7,7,0,0,1,0,.9Zm6.32-1.81a3.6,3.6,0,0,0-.92-2.29,2.8,2.8,0,0,0-2.2-1,3,3,0,0,0-2.25.92,3.47,3.47,0,0,0-.95,2.32Z"/><path class="cls-1" d="M152.2,23V10.58h2.55l0,1.87a4.17,4.17,0,0,1,1.59-1.61,4.42,4.42,0,0,1,2.22-.57,4.59,4.59,0,0,1,3.21,1.07A4.08,4.08,0,0,1,163,14.49V23h-2.69V15.19a3.23,3.23,0,0,0-.64-2.11,2.42,2.42,0,0,0-1.84-.65,2.68,2.68,0,0,0-2.11.92,3.35,3.35,0,0,0-.81,2.3V23Z"/><path class="cls-1" d="M173.62,14.71a2.47,2.47,0,0,0-.89-1.7,3.13,3.13,0,0,0-2-.58,2.91,2.91,0,0,0-1.87.63,3.82,3.82,0,0,0-1.18,1.66,5.71,5.71,0,0,0-.41,2.18A5.59,5.59,0,0,0,167.7,19a3.82,3.82,0,0,0,1.16,1.59,3.17,3.17,0,0,0,3.25.26,2.63,2.63,0,0,0,1-1,3.8,3.8,0,0,0,.5-1.5h2.71A5.87,5.87,0,0,1,174.52,22a5.54,5.54,0,0,1-3.82,1.31,6.15,6.15,0,0,1-3.24-.83,5.37,5.37,0,0,1-2.07-2.28,7.44,7.44,0,0,1-.7-3.28,8.18,8.18,0,0,1,.69-3.43,5.37,5.37,0,0,1,2.06-2.38,6.09,6.09,0,0,1,3.33-.87,6.38,6.38,0,0,1,3.85,1.13,4.25,4.25,0,0,1,1.71,3.31Z"/><path class="cls-1" d="M180.08,17.48a4.65,4.65,0,0,0,.36,1.84,3.05,3.05,0,0,0,1.11,1.35,3.25,3.25,0,0,0,1.83.5,2.87,2.87,0,0,0,3-2.06H189a5,5,0,0,1-2,3.09,5.85,5.85,0,0,1-3.59,1.14,6.19,6.19,0,0,1-3.26-.83A5.3,5.3,0,0,1,178,20.2a7.69,7.69,0,0,1-.71-3.4,7.33,7.33,0,0,1,.73-3.27,5.81,5.81,0,0,1,2.09-2.38,6,6,0,0,1,6.21,0,5.68,5.68,0,0,1,2.07,2.3,6.89,6.89,0,0,1,.73,3.16,7,7,0,0,1,0,.9Zm6.32-1.81a3.6,3.6,0,0,0-.92-2.29,2.8,2.8,0,0,0-2.2-1,3,3,0,0,0-2.25.92,3.47,3.47,0,0,0-.95,2.32Z"/><path class="cls-1" d="M89,43.67V27h2.83V41.18h8.43v2.49Z"/><path class="cls-1" d="M101.51,29.59V27h2.61v2.56Zm0,14.08v-12h2.61v12Z"/><path class="cls-1" d="M109.84,43.67l-4.31-12h2.87l3.09,9.24,2.91-9.24h2.7l-4.28,12Z"/><path class="cls-1" d="M119.5,38.34a4.55,4.55,0,0,0,.34,1.78,3,3,0,0,0,1.08,1.3,3.12,3.12,0,0,0,1.77.49,2.77,2.77,0,0,0,2.91-2h2.51a5,5,0,0,1-1.94,3A5.65,5.65,0,0,1,122.69,44a5.91,5.91,0,0,1-3.15-.81,5.09,5.09,0,0,1-2-2.24,7.46,7.46,0,0,1-.69-3.28,7.11,7.11,0,0,1,.7-3.16,5.62,5.62,0,0,1,2-2.31,5.53,5.53,0,0,1,3-.85,5.43,5.43,0,0,1,3,.83,5.57,5.57,0,0,1,2,2.22,6.71,6.71,0,0,1,.71,3.05,6.41,6.41,0,0,1,0,.88Zm6.12-1.76a3.46,3.46,0,0,0-.9-2.21,2.67,2.67,0,0,0-2.12-.92,2.88,2.88,0,0,0-2.18.89,3.33,3.33,0,0,0-.92,2.24Z"/><path class="cls-1" d="M129.73,43.67v-12h2.44V34q.6-2.58,4.5-2.58v2.53a10.31,10.31,0,0,0-1.08-.09,3,3,0,0,0-1.67.48,3.22,3.22,0,0,0-1.15,1.42,5.13,5.13,0,0,0-.43,2.19v5.73Z"/><path class="cls-1" d="M137.34,43.67v-12h2.47l.05,1.7a4,4,0,0,1,1.67-1.45,4.87,4.87,0,0,1,2.23-.55,3.59,3.59,0,0,1,1.88.49,2.93,2.93,0,0,1,1.24,1.51,4.21,4.21,0,0,1,3.69-2,4.27,4.27,0,0,1,3,1,4.05,4.05,0,0,1,1,3.1v8.25H152V36.62a9.27,9.27,0,0,0-.13-1.77,1.71,1.71,0,0,0-.6-1,2.25,2.25,0,0,0-1.43-.37c-1.7,0-2.54,1-2.54,3.17v7.05h-2.63V35.94a3.09,3.09,0,0,0-.47-1.89,2,2,0,0,0-1.64-.6,2.38,2.38,0,0,0-1.81.82,3.21,3.21,0,0,0-.76,2.25v7.15Z"/><path class="cls-1" d="M159.08,43.2A5.24,5.24,0,0,1,157,40.94a7.14,7.14,0,0,1-.72-3.26A7.23,7.23,0,0,1,157,34.4a5.19,5.19,0,0,1,2.06-2.24,6.23,6.23,0,0,1,3.22-.8,6.4,6.4,0,0,1,3.26.8,5.28,5.28,0,0,1,2.1,2.24,7.17,7.17,0,0,1,.72,3.28,7,7,0,0,1-.73,3.27,5.31,5.31,0,0,1-2.1,2.25,6.3,6.3,0,0,1-3.25.81A6.18,6.18,0,0,1,159.08,43.2Zm5.07-1.89a3.64,3.64,0,0,0,1.17-1.57,5.64,5.64,0,0,0,0-4.12,3.64,3.64,0,0,0-1.16-1.57,2.92,2.92,0,0,0-1.86-.6,2.88,2.88,0,0,0-1.83.6,3.62,3.62,0,0,0-1.15,1.57,5.64,5.64,0,0,0,0,4.12,3.62,3.62,0,0,0,1.16,1.57,2.87,2.87,0,0,0,1.82.6A2.91,2.91,0,0,0,164.15,41.31Z"/><path class="cls-1" d="M170.17,43.67v-12h2.44V34q.58-2.58,4.49-2.58v2.53a10,10,0,0,0-1.07-.09,3,3,0,0,0-1.67.48,3.31,3.31,0,0,0-1.16,1.42,5.28,5.28,0,0,0-.42,2.19v5.73Z"/><path class="cls-1" d="M179.28,38.34a4.56,4.56,0,0,0,.35,1.78,2.91,2.91,0,0,0,1.08,1.3,3.11,3.11,0,0,0,1.76.49,2.79,2.79,0,0,0,2.92-2h2.5a4.91,4.91,0,0,1-1.94,3A5.65,5.65,0,0,1,182.47,44a6,6,0,0,1-3.15-.81,5.15,5.15,0,0,1-2-2.24,7.46,7.46,0,0,1-.69-3.28,7.11,7.11,0,0,1,.71-3.16,5.59,5.59,0,0,1,2-2.31,5.53,5.53,0,0,1,3-.85,5.46,5.46,0,0,1,3,.83,5.57,5.57,0,0,1,2,2.22,7.44,7.44,0,0,1,.66,3.93Zm6.12-1.76a3.41,3.41,0,0,0-.9-2.21,2.67,2.67,0,0,0-2.12-.92,2.89,2.89,0,0,0-2.18.89,3.42,3.42,0,0,0-.92,2.24Z"/><path class="cls-1" d="M89,64.9V48.11h3l7.63,12.38V48.11h2.81V64.9H99.46L91.81,52.61V64.9Z"/><path class="cls-1" d="M115.24,62.24c0,.56.26.86.8.88a2.65,2.65,0,0,0,.47,0V64.9a4.31,4.31,0,0,1-1.66.32c-1.19,0-1.87-.5-2-1.49a4.47,4.47,0,0,1-1.8,1.08,6.61,6.61,0,0,1-2.28.41,5.48,5.48,0,0,1-2.09-.39,3.51,3.51,0,0,1-1.54-1.19,3.3,3.3,0,0,1-.57-2,3.09,3.09,0,0,1,2.21-3.26,14.17,14.17,0,0,1,2.42-.53l1.88-.26a3.06,3.06,0,0,0,1.25-.41,1.05,1.05,0,0,0,.45-1c0-1.1-.83-1.66-2.49-1.66s-2.53.65-2.67,2h-2.67a3.71,3.71,0,0,1,1.69-3.13,7.27,7.27,0,0,1,3.81-.93,6.45,6.45,0,0,1,3.38.85A2.88,2.88,0,0,1,115.24,56Zm-2.67-3.38a5.69,5.69,0,0,1-2.14.54A8.72,8.72,0,0,0,108,60a1.53,1.53,0,0,0-.81,1.55,1.27,1.27,0,0,0,.75,1.22,3.63,3.63,0,0,0,1.65.37,3.75,3.75,0,0,0,2-.58,1.89,1.89,0,0,0,.95-1.72Z"/><path class="cls-1" d="M116.31,52.78h2V49.13H121v3.65h2.41v2H121v6.49a2.6,2.6,0,0,0,.23,1.33c.15.24.5.37,1,.37a5.57,5.57,0,0,0,1.14-.1V64.9c-.2,0-.48,0-.86,0s-.67,0-.87,0a6.29,6.29,0,0,1-1.67-.19,2.16,2.16,0,0,1-1-.57,2,2,0,0,1-.5-.93,6.49,6.49,0,0,1-.16-1.39V54.75h-2Z"/><path class="cls-1" d="M124.89,50.69V48.11h2.64v2.58Zm0,14.21V52.79h2.64V64.9Z"/><path class="cls-1" d="M132.28,64.42a5.25,5.25,0,0,1-2.08-2.27,7.85,7.85,0,0,1,0-6.61,5.2,5.2,0,0,1,2.08-2.25,6.25,6.25,0,0,1,3.25-.82,6.42,6.42,0,0,1,3.29.82,5.35,5.35,0,0,1,2.12,2.25,7.87,7.87,0,0,1,0,6.62,5.46,5.46,0,0,1-2.13,2.26,6.31,6.31,0,0,1-3.28.82A6.2,6.2,0,0,1,132.28,64.42Zm5.12-1.9a3.66,3.66,0,0,0,1.18-1.59,5.56,5.56,0,0,0,.39-2.07,5.63,5.63,0,0,0-.39-2.09,3.67,3.67,0,0,0-1.17-1.58,3,3,0,0,0-1.88-.61,2.88,2.88,0,0,0-1.85.61,3.73,3.73,0,0,0-1.16,1.58,5.63,5.63,0,0,0-.39,2.09,5.56,5.56,0,0,0,.39,2.07,3.64,3.64,0,0,0,1.17,1.59,2.92,2.92,0,0,0,1.84.6A3,3,0,0,0,137.4,62.52Z"/><path class="cls-1" d="M143.54,64.9V52.78H146l0,1.83A4.06,4.06,0,0,1,147.62,53a4.33,4.33,0,0,1,2.17-.56,4.44,4.44,0,0,1,3.13,1.05,4,4,0,0,1,1.15,3.08v8.3h-2.63V57.28a3.15,3.15,0,0,0-.63-2.06,2.34,2.34,0,0,0-1.79-.64,2.61,2.61,0,0,0-2.06.9,3.27,3.27,0,0,0-.79,2.25V64.9Z"/><path class="cls-1" d="M166.4,62.24a.77.77,0,0,0,.8.88,2.74,2.74,0,0,0,.48,0V64.9a4.34,4.34,0,0,1-1.66.32c-1.2,0-1.87-.5-2-1.49a4.36,4.36,0,0,1-1.79,1.08,6.61,6.61,0,0,1-2.28.41,5.44,5.44,0,0,1-2.09-.39,3.51,3.51,0,0,1-1.54-1.19,3.35,3.35,0,0,1,1.64-5.23,14,14,0,0,1,2.42-.53l1.87-.26a3,3,0,0,0,1.25-.41,1.06,1.06,0,0,0,.46-1c0-1.1-.83-1.66-2.5-1.66s-2.52.65-2.66,2H156.1a3.72,3.72,0,0,1,1.7-3.13,7.22,7.22,0,0,1,3.81-.93,6.47,6.47,0,0,1,3.38.85A2.87,2.87,0,0,1,166.4,56Zm-2.66-3.38a5.75,5.75,0,0,1-2.14.54,8.72,8.72,0,0,0-2.41.58,1.54,1.54,0,0,0-.82,1.55,1.28,1.28,0,0,0,.76,1.22,3.62,3.62,0,0,0,1.64.37,3.78,3.78,0,0,0,2-.58,1.89,1.89,0,0,0,1-1.72Z"/><path class="cls-1" d="M168.81,64.9V48.11h2.64V64.9Z"/><path class="cls-1" d="M89,85.6V68.77h2.86V83.08h8.53V85.6Z"/><path class="cls-1" d="M111.6,82.93a.77.77,0,0,0,.8.89,4,4,0,0,0,.47,0V85.6a4.31,4.31,0,0,1-1.66.32c-1.2,0-1.87-.5-2-1.49a4.34,4.34,0,0,1-1.8,1.08,6.61,6.61,0,0,1-2.28.41,5.53,5.53,0,0,1-2.1-.39,3.43,3.43,0,0,1-1.53-1.19,3.26,3.26,0,0,1-.59-2,3.4,3.4,0,0,1,.64-2.19,3.5,3.5,0,0,1,1.59-1.09,14.06,14.06,0,0,1,2.42-.52l1.88-.27a3,3,0,0,0,1.25-.4,1.08,1.08,0,0,0,.45-1c0-1.1-.83-1.66-2.49-1.66s-2.53.65-2.67,1.95h-2.68a3.7,3.7,0,0,1,1.7-3.13,7.22,7.22,0,0,1,3.81-.93,6.42,6.42,0,0,1,3.39.85,2.88,2.88,0,0,1,1.42,2.64Zm-2.67-3.39a5.58,5.58,0,0,1-2.15.55,8.72,8.72,0,0,0-2.41.58,1.53,1.53,0,0,0-.82,1.56,1.26,1.26,0,0,0,.76,1.21,3.64,3.64,0,0,0,1.65.38,3.84,3.84,0,0,0,2-.58,1.9,1.9,0,0,0,1-1.73Z"/><path class="cls-1" d="M114.15,85.6V68.77h2.65l0,6.25a3.76,3.76,0,0,1,1.52-1.37,4.6,4.6,0,0,1,2.06-.5,5.42,5.42,0,0,1,3.11.85,5.11,5.11,0,0,1,1.91,2.31,8.23,8.23,0,0,1,.63,3.28,8.58,8.58,0,0,1-.57,3.16,5.28,5.28,0,0,1-1.75,2.31,4.59,4.59,0,0,1-2.86.88,7.18,7.18,0,0,1-2.2-.28,3.56,3.56,0,0,1-1.3-.65,2.16,2.16,0,0,1-.57-.69l-.16-.36V85.6Zm9.24-6.06a5.9,5.9,0,0,0-.38-2.11,3.59,3.59,0,0,0-1.12-1.58,2.79,2.79,0,0,0-1.79-.59,3.05,3.05,0,0,0-1.88.59,3.82,3.82,0,0,0-1.2,1.59,5.68,5.68,0,0,0-.4,2.1,5.41,5.41,0,0,0,.41,2.09,3.76,3.76,0,0,0,1.19,1.59,3,3,0,0,0,1.88.6,2.83,2.83,0,0,0,1.88-.61,3.25,3.25,0,0,0,1.07-1.56A6.27,6.27,0,0,0,123.39,79.54Z"/><path class="cls-1" d="M130.23,85.12a5.17,5.17,0,0,1-2.08-2.28,7.85,7.85,0,0,1,0-6.61A5.23,5.23,0,0,1,130.22,74a6.32,6.32,0,0,1,3.27-.81,6.42,6.42,0,0,1,3.29.81,5.4,5.4,0,0,1,2.13,2.26,7.34,7.34,0,0,1,.73,3.32,7.2,7.2,0,0,1-.74,3.31,5.37,5.37,0,0,1-2.13,2.27,6.31,6.31,0,0,1-3.28.82A6.22,6.22,0,0,1,130.23,85.12Zm5.13-1.91a3.66,3.66,0,0,0,1.18-1.59,5.74,5.74,0,0,0,0-4.16,3.64,3.64,0,0,0-1.17-1.59,3,3,0,0,0-1.88-.61,2.86,2.86,0,0,0-1.85.61,3.64,3.64,0,0,0-1.17,1.59,5.61,5.61,0,0,0,0,4.16,3.64,3.64,0,0,0,1.17,1.59,2.88,2.88,0,0,0,1.85.61A2.94,2.94,0,0,0,135.36,83.21Z"/><path class="cls-1" d="M141.45,85.6V73.45h2.46v2.36q.6-2.61,4.55-2.61v2.56a10.44,10.44,0,0,0-1.09-.09,2.93,2.93,0,0,0-1.68.49,3.25,3.25,0,0,0-1.18,1.43,5.41,5.41,0,0,0-.43,2.21v5.8Z"/><path class="cls-1" d="M158.65,82.93a.77.77,0,0,0,.8.89,4.3,4.3,0,0,0,.48,0V85.6a4.34,4.34,0,0,1-1.66.32c-1.2,0-1.88-.5-2-1.49a4.47,4.47,0,0,1-1.8,1.08,6.66,6.66,0,0,1-2.29.41,5.44,5.44,0,0,1-2.09-.39,3.51,3.51,0,0,1-1.54-1.19,3.26,3.26,0,0,1-.58-2,3.34,3.34,0,0,1,.64-2.19,3.42,3.42,0,0,1,1.58-1.09,14.27,14.27,0,0,1,2.42-.52l1.88-.27a3,3,0,0,0,1.25-.4,1.07,1.07,0,0,0,.46-1c0-1.1-.83-1.66-2.5-1.66s-2.53.65-2.67,1.95h-2.68a3.72,3.72,0,0,1,1.7-3.13,7.27,7.27,0,0,1,3.81-.93,6.37,6.37,0,0,1,3.39.85,2.86,2.86,0,0,1,1.42,2.64ZM156,79.54a5.52,5.52,0,0,1-2.15.55,8.81,8.81,0,0,0-2.41.58,1.54,1.54,0,0,0-.81,1.56,1.27,1.27,0,0,0,.75,1.21,3.64,3.64,0,0,0,1.65.38,3.9,3.9,0,0,0,2-.58,1.91,1.91,0,0,0,.95-1.73Z"/><path class="cls-1" d="M159.73,73.45h2V69.8h2.64v3.65h2.42v2h-2.43v6.52a2.69,2.69,0,0,0,.23,1.32c.16.25.51.37,1.06.37a5.69,5.69,0,0,0,1.14-.09V85.6c-.2,0-.48,0-.86.05s-.67,0-.87,0a5.93,5.93,0,0,1-1.68-.2,2.07,2.07,0,0,1-1-.56,2,2,0,0,1-.5-.94,6.41,6.41,0,0,1-.16-1.39V75.42h-2Z"/><path class="cls-1" d="M170.39,85.12a5.17,5.17,0,0,1-2.08-2.28,7.85,7.85,0,0,1,0-6.61A5.23,5.23,0,0,1,170.38,74a6.32,6.32,0,0,1,3.27-.81,6.45,6.45,0,0,1,3.29.81,5.4,5.4,0,0,1,2.13,2.26,7.34,7.34,0,0,1,.73,3.32,7.2,7.2,0,0,1-.74,3.31,5.37,5.37,0,0,1-2.13,2.27,6.31,6.31,0,0,1-3.28.82A6.22,6.22,0,0,1,170.39,85.12Zm5.13-1.91a3.74,3.74,0,0,0,1.18-1.59,5.74,5.74,0,0,0,0-4.16,3.8,3.8,0,0,0-1.17-1.59,3,3,0,0,0-1.88-.61,2.91,2.91,0,0,0-1.86.61,3.7,3.7,0,0,0-1.16,1.59,5.61,5.61,0,0,0,0,4.16,3.64,3.64,0,0,0,1.17,1.59,2.88,2.88,0,0,0,1.85.61A2.94,2.94,0,0,0,175.52,83.21Z"/><path class="cls-1" d="M181.61,85.6V73.45h2.46v2.36q.6-2.61,4.55-2.61v2.56a10.44,10.44,0,0,0-1.09-.09,2.93,2.93,0,0,0-1.68.49,3.25,3.25,0,0,0-1.18,1.43,5.41,5.41,0,0,0-.43,2.21v5.8Z"/><path class="cls-1" d="M192.69,85.56l-4.55-12.11h3l3.17,9.07,3.09-9.07h2.73l-4.37,12-.27.8c-.48,1.13-.84,1.92-1.09,2.38a3.46,3.46,0,0,1-1.14,1.22,3.53,3.53,0,0,1-2.07.54,11.56,11.56,0,0,1-1.81-.14V88a6.06,6.06,0,0,0,1,.11,2.06,2.06,0,0,0,2.11-1.63Z"/></svg>