<svg id="Layer_1" data-name="Layer 1" xmlns="http://www.w3.org/2000/svg" viewBox="0 0 207 78"><defs><style>.cls-1{fill:#8c8c8c;}</style></defs><title>graphics</title><path class="cls-1" d="M64.36,38.32h-9c-.41,0-.54-.1-.53-.52,0-1.2,0-2.39,0-3.58a4.42,4.42,0,0,0-.19-.86,3.09,3.09,0,0,1-.08-.6c0-3.58,0-7.16-.05-10.73a10.85,10.85,0,0,0-.16-1.26c-.05-.41-.12-.83-.13-1.25,0-2.83,0-5.67,0-8.51A10.31,10.31,0,0,0,54,8.52a13.47,13.47,0,0,1-.19-2.18c0-.34.07-.47.45-.47H68c.36,0,.48.1.46.46,0,.71,0,1.43,0,2.14,0,.33.08.68-.24.94-.08.07-.06.26-.06.4,0,1.11,0,2.22,0,3.33a2.7,2.7,0,0,1-.19.59,1.86,1.86,0,0,0-.09.47c0,1.15,0,2.3-.05,3.45a2.66,2.66,0,0,1-.2.58,1.32,1.32,0,0,0-.09.43c0,1.15,0,2.3,0,3.45a2,2,0,0,1-.18.55,1.47,1.47,0,0,0-.11.46c0,1.06,0,2.11-.09,3.16,0,.78-.22,1.55-.27,2.33s0,1.45,0,2.17c0,.14.13.27.19.4l.24-.36c.13-.22.25-.44.39-.65s.4-.54.57-.84c.27-.47.48-1,.79-1.43a6.23,6.23,0,0,0,.67-1.31c.05-.15.25-.22.33-.37.25-.45.47-.92.72-1.38.08-.15.23-.27.33-.42s.52-.54.56-.84c.07-.5.47-.71.67-1.07s.29-.74.49-1.07.57-.84.87-1.25l0-.06c.15-.36.29-.71.46-1.06a3.91,3.91,0,0,1,.3-.41,4.4,4.4,0,0,0,.72-1.33c0-.14.2-.23.29-.36.21-.3.42-.6.61-.92s.47-.85.72-1.27.45-.74.66-1.11.25-.54.4-.79.41-.59.59-.9c.28-.5.53-1,.81-1.5s.52-.84.78-1.26c.15-.23.32-.45.45-.69s.32-.68.5-1,.25-.41.38-.62a2.69,2.69,0,0,1,.28-.5c.18-.22.28-.53.65-.53h14a1.63,1.63,0,0,1,.3.07l-.18.27s-.07.06-.07.1c0,.43-.4.58-.59.88s-.33.53-.51.79c-.4.58-.83,1.13-1.2,1.71s-.82.79-.91,1.4c0,.16-.21.32-.35.45a1.79,1.79,0,0,0-.64,1c0,.16-.26.26-.38.41a4.39,4.39,0,0,0-.88,1.22c-.23.74-.9,1.12-1.21,1.79a9.34,9.34,0,0,1-1.19,1.58c-.15.2-.07.51-.38.68s-.28.38-.42.57c-.31.4-.77.76-.89,1.21s-.74.81-.85,1.41c-.07.34-.53.59-.77.92s-.6,1-.9,1.43a4.83,4.83,0,0,1-.34.45c-.31.4-.64.77-.93,1.17s-.3.53-.46.78a5.59,5.59,0,0,1-.33.47l-.74,1.05-.61.82c-.14.2-.27.4-.41.59-.3.39-.62.78-.91,1.18-.16.23-.25.52-.42.74-.4.56-.82,1.09-1.24,1.63l0,0c0,.61-.7.81-.85,1.38-.09.36-.49.62-.72.94-.34.49-.65,1-1,1.49-.08.12-.19.22-.28.33-.33.44-.64.89-1,1.31a.73.73,0,0,1-.5.2H64.36Z"/><path class="cls-1" d="M185.31,48.25H173.92c-.18,0-.5-.08-.51-.16,0-.27-.18-.59.15-.81a.32.32,0,0,0,.11-.17A2.25,2.25,0,0,1,174,46c.16-.27,0-.71.34-.93-.12-.61.39-1,.46-1.62a5.22,5.22,0,0,1,.54-1.36.43.43,0,0,1,0-.07c.13-.53.27-1.06.4-1.59,0-.09,0-.23.07-.26.29-.15.23-.41.25-.65s-.05-.42.23-.5c0,0,.07-.09.08-.14.06-.35,0-.71.32-1s.1-.63.3-1a7.06,7.06,0,0,0,.47-1.54,2.49,2.49,0,0,1,.22-.43s.06-.06.07-.1c.13-.52.24-1,.38-1.56a1.41,1.41,0,0,1,.18-.37s.11-.08.1-.11c-.12-.58.31-1,.46-1.53a3.55,3.55,0,0,1,.55-1.49c.09-.09.07-.28.09-.43s0-.48.25-.59c0,0,0,0,.05-.06.12-.48.26-1,.36-1.44.05-.2,0-.45.26-.54,0,0,0,0,0-.06-.14-.58.31-1,.45-1.49a4.21,4.21,0,0,1,.56-1.54,3.15,3.15,0,0,0,.33-.89c.14-.41.29-.83.4-1.25.06-.25,0-.55.28-.71,0,0,0,0,0,0-.1-.59.34-1,.45-1.55a9.85,9.85,0,0,1,.54-1.52l0,0c.14-.51.29-1,.44-1.54,0-.14.1-.33.2-.39.42-.22.86-.4,1.29-.59.2-.09.38-.2.58-.29a.83.83,0,0,1,.27-.07c.28,0,.6.06.79-.28,0-.06.2,0,.31-.05.27,0,.57.06.76-.26.06-.09.31-.05.47-.08s.62.09.8-.27c0,0,0,0,.07,0,.56-.12,1.13-.23,1.69-.36.24-.06.46-.17.69-.25a.92.92,0,0,1,.27-.08c.42-.06.84,0,1.21-.33.17-.16.58,0,.88-.07s.52,0,.69-.25c0-.07.25,0,.39-.07.37,0,.8.14,1.08-.28,0-.06.21,0,.32-.05a8,8,0,0,0,1,0c.23,0,.43-.19.65-.22a11.48,11.48,0,0,1,1.17-.07,5,5,0,0,1,0,.55c0,.06-.16.1-.17.16-.14.51-.25,1-.39,1.55a2.14,2.14,0,0,1-.2.4,3.09,3.09,0,0,0-.14.32c-.1.25-.2.51-.28.77-.15.52-.28,1-.44,1.55a2.23,2.23,0,0,1-.21.44s-.06.06-.07.1c-.13.5-.25,1-.38,1.51a4.54,4.54,0,0,1-.21.45,3.89,3.89,0,0,0-.12.49c0,.22.07.49-.25.58,0,0-.05.06-.06.1-.14.51-.26,1-.41,1.54a2.56,2.56,0,0,1-.21.4s-.06.05-.07.09c-.14.49-.26,1-.4,1.47a3.32,3.32,0,0,1-.23.51,1.46,1.46,0,0,0-.07.19c0,.32.05.69-.31.9.13.6-.29,1.05-.46,1.56s-.13,1.11-.57,1.52c-.06.06,0,.21-.06.32s0,.51-.26.68c-.07,0-.07.22-.08.34s.07.55-.26.71c-.07,0-.06.23-.07.35s.06.51-.25.63c0,0,0,0,0,.06.12.6-.4,1-.44,1.57,0,.14-.14.26-.16.39a5.58,5.58,0,0,0-.07.91c0,.05.25.13.38.13.73,0,1.45,0,2.18,0h8.47a1.08,1.08,0,0,1,.36,0c.07,0,.16.15.14.18-.16.32-.36.62-.53.93a8.69,8.69,0,0,0-.4.81c-.16.39-.27.8-.45,1.18s-.38.66-.57,1a.18.18,0,0,0-.05.07c-.12.34-.15.83-.39,1s-.12.83-.6,1c-.15.06-.19.4-.29.62L200,42.87a1.64,1.64,0,0,1-.16.29s-.11.06-.12.1c-.14.34-.17.79-.41,1s-.17.78-.57,1c-.17.1-.21.41-.31.62s-.29.73-.48,1.06a3.56,3.56,0,0,1-.72,1.2c-.1.08-.29.06-.43.06Z"/><path class="cls-1" d="M20.63,26c.24-.41.43-.74.64-1.07a3.79,3.79,0,0,1,.34-.45c.4-.52.84-1,1.21-1.55S23.59,21.66,24,21c.07-.12.22-.2.31-.32l.93-1.19a.45.45,0,0,0,.1-.21c0-.39.35-.55.55-.81s.32-.5.48-.74.29-.39.43-.58c.4-.52.83-1,1.2-1.57s.55-1,.85-1.41.54-.58.76-.91a6.39,6.39,0,0,0,.77-1.08c.19-.58.8-.83.9-1.46.05-.29.45-.51.66-.78s.39-.59.6-.88.63-.8.93-1.22c.17-.24.3-.52.47-.77s.22-.25.31-.39.24-.51.4-.73.24-.11.36-.11H46.39c.38,0,.48.11.48.48,0,2.84,0,5.67,0,8.51a3,3,0,0,0,.2.67,2.25,2.25,0,0,1,.07.52c0,3.59,0,7.18.06,10.77a6.48,6.48,0,0,0,.18,1,3,3,0,0,1,.09.52c0,2.93,0,5.86,0,8.8,0,.38-.12.51-.49.47a6.77,6.77,0,0,0-.78,0c-.08,0-.2,0-.24,0-.49-.51-1.11-.21-1.67-.3-.22,0-.43,0-.62-.21s-.38-.08-.57-.11c-.41-.07-.87.16-1.2-.29-.07-.09-.29-.06-.44-.08-.32,0-.69.07-.91-.29,0,0-.13,0-.2,0a3.42,3.42,0,0,1-1-.23c-.55-.25-1.19-.28-1.77-.48a10.81,10.81,0,0,0-1.26-.39,1.46,1.46,0,0,1-.67-.28c-.36-.48-1.07-.15-1.36-.68,0,0-.14-.09-.13-.13.08-.65-.25-1.33.21-1.94a.83.83,0,0,0,.08-.43c0-1.14,0-2.28,0-3.41a2.12,2.12,0,0,1,.19-.55,1.8,1.8,0,0,0,.1-.46c0-1,0-2,.09-3a4.55,4.55,0,0,1,.17-.73,1.08,1.08,0,0,0,0-.4c0-.05-.21-.12-.23-.1-.27.34-.55.68-.79,1s-.52.83-.78,1.24l-.24.44-.77,1.3c-.17.27-.38.53-.53.81-.28.49-.5,1-.79,1.48s-.59.82-.86,1.25a4.52,4.52,0,0,0-.44.88.61.61,0,0,1-1,.25,2,2,0,0,0-.39-.24c-.33-.18-.65-.37-1-.56s-.4-.29-.61-.41-.66-.31-1-.48a1.52,1.52,0,0,1-.4-.32,1.83,1.83,0,0,0-1-.65c-.12,0-.21-.2-.32-.3l-1.57-1.27c-.2-.15-.44-.25-.63-.41C21.44,26.71,21,26.32,20.63,26Z"/><path class="cls-1" d="M156.89,48.25H145.54c-.64,0-.64,0-.61-.66,0-.25,0-.52.25-.69.08,0,0-.26.08-.38s.16-.4.25-.6.06-.09.06-.14a2.08,2.08,0,0,1,.31-1,5.08,5.08,0,0,0,.43-1.52,2.64,2.64,0,0,1,.2-.37.71.71,0,0,0,.11-.21,2.51,2.51,0,0,1,.29-.93,5.56,5.56,0,0,0,.41-1.49,2,2,0,0,1,.19-.42s.1-.09.1-.12c-.14-.59.28-1,.46-1.53s.12-1.11.56-1.53a.58.58,0,0,0,.06-.28c0-.27,0-.58.28-.76,0,0,.05-.12.06-.19,0-.3-.07-.65.29-.87.06,0,0-.21.05-.31s-.05-.51.25-.64a.17.17,0,0,0,.06-.14,2.12,2.12,0,0,1,.31-1,5.2,5.2,0,0,0,.44-1.57,1.46,1.46,0,0,1,.16-.3c0-.06.12-.1.12-.15a2.71,2.71,0,0,1,.36-1.16c.13-.26.07-.57.27-.88a5.74,5.74,0,0,0,.43-1.49,5,5,0,0,1,.22-.47,2,2,0,0,0,.14-.54c0-.27.1-.43.39-.47.1,0,.19-.12.29-.18a1,1,0,0,1,.31-.15c.28,0,.6.07.79-.28,0-.06.22,0,.34-.05s.53.05.68-.26c0-.06.17-.06.26-.07.27,0,.58.06.75-.28,0-.06.2-.05.31-.06.27,0,.55,0,.73-.26.05-.08.26,0,.39-.08s.39-.18.59-.25a2.48,2.48,0,0,1,.39-.1c.24-.05.52,0,.67-.29,0-.07.22-.06.34-.08s.53.08.66-.26c0,0,.15-.06.23-.07.31,0,.65.08.87-.29,0-.07.27,0,.39-.05a5.38,5.38,0,0,0,.55-.24.71.71,0,0,1,.18-.08,2,2,0,0,0,1-.28,6.3,6.3,0,0,1,1.49-.44,2.08,2.08,0,0,0,.47-.24s.07-.07.1-.07a3.54,3.54,0,0,0,1.49-.35c.26-.12.62,0,.84-.3,0-.07.28,0,.42,0s.07.23.05.24c-.34.14-.23.46-.31.7-.16.5-.35,1-.53,1.49a.43.43,0,0,0,0,.07c-.15.58-.29,1.16-.45,1.74a2.91,2.91,0,0,1-.21.48s0,0-.06.06c-.13.49-.27,1-.38,1.47,0,.2.05.45-.25.54,0,0,0,.06-.06.1-.12.39-.25.78-.36,1.18s0,.65-.32.87c-.08.05,0,.26-.07.39s-.16.37-.24.55a2.09,2.09,0,0,0-.08.23,2.14,2.14,0,0,1-.26.92,6.05,6.05,0,0,0-.43,1.57,1.73,1.73,0,0,1-.18.36c-.06.14-.12.29-.17.44s-.14.42-.23.62.17.61.45.65a2.84,2.84,0,0,0,.41,0H174.8c.17,0,.43,0,.49.14a.35.35,0,0,1-.21.53.15.15,0,0,0-.05.06,11,11,0,0,1-.4,1.09,10.4,10.4,0,0,1-.56.9c-.13.23-.26.46-.37.69s-.28.69-.44,1-.36.66-.54,1a.91.91,0,0,0-.11.25c0,.2,0,.43-.27.49l0,0c-.15.34-.28.69-.45,1s-.39.69-.58,1-.1.51-.35.74-.28.68-.41,1a.92.92,0,0,1-.13.24s-.12,0-.14.07c-.15.34-.28.68-.45,1s-.38.69-.57,1a.7.7,0,0,0-.08.27.82.82,0,0,1-.8.67Z"/><path class="cls-1" d="M141.76,23.66c0,.88,0,1.76,0,2.63,0,.33-.1.42-.42.43a2.47,2.47,0,0,0-.6.23,1.29,1.29,0,0,1-.39.08c-.26,0-.56-.07-.7.27a.1.1,0,0,1-.07,0c-.65-.14-1.17.32-1.78.38a2.57,2.57,0,0,0-.52.21A1.11,1.11,0,0,1,137,28c-.39.05-.82,0-1.14.32-.06.06-.24,0-.36.05-.32.06-.7-.05-.92.32,0,.05-.18,0-.27.05-.3,0-.62-.07-.85.27-.06.09-.33,0-.5.06s-.64-.09-.85.27c0,.07-.25,0-.39.06-.33,0-.71-.09-1,.29-.05.07-.26,0-.39.05-.31.08-.61.19-.92.25-.08,0-.27-.07-.27-.12a6.42,6.42,0,0,1,.05-2.28c.46-1.25.2-2.5.31-3.74a1,1,0,0,0-.07-.44.24.24,0,0,0-.18-.12s-.14.08-.14.11c.08.39-.31.52-.44.8a10.14,10.14,0,0,0-.7,1.3c-.06.21-.28.37-.43.55s-.09.06-.11.11c-.15.34-.27.69-.43,1-.08.15-.26.25-.35.4-.25.45-.47.93-.73,1.38a2.91,2.91,0,0,1-.44.49.47.47,0,0,0-.13.15c-.14.34-.25.7-.41,1a1,1,0,0,1-.39.41,3.44,3.44,0,0,1-.93.4c-.39.1-.84-.1-1.16.32-.06.07-.27,0-.4,0-.34,0-.7-.08-1,.26-.09.1-.37.05-.56.07-.38,0-.79,0-1.12.28-.09.09-.31,0-.47.07-.32,0-.69-.07-.93.3,0,.07-.22.05-.34.07-.46.07-1-.15-1.39.29-.12.13-.5,0-.75.05s-.67-.09-.89.27c0,.05-.18,0-.27.05-.51.07-1.06-.15-1.51.31-.08.09-.31,0-.48,0a2,2,0,0,0-1.21.28c-.16.12-.48,0-.72.06s-.6.18-.91.27a1.15,1.15,0,0,1-.26,0c0-.15,0-.35.11-.44a1.81,1.81,0,0,0,.61-.92c0-.17.22-.31.34-.46.41-.52.84-1,1.22-1.56s.54-1,.84-1.43c.2-.3.53-.53.7-.85.29-.55.9-.89,1-1.57,0-.12.21-.21.3-.33a16.63,16.63,0,0,0,1.19-1.64c.29-.48.77-.83.93-1.43.09-.34.51-.59.74-.91.33-.48.62-1,.94-1.47.09-.13.22-.22.3-.35.35-.57.83-1.06,1.15-1.63s.84-.82,1-1.45c0-.11.21-.18.29-.3A9.06,9.06,0,0,1,122.19,16a3.46,3.46,0,0,0,.44-.72c.26-.41.53-.81.8-1.2s.4-.58.6-.86a2.58,2.58,0,0,1,.36-.49c.38-.34.51-.84.89-1.21a8.64,8.64,0,0,0,.86-1.42,8.24,8.24,0,0,1,.77-.91s.11-.08.11-.11c0-.32.23-.49.43-.71a8.6,8.6,0,0,0,.69-1,8.62,8.62,0,0,1,.71-1.13,1,1,0,0,1,.81-.44c3.64,0,7.29,0,10.93,0,.39,0,.53.1.52.5,0,.64,0,1.29,0,1.93,0,.33-.06.68.24,1,.09.08,0,.31.06.47,0,3.4,0,6.8.05,10.2a2.67,2.67,0,0,0,.21.7,3.64,3.64,0,0,1,.07.44v2.59Z"/><path class="cls-1" d="M87.8,37.26a4.23,4.23,0,0,0,.22-.71c0-.22,0-.48.26-.58,0,0,.06-.09.07-.15a2.65,2.65,0,0,1,.32-1.06c.17-.27.15-.63.33-.95a6.16,6.16,0,0,0,.43-1.57c0-.08,0-.21,0-.23.33-.19.24-.51.29-.8a.94.94,0,0,1,.18-.36s.09-.06.08-.08a3,3,0,0,1,.41-1.34,7.66,7.66,0,0,0,.27-.72c.15-.52.28-1,.44-1.55a1.78,1.78,0,0,1,.21-.44s.06-.06.07-.09l.38-1.52a2.82,2.82,0,0,1,.23-.46s0,0,0-.06a2.75,2.75,0,0,1,.4-1.3,6.21,6.21,0,0,0,.27-.76c.16-.53.29-1.07.44-1.6a1.85,1.85,0,0,1,.19-.37s.09-.07.1-.11c.13-.52.24-1.05.38-1.56,0-.14.15-.26.2-.4s.07-.36.13-.53.14-.32.21-.48a.84.84,0,0,0,.11-.21,2.42,2.42,0,0,1,.3-1c.19-.28.16-.68.36-1a6.46,6.46,0,0,0,.42-1.61s0-.11,0-.12c.37-.23.28-.61.31-.95,0-.07,0-.17.07-.18.31-.11.21-.38.26-.59a4.61,4.61,0,0,1,.22-.51c0-.11.08-.23.12-.34.09-.26.2-.51.27-.77.16-.53.29-1.07.45-1.6a1.35,1.35,0,0,1,.18-.36s.07-.06.08-.09A13,13,0,0,0,98,6.62c.08-.47.32-.74.79-.74h13a1.26,1.26,0,0,1,.52.09,3.83,3.83,0,0,1-.1.82c0,.15-.16.28-.19.43s0,.55-.3.72c0,0,0,.15-.06.23,0,.29.06.63-.3.83-.06,0,0,.2,0,.31s0,.53-.26.68c0,0,0,.15-.06.23,0,.29.07.63-.29.83-.06,0-.05.2-.05.31s.05.53-.27.67c-.06,0,0,.17-.08.26-.09.27-.2.54-.28.81a8.87,8.87,0,0,1-.46,1.59c-.26.47-.16,1.06-.56,1.46a.28.28,0,0,0-.06.15c0,.34.06.72-.32.94.13.6-.37,1-.45,1.58a5.93,5.93,0,0,1-.54,1.41,1.38,1.38,0,0,0-.08.27c0,.29,0,.63-.3.83-.07,0,0,.24-.06.35s-.16.41-.23.61a2,2,0,0,0-.09.35c0,.25.07.56-.27.7,0,0,0,.1,0,.15a1.86,1.86,0,0,1-.3,1,4.9,4.9,0,0,0-.43,1.48,4.66,4.66,0,0,1-.22.45s0,0-.06.06c-.13.5-.26,1-.41,1.5a4.19,4.19,0,0,1-.2.49s0,0-.06.06c-.13.5-.26,1-.4,1.5a3.48,3.48,0,0,1-.21.48c0,.05-.08.08-.1.13-.13.51-.26,1-.4,1.54a1.69,1.69,0,0,1-.19.38c0,.07-.11.13-.12.21a2.73,2.73,0,0,1-.3,1,6.67,6.67,0,0,0-.42,1.58c0,.12-.18.22-.31.28a5.66,5.66,0,0,1-.68.27.87.87,0,0,1-.32.06c-.38,0-.77,0-1.15,0a5.75,5.75,0,0,0-.67.21,1.83,1.83,0,0,1-.39.09c-.44,0-.88,0-1.32,0a5.19,5.19,0,0,0-.7.23,2.14,2.14,0,0,1-.44.08l-1.76.07c-.3,0-.64-.06-.85.27,0,.06-.21,0-.31,0-.73,0-1.46,0-2.18,0-.34,0-.73-.1-1,.27,0,0-.13,0-.19,0-.81,0-1.62,0-2.43,0A.46.46,0,0,1,87.8,37.26Z"/><path class="cls-1" d="M135.13,48.25c-2.28,0-4.55,0-6.83,0-.4,0-.53-.14-.51-.52,0-.65,0-1.29,0-1.93a3.19,3.19,0,0,1,.19-.65,3.86,3.86,0,0,0,.11-.68c0-1,0-2.08,0-3.12a2.49,2.49,0,0,1,.2-.62,2.7,2.7,0,0,0,.09-.48c0-1.11,0-2.22,0-3.33a3.32,3.32,0,0,1,.2-.66,1.7,1.7,0,0,0,.08-.44c0-.84,0-1.67,0-2.51a.71.71,0,0,1,.71-.72c.28,0,.57,0,.77-.26,0-.07.23-.05.35-.08.31-.09.62-.2.94-.28.14,0,.3,0,.44-.06s.4-.17.6-.25a1.09,1.09,0,0,1,.31-.08c.28-.06.6,0,.79-.31,0-.07.23-.06.35-.08.33,0,.71.09,1-.28.05-.08.27,0,.4-.06a5.31,5.31,0,0,0,.55-.23.48.48,0,0,1,.18-.08,2.06,2.06,0,0,0,1-.29,5.19,5.19,0,0,1,1.56-.4c.05,0,.13,0,.16,0,.32-.41.88-.18,1.22-.42a2.36,2.36,0,0,1,1.13-.32.4.4,0,0,0,.17-.09l.24-.18a1,1,0,0,1,.12.32c0,.47,0,.93,0,1.4s.15,1,.23,1.52c0,.16,0,.33.05.49,0,3.29,0,6.58,0,9.87a6.34,6.34,0,0,0,.23,1.1,2.23,2.23,0,0,1,0,.36c0,1.29,0,2.58,0,3.87,0,.4-.14.5-.52.49Z"/><path class="cls-1" d="M166,5.87h6.49a1.69,1.69,0,0,1,.44.12c0,.17-.11.35-.16.53a2.26,2.26,0,0,0-.13.33c-.05.3.06.64-.29.83.07.58-.43,1-.44,1.55a2,2,0,0,1-.06.32c-.09.29-.18.58-.28.87-.19.52-.39,1-.59,1.55a1.38,1.38,0,0,0-.08.27c0,.3.06.63-.28.84-.07,0,0,.24-.06.35s-.16.4-.24.6a.45.45,0,0,0-.07.18,2,2,0,0,1-.3,1,4.9,4.9,0,0,0-.43,1.48c-.05.15-.17.28-.22.44a2,2,0,0,0-.12.58c0,.25-.13.32-.33.44-.39.23-.88.2-1.2.39s-.88.1-1.15.32c-.45.36-1.09.08-1.45.56-.05.06-.21,0-.32.05-.26,0-.55-.05-.72.27,0,.05-.17.05-.26.06-.3,0-.6,0-.81.28,0,.08-.26.05-.39.08s-.48,0-.57.28a.13.13,0,0,1-.06.05c-.55-.12-1,.33-1.47.37-.21,0-.45-.05-.55.24,0,0-.14.07-.22.08a1.91,1.91,0,0,0-.93.27,5.25,5.25,0,0,1-1.46.41c-.22.06-.42.16-.64.23a2.38,2.38,0,0,1-.38.11c-.29.05-.61,0-.8.32,0,.06-.2,0-.3.06-.27,0-.53,0-.78.25s-.56,0-.85,0c0-.33,0-.65.09-1,0-.1.14-.17.17-.26a2.78,2.78,0,0,1,.29-1,5.61,5.61,0,0,0,.46-1.52c.06-.2.2-.38.26-.57a5.49,5.49,0,0,1,.46-1.58c.32-.45.08-1.06.55-1.4a.06.06,0,0,0,0,0c-.08-.59.39-1,.47-1.58a6.17,6.17,0,0,1,.5-1.4.43.43,0,0,1,0-.07c.15-.54.29-1.07.45-1.6a2.11,2.11,0,0,1,.16-.34,1.06,1.06,0,0,0,.12-.2,3.13,3.13,0,0,1,.3-1.05,7,7,0,0,0,.47-1.61A18.51,18.51,0,0,1,159,6c0-.08.25-.11.39-.11Z"/><path class="cls-1" d="M16.54,31.67l1,.59.5.35c.28.2.53.52.83.58s.54.3.81.45c.44.24.89.46,1.32.71.15.08.26.21.4.3.29.2.59.39.89.58l.07,0A4.37,4.37,0,0,1,23.7,36a6.35,6.35,0,0,0,1,.41c.34.16.66.37,1,.54a4.56,4.56,0,0,0,.56.19c0,.21.18.46-.21.59-.07,0-.09.18-.14.27-.23.43-.43.87-.69,1.28s-.57.81-.86,1.2c0,0-.05.05-.05.07.09.45-.4.65-.47,1,0,.18-.2.33-.31.49s-.55.56-.58.86c-.07.62-.68.87-.8,1.46-.09.43-.51.79-.75,1.2s-.38.78-.61,1.14a4.85,4.85,0,0,1-1.05,1.49.63.63,0,0,1-.31.05H5.54a1.22,1.22,0,0,1-.39-.14,2.67,2.67,0,0,1,.2-.46c.14-.25.3-.5.46-.74s.2-.19.28-.3l.77-1.15a2.3,2.3,0,0,1,.33-.37c.36-.39.53-.9.91-1.31A12.93,12.93,0,0,0,9.27,42a5.7,5.7,0,0,1,.46-.52c0-.05.14-.1.13-.14,0-.41.36-.52.51-.8a6.44,6.44,0,0,1,.59-.88l.37-.48c.3-.4.62-.78.91-1.19.16-.23.26-.5.42-.73a9,9,0,0,0,1.23-1.71c.23-.52.79-.78.88-1.36,0-.15.19-.28.31-.39.38-.36.44-.93.92-1.26C16.26,32.33,16.38,31.94,16.54,31.67Z"/><path class="cls-1" d="M122.57,34.66a5.06,5.06,0,0,0-.76,1.15,5.53,5.53,0,0,1-.85,1.25c0,.06,0,.16-.08.23s-.18.26-.25.39-.28.51-.43.75-.6.67-.64,1c-.08.63-.72.87-.8,1.51-.06.41-.52.77-.8,1.16,0,0-.11.08-.14.14-.15.34-.27.7-.43,1-.06.12-.22.19-.28.31-.27.48-.51,1-.78,1.45-.06.11-.2.18-.26.29-.25.45-.48.93-.75,1.38a4.15,4.15,0,0,1-.46.56.61.61,0,0,0-.12.16c-.27.7-.4.79-1.15.79H100.23c-.17,0-.44,0-.5-.14s0-.36.22-.52.28-.51.43-.76.26-.22.35-.35c.24-.35.45-.73.7-1.07.4-.55.85-1.07,1.24-1.63s.54-.94.84-1.4.48-.6.71-.9c.1-.14.17-.3.26-.43a4.47,4.47,0,0,0,.42-.58c.28-.56.76-1,1-1.55a1.21,1.21,0,0,1,1.29-.83.74.74,0,0,0,.78-.24c.08-.1.36-.06.54-.09.42-.06.85.06,1.22-.32.15-.15.55,0,.84-.07s.57.07.76-.25c0-.06.2-.06.31-.06.34,0,.77.1,1-.06.49-.35,1.11-.1,1.52-.35s1-.15,1.42-.31,1.15-.17,1.62-.38,1-.1,1.33-.33,1.06-.14,1.45-.37a3.86,3.86,0,0,1,1.38-.3c.11,0,.19-.2.31-.22A6.18,6.18,0,0,1,122.57,34.66Z"/><path class="cls-1" d="M91.27,48.25H84.85c-.17,0-.49-.06-.5-.12a3.79,3.79,0,0,1,.07-.82c0-.06.11-.1.12-.16.15-.53.29-1.07.44-1.61a1.68,1.68,0,0,1,.15-.3c.05-.08.13-.15.14-.24a2,2,0,0,1,.3-1c.2-.25,0-.73.36-1-.12-.6.43-1,.43-1.59,0-.25.15-.28.35-.29s.54,0,.74-.24c0-.07.25-.06.38-.06.73,0,1.46,0,2.18,0a3.63,3.63,0,0,0,.69-.21,1.83,1.83,0,0,1,.39-.09c.63,0,1.26,0,1.89,0a5.81,5.81,0,0,0,.91-.24,1.44,1.44,0,0,1,.41-.05c.45,0,.9,0,1.35,0a3.2,3.2,0,0,0,.66-.22,1.29,1.29,0,0,1,.39-.08c.45,0,.91,0,1.35-.07a2.65,2.65,0,0,0,.64-.25,1,1,0,0,1,.35-.07c.51,0,1,0,1.52,0a1.86,1.86,0,0,0,.39-.1c.11,0,.2-.1.31-.15,0,.16,0,.42,0,.46-.32.19-.15.56-.29.75-.33.44-.13,1.08-.57,1.46a.14.14,0,0,0,0,.11,1.57,1.57,0,0,1-.33,1c-.2.23-.12.64-.3,1a7.4,7.4,0,0,0-.46,1.58,2.58,2.58,0,0,1-.19.37S99,46,99,46c-.13.5-.29,1-.37,1.52a.79.79,0,0,1-.8.75Z"/><path class="cls-1" d="M33.94,40c.35.07.66.12,1,.19s.49.19.74.25a4.66,4.66,0,0,0,.64.08c.26,0,.51,0,.74.24s.49.08.75.1.49-.06.64.23c0,.07.22.07.34.09.5.08,1-.11,1.51.27.23.18.69.05,1,.07s.63-.08.85.26c0,.06.2.06.31.06.42,0,.85,0,1.27.07a5.4,5.4,0,0,1,.78.24,1.87,1.87,0,0,0,.4.07c.59,0,1.18,0,1.77,0a4.83,4.83,0,0,1,1,.27c.07,0,.13.2.13.3,0,1.68,0,3.37,0,5.05,0,.29-.09.41-.4.41H33.63c-.28,0-.4-.1-.39-.38a4.79,4.79,0,0,1,0-1.47c.51-1.41.19-2.87.32-4.29,0,0,0-.07,0-.09.43-.63.24-1.37.34-2.06C33.94,39.93,34,39.9,33.94,40Z"/><path class="cls-1" d="M184.76,13.62l.26-.72a6.19,6.19,0,0,1,.61-1.65.78.78,0,0,0,.07-.35c0-.25-.06-.54.27-.66,0,0,0-.05,0-.07.13-.53.25-1.07.38-1.6a1.76,1.76,0,0,1,.1-.3,3.63,3.63,0,0,0,.22-.5c0-.22,0-.44.24-.6s.09-.35.14-.53.16-.33.21-.5.33-.27.56-.27h13a.94.94,0,0,1,.48.14,4.24,4.24,0,0,1-.15.79c0,.06-.12.1-.12.15a2.25,2.25,0,0,1-.34,1.11c-.23.37-.21.89-.43,1.27a1.33,1.33,0,0,1-.76.51c-.44.13-1,0-1.33.38-.09.1-.37,0-.56,0s-.58-.07-.76.26c0,.06-.23,0-.35.06-.37.05-.8-.12-1.09.29-.05.07-.26,0-.39,0-.33,0-.69-.09-.93.28-.06.08-.28,0-.43.06-.34,0-.7-.08-1,.27-.1.11-.42,0-.63.06s-.54,0-.73.25c-.06.09-.28.07-.43.09-.32.05-.69-.06-.91.32,0,.07-.25,0-.38.06-.35.06-.75-.12-1,.29,0,.06-.21,0-.32,0-.27,0-.58-.07-.76.27,0,.05-.17.05-.26.06-.38.06-.8-.11-1.09.31-.05.07-.26,0-.39,0s-.4.17-.61.23A2.15,2.15,0,0,1,184.76,13.62Z"/><path class="cls-1" d="M70.9,42.62l-1,1.24a1.39,1.39,0,0,0-.11.21l-.55.81c-.13.18-.34.32-.41.52a3,3,0,0,1-.67.9c-.18.23-.28.52-.45.77s-.49.73-.76,1.07a.5.5,0,0,1-.33.1H55.49c-.28,0-.37-.11-.37-.36,0-.62,0-1.23,0-1.85a2.84,2.84,0,0,0-.18-.51,1.24,1.24,0,0,1-.09-.38c0-.6,0-1.21,0-1.81,0-.42.15-.49.52-.49,3.17,0,6.33,0,9.5,0a9.37,9.37,0,0,0,1.06,0,6.21,6.21,0,0,0,.85-.21,1.8,1.8,0,0,1,.32-.06l3.45,0A2.72,2.72,0,0,1,70.9,42.62Z"/><path class="cls-1" d="M149.47,70.47c.32.22.45.18.61-.22a3.11,3.11,0,0,1,.38-.59c.32-.45.64-.89,1-1.33.07-.1.21-.16.28-.25.34-.44.68-.87,1-1.32.16-.22.1-.56.42-.73s.29-.35.42-.54.17-.31.27-.46.26-.34.4-.51c.4-.51.82-1,1.21-1.53.17-.22.28-.49.45-.71a.72.72,0,0,1,.35-.23.57.57,0,0,1,.29,0c.2,0,.58.07.58.12a4.91,4.91,0,0,1-.11.92,7.48,7.48,0,0,1-.18.82c-.05.18-.15.35-.21.53a2.37,2.37,0,0,0-.11.46c-.06.35.08.71-.27,1-.13.12,0,.48-.08.72a2.3,2.3,0,0,1-.2.49s-.09.09-.09.13c.13.62-.35,1.09-.41,1.68a5.36,5.36,0,0,1-.39,1.79,3.47,3.47,0,0,0-.31,1.06c0,.06-.18.15-.27.15a1.58,1.58,0,0,1-.62-.1s0-.4,0-.45c.34-.21.25-.54.32-.83s.16-.47.23-.7,0-.24.08-.36.17-.53.24-.79a3.47,3.47,0,0,0,.11-.56,1.13,1.13,0,0,1,.24-.74c.16-.16.07-.54.12-.82a4.94,4.94,0,0,1,.19-.49,2.8,2.8,0,0,0,.12-.5c.05-.31-.05-.61.26-.9.15-.14.05-.57,0-.86,0,0-.23-.09-.27,0a1.09,1.09,0,0,0-.36.45c-.08.39-.39.59-.62.85-.05.06-.12.13-.12.19,0,.41-.33.61-.59.86a5.29,5.29,0,0,0-.46.67,6.15,6.15,0,0,0-.79,1.07c-.25.54-.8.84-1,1.45-.08.32-.44.56-.66.85s-.47.58-.68.89-.23.46-.37.68a.38.38,0,0,1-.23.18c-.85.2-1,0-1-.81,0-.7,0-1.4,0-2.1,0-.33-.08-.68.24-.94.08-.07,0-.26,0-.4,0-1,0-2,0-3.08a2.63,2.63,0,0,1,.1-.47,2.3,2.3,0,0,1,.1-.35c-.18,0-.45,0-.51.1a9.71,9.71,0,0,0-.49,1c-.16.31-.35.62-.53.93a.86.86,0,0,0-.07.1c-.26.58-.5,1.18-.78,1.75-.16.32-.41.58-.58.89s-.27.67-.42,1a3.13,3.13,0,0,1-.21.34s-.06,0-.06,0c.07.41-.32.61-.43.94a2.12,2.12,0,0,1-.42.91c-.15.15-.52.08-.79.11a1.52,1.52,0,0,1,0-.53c.16-.31.47-.57.54-.89a3.23,3.23,0,0,1,.62-1,9.59,9.59,0,0,0,.45-1c.14-.3.3-.59.46-.89s.39-.78.6-1.16.37-.62.55-.94a.91.91,0,0,0,.09-.17l.54-.92c.13-.22.27-.45.39-.68a9.29,9.29,0,0,0,.47-1.08c.12-.37.87-.73,1.18-.52a.4.4,0,0,1,.11.29c0,1.25,0,2.49,0,3.74,0,.07,0,.17,0,.2-.39.31-.26.75-.27,1.14,0,.75,0,1.5,0,2.26A4.65,4.65,0,0,1,149.47,70.47Z"/><path class="cls-1" d="M182.44,72c-.53-.08-.81-.35-.84-.82s.09-.82-.3-1.13c-.07,0,0-.23-.05-.36a9.14,9.14,0,0,0-.45-2.36c-.22-.5-.06-1.07-.33-1.43s-.2-.86-.27-1.29a2.79,2.79,0,0,1,0-.5c0-.36-.21-.44-.51-.4a.28.28,0,0,0-.2.15,4.09,4.09,0,0,1-.42,1.32c-.33.4-.09,1-.56,1.29,0,0,0,0,0,0-.15.43-.28.87-.43,1.3s-.28.7-.42,1.05-.16.42-.26.62a3.48,3.48,0,0,1-.22.43l0,0a3.55,3.55,0,0,0-.37,1,1.17,1.17,0,0,1-.4.86c-.1.1-.34,0-.52.07a2.57,2.57,0,0,1,0-.62,4.5,4.5,0,0,1,.27-.78,2.2,2.2,0,0,1,.15-.26s.12-.06.12-.09a2.26,2.26,0,0,1,.41-1.17c.29-.47.31-1.06.63-1.55a5.42,5.42,0,0,0,.42-1.29,1.32,1.32,0,0,1,.18-.33s.1-.08.1-.12c0-.3.28-.58.29-.78a2.45,2.45,0,0,1,.49-1.25c.28-.46.18-1,.62-1.45.28-.25.53-.13.79-.14.06,0,.13.27.2.42s.17.37.24.56a2,2,0,0,1,.08.35c.05.39-.12.83.29,1.13.06,0,0,.24,0,.36,0,.45-.08.94.29,1.32.08.08,0,.27.05.4,0,.35,0,.71.28,1,.08.08,0,.29.06.44,0,.34,0,.71.26,1,.08.07.06.26.07.39a8.86,8.86,0,0,0,.07.9c0,.09.14.15.22.22a2.9,2.9,0,0,0,.48-.58,6.22,6.22,0,0,1,.65-1.56c.07-.09,0-.27.07-.39s.16-.35.24-.52.07-.09.07-.13c0-.28.26-.54.26-.71,0-.51.41-.85.44-1.33a.7.7,0,0,1,.14-.27,1.92,1.92,0,0,0,.17-.26,4.91,4.91,0,0,1,.42-1.31c.29-.41.17-1,.64-1.28a.88.88,0,0,1,.46-.14c.06,0,.15.23.16.35s0,.51-.26.62a.15.15,0,0,0,0,.06c-.13.42-.26.83-.4,1.25a2.58,2.58,0,0,1-.19.37c-.05.11-.09.22-.14.32s-.14.3-.22.45-.07.08-.08.13c-.13.45-.13,1-.42,1.32s-.09,1-.58,1.33c-.2.14-.23.52-.33.79a3.84,3.84,0,0,1-.47,1.27c-.38.43-.09,1.09-.6,1.41C182.75,71.84,182.59,71.92,182.44,72Z"/><path class="cls-1" d="M104.94,71.94c-.27,0-.35-.1-.53-.39-.29-.48-.09-1-.32-1.41s-.1-1.12-.34-1.57-.09-1.11-.36-1.51c-.39-.59-.12-1.29-.52-1.87-.18-.26-.05-.72-.1-1.09,0-.13-.14-.34-.25-.37a.4.4,0,0,0-.5.35,10.67,10.67,0,0,1-.4,1.5,6.4,6.4,0,0,1-.52.92s-.06.07-.07.11L100.64,68a1.34,1.34,0,0,1-.07.18c-.08.2-.17.4-.26.6l-.23.46s-.06.06-.07.1c-.14.43-.27.86-.41,1.29,0,.08,0,.2-.06.23-.32.17-.24.49-.3.76s-.18.31-.3.33a.73.73,0,0,1-.59-.09.37.37,0,0,1,.16-.55c.07,0,.1-.15.14-.23s.18-.38.25-.58c.16-.49.31-1,.47-1.49a2.25,2.25,0,0,1,.19-.38c0-.06.11-.11.12-.16a1.59,1.59,0,0,1,.27-.71,5.22,5.22,0,0,0,.42-1.32,1.17,1.17,0,0,1,.17-.28c0-.07.12-.12.14-.19a3.73,3.73,0,0,1,.43-1.27c.35-.41.17-1,.58-1.35a2,2,0,0,0,.38-1c.07-.32.27-.27.47-.26s.38-.07.52.24c.23.5.17,1.08.39,1.51.28.59.12,1.22.38,1.74a5.5,5.5,0,0,1,.27,1.29,2.26,2.26,0,0,0,.17.35,1,1,0,0,1,.14.31c.06.42-.08.87.29,1.26.15.16.08.56.06.84a.9.9,0,0,0,.35.85c.07,0,.17.12.24.1a.31.31,0,0,0,.15-.21,6.85,6.85,0,0,1,.64-1.81c.17-.45.27-.93.4-1.4a.72.72,0,0,1,.14-.24c0-.06.14-.09.17-.15.12-.27.23-.54.32-.81.15-.44.17-1,.46-1.32s.14-.95.56-1.32c.24-.22.25-.67.41-1a.49.49,0,0,1,.35-.22.38.38,0,0,1,.25.26c0,.27.11.59-.22.77,0,0,0,0,0,.07.09.52-.36.88-.4,1.36a.66.66,0,0,1-.15.27c0,.08-.13.14-.16.22-.14.41-.26.83-.4,1.24a8.09,8.09,0,0,1-.37,1.08,6.52,6.52,0,0,1-.54.92.54.54,0,0,0,0,.11c-.13.45-.23.91-.39,1.34s-.39.84-.59,1.26a3,3,0,0,0-.09.32C105.69,71.77,105.49,71.94,104.94,71.94Z"/><path class="cls-1" d="M65.53,71.89c.21-.53.4-1,.59-1.45.07-.19.17-.37.25-.55a1.57,1.57,0,0,0,.09-.23l.24-.51s.07-.08.06-.11a1.68,1.68,0,0,1,.42-1.27c.31-.43.11-1,.56-1.35.21-.17.26-.54.36-.82.16-.45.18-1,.47-1.32s.11-1,.55-1.32c.18-.15,0-.59.37-.75.12-.05.25-.16.38-.16.79,0,1.58,0,2.38,0a1,1,0,0,1,.38.16c.1,0,.19.13.28.13a1.12,1.12,0,0,1,1.1.81,4.19,4.19,0,0,1,.22.59c0,.1-.09.22-.14.34s-.14.19-.13.28c0,.69-.49,1-.89,1.44l-.58.55c-.06.05-.16,0-.22.08-.23.14-.45.29-.67.45,0,0,.11.26.2.28a.89.89,0,0,1,.74,1,2.71,2.71,0,0,0,0,.57c.11.47-.2.79-.39,1.14s-.43.48-.56.76-.59.37-.85.61a6.41,6.41,0,0,1-1,.67.66.66,0,0,1-.28,0l-3.66,0A.81.81,0,0,1,65.53,71.89Zm2.69-.58A3.12,3.12,0,0,0,70,71a.38.38,0,0,0,.13-.09A7.87,7.87,0,0,1,71,70a1.34,1.34,0,0,0,.57-1.26,2.8,2.8,0,0,1,0-.29.86.86,0,0,0-.91-1c-.14,0-.32,0-.4-.06-.37-.35-.82-.25-1.25-.25a1.26,1.26,0,0,0-.77.16,2.39,2.39,0,0,0-.48.89c-.09.26-.15.53-.26.79a6.43,6.43,0,0,1-.47,1.21,1.46,1.46,0,0,0-.19.42,1.12,1.12,0,0,0-.06.54c0,.08.23.16.37.17C67.48,71.33,67.8,71.31,68.22,71.31Zm1.7-4.77v0a6.35,6.35,0,0,0,1.17-.14,2.79,2.79,0,0,0,1.06-.64c.32-.34.84-.58.84-1.17a.42.42,0,0,1,.13-.23c.34-.38.13-1.28-.37-1.37a17.75,17.75,0,0,0-2.07-.27c-.57,0-.78.18-.88.73a.85.85,0,0,1-.09.22c-.08.14-.16.27-.23.42s-.07.22-.12.33l-.25.57a2.07,2.07,0,0,0-.2.46,3.53,3.53,0,0,0-.1.91c0,.06.37.11.58.14A4.64,4.64,0,0,0,69.92,66.54Z"/><path class="cls-1" d="M143.48,64.71v.88c0,.22.07.48-.24.59,0,0-.07.11-.07.18a5.43,5.43,0,0,1-.77,2,5.55,5.55,0,0,1-.88,1.19,15.15,15.15,0,0,1-1.17,1.23,5.3,5.3,0,0,1-.76.46c-.32.2-.63.42-1,.6a1.18,1.18,0,0,1-.43.1c-.33,0-.69-.08-1,.27-.14.18-1.12,0-1.31-.11a.79.79,0,0,0-.37-.14,2,2,0,0,1-.7-.25,1.74,1.74,0,0,1-1-1.54c0-.26-.27-.56-.2-.75.27-.66.1-1.42.53-2,.06-.09,0-.24.1-.35s.17-.37.25-.55.07-.07.06-.1c-.05-.34.2-.52.36-.76a12.78,12.78,0,0,1,1.62-1.92,11,11,0,0,1,1.19-.87,4.43,4.43,0,0,1,1.12-.44c.18-.07.34-.18.51-.26a1.14,1.14,0,0,1,.3-.09H141a3,3,0,0,1,2.17,1.23C143.67,63.77,143.36,64.31,143.48,64.71Zm-6.58,6.61a3.33,3.33,0,0,0,2.19-.57c.2-.15.39-.33.59-.48a6,6,0,0,0,.76-.52c.2-.21.29-.52.48-.75s.58-.52.58-1c0-.05.09-.1.13-.15a3.78,3.78,0,0,0,.22-.33,2.37,2.37,0,0,0,.13-.34,10.05,10.05,0,0,0,.53-1.48,9.86,9.86,0,0,0,0-1.44c0-.63-.47-1-.86-1.25a2.29,2.29,0,0,0-1.3-.32,8.53,8.53,0,0,0-1.57.3.18.18,0,0,0-.07,0l-1,.63q-.21.15-.42.33a3.92,3.92,0,0,0-1.22,1.34,10.85,10.85,0,0,0-.84,1.28,6.36,6.36,0,0,1-.33,1,3.54,3.54,0,0,0-.36,1.47,2.16,2.16,0,0,0,.58,1.65,1.37,1.37,0,0,0,1.29.59Z"/><path class="cls-1" d="M84.86,64.79a5.65,5.65,0,0,1,0,.84,2.14,2.14,0,0,1-.22.52s-.06.07,0,.1c.09.51-.26.9-.4,1.35a4.1,4.1,0,0,1-.54.92,4.51,4.51,0,0,1-.46.73,15.83,15.83,0,0,1-1.28,1.31,4.46,4.46,0,0,1-1.23.91c-.43.17-.78.62-1.34.48a.65.65,0,0,0-.7.24c-.13.18-1.08.07-1.26-.09s-.14-.13-.2-.12c-.52.11-.86-.31-1.29-.44a.33.33,0,0,1-.16-.12,3.72,3.72,0,0,0-.42-1,1.4,1.4,0,0,1-.25-1.1,3.25,3.25,0,0,1,.17-.46c.06-.28.08-.56.14-.83s.14-.35.21-.53.07-.07.07-.1c-.06-.48.25-.84.43-1.24a2.52,2.52,0,0,1,.31-.44c.35-.51.68-1,1.08-1.52a6.12,6.12,0,0,1,1.1-1,4.83,4.83,0,0,1,1-.43l1.32-.63a1,1,0,0,1,.31-.07c.41,0,.82,0,1.23,0a2.42,2.42,0,0,1,2.09,1.13A1.82,1.82,0,0,1,84.86,64.79Zm-6.54,6.52h.62a2.38,2.38,0,0,0,1.58-.62c.18-.14.35-.36.56-.4a1.45,1.45,0,0,0,.76-.59,6.84,6.84,0,0,0,.62-.8,4.62,4.62,0,0,0,.75-1.2c.12-.44.54-.81.39-1.34a.2.2,0,0,1,.05-.15c.35-.16.26-.47.26-.74s0-.75,0-1.11a1.47,1.47,0,0,0-.82-1.3,2.65,2.65,0,0,0-1.43-.33,6.72,6.72,0,0,0-1.44.3s-.07,0-.1.07a5.72,5.72,0,0,1-.92.59,2.49,2.49,0,0,0-1.16,1,5.08,5.08,0,0,1-.48.7,7.09,7.09,0,0,0-.95,1.55,2.89,2.89,0,0,0-.34,1.45c0,.05-.07.09-.09.14A1.66,1.66,0,0,0,76,69a2.34,2.34,0,0,0,.26,1.25,1.78,1.78,0,0,0,1.36,1.11Z"/><path class="cls-1" d="M119.75,62.45l-.39.88c-.29-.45-.75-.32-1.16-.36-.09,0-.2,0-.24,0a1.12,1.12,0,0,0-1.26-.2,12.87,12.87,0,0,1-1.44.32,4.26,4.26,0,0,0-.93.59,6.79,6.79,0,0,0-.74.43,6.32,6.32,0,0,0-.92.87,8.25,8.25,0,0,0-.9,1.23,10.75,10.75,0,0,0-.52,1.26c-.06.15-.15.29-.21.44a1.13,1.13,0,0,0-.1.38c0,.48,0,1,0,1.44a1.23,1.23,0,0,0,.5.94,2.43,2.43,0,0,0,2,.7c.43,0,.87,0,1.31,0a1.16,1.16,0,0,0,1.1-.62,5.24,5.24,0,0,0,.64-1.55,6.37,6.37,0,0,1,.53-1,1.9,1.9,0,0,0,.15-.46c.09-.59.27-.76.87-.76.38,0,.77,0,1.15,0,.1,0,.28.17.26.23a.55.55,0,0,1-.24.37c-.1.07-.27,0-.4,0a1.22,1.22,0,0,0-.71.21c-.24.18-.25.45-.38.57-.44.36-.19.93-.56,1.33s-.26.86-.43,1.27a3.89,3.89,0,0,1-.48.69c-.26.41-.67.3-1.05.34a2.6,2.6,0,0,0-1.29.24,1.17,1.17,0,0,1-1.3-.11c-.16-.14-.47-.1-.71-.13s-.5,0-.7-.26-.55-.1-.66-.46a1.42,1.42,0,0,0-.26-.44c-.59-.75-.22-1.61-.29-2.42,0-.16.13-.35.21-.52s.07-.07.06-.1c-.13-.52.32-.87.41-1.34,0-.22.3-.39.45-.6.3-.41.58-.85.91-1.25a10.45,10.45,0,0,1,.83-.8c.13-.12.28-.22.41-.34a12.85,12.85,0,0,1,1.3-.72c.39-.28.85-.16,1.18-.36.87-.54,1.8-.19,2.7-.28.13,0,.27.11.41.17a2.35,2.35,0,0,0,.37.14Z"/><path class="cls-1" d="M173.25,64.71a14.61,14.61,0,0,1,0,1.48c0,.56-.16,1.12-.24,1.69a3.89,3.89,0,0,0,0,.49c0,1,0,2.11,0,3.16,0,.42-.22.41-.52.42s-.47-.07-.45-.43,0-1,0-1.48c0-.32-.12-.49-.49-.49-1.18,0-2.36,0-3.54,0-.39,0-.57.29-.84.44a2.55,2.55,0,0,0-.54.59.79.79,0,0,0-.12.15,3,3,0,0,1-.42.73c-.27.25-.52.65-1,.48l-.21-.1a1.74,1.74,0,0,1,.1-.19l.56-.8c.12-.18.2-.44.37-.53.51-.26.6-.83,1-1.2a4.24,4.24,0,0,0,.76-.93c.37-.7,1.09-1.15,1.39-1.92.12-.32.49-.54.75-.81a1.2,1.2,0,0,0,.17-.21c.15-.25.29-.51.46-.75.31-.43.64-.85,1-1.26a8.08,8.08,0,0,1,1-1.13c.16-.13.51-.06.75,0,.07,0,.11.28.12.43,0,.73,0,1.45,0,2.18Zm-.95,1.47h0v-.86c0-.55,0-1.09,0-1.64,0-.09-.09-.18-.13-.27a1.06,1.06,0,0,0-.23.17c-.26.35-.5.7-.75,1s-.4.56-.62.83-.46.52-.68.79c-.35.44-.7.87-1,1.32a6.72,6.72,0,0,0-.4.75c0,.05-.09.09-.13.15l-.17.31c.1,0,.2.14.3.14h3.4c.3,0,.44-.12.43-.45C172.29,67.71,172.3,67,172.3,66.18Z"/><path class="cls-1" d="M59.19,64.33c0,.44,0,.87,0,1.31s.09.78-.23,1.12c-.12.13-.06.42-.06.64,0,1.36,0,2.71-.08,4.07,0,.15,0,.41-.12.43a2,2,0,0,1-.69,0s-.09-.21-.1-.33c0-.46,0-.93,0-1.39s-.1-.62-.63-.62c-1.13,0-2.27,0-3.41,0a1.11,1.11,0,0,0-.82.41,7,7,0,0,0-.9,1.05q-.27.33-.51.69a.85.85,0,0,1-.87.21.23.23,0,0,1,0-.21c.51-.62,1-1.22,1.55-1.84.18-.22.28-.52.46-.75.52-.66,1.08-1.3,1.61-2,.18-.23.29-.52.46-.77a4.74,4.74,0,0,1,.37-.51l1-1.22.51-.58c.06-.07.09-.16.14-.23.19-.25.36-.51.56-.75a5.41,5.41,0,0,1,.84-.88,1.4,1.4,0,0,1,.8-.12c.06,0,.14.31.15.48,0,.59,0,1.18,0,1.77Zm-1,1.75h0V64.6a8.11,8.11,0,0,0,0-1c0-.07-.28-.19-.29-.18-.16.2-.3.43-.44.64a3.21,3.21,0,0,1-.21.3l-.45.52c-.35.42-.51,1-1,1.29-.2.13-.27.46-.41.69a1.73,1.73,0,0,1-.17.21c-.18.2-.37.39-.53.6s-.3.5-.45.75l-.21.34a1.38,1.38,0,0,0,.43.15h3c.55,0,.68-.12.7-.68C58.23,67.54,58.22,66.81,58.22,66.08Z"/><path class="cls-1" d="M162,68.18c-.5,0-.91,0-1.32,0a.62.62,0,0,0-.35.29,3.19,3.19,0,0,0-.42,1.25c0,.31-.34.59-.51.89a.61.61,0,0,0-.1.34c0,.39-.23.63-.42.89-.07.09-.3.08-.45.07s-.14-.21-.12-.28c.17-.5.36-1,.55-1.48a.43.43,0,0,0,0-.07c.16-.51.31-1,.47-1.53a1.9,1.9,0,0,1,.2-.37s.09-.08.09-.12c0-.27.29-.55.28-.68a2.34,2.34,0,0,1,.51-1.35c.26-.43.17-.94.54-1.35s.29-.84.43-1.27a3.54,3.54,0,0,1,.16-.34,1.54,1.54,0,0,0,.15-.32.75.75,0,0,1,.82-.72,12.14,12.14,0,0,0,1.35,0,3.86,3.86,0,0,1,2.07.59.76.76,0,0,1,.54.82.43.43,0,0,0,.13.28.43.43,0,0,1,0,.69c-.05,0-.11.12-.1.17.09.52-.26.9-.4,1.35a1.06,1.06,0,0,1-.36.43,11.19,11.19,0,0,0-1.17,1.11c-.27.34-.7.23-.93.41C163.06,68.34,162.44,68.05,162,68.18Zm-1.19-.75a1.58,1.58,0,0,0,.48.1c.67-.08,1.35.18,2-.27a10.05,10.05,0,0,0,1.37-.81,1.45,1.45,0,0,0,.45-.57c.11-.37.32-.7.46-1s.32-.77,0-1.22-.52-.66-1-.64-1.15,0-1.73,0c-.29,0-.47.07-.45.41a.78.78,0,0,1-.12.32c-.06.12-.14.23-.2.36s-.05.2-.09.3-.2.45-.29.67-.07.26-.12.38c-.18.42-.38.84-.55,1.27A5.54,5.54,0,0,0,160.77,67.43Z"/><path class="cls-1" d="M94.1,62.1a3,3,0,0,1-.33.61.57.57,0,0,1-.39.24c-1,0-2,0-3,0-.6,0-.59.05-.74.62a7.07,7.07,0,0,1-.53,1.2A1.36,1.36,0,0,0,89,65c-.06.29,0,.58-.3.84s0,.65.35.65h2.63c.17,0,.4-.07.41.25s-.21.32-.42.32H89c-.64,0-.87.2-1,.83,0,.09-.12.16-.18.23a1.13,1.13,0,0,0-.13.2c-.14.44-.24.89-.41,1.32s-.38.85-.56,1.28a.25.25,0,0,0,.1.24,1.77,1.77,0,0,0,.56.09H90c.19,0,.39,0,.39.27s-.14.35-.38.35c-1.34,0-2.68,0-4,0-.1,0-.29-.07-.3-.13a1.64,1.64,0,0,1,.07-.54c0-.1.17-.16.19-.25a2.31,2.31,0,0,1,.34-1c.26-.35.19-1,.46-1.28s.15-1,.57-1.32a1.3,1.3,0,0,0,.31-.75c0-.51.4-.86.44-1.33,0-.09.1-.17.15-.26s.14-.14.15-.22A4,4,0,0,1,89,63.25a1.06,1.06,0,0,0,.09-.36.83.83,0,0,1,1-.84h3.62A3.12,3.12,0,0,1,94.1,62.1Z"/><path class="cls-1" d="M133.93,62.51c-.34.21-.46.6-.89.48a6.52,6.52,0,0,0-1-.19,3.57,3.57,0,0,0-.8,0,5.19,5.19,0,0,1-.65.17,2.29,2.29,0,0,0-1.56.67c-.2.19-.52.25-.73.43a10.32,10.32,0,0,0-.92,1c-.21.24-.39.52-.58.78l-.11.16c-.22.41-.44.82-.65,1.24a.6.6,0,0,0-.06.19c0,.31,0,.66-.3.88-.06,0,0,.18,0,.27,0,.25,0,.49,0,.74s0,.71.11.91c.48.6,1,1.22,1.92,1.13.47,0,1,0,1.44,0a5.89,5.89,0,0,0,.68-.21,1.45,1.45,0,0,1,.55,0s.12.22.09.27a2.66,2.66,0,0,1-.35.32c-.47.43-1.06.27-1.6.35-.32,0-.62.22-.94.27-.16,0-.33-.12-.5-.17a1.37,1.37,0,0,0-.58-.12c-.51.09-.78-.25-1.08-.54a2.25,2.25,0,0,1-.69-2c0-.28,0-.58,0-.86a1.1,1.1,0,0,1,.18-.4s.09-.09.09-.13c-.09-.52.25-.9.43-1.33a8.78,8.78,0,0,1,.54-.94s.08-.09.08-.13c0-.57.57-.79.84-1.2a3.62,3.62,0,0,1,.89-.9,9.1,9.1,0,0,1,1.26-.78c.4-.22.9-.26,1.27-.45,1-.55,2-.15,3-.24C133.46,62.05,133.67,62.33,133.93,62.51Z"/><path class="cls-1" d="M196.2,62.17c-.35.49-.66,1-1,1.43s-.74.73-1.11,1.1-.57.53-.83.81-.55.63-.81.95-.67.87-1,1.28-.52.51-.77.77a.88.88,0,0,0-.18.29c-.14.43-.24.88-.41,1.29s-.41.84-.62,1.25c0,0,0,.08,0,.12-.09.45-.33.59-.77.47-.07,0-.17-.09-.17-.13a1.66,1.66,0,0,1,.12-.45,3.75,3.75,0,0,1,.19-.41c.07-.13.15-.26.21-.39s.11-.27.16-.41a3.3,3.3,0,0,1,.41-1.13.92.92,0,0,0,.22-1c-.47-1.07-.1-2.23-.39-3.29a10.35,10.35,0,0,1-.23-2.2c0-.31.06-.48.43-.48s.49.1.49.47c0,.71,0,1.42.06,2.13.07.86.2,1.71.31,2.56a1,1,0,0,0,.17.3l.22-.2A6.55,6.55,0,0,0,192,65.91c.29-.45.87-.72,1.18-1.16.46-.64,1.1-1.11,1.52-1.8.25-.43.6-1,1.33-.9l.16,0S196.17,62.13,196.2,62.17Z"/><path class="cls-1" d="M94,71.94a2.4,2.4,0,0,1-.27,0c-.08,0-.17,0-.2-.11s0-.13.09-.19.13-.11.15-.17c.14-.45.25-.9.4-1.34.06-.16.23-.28.29-.44a4.87,4.87,0,0,1,.43-1.27c.3-.41.19-1,.58-1.33.17-.16.18-.48.27-.73.16-.49.31-1,.48-1.48a3,3,0,0,1,.2-.4s.1-.07.11-.11c.13-.36.26-.72.38-1.08a6.13,6.13,0,0,1,.43-1.13c.07-.12.41-.1.64-.1.07,0,.22.12.21.17a1.82,1.82,0,0,1-.17.44s-.1.07-.11.11c-.14.42-.27.84-.41,1.25a1.82,1.82,0,0,1-.2.36l-.12.25c-.09.18-.17.37-.26.55a.54.54,0,0,0,0,.11,3.6,3.6,0,0,1-.41,1.31c-.35.41-.11,1-.58,1.34-.2.14-.24.49-.34.75a4.86,4.86,0,0,1-.47,1.36c-.31.4-.12,1-.58,1.29,0,0,0,.13,0,.19C94.53,71.92,94.32,72,94,71.94Z"/></svg>