<svg id="Layer_1" data-name="Layer 1" xmlns="http://www.w3.org/2000/svg" viewBox="0 0 200.01 205.29"><defs><style>.cls-1{fill:#fff;}</style></defs><title>graphics</title><path class="cls-1" d="M100.3,11.91c.4,0,.8.19,1.2.19l1.2,0c.4,0,.8-.22,1.21-.21s.79.22,1.19.24.81-.17,1.21-.14.81-.17,1.21-.14.77.41,1.17.45.8.06,1.2.11.78.16,1.18.21.8.07,1.19.12.84-.17,1.23-.12.79.18,1.18.25l1.19.2c.39.07.81,0,1.2.12s.71.53,1.1.61.89-.32,1.28-.23.81.07,1.2.16.75.33,1.13.43.73.41,1.12.51.78.17,1.17.28.84,0,1.22.08.67.57,1,.69.76.26,1.14.38.88-.11,1.26,0,.78.18,1.16.32.62.66,1,.8.72.37,1.09.51.73.32,1.11.47.76.23,1.13.38.92-.11,1.29.05l1.1.48c.37.16.77.24,1.13.41s.58.68.94.85.8.18,1.15.36.75.3,1.11.48.54.7.89.88.89,0,1.24.23.67.45,1,.65.72.35,1.06.55.52.7.87.9.91,0,1.26.23.37.92.71,1.13.89.09,1.22.31.73.35,1.06.57.76.32,1.09.55.38.85.71,1.08.85.17,1.18.41.45.73.77,1,.62.51.93.75.71.39,1,.64.86.22,1.17.47.33.85.64,1.11.93.13,1.24.39.33.84.63,1.1.75.37,1.05.63.45.69.75,1,.73.38,1,.66.44.69.73,1,.46.67.74,1,.49.64.77.92.57.56.84.85l.83.87c.27.29.78.37,1,.67s.3.8.57,1.1.72.43,1,.74.74.42,1,.73.42.69.68,1,.45.67.69,1,.28.8.53,1.12.38.71.62,1,.81.39,1,.72.19.85.42,1.17.58.57.81.9.58.57.8.9.09.9.31,1.24,1,.33,1.18.67.27.77.48,1.11,0,.93.2,1.28.68.52.88.87.52.63.71,1,.1.86.29,1.21.58.59.76.95.61.59.79.94.05.88.22,1.24.62.59.79,1-.09.92.07,1.29.7.56.86.93-.06.89.1,1.26.46.68.61,1,.43.69.58,1.06,0,.86.14,1.24.37.71.51,1.08.16.8.29,1.18.21.76.34,1.14.68.62.81,1-.2.89-.09,1.28.72.62.83,1-.18.88-.07,1.26.52.69.62,1.08.39.73.49,1.12-.35.91-.27,1.3.21.77.29,1.16.37.74.45,1.14-.16.84-.09,1.23.49.73.56,1.12.06.8.12,1.2.2.78.25,1.18,0,.8.09,1.2.34.76.38,1.16-.41.85-.36,1.25.3.77.34,1.17.23.78.26,1.18.28.79.31,1.19-.21.81-.19,1.21-.07.81,0,1.21-.23.81-.22,1.21.3.79.3,1.19.39.8.39,1.2-.28.8-.29,1.2.09.81.08,1.21-.07.8-.09,1.2-.1.8-.12,1.2,0,.81,0,1.2-.45.78-.48,1.17.27.83.23,1.23-.11.79-.15,1.19.11.82.07,1.22-.13.79-.18,1.19,0,.81-.06,1.21-.08.8-.14,1.2-.65.7-.72,1.1.31.87.24,1.26-.58.7-.66,1.1.06.83,0,1.22-.38.73-.47,1.12-.14.79-.23,1.18-.4.73-.5,1.11.24.89.13,1.28,0,.83-.13,1.21-.49.7-.6,1.08-.15.8-.27,1.18-.11.81-.23,1.19-.59.64-.72,1-.26.76-.4,1.14-.17.79-.31,1.16-.1.82-.25,1.2-.4.7-.55,1.07-.47.67-.63,1-.39.7-.55,1.07-.13.82-.3,1.18-.58.61-.75,1-.16.8-.34,1.16-.48.65-.66,1-.48.65-.67,1,0,.92-.14,1.27-.27.78-.46,1.13-.81.46-1,.8-.1.87-.3,1.22-.74.49-.95.83,0,1-.2,1.29-.61.56-.82.9l-.66,1c-.22.33-.57.58-.8.91s-.47.65-.7,1-.14.88-.38,1.21-.85.37-1.09.69-.63.52-.87.84-.28.79-.53,1.1-.26.82-.51,1.13-.57.57-.82.88-.56.58-.82.88-.79.37-1.05.68-.18.9-.45,1.2-.56.58-.83.87-.67.47-.95.76-.64.49-.92.77-.45.68-.73,1-.37.77-.65,1.05-.74.39-1,.67-.72.4-1,.67-.37.79-.67,1.06-.74.37-1,.63-.5.65-.8.91-.59.55-.9.81-.78.3-1.09.55-.75.35-1.06.59-.65.47-1,.71-.31.92-.63,1.15-.64.5-1,.73-.69.41-1,.64-.82.22-1.15.45-.71.37-1.05.59-.4.85-.73,1.06-.75.33-1.09.54-.65.47-1,.68-.67.45-1,.65-.85.13-1.2.33-.83.14-1.18.34-.47.8-.83,1-.82.16-1.17.34-.82.16-1.17.34-.44.91-.8,1.09-.92-.06-1.28.11-.77.22-1.14.39-.49.86-.85,1-.93-.13-1.3,0-.68.45-1,.6-.79.18-1.16.32-.73.36-1.1.5l-1.12.42c-.38.14-.75.3-1.13.43s-.68.47-1.06.59-.73.36-1.11.49-.84,0-1.22.13-.68.53-1.07.64-.85-.06-1.23,0-.85-.07-1.24,0-.71.43-1.1.53l-1.18.25c-.39.09-.72.44-1.11.53s-.83,0-1.22.05-.74.39-1.14.47-.85-.19-1.24-.12-.74.45-1.14.51-.8.08-1.19.14-.81,0-1.21.09-.83-.22-1.23-.17-.75.5-1.15.54-.83-.23-1.23-.2-.77.42-1.16.45-.84-.46-1.24-.44-.8,0-1.2,0-.78.57-1.18.59-.8-.13-1.2-.12-.8.24-1.2.24-.81-.16-1.21-.16-.8-.05-1.2-.06-.8-.12-1.2-.13-.82.28-1.22.26l-1.2-.06c-.4,0-.79-.23-1.19-.25s-.8-.12-1.2-.15l-1.2-.09c-.4,0-.81,0-1.21,0s-.74-.54-1.14-.59-.8,0-1.2-.09-.85.32-1.25.27-.78-.21-1.17-.27-.82,0-1.22,0-.69-.66-1.09-.73-.8-.06-1.19-.14-.81-.06-1.2-.14-.76-.26-1.15-.35-.76-.27-1.15-.36-.85.12-1.24,0-.68-.57-1.06-.67-.88.16-1.26.05-.68-.53-1.07-.64-.74-.31-1.12-.43-.79-.15-1.17-.28-.78-.18-1.16-.31-.83,0-1.21-.17-.62-.64-1-.78-.79-.16-1.16-.31-.86,0-1.23-.16-.63-.57-1-.73-.7-.39-1.07-.55-.82-.11-1.19-.28-.6-.59-1-.76-.76-.28-1.12-.45-.79-.19-1.15-.37-.8-.19-1.16-.37-.53-.71-.88-.9-.66-.47-1-.66l-1.05-.57c-.35-.2-1,.08-1.32-.12s-.6-.56-.94-.77-.55-.62-.89-.83-.86-.15-1.2-.36-.58-.58-.91-.8-.47-.73-.8-1-.62-.5-.94-.73-.74-.34-1.07-.57-.65-.45-1-.69-.77-.32-1.09-.56-.82-.25-1.13-.49l-1-.75c-.31-.25-.5-.66-.8-.92s-.64-.49-.94-.75-.59-.54-.89-.81-.73-.39-1-.65-.19-1-.49-1.24-.65-.47-.94-.75-.72-.4-1-.68-.44-.69-.73-1-.64-.49-.92-.77-.47-.66-.75-.95-.64-.5-.91-.79-.3-.81-.56-1.11-.79-.37-1-.67-.44-.68-.7-1-.75-.41-1-.72l-.76-.93c-.25-.31-.19-.88-.44-1.19s-.46-.65-.7-1-.75-.43-1-.75-.42-.68-.66-1-.21-.83-.44-1.16-.75-.45-1-.78l-.65-1c-.22-.33-.53-.61-.75-1s-.44-.67-.65-1-.21-.81-.41-1.15-.2-.81-.4-1.16-.65-.55-.85-.89-.32-.74-.51-1.09-.53-.62-.72-1-.28-.76-.47-1.11-.42-.68-.6-1-.31-.74-.49-1.1-.55-.62-.72-1-.43-.69-.59-1,.19-1,0-1.33-.3-.74-.46-1.1l-.45-1.12c-.15-.37-.53-.64-.67-1s-.24-.76-.38-1.14-.66-.61-.8-1,.14-.9,0-1.27-.49-.68-.61-1.06-.33-.74-.46-1.12-.21-.78-.33-1.16-.29-.75-.4-1.14-.29-.75-.39-1.14.28-.9.18-1.29-.26-.76-.36-1.15-.39-.72-.48-1.11-.33-.75-.42-1.15,0-.81-.12-1.2,0-.82,0-1.22-.22-.77-.29-1.16-.49-.74-.55-1.13.49-.89.43-1.28-.27-.77-.33-1.17-.32-.76-.37-1.16.16-.82.12-1.22-.23-.78-.26-1.18-.37-.78-.41-1.17.48-.84.45-1.24-.61-.77-.63-1.17-.08-.8-.1-1.2.19-.81.18-1.21.26-.81.25-1.21,0-.8,0-1.2-.35-.8-.34-1.2.17-.81.18-1.21-.19-.81-.17-1.21.42-.78.44-1.18-.06-.81,0-1.21.07-.79.1-1.19.09-.8.13-1.2.28-.77.32-1.17.18-.78.23-1.18-.23-.84-.18-1.23,0-.81.09-1.2,0-.82,0-1.22.05-.8.12-1.2.28-.77.35-1.16.18-.78.26-1.17.52-.71.61-1.1-.08-.84,0-1.23-.09-.85,0-1.24.59-.68.69-1.06-.2-.89-.1-1.27.73-.63.84-1,.28-.75.4-1.13-.18-.89-.06-1.27.25-.77.38-1.15.56-.65.69-1,.08-.82.22-1.19.08-.83.22-1.21.39-.71.54-1.08.54-.64.69-1,0-.86.18-1.23.58-.62.74-1,0-.86.2-1.22.66-.58.83-.94,0-.91.13-1.27.25-.77.43-1.13.77-.51,1-.86.39-.7.58-1,.51-.63.7-1-.1-1,.1-1.32.53-.62.73-1,.79-.46,1-.8.11-.87.32-1.21.4-.7.61-1,.57-.59.79-.92.5-.62.72-.95.49-.64.72-1,0-.95.28-1.27.78-.42,1-.74.23-.83.47-1.15.69-.48.93-.8.68-.48.93-.79.25-.83.5-1.14.65-.5.91-.8.3-.81.56-1.11.58-.56.85-.85.71-.43,1-.72.7-.44,1-.73.11-1,.39-1.29.68-.46,1-.74.86-.27,1.15-.55.16-1,.45-1.25.81-.32,1.1-.59.49-.66.78-.92.59-.56.89-.82.71-.4,1-.66.85-.23,1.16-.48.17-1,.49-1.3.75-.34,1.06-.59.92-.12,1.24-.36.51-.65.83-.89.42-.77.75-1,.66-.46,1-.69.82-.22,1.15-.44.46-.76.79-1,.88-.12,1.22-.34.79-.24,1.13-.45.52-.67.86-.88.76-.29,1.1-.49.75-.31,1.09-.51.6-.56,1-.75.57-.63.92-.82.93.05,1.29-.13.54-.69.9-.87.65-.49,1-.67.94.12,1.3-.05l1.09-.5,1.08-.5c.37-.17.62-.6,1-.76s.65-.51,1-.66.85-.06,1.22-.2.67-.5,1-.64.8-.16,1.18-.29.71-.4,1.09-.53.72-.38,1.1-.51.78-.19,1.17-.32.9.21,1.28.09.7-.44,1.09-.55.75-.3,1.13-.41.85.07,1.24,0,.76-.24,1.15-.34.7-.53,1.09-.62.83,0,1.22-.07.77-.21,1.17-.29.84.17,1.24.1.8-.06,1.19-.13.7-.68,1.09-.75.88.44,1.28.38.72-.56,1.12-.61.81,0,1.21,0,.76-.44,1.16-.48.81,0,1.21,0,.8,0,1.2-.05.81,0,1.21,0,.79-.14,1.19-.16.81,0,1.21,0,.8.12,1.21.11.8.13,1.2.13.8.15,1.2.15m0-6.53c-.41,0-.82-.18-1.22-.17l-1.23,0c-.4,0-.81.27-1.21.29s-.82-.15-1.23-.13-.8.25-1.21.28-.8.28-1.2.31-.84-.29-1.25-.25-.81.08-1.21.13-.82,0-1.23,0-.81.12-1.21.17-.77.39-1.17.44-.82.06-1.22.12L84.5,7c-.4.07-.78.23-1.18.3s-.87-.24-1.27-.16-.71.64-1.11.72-.77.26-1.17.35-.82,0-1.22.12-.84,0-1.24.06-.78.23-1.17.33-.72.45-1.11.56-.89-.14-1.28,0-.79.19-1.18.31-.67.6-1.06.72-.75.31-1.13.44-.91-.15-1.29,0-.81.17-1.19.31-.78.24-1.17.38-.74.34-1.12.49-.59.71-1,.86l-1.13.46c-.37.15-.71.39-1.08.55s-.9,0-1.27.15-.67.49-1,.66-.71.4-1.08.57-.9,0-1.26.19-.56.7-.92.88-.76.3-1.12.49-.7.41-1.06.6-.88.09-1.24.29-.49.79-.84,1-1-.1-1.35.11-.49.76-.84,1-.64.5-1,.72-.6.56-.94.78-.95,0-1.29.26-.48.75-.81,1-.86.19-1.19.43-.69.44-1,.67-.59.58-.92.82-.43.77-.76,1-.92.13-1.24.38-.34.89-.66,1.14-.89.19-1.2.44-.49.69-.8,1-.76.37-1.06.63-.48.7-.78,1-.74.39-1,.66-.71.44-1,.71-.67.48-1,.76-.58.58-.87.86l-.86.87c-.29.29-.35.81-.63,1.1s-.79.37-1.07.66-.37.77-.65,1.07-.34.79-.61,1.09-.63.53-.9.83-.58.57-.85.88-.73.44-1,.75-.62.55-.88.86-.18.9-.44,1.22-.78.42-1,.74-.38.74-.62,1.07-.36.74-.6,1.07-.82.41-1.06.74,0,1-.18,1.37-.61.56-.84.9-.85.41-1.08.75-.18.85-.4,1.19-.31.76-.53,1.11-.71.52-.92.87-.22.81-.43,1.16-.17.84-.37,1.19-.71.54-.91.89-.12.86-.32,1.22-.8.49-1,.85,0,.91-.2,1.27-.73.54-.91.91-.21.8-.39,1.17-.22.79-.39,1.16-.62.61-.79,1-.23.79-.39,1.17-.43.7-.58,1.08-.36.73-.51,1.11.13.92,0,1.3-.71.6-.86,1,.2.94.07,1.32-.66.63-.8,1S9,71.64,8.88,72s-.06.83-.18,1.22-.77.61-.89,1-.21.79-.32,1.18,0,.84-.13,1.24-.52.7-.62,1.1.14.87,0,1.27-.26.77-.35,1.16-.11.81-.2,1.21-.25.78-.33,1.18.07.84,0,1.24-.64.71-.71,1.11.08.84,0,1.24,0,.83,0,1.23.1.83,0,1.24-.36.77-.41,1.17-.21.8-.25,1.2-.35.78-.39,1.19.2.84.17,1.24.31.84.28,1.25-.34.79-.37,1.19.06.82,0,1.23-.1.8-.11,1.21-.09.81-.1,1.22,0,.81,0,1.22-.4.81-.4,1.22.34.81.34,1.22,0,.82,0,1.22.23.81.24,1.21,0,.82,0,1.22.16.81.19,1.21.09.81.12,1.22-.47.85-.43,1.25.53.77.57,1.18-.35.85-.3,1.26.32.78.37,1.18-.11.84,0,1.24.16.8.22,1.21-.08.84,0,1.24.59.73.66,1.13.34.76.42,1.16-.12.85,0,1.25.26.77.35,1.17.31.76.4,1.16-.15.87-.06,1.26.21.79.31,1.19.31.76.41,1.15.41.73.53,1.12.11.81.23,1.2.06.83.18,1.22.17.8.29,1.19.46.71.59,1.09,0,.86.15,1.24.46.7.6,1.08.15.82.29,1.2.17.81.32,1.18.74.58.9,1,.44.69.6,1.07-.12.94,0,1.31.65.6.82,1,0,.91.17,1.27.81.51,1,.88.17.82.35,1.18l.56,1.09c.19.36.25.79.44,1.15s.37.72.57,1.07.74.52.94.87,0,.94.21,1.29.25.8.46,1.15.65.56.87.9.68.53.9.87.38.73.6,1.07.41.7.64,1,.16.87.39,1.21.85.39,1.09.72.45.68.69,1,.35.76.59,1.09.39.72.64,1,.63.55.88.87.73.44,1,.76.34.77.6,1.08.37.75.64,1.06.78.4,1.05.71.37.75.64,1.05.67.49.95.79.58.57.86.86.37.77.66,1.06.43.72.71,1,.56.6.85.88,1,.18,1.25.46l.9.82c.3.28.55.6.85.87s.41.77.72,1,.55.6.86.87.93.15,1.24.41.54.62.86.88.66.47,1,.72.66.47,1,.72.45.75.78,1,.48.72.81,1,.93.1,1.26.33.53.67.86.91.54.66.87.89,1-.07,1.36.16.44.82.78,1,.62.55,1,.76,1-.07,1.35.14.45.84.8,1,.78.28,1.13.49.64.51,1,.71.74.34,1.1.53l1.08.57c.36.18.74.34,1.1.53s.83.17,1.19.35.78.25,1.15.42.63.56,1,.73.87.05,1.24.21.63.59,1,.75.64.58,1,.74.85.09,1.22.24l1.13.47c.38.14.86,0,1.24.17s.69.46,1.08.6.84,0,1.22.18.66.58,1.05.7.87-.05,1.26.07.76.28,1.15.4.75.3,1.15.41.69.53,1.08.64.89-.19,1.29-.08.71.5,1.1.6.87-.15,1.27-.06.67.7,1.07.79.79.21,1.19.29.9-.36,1.3-.29.77.3,1.17.38.83-.08,1.24,0,.77.3,1.17.36.8.17,1.2.22.79.21,1.19.27.84-.2,1.25-.15l1.21.13c.4,0,.79.26,1.19.3s.81.13,1.21.16l1.22.07c.41,0,.82-.07,1.22-.05s.8.49,1.21.51.81,0,1.22,0,.82-.42,1.23-.41.81.09,1.22.09.81-.17,1.22-.18.82.51,1.23.5.81-.11,1.21-.12.82-.14,1.22-.16.82,0,1.23,0,.82,0,1.22,0,.79-.38,1.2-.42.84.3,1.25.26.77-.47,1.17-.51.85.21,1.25.16.82,0,1.23-.08.79-.22,1.19-.28.8-.19,1.2-.26.76-.38,1.16-.45.87.23,1.27.16.78-.28,1.18-.36.73-.47,1.13-.56.86.11,1.25,0,.82-.11,1.21-.2.74-.43,1.13-.53.86.07,1.25,0,.77-.29,1.16-.4.73-.4,1.12-.52.72-.42,1.11-.54.89.11,1.28,0,.81-.17,1.19-.3.77-.29,1.15-.43.57-.79,1-.93.82-.13,1.2-.27.84-.07,1.22-.22.63-.62,1-.78.81-.16,1.19-.32.89,0,1.26-.17.77-.27,1.14-.44.67-.49,1-.66.73-.38,1.09-.55.64-.55,1-.74.58-.64.94-.83l1.07-.57c.36-.2.81-.22,1.16-.42s.7-.42,1.05-.62.72-.38,1.07-.59.6-.57.94-.79,1,.08,1.35-.14.64-.52,1-.74.57-.61.91-.83.77-.31,1.11-.54.61-.55.94-.78.74-.37,1.07-.61.58-.58.91-.82.85-.22,1.18-.47.44-.75.76-1,.71-.42,1-.67.44-.75.76-1l.94-.77c.31-.26.88-.22,1.19-.48s.63-.51.94-.78.39-.79.69-1.06.64-.5.94-.78.81-.32,1.11-.6.34-.82.63-1.11.59-.55.88-.84.5-.65.78-.94l.84-.89c.28-.29.74-.41,1-.71s.74-.43,1-.73.34-.8.6-1.1.6-.56.87-.87.4-.72.67-1,.6-.56.85-.88.46-.67.72-1,.54-.61.79-.93.32-.77.56-1.1.41-.71.65-1,.94-.33,1.18-.66.49-.65.72-1,.47-.66.7-1,.25-.81.47-1.15.5-.65.72-1,.09-.9.31-1.24.79-.47,1-.81.21-.82.42-1.17.33-.75.54-1.1.42-.69.62-1.05.33-.74.52-1.1.32-.75.51-1.11.83-.48,1-.85.31-.76.49-1.12.16-.82.34-1.19.2-.8.37-1.17.45-.69.61-1.06.52-.66.68-1,.25-.78.4-1.15,0-.89.13-1.26.88-.53,1-.91.14-.82.28-1.2.07-.84.21-1.23.5-.68.64-1.07.12-.81.25-1.2,0-.86.08-1.25.75-.62.87-1-.3-.94-.19-1.33.17-.79.28-1.18.42-.73.52-1.12.47-.72.57-1.12.16-.8.25-1.19-.17-.87-.08-1.27.33-.76.41-1.16-.05-.84,0-1.24.53-.72.6-1.12,0-.82.1-1.22.15-.8.21-1.21.15-.8.2-1.2.32-.78.37-1.18.19-.8.24-1.21-.24-.84-.2-1.25,0-.81,0-1.22-.09-.82-.06-1.23,0-.81,0-1.21.18-.81.2-1.21.07-.81.09-1.22.39-.8.4-1.21-.23-.82-.22-1.23-.28-.81-.28-1.22.41-.81.4-1.22-.43-.81-.44-1.21.51-.83.49-1.24,0-.82,0-1.22-.47-.79-.5-1.2-.05-.81-.08-1.22.26-.84.23-1.24-.27-.8-.31-1.2-.29-.79-.34-1.19,0-.82,0-1.23.16-.84.1-1.24-.42-.76-.48-1.16.17-.86.1-1.26S195,85.41,195,85s.21-.86.13-1.26-.58-.72-.66-1.12-.28-.77-.37-1.16.28-.9.18-1.29-.16-.8-.26-1.2-.05-.83-.15-1.22-.75-.64-.86-1-.07-.82-.18-1.21.2-.91.08-1.3-.58-.67-.7-1.06-.29-.76-.41-1.15-.12-.82-.25-1.2-.2-.8-.34-1.18-.24-.78-.38-1.16-.77-.58-.91-1,.06-.89-.09-1.27-.59-.64-.75-1-.08-.85-.24-1.22-.12-.84-.29-1.21-.63-.61-.8-1-.19-.81-.36-1.17-.62-.61-.8-1-.3-.76-.49-1.12-.15-.84-.34-1.2-.19-.82-.38-1.18-.93-.41-1.13-.77-.25-.79-.45-1.14,0-.92-.25-1.27-.92-.39-1.13-.74-.15-.86-.37-1.21-.56-.6-.78-.94-.46-.67-.68-1-.31-.77-.54-1.11-.15-.88-.38-1.22-1-.26-1.27-.59-.31-.78-.55-1.11-.1-.94-.35-1.26-.66-.52-.91-.84-.79-.42-1-.74-.49-.64-.75-1-.29-.81-.55-1.12-.81-.38-1.07-.69-.24-.87-.51-1.17-.38-.76-.65-1.06-.76-.41-1-.71-.45-.69-.73-1-.49-.67-.77-1-.71-.45-1-.74-.78-.37-1.07-.65-.25-.92-.54-1.2-.84-.3-1.14-.57-.7-.44-1-.72-.26-.92-.57-1.19l-.92-.8c-.31-.27-.63-.52-.94-.78s-.82-.29-1.14-.55-.77-.34-1.08-.59-.48-.71-.8-1-.78-.32-1.1-.56-.57-.6-.9-.84-.73-.37-1.06-.61-.73-.36-1.07-.6-.63-.5-1-.73-.41-.84-.75-1.06-.81-.26-1.15-.48-.73-.37-1.07-.58-.54-.67-.89-.88-.72-.38-1.07-.59-.88-.11-1.23-.31-.61-.57-1-.77-.73-.35-1.09-.54-.56-.68-.92-.87-.69-.45-1.05-.64-1,.14-1.34,0-.49-.87-.85-1-.93.06-1.3-.11-.68-.46-1.06-.63-.88,0-1.25-.16-.7-.43-1.08-.58-.73-.36-1.1-.51-.74-.35-1.12-.5-.79-.2-1.17-.34-.74-.32-1.13-.46-.71-.41-1.1-.54-.72-.41-1.11-.54-.72-.4-1.11-.53-.8-.17-1.19-.29l-1.18-.31c-.39-.11-.87.09-1.26,0s-.74-.41-1.13-.51-.8-.16-1.19-.26-.83,0-1.23-.11-.72-.53-1.11-.62-.87.14-1.26.06-.73-.54-1.13-.61-.9.39-1.3.32-.74-.45-1.14-.51-.84.07-1.24,0-.82,0-1.22-.06-.79-.24-1.19-.29-.82,0-1.23,0-.81,0-1.21-.08-.8-.2-1.2-.24-.79-.35-1.19-.38-.81-.09-1.22-.11-.83.28-1.24.26-.8-.34-1.2-.36-.82.2-1.23.19-.81-.32-1.22-.33-.78.06-1.19.06C100.28,5.56,100.3,5.59,100.3,5.59Z"/><path class="cls-1" d="M89.61,137.13c-.11.42-.53.87-.65,1.26s.22,1,.11,1.35-.51.74-.62,1.14-.21.9-.33,1.3a8.32,8.32,0,0,1-1.22,0c-.36-.06-.66-.44-1-.56a10.07,10.07,0,0,1-1-.47c-.33-.16-.75-.16-1.07-.35s-.49-.59-.79-.81-.84-.14-1.12-.39-.35-.71-.61-1-.55-.49-.78-.79a10,10,0,0,1-.62-.93,8.38,8.38,0,0,1-.59-1,9.8,9.8,0,0,1-.62-1c-.13-.35.17-.83.08-1.19s-.23-.72-.32-1.08,0-.78-.08-1.15-.72-.6-.81-1-.17-.73-.25-1.1.38-.86.29-1.22l-.24-1.1c-.08-.37-.21-.73-.29-1.09s-.37-.69-.45-1.06-.35-.7-.43-1.07-.3-.7-.38-1.07,0-.77,0-1.14-.12-.75-.19-1.12-.44-.68-.52-1-.06-.76-.14-1.13,0-.77-.07-1.14,0-.76-.11-1.13a5.72,5.72,0,0,0-.21-1.21c-.18-.37-.59-.59-.9-.85a4.05,4.05,0,0,0-1-.54c-.34-.16-.51-.67-.85-.83s-.9.17-1.24,0-.73-.2-1.07-.36-.47-.76-.81-.92-.64-.4-1-.56-.64-.39-1-.55-.78-.09-1.12-.24-.74-.17-1.08-.33-.72-.23-1.06-.39-.48-.73-.82-.88-.72-.23-1.06-.39-.62-.43-1-.59-1,.29-1.3.13-.4-.91-.74-1.07-.85.06-1.19-.1-.76-.13-1.1-.29-.47-.75-.81-.91-.78-.11-1.11-.27-.72-.23-1.06-.39-.72-.21-1.06-.37-.54-.62-.87-.8-.83-.09-1.14-.3-.6-.5-.88-.73-.4-.68-.65-1a7.23,7.23,0,0,1-.55-1,6.29,6.29,0,0,1-.67-.87,6.57,6.57,0,0,1-.58-1c-.11-.35,0-.76,0-1.15s-.5-.71-.5-1.09.46-.77.49-1.15-.32-.83-.24-1.2.51-.67.64-1a7.46,7.46,0,0,1,.36-1.1,10.08,10.08,0,0,1,.59-1,9,9,0,0,1,.8-.84c.28-.26.77-.23,1.1-.46a8.45,8.45,0,0,1,1-.49c.33-.18.48-.72.85-.87s.55-.73.54-1.14.08-.79.08-1.17-.14-.79-.13-1.17.14-.79.18-1.16.43-.73.49-1.1a11.37,11.37,0,0,1,.43-1.07c.1-.39-.09-.83,0-1.18a9.49,9.49,0,0,1,.3-1.14c.17-.35.68-.5.89-.81a7.77,7.77,0,0,1,.64-.94,10.81,10.81,0,0,1,.92-.66c.28-.25.39-.71.71-.93s.49-.68.84-.86.92.16,1.28,0,.69-.26,1.06-.39.54-.84.92-1,.79,0,1.17-.11.84.32,1.23.24.44-.61.84-.67c-.14-.36-.35-.46-.45-.82s.2-.85.12-1.21-.16-.74-.22-1.1-.39-.72-.42-1.09-.2-.77-.2-1.14.66-.72.7-1.09-.38-.83-.3-1.18.63-.6.76-.94,0-.82.2-1.14a6.78,6.78,0,0,1,.5-1.05c.24-.29.83-.23,1.12-.47a5.7,5.7,0,0,1,.89-.63c.31-.19.49-.66.84-.81A11.2,11.2,0,0,1,69,59.94a10.28,10.28,0,0,1,1.14-.1c.36-.05.76.27,1.14.25S72,60,72.35,60s.77-.15,1.15-.1c.12-.39.48-.7.62-1.07s.19-.78.36-1.13.38-.7.58-1,.11-.89.35-1.21a10.54,10.54,0,0,1,.73-1c.27-.3.79-.35,1.09-.62s.45-.72.78-1a12.22,12.22,0,0,1,1.07-.59c.34-.19.73-.33,1.11-.5s.79,0,1.13-.1.6-.61,1-.69.73-.27,1.09-.31.77,0,1.13,0,.74.25,1.11.28.73.06,1.1.12.7.2,1.06.29.81-.11,1.16,0,.63.44,1,.58.5.25.84.41c.25-.59.64-.86.83-1.31s0-.85.21-1.18.75-.44,1-.75a10.79,10.79,0,0,1,.63-.93c.26-.28.65-.38.94-.62s.44-.66.77-.85.59-.56.94-.69a33.29,33.29,0,0,1,2.27-.58c.36,0,.76.36,1.15.37s.78-.27,1.16-.22.73.47,1.1.58a6.76,6.76,0,0,1,1.07.46,7.69,7.69,0,0,1,1.11.41,7.45,7.45,0,0,1,.81.87c.28.28.77.39,1,.71s0,.9.21,1.26,1,.44,1.11.83-.28.9-.19,1.3a11.28,11.28,0,0,1,.05,1.18c0,.37.65.69.68,1.06s0,.75,0,1.12-.28.77-.25,1.14.36.72.39,1.09.15.74.18,1.11-.1.76-.08,1.13-.11.75-.08,1.13,0,.74.07,1.11.15.74.18,1.11-.19.76-.16,1.13.34.73.37,1.1-.17.84-.14,1.29.29.72.33,1.2c.34-.2.77,0,1.11-.21s.69-.35,1-.51.65-.45,1-.58.67-.47,1-.58.75-.32,1.12-.39.85.35,1.23.31.76-.33,1.14-.33a7.62,7.62,0,0,1,2.25.55,8.47,8.47,0,0,1,1.07.37c.36.13.83,0,1.18.18a9.44,9.44,0,0,1,1.13.39c.32.21.72.37,1,.61s.31.84.6,1.11.41.66.68,1,.88.22,1.1.52.1.82.29,1.15a8.09,8.09,0,0,1,.42,1c.16.33.5.57.63.93s.17.7.26,1.06.59.65.64,1-.31.77-.3,1.15a10.23,10.23,0,0,1,.16,1.11,10.76,10.76,0,0,1-.26,1.09c-.06.36-.22.7-.32,1.07s-.05.75-.18,1.11-.44.61-.6,1,0,.84-.17,1.17-.35.51-.56.83c.29.27.37.57.66.85s.77.34,1.06.62l.87.82c.28.28.17,1,.46,1.25s.78.33,1.06.6.45.68.74,1,.8.31,1.08.59.64.48.92.75.44.69.73,1l.88.8c.28.27.66.45,1,.73s.45.59.68.85.61.48.81.77-.15.92,0,1.24.76.45.88.78-.11.78,0,1.13a9.58,9.58,0,0,1,.37,1,10,10,0,0,1-.09,1.08,9.55,9.55,0,0,1,0,1.07,2.15,2.15,0,0,0,.21,1.09c.17.31.79.41.93.72s-.08.89.11,1.23.57.56.75.9.62.6.75.95-.16.85-.16,1.22-.16.77-.16,1.16-.06.77-.06,1.15.14.77.13,1.16.37.78.36,1.16-.1.77-.11,1.16,0,.77,0,1.16-.22.76-.24,1.15.12.78.1,1.16-.22.76-.24,1.15.27.78.25,1.17,0,.77,0,1.16-.65.74-.67,1.13.35.79.33,1.17a4.54,4.54,0,0,1-.3,1.22c-.14.4-.62.59-.85.92s0,1-.18,1.26l-.66.93c-.22.31-.72.41-.94.72s-.09.87-.31,1.18l-.66.92c-.22.31-.64.47-.86.78s-.62.49-.84.8-.06.89-.28,1.2-.81.35-1,.65-.19.8-.42,1.11-.48.59-.7.89-.68.45-.9.76-.18.8-.4,1.11-.37.66-.59,1-.79.36-1,.67-.25.81-.52,1.07a7.74,7.74,0,0,1-1,.64c-.32.22-.52.67-.86.84s-.87-.07-1.23.05-.62.61-1,.7-.82-.2-1.2-.14l-1.21.21-1.21.21c-.4.07-.79.19-1.2.26s-.82,0-1.23.12l-1.08.16c0-.39,0-.64,0-1s-.4-.75-.43-1.13-.07-.76-.1-1.15.36-.79.33-1.18,0-.49-.08-.89c.38.06.5-.13.85-.1a9.74,9.74,0,0,0,1.11-.1,7.14,7.14,0,0,0,1.06-.26c.38,0,.8.23,1.15.13a9.66,9.66,0,0,0,1.12-.21,8.66,8.66,0,0,0,1-.61,9.47,9.47,0,0,0,1-.6c.29-.22.46-.6.73-.85s.66-.39.92-.66.63-.44.87-.72.24-.76.46-1.06.19-.76.4-1.07.45-.57.66-.88.82-.35,1-.67-.12-1,.1-1.36.43-.69.66-1,.58-.59.82-.91.84-.36,1.1-.68.14-.94.41-1.23.72-.46.94-.78.64-.6.81-1a9.69,9.69,0,0,0,.29-1.21c.11-.39-.15-.85-.1-1.25a11.33,11.33,0,0,0,.07-1.18c0-.4-.06-.78-.07-1.19s.6-.76.59-1.14,0-.75,0-1.12S134,114.4,134,114s.34-.74.35-1.12-.27-.75-.26-1.13.06-.75.06-1.12.19-.75.19-1.13,0-.75,0-1.12-.42-.55-.41-.93c-.38,0-.53-.2-.89-.16a4.23,4.23,0,0,0-1,.37,4.16,4.16,0,0,0-1,.45,4.31,4.31,0,0,0-.78.76,5,5,0,0,0-.65.86,4.82,4.82,0,0,0-.54,1,4.72,4.72,0,0,0-.36,1.1c0,.41,0,.82,0,1.22s.15.82.14,1.23-.08.81-.09,1.22-.11.84-.13,1.26.39.86.37,1.29-.22.89-.24,1.33c-.39,0-.88-.32-1.27-.29s-.75.42-1.13.46-.76.22-1.15.27-.78,0-1.16.09-.85-.3-1.23-.23-.77.18-1.15.27-.72.36-1.1.47-.62.63-1,.75-.92-.25-1.28-.11-.52.76-.87.92-.82.09-1.16.28-.61.49-.93.7-.65.41-1,.64-.51.58-.8.84-.62.44-.9.72-.72.38-1,.68-.19.82-.42,1.14-1,.28-1.19.62.08.93-.11,1.29-.39.65-.55,1-.28.71-.42,1.09-.45.58-.57,1c-.41-.1-.83.18-1.24.09s-.71-.67-1.13-.76L104.8,131c-.41-.09-.93.09-1.35,0,.08-.39.15-.84.26-1.21s.62-.63.74-1,.11-.78.25-1.14,0-.88.13-1.23.81-.46,1-.8,0-.91.21-1.23.36-.72.59-1,.83-.34,1.08-.64.57-.52.84-.8.46-.63.74-.89.22-.94.52-1.19,1,0,1.29-.26.37-.83.69-1,.82-.17,1.16-.37.67-.39,1-.58.76-.21,1.12-.38.51-.61.87-.78c-.15-.35-.42-.6-.54-1s-.17-.75-.28-1.11.16-.82.08-1.19-.5-.67-.56-1,0-.77,0-1.15-.37-.74-.38-1.12.41-.77.41-1.14,0-.75,0-1.13.28-.72.33-1.1-.49-.83-.43-1.2.64-.65.72-1-.29-.85-.19-1.21.48-.65.59-1,.23-.71.35-1.07.47-.63.6-1,.21-.72.36-1.07.15-.74.3-1.09c.32-.19.44-.66.76-.86s.75-.19,1.07-.39.83-.08,1.15-.28.45-.56.77-.77c.29.27.6.44.89.71s.62.52.92.79.69.43,1,.7.38.77.68,1,.75.37,1,.65.28.88.57,1.16.89.24,1.19.51.64.25.91.42.41.88.73.93.58-.55.92-.69.84.17,1.13-.1a4.24,4.24,0,0,0,.8-.86,2.91,2.91,0,0,0,.25-1.18,2.78,2.78,0,0,0-.31-1.12c-.13-.31-.71-.33-1-.62s-.44-.63-.7-.92-.59-.5-.85-.79-.33-.75-.59-1-.3-.78-.57-1-.76-.34-1-.61-.47-.62-.75-.88-.6-.5-.89-.75-.56-.54-.86-.78-.73-.29-1-.5-.4-.84-.71-1a8.13,8.13,0,0,0-1.07-.47c-.37-.14-.9.39-1.25.33a4.86,4.86,0,0,0-1-.13c-.38,0-.84-.44-1.2-.32a5.21,5.21,0,0,0-1.08.49c-.3.18-.26.86-.55,1.12s-.79.24-1,.54a10.4,10.4,0,0,0-.8.82c-.2.3-.29.7-.48,1s-.14.93-.37,1.18a3.35,3.35,0,0,1-1,.73,3.71,3.71,0,0,1-1.22.18,9.61,9.61,0,0,1-1.16-.24,8.35,8.35,0,0,1-1.07-.29,6.56,6.56,0,0,1-1-.44,6.88,6.88,0,0,1-.88-.61c-.32-.2-.85-.09-1.12-.33s-.36-.68-.58-1a5.1,5.1,0,0,1-.49-1,6.19,6.19,0,0,1-.34-1c-.12-.34-.77-.54-.84-.91s.44-.79.41-1.17-.61-.71-.64-1.09.2-.78.17-1.16-.26-.74-.29-1.12.07-.76.05-1.14.27-.78.24-1.16-.44-.73-.47-1.11-.17-.75-.2-1.13.49-.79.46-1.17-.62-.72-.65-1.1.14-.77.11-1.15,0-.75-.08-1.13.26-.78.24-1.16-.42-.73-.45-1.11.38-.79.35-1.17-.17-.75-.2-1.13-.25-.74-.28-1.12.17-.77.14-1.15-.59-.72-.61-1.09.47-.8.44-1.18-.38-.73-.41-1.11-.26-.74-.29-1.12.11-.77.08-1.15.26-.78.23-1.16-.41-.73-.44-1.11,0-.76,0-1.14.26-.78.23-1.16-.31-.74-.34-1.11-.08-.76-.11-1.14.23-.78.2-1.16-.52-.62-.53-.94a1.29,1.29,0,0,0-.21-.77c-.16-.24.13-.84-.07-1.12s-.75-.26-1-.47-.44-.87-.69-.86-.58.65-.93.82-.75.14-1.05.37a5,5,0,0,0-.7.85,1.59,1.59,0,0,0-.29,1.11c0,.43-.24.9-.21,1.29s-.11.78-.08,1.16.25.76.28,1.14.44.74.47,1.12,0,.77,0,1.16-.4.8-.37,1.18.07.77.09,1.15.2.76.23,1.14.49.73.52,1.12-.51.81-.48,1.19.32.75.34,1.13.16.76.19,1.14-.28.8-.26,1.18l.09,1.15c0,.38.11.76.14,1.15s.43.74.46,1.12-.23.79-.2,1.17,0,.77,0,1.16.12.76.15,1.14.29.75.32,1.14-.29.79-.26,1.17,0,.77.06,1.16.43.73.46,1.12-.15.78-.12,1.16.28.75.31,1.14.19.75.22,1.14-.46.8-.43,1.19l.09,1.15c0,.38.33.74.36,1.13s.21.75.24,1.14-.33.71-.35,1.06.13.74,0,1.08a7.67,7.67,0,0,1-.23,1.08,6.76,6.76,0,0,1-.43,1,6,6,0,0,1-.8.79c-.26.25-.8.13-1.1.32a4.54,4.54,0,0,1-.9.47,4.92,4.92,0,0,1-1,.32,5.84,5.84,0,0,1-1.07.18c-.36,0-.81.13-1.15,0a5.58,5.58,0,0,1-.94-.64,5.63,5.63,0,0,1-1-.51,7.93,7.93,0,0,1-.72-.87c-.22-.26-.08-.81-.27-1.13s-.55-.55-.75-.88-.7-.45-.9-.78-.37-.67-.57-1,.09-.94-.11-1.27-.83-.38-1-.7-.32-.7-.52-1l-.59-1c-.2-.32-.07-.85-.27-1.17s-.52-.58-.72-.9-.63-.5-.83-.82-.37-.67-.57-1-.46-.62-.66-.94-.3-.7-.5-1-.45-.62-.65-.94-.06-.85-.26-1.18-.86-.36-1.06-.68,0-.93-.15-1.25-.47-.61-.66-.93-.69-.47-.89-.8,0-.87-.23-1.19-.84-.38-1-.7-.09-.84-.29-1.16-.66-.49-.86-.81-.5-.59-.69-.91-.15-.82-.33-1.11-.46-.64-.65-.91a10.81,10.81,0,0,0-.6-1,2.91,2.91,0,0,0-.84-.77,1.77,1.77,0,0,0-1.2-.27c-.3.09-.5.61-.88.84s-.45.58-.69.82-.8.34-.84.75.35.62.47,1a5.87,5.87,0,0,0,.25,1.08c.13.3.47.53.66.89s-.16.93.05,1.28.76.41,1,.74.14.79.33,1.11.4.64.59,1,.71.45.91.77.07.83.26,1.16.82.39,1,.71.36.66.55,1,.17.77.36,1.09.27.72.46,1,.48.59.67.91.24.73.43,1.06.5.58.69.91.62.5.81.83,0,.9.15,1.22l.56,1c.2.32.5.58.69.91s.32.68.51,1,.41.64.6,1,.35.67.54,1,.58.54.77.86.61.51.8.84.2.76.39,1.08.08.83.27,1.15.54.56.73.88.17.78.37,1.1.7.46.84.79a6.78,6.78,0,0,1,.29,1.07,8.56,8.56,0,0,1,.3,1.07,6.51,6.51,0,0,1,.16,1.14,5.36,5.36,0,0,1-.26,1.12c-.1.35-.64.53-.82.85a5,5,0,0,1-.54.92,5.57,5.57,0,0,1-.83.64c-.3.21-.4.77-.73.91s-.8-.15-1.16-.08-.68.56-1,.56-.67-.53-1-.6-.8.28-1.16.16-.57-.52-.9-.68-.84,0-1.19-.19-.48-.82-.84-1-.72-.28-1.08-.44-.63-.49-1-.65-.73-.26-1.08-.42-.92.12-1.27,0-.72-.28-1.07-.45-.64-.48-1-.64-.75-.23-1.1-.39-.75-.24-1.1-.4-.58-.59-.93-.75-.72-.3-1.07-.46-.58-.6-.93-.76-.82-.08-1.17-.24-.69-.37-1-.53-.58-.6-.93-.76-.75-.22-1.11-.39-.86,0-1.21-.14-.75-.24-1.1-.4-.54-.69-.89-.85-.88,0-1.22-.11-.8-.64-1.14-.61-.67.54-1,.83-.8.39-1,.81a3.53,3.53,0,0,0-.1,1.27,2.2,2.2,0,0,0,.23,1.21,3.24,3.24,0,0,0,.8,1c.3.22.79.2,1.17.38s.76.13,1.1.28.5.68.84.84.76.14,1.09.3.59.51.92.67l1,.48c.34.16.69.28,1,.44s.63.41,1,.57.9-.17,1.23,0,.62.43,1,.59l1,.49c.34.16.72.23,1.06.39s.48.72.82.87.72.23,1.06.39.63.41,1,.56.75.17,1.09.32.78.09,1.12.24l1,.47c.34.15.48.74.82.89s.7.26,1,.41.8,0,1.14.19.62.44,1,.59.75.16,1.09.31.51.66.81.84,1,0,1.21.28.1.88.3,1.21.6.5.73.87.45.66.52,1-.21.82-.14,1.19.25.74.33,1.11.23.74.31,1.11,0,.78.12,1.15.09.77.17,1.14.28.72.36,1.1-.12.81,0,1.19.23.73.31,1.11.22.73.3,1.11.23.73.31,1.11.2.74.27,1.11.08.77.16,1.15.2.74.27,1.11.13.76.2,1.14,0,.77.08,1.15.54.64.64,1-.23.86-.1,1.19.5.61.68.92.54.52.76.81.2.8.47,1.06.7.32,1,.54a8.71,8.71,0,0,0,1,.51,8.71,8.71,0,0,0,.93.6C88.73,137,89.25,137,89.61,137.13Zm-20-52.66c0-.39.23-.82.14-1.18s-.67-.56-.83-.9-.11-.79-.34-1.1a6,6,0,0,0-.81-.79,5.8,5.8,0,0,0-1-.59c-.33-.2-.55-.62-.92-.74a6.12,6.12,0,0,0-1.13-.33,7.08,7.08,0,0,0-1.17.15,7.18,7.18,0,0,0-1.22,0c-.38.1-.61.62-1,.79s-.83.14-1.14.38a6.6,6.6,0,0,0-.8.87,6.05,6.05,0,0,0-.7,1A6.5,6.5,0,0,0,58.37,83a5.63,5.63,0,0,0-.06,1.17c-.05.38-.48.77-.45,1.17a7.26,7.26,0,0,0,.27,1.16,7.62,7.62,0,0,0,.26,1.19c.18.34.87.36,1.11.66a4.86,4.86,0,0,0,.78.79c.29.25.3.94.64,1.12a7.4,7.4,0,0,0,1.12.48,6.68,6.68,0,0,0,1.2.2,7.47,7.47,0,0,0,1.19-.18,6.22,6.22,0,0,0,1.1-.38,5.83,5.83,0,0,0,1-.52,5.77,5.77,0,0,0,1-.43,5.64,5.64,0,0,0,.86-.75c.25-.29.21-.75.4-1.08a5.29,5.29,0,0,0,.51-1,5,5,0,0,0,.38-1.07A6.36,6.36,0,0,0,69.63,84.47Zm20.8-22.55c0-.39.22-.82.12-1.18s-.68-.55-.85-.89-.12-.79-.35-1.09a6.13,6.13,0,0,0-.83-.78,5.45,5.45,0,0,0-1-.58c-.33-.19-.55-.61-.92-.74a5.59,5.59,0,0,0-1.13-.32,6,6,0,0,0-1.17.16,6.07,6.07,0,0,0-1.2,0c-.37.1-.59.62-.93.79s-.81.14-1.11.38a6.38,6.38,0,0,0-.78.86,5.75,5.75,0,0,0-.69.93,6.29,6.29,0,0,0-.43,1.07,6.06,6.06,0,0,0-.08,1.14c-.05.37-.49.74-.46,1.13A5.71,5.71,0,0,0,78.91,64a6,6,0,0,0,.26,1.22c.17.36.87.39,1.11.7a6.08,6.08,0,0,0,.78.82c.3.26.31,1,.66,1.14a6.46,6.46,0,0,0,1.14.5,6.23,6.23,0,0,0,1.22.21,7.53,7.53,0,0,0,1.22-.19,5.92,5.92,0,0,0,1.09-.4,4.48,4.48,0,0,0,1-.55,3.51,3.51,0,0,0,1.88-1.23c.25-.29.2-.75.39-1.08a6.08,6.08,0,0,0,.51-1,6.47,6.47,0,0,0,.38-1.07A6.4,6.4,0,0,0,90.43,61.92Zm25.72,20.89c.39,0,.82.22,1.19.11s.53-.69.87-.87.79-.13,1.08-.38a5.61,5.61,0,0,0,.77-.84,5.49,5.49,0,0,0,.59-1c.19-.33.61-.55.73-.92a5.65,5.65,0,0,0,.34-1.13,6,6,0,0,0-.16-1.17,7.18,7.18,0,0,0,0-1.22c-.11-.39-.64-.6-.82-1s-.15-.82-.4-1.13a6.7,6.7,0,0,0-.89-.79,7,7,0,0,0-1-.68,6.18,6.18,0,0,0-1.11-.42,6.35,6.35,0,0,0-1.16-.06c-.39,0-.78-.46-1.18-.42a5.54,5.54,0,0,0-1.15.29,6.36,6.36,0,0,0-1.18.29c-.34.18-.35.87-.65,1.12a5.82,5.82,0,0,0-.79.78c-.24.3-.93.31-1.11.65a6.23,6.23,0,0,0-.49,1.12,6.72,6.72,0,0,0-.2,1.19,6.17,6.17,0,0,0,.2,1.19,5.58,5.58,0,0,0,.4,1.1,5.25,5.25,0,0,0,.57,1,5.46,5.46,0,0,0,.46,1,6.22,6.22,0,0,0,.77.85c.3.25.75.22,1.09.41a5.07,5.07,0,0,0,1,.53,5.2,5.2,0,0,0,1.06.39A5.44,5.44,0,0,0,116.15,82.81ZM93.52,88.65c0-.39.13-.59.11-1s-.54-.73-.57-1.11.23-.79.2-1.17-.13-.76-.16-1.14-.13-.76-.16-1.14.24-.79.21-1.17,0-.77,0-1.16-.26-.75-.28-1.13.18-.78.15-1.16-.47-.74-.5-1.12.22-.79.2-1.17-.15-.76-.18-1.14,0-.76-.06-1.14-.11-.76-.14-1.14-.14-.57-.16-.94c-.37.12-.69-.14-1,0s-.72.3-1.08.43-.79.06-1.16.19-.55.79-.91.91l-1.1.37c-.36.12-.91-.29-1.27-.16s-.94.44-1.31.56c.2.33.47.92.67,1.24s.57.54.77.86.56.55.76.87.53.57.72.89.24.74.44,1.07.36.66.56,1,.65.49.85.82.32.69.52,1,.27.72.47,1,.3.71.5,1,.25.74.45,1.07.57.54.77.87.48.6.68.92.06.86.26,1.19S93.32,88.32,93.52,88.65ZM79.43,98.49c.1-.12.3-.08.39-.2-.19-.32-.8-.44-1-.75s-.14-.78-.33-1.1-.44-.6-.62-.92-.45-.6-.63-.91-.13-.79-.32-1.1-.32-.68-.51-1-.55-.54-.73-.85-.34-.87-.52-1.16c-.3.26-.48.88-.78,1.14s-.79.31-1.09.57-.55.59-.85.86-.61.5-.92.76-.56.53-.86.8c.36.17.79.14,1.15.31s.56.72.93.89.76.29,1.12.45.66.51,1,.68,1-.18,1.34,0l1.09.5c.37.17.5.85.86,1S79.07,98.32,79.43,98.49Z"/><path class="cls-1" d="M123.06,90.86c.83-.06.19.73-.07,1.3a1.66,1.66,0,0,0,.05.28l.18,1.43c-.4.43-.68.41-.85-.33-.05-.21-.34,0-.52.08.16-.86.28-1.78.51-2.55C122.44,90.81,122.82,90.92,123.06,90.86Z"/><path class="cls-1" d="M131.43,89.71c.13-.36.3-.91.5-1.39s.37-.69.42,0c.08,1,.18,2,.24,3.1a3.08,3.08,0,0,1-.37.73,1.72,1.72,0,0,1-.26.32c0-1,.26-2.66-.6-1.8Z"/><path class="cls-1" d="M131.15,86.37l.67-1.06c0,.61.07,1.21.08,1.85,0,0-.32.52-.36.44A9.42,9.42,0,0,1,131.15,86.37Z"/><path class="cls-1" d="M123.11,81a8.49,8.49,0,0,1,.47-1.14c.22.15.7-.45.6.69a2.22,2.22,0,0,1-.31.88A2.63,2.63,0,0,1,123.11,81Z"/><path class="cls-1" d="M122.35,83.9a12.57,12.57,0,0,1-.18-1.73,4.89,4.89,0,0,1,.55-1c0,.61.1,1.2.1,1.84A5.77,5.77,0,0,1,122.35,83.9Z"/><path class="cls-1" d="M123.89,87.35c-.31.51-.54,1.08-.68,1.09s-.15-.64-.22-1c.15-.16.32-.42.46-.43S123.71,87.2,123.89,87.35Z"/><path class="cls-1" d="M124,90.25l-.53.75a4.77,4.77,0,0,1,0-1.24,4,4,0,0,1,.58-1Z"/><path class="cls-1" d="M121,76.13a3.43,3.43,0,0,1,0-.69,4.66,4.66,0,0,1,.46-.87c0-.06.12.18.19.28Z"/><path class="cls-1" d="M133.52,79.67a2.36,2.36,0,0,1,.48-.4c.07,0,.11.24.16.37l-.66,1Z"/><path class="cls-1" d="M134,93a10.66,10.66,0,0,1,.09-1.09,2.56,2.56,0,0,1,.24-.57,8.44,8.44,0,0,1,0,1A3.59,3.59,0,0,1,134,93Z"/><path class="cls-1" d="M134.8,85.18l-.31-.5c.12-.15.24-.39.34-.44s.13.18.19.28Z"/><path class="cls-1" d="M132.77,85.42c-.08-.2-.17-.34-.15-.43.07-.34.17-.67.27-1,0,.11.14.22.13.33C133,84.66,132.86,85,132.77,85.42Z"/><path class="cls-1" d="M132.75,87.83c.05-.43.08-.78.15-1.12,0-.11.15-.18.23-.26,0,.34,0,.69-.09,1C133,87.57,132.89,87.67,132.75,87.83Z"/><path class="cls-1" d="M133.92,83.36c0-.42,0-.77.08-1.1a3.46,3.46,0,0,1,.24-.57,8.36,8.36,0,0,1,0,1A3.11,3.11,0,0,1,133.92,83.36Z"/><path class="cls-1" d="M130.24,87.83l.31-.24a3.38,3.38,0,0,1,0,.65,4.18,4.18,0,0,1-.3.64Z"/><path class="cls-1" d="M131.75,80.55c0-.42,0-.76.08-1.1a2.7,2.7,0,0,1,.24-.56,8.19,8.19,0,0,1,0,1A2.92,2.92,0,0,1,131.75,80.55Z"/><path class="cls-1" d="M129.71,77.63c-.07-.2-.17-.34-.15-.43.07-.34.18-.67.28-1,0,.11.14.22.12.33C129.91,76.87,129.81,77.2,129.71,77.63Z"/><path class="cls-1" d="M127.25,81.12l-.14-.32c0-.08.12-.24.14-.22a1,1,0,0,1,.15.28Z"/><path class="cls-1" d="M108.2,87.43a4.91,4.91,0,0,1,0-.54c0-.06.09-.16.13-.24a4.86,4.86,0,0,1,0,.54A.87.87,0,0,1,108.2,87.43Z"/><path class="cls-1" d="M109.44,85l.19-.49a.75.75,0,0,1,0,.28,4.24,4.24,0,0,1-.18.5Z"/><path class="cls-1" d="M109.11,82.65l-.14-.31c0-.08.12-.24.14-.22a1,1,0,0,1,.15.28Z"/><path class="cls-1" d="M112.51,83.39a4.86,4.86,0,0,1,0-.54.87.87,0,0,1,.14-.24,4.91,4.91,0,0,1,0,.54C112.64,83.21,112.55,83.31,112.51,83.39Z"/><path class="cls-1" d="M130.63,91.21l.19-.49a1.11,1.11,0,0,1,.05.28c-.05.18-.13.34-.19.5Z"/><path class="cls-1" d="M129.52,83.37l0,.29a.9.9,0,0,1-.24.21s0-.17-.05-.26Z"/><path class="cls-1" d="M182.15,130.5c-.07,0-.13,0-.21.12-.23.32-.28-.57-.68.94a3.44,3.44,0,0,1,0-.88,4.49,4.49,0,0,1,.24-.59l.16-.33a.67.67,0,0,1,.07-.14c.07.52.49-.31.68-.24a1.78,1.78,0,0,1-.05.49C182.29,130,182.22,130.25,182.15,130.5Z"/><path class="cls-1" d="M183.23,135.67c0-.07-.1-.1-.1-.25a1.36,1.36,0,0,1,.35-1c.11-.14.27-.24.28-.11C183.8,135,183.51,135.15,183.23,135.67Z"/><path class="cls-1" d="M182.66,137.29s-.11.16-.16.11A4.46,4.46,0,0,1,183,136s.09,0,.1,0A1.71,1.71,0,0,1,182.66,137.29Z"/><path class="cls-1" d="M186.71,126c0-.09-.1-.13-.09-.28,0-.34.09-.73.13-1.11l.3.15Z"/><path class="cls-1" d="M187,123.36l.31-1.23a1,1,0,0,1,.13.45c0,.22-.09.58-.13.88Z"/><path class="cls-1" d="M182.58,136.19a7.51,7.51,0,0,1-.28.89c-.1.09-.2.09-.26,0a2.19,2.19,0,0,1,.16-.59C182.3,136.37,182.4,136.34,182.58,136.19Z"/><path class="cls-1" d="M188.7,130.36s-.11,0-.11,0a7.55,7.55,0,0,1,.16-1c0-.11.18-.09.27-.14Z"/><path class="cls-1" d="M182.45,128.23a5,5,0,0,1,.18-.57.38.38,0,0,1,.26-.15s0,0,0,.06l0,.16-.09.38Z"/><path class="cls-1" d="M182.67,130.25l.12-.58a.66.66,0,0,1,.1.29,2.64,2.64,0,0,1-.1.49Z"/><path class="cls-1" d="M184.17,132.9c-.08,0-.17.11-.17.06,0-.2,0-.44.07-.66.05,0,.13-.12.14-.06S184.18,132.64,184.17,132.9Z"/><path class="cls-1" d="M182.24,127.62c-.12.28-.22.53-.31.72s-.06,0-.09-.05c.1-.25.19-.51.29-.73C182.16,127.5,182.19,127.59,182.24,127.62Z"/><path class="cls-1" d="M180.67,130.88l.19-.54s.08,0,.07.14-.09.4-.14.6Z"/><path class="cls-1" d="M187.24,126.17l-.19,0a6.16,6.16,0,0,1,.28-.67c0-.09.1,0,.16,0Z"/><path class="cls-1" d="M182.17,139.15l-.14.07a1,1,0,0,1,.07-.22.44.44,0,0,1,.15-.1Z"/><path class="cls-1" d="M180.75,132.84l.08-.38s.07-.06.06,0,0,.25-.06.38Z"/><path class="cls-1" d="M188.07,123.23l-.14.06A1.38,1.38,0,0,1,188,123a.3.3,0,0,1,.15-.09Z"/><path class="cls-1" d="M186.1,122.4l-.14.11a1.59,1.59,0,0,1,.07-.28.48.48,0,0,1,.15-.14Z"/><path class="cls-1" d="M186.07,128.06a.77.77,0,0,1-.07-.2s.05-.17.07-.26a.69.69,0,0,1,.07.19S186.09,128,186.07,128.06Z"/><path class="cls-1" d="M186.15,133.18l-.08.4s-.07,0-.07-.05.05-.27.07-.41Z"/><path class="cls-1" d="M183.42,127.59h-.08c0-.14.09-.29.15-.42s0,0,.07,0Z"/><path class="cls-1" d="M183.48,137.22l-.14.07a1,1,0,0,1,.07-.24.6.6,0,0,1,.15-.09Z"/><path class="cls-1" d="M184.79,130.56l-.14.08a1.15,1.15,0,0,1,.07-.25.48.48,0,0,1,.15-.11Z"/><path class="cls-1" d="M184.68,137.87l.08-.26a1.18,1.18,0,0,1,.07.2s-.05.16-.07.24Z"/><path class="cls-1" d="M192.59,128.2l-.07-.12a2.46,2.46,0,0,1,.14-.36s.05.07.07.11Z"/><path class="cls-1" d="M170.47,51.52a1,1,0,0,1,.1-.26,4.44,4.44,0,0,1,.73-.42c.08,0,0,.24,0,.37Z"/><path class="cls-1" d="M160.82,51.28c0-.09.07-.25.1-.26a3.67,3.67,0,0,1,.74-.43c.08,0,0,.24,0,.38Z"/><path class="cls-1" d="M162.46,49.31l-.81.33a3.79,3.79,0,0,1,.46-.54,1.24,1.24,0,0,1,.55-.07A2.32,2.32,0,0,1,162.46,49.31Z"/><path class="cls-1" d="M163.09,50.28l-.58.35a1.54,1.54,0,0,1,.27-.37,5.11,5.11,0,0,1,.62-.41Z"/><path class="cls-1" d="M162.16,51.6h.29a2.37,2.37,0,0,1-.32.37,2.27,2.27,0,0,1-.47.23Z"/><path class="cls-1" d="M164,48.28h.28a2,2,0,0,1-.31.37,3.58,3.58,0,0,1-.48.24Z"/><path class="cls-1" d="M172.93,58.53c-.15,0-.3,0-.37-.08s.06-.2.1-.31.3,0,.38,0S173,58.36,172.93,58.53Z"/><path class="cls-1" d="M165.17,41.26l-.07.25c-.06,0-.18.09-.18.07a.55.55,0,0,1,0-.24Z"/><path class="cls-1" d="M166.86,40.83a.61.61,0,0,1-.23,0s.06-.11.09-.17a1.06,1.06,0,0,1,.24,0S166.9,40.77,166.86,40.83Z"/><path class="cls-1" d="M164.78,44.27A2.51,2.51,0,0,1,165,44a.58.58,0,0,1,.19-.07c-.08.1-.16.21-.25.31S164.84,44.24,164.78,44.27Z"/><path class="cls-1" d="M162.41,46.49a1,1,0,0,1-.23,0s0-.12.09-.18a.61.61,0,0,1,.23,0S162.44,46.43,162.41,46.49Z"/><path class="cls-1" d="M173.54,48.74l.11-.2a.62.62,0,0,1,.23,0s-.06.11-.09.18Z"/><path class="cls-1" d="M165.94,45.14a.66.66,0,0,1-.24,0s.06-.11.09-.18a1,1,0,0,1,.24,0S166,45.08,165.94,45.14Z"/><path class="cls-1" d="M173.58,59.12l.35-.21a.38.38,0,0,1-.08.17l-.36.23Z"/><path class="cls-1" d="M174.51,57.43l.22-.09c-.09.11-.16.21-.25.31a.52.52,0,0,1-.2.08Z"/><path class="cls-1" d="M174.41,49.72l.1-.19a1.06,1.06,0,0,1,.24,0s-.06.12-.09.18Z"/><path class="cls-1" d="M73.15,175.87l.66,1.2c-.07.43.23,2-.39.77C72.9,176.79,73.25,176.52,73.15,175.87Z"/><path class="cls-1" d="M70.42,174.81c.14.05.28-.05.38.18a12,12,0,0,1,.38,1.28c-.1.08-.2.34-.31.19A12.42,12.42,0,0,1,70.42,174.81Z"/><path class="cls-1" d="M72.51,177c.07,0,.14,0,.2.14.14.3.28.67.41,1l-.29.16Z"/><path class="cls-1" d="M71.51,176l-.29-1.23c.06,0,.17-.06.18,0a9.56,9.56,0,0,1,.21,1C71.63,175.89,71.55,175.94,71.51,176Z"/><path class="cls-1" d="M72.83,175.4l-.32-1a2.41,2.41,0,0,1,.38.51,5.71,5.71,0,0,1,.26.72Z"/><path class="cls-1" d="M72.54,175.52l-.12.45c0-.23-.12-.49-.14-.69a.73.73,0,0,1,.07-.29Z"/><path class="cls-1" d="M74,179.29l.24.71s-.11,0-.16-.07-.18-.46-.27-.7Z"/><path class="cls-1" d="M73.72,176.57c.2.32.32.5.43.72a2,2,0,0,1,0,.37c-.09-.14-.19-.25-.28-.41S73.84,177,73.72,176.57Z"/><path class="cls-1" d="M70.07,173.12l.13-.4a3.35,3.35,0,0,1,.1.58,2.4,2.4,0,0,1-.1.52Z"/><path class="cls-1" d="M45.4,173.24a1,1,0,0,1-.15.18s0-.12-.07-.18a.79.79,0,0,1,.15-.19S45.38,173.17,45.4,173.24Z"/><path class="cls-1" d="M45.37,166.24l-.08.21c0-.13-.06-.26-.07-.4a.89.89,0,0,1,.07-.19Z"/><path class="cls-1" d="M45.26,162.4l.14.21c0,.07,0,.2-.07.18a.71.71,0,0,1-.15-.18Z"/><path class="cls-1" d="M45.91,171.67l-.07-.21c0-.06.09-.15.14-.18s.05.12.08.18Z"/><path class="cls-1" d="M46,164.59l-.14-.21c0-.06,0-.19.07-.18a1,1,0,0,1,.15.18Z"/><path class="cls-1" d="M46.68,173.32l-.08.21c0-.13-.05-.26-.07-.4a1.6,1.6,0,0,1,.07-.19Z"/><path class="cls-1" d="M46.52,166.24l.08-.38a.56.56,0,0,1,.07.19,2.57,2.57,0,0,1-.07.4Z"/><path class="cls-1" d="M47.88,155.32l.14.21c0,.06-.05.19-.07.18a1,1,0,0,1-.15-.18Z"/><path class="cls-1" d="M47.88,159.28l-.08-.21a.79.79,0,0,1,.15-.19s0,.12.07.19Z"/><path class="cls-1" d="M48,162.69l-.08.21c0-.13,0-.25-.07-.39a1.21,1.21,0,0,1,.07-.2Z"/><path class="cls-1" d="M48,169.61l-.08.38a1.21,1.21,0,0,1-.07-.2c0-.13,0-.26.07-.39Z"/><path class="cls-1" d="M48,176.86l-.08.21c0-.13,0-.25-.07-.39a1.21,1.21,0,0,1,.07-.2Z"/><path class="cls-1" d="M74.71,179.52l.08-.16c0,.1.07.25.07.28a.52.52,0,0,1-.07.18Z"/><path class="cls-1" d="M75.52,182.36l-.07,0a3.83,3.83,0,0,1-.07-.43s0,0,.07,0Z"/><path class="cls-1" d="M67.58,179.92c0-.15-.06-.3-.07-.45s0-.1.07-.15c0,.15.06.3.07.45S67.6,179.87,67.58,179.92Z"/><path class="cls-1" d="M70.12,176.26l.08-.23a1.92,1.92,0,0,1,.07.29.89.89,0,0,1-.07.26Z"/><path class="cls-1" d="M70.12,169.62l.08-.22a2.36,2.36,0,0,1,.07.31.76.76,0,0,1-.07.24Z"/><path class="cls-1" d="M71.26,178.17l-.08-.31s.1,0,.15.07a1.38,1.38,0,0,1,.07.28Z"/><path class="cls-1" d="M53.19,169.48l.08.21a.79.79,0,0,1-.15.19s0-.12-.07-.19Z"/><path class="cls-1" d="M57.17,159.15l-.08.21c0-.13-.06-.25-.07-.39a1.21,1.21,0,0,1,.07-.2Z"/><path class="cls-1" d="M57.06,169.48l.14.21c0,.07-.05.2-.07.19a.79.79,0,0,1-.15-.19Z"/><path class="cls-1" d="M57,173.32l.08-.38a1.6,1.6,0,0,1,.07.19c0,.14,0,.27-.07.4Z"/><path class="cls-1" d="M56.47,168.13l-.14-.21c0-.06.05-.19.07-.18a.66.66,0,0,1,.14.18Z"/><path class="cls-1" d="M55.75,177l-.08-.21a.79.79,0,0,1,.15-.19s0,.12.07.19Z"/><path class="cls-1" d="M54.44,159.28l-.08-.21c0-.07.09-.16.15-.19a1.4,1.4,0,0,1,.07.19Z"/><path class="cls-1" d="M54.44,173.45l-.08-.21c0-.07.09-.16.15-.19a1.4,1.4,0,0,1,.07.19Z"/><path class="cls-1" d="M49.22,162.9c0-.13,0-.25-.06-.39s0-.13.06-.2a2.79,2.79,0,0,1,.07.4S49.25,162.84,49.22,162.9Z"/><path class="cls-1" d="M49.22,159.36c0-.13,0-.25-.06-.39s0-.13.06-.2a2.57,2.57,0,0,1,.07.4C49.3,159.22,49.25,159.3,49.22,159.36Z"/><path class="cls-1" d="M50.57,162.4l.07.21a.54.54,0,0,1-.14.18s0-.11-.07-.18Z"/><path class="cls-1" d="M58.32,169.78l.08-.38a.56.56,0,0,1,.07.19,2.57,2.57,0,0,1-.07.4Z"/><path class="cls-1" d="M58.37,173.45l-.08-.21a.79.79,0,0,1,.15-.19s.05.12.07.19Z"/><path class="cls-1" d="M61.1,169.78,61,170c0-.13-.05-.26-.06-.4s0-.13.06-.19Z"/><path class="cls-1" d="M61,173.32l.07-.38c0,.07.08.15.07.19a2.57,2.57,0,0,1-.07.4Z"/><path class="cls-1" d="M37.44,142.21c-.07,0-.13,0-.21.12-.23.32-.28-.57-.69.94a3.49,3.49,0,0,1,0-.88,4.49,4.49,0,0,1,.24-.59l.15-.33c.05-.09.07-.15.07-.14.08.52.5-.31.69-.24a1.78,1.78,0,0,1,0,.49C37.57,141.75,37.51,142,37.44,142.21Z"/><path class="cls-1" d="M38.52,147.38c0-.07-.1-.1-.11-.25a1.4,1.4,0,0,1,.36-1c.1-.14.27-.24.28-.11C39.09,146.67,38.79,146.86,38.52,147.38Z"/><path class="cls-1" d="M38,149s-.12.16-.16.11a4.39,4.39,0,0,1,.51-1.42c0-.05.1,0,.1,0A1.66,1.66,0,0,1,38,149Z"/><path class="cls-1" d="M42,137.71c0-.09-.1-.13-.09-.28,0-.34.09-.73.13-1.11l.3.15Z"/><path class="cls-1" d="M42.33,135.06l.31-1.22a1,1,0,0,1,.13.45,7.16,7.16,0,0,1-.14.88Z"/><path class="cls-1" d="M37.87,147.9a7.51,7.51,0,0,1-.28.89c-.1.09-.2.09-.26,0a2.54,2.54,0,0,1,.15-.59C37.59,148.08,37.69,148.05,37.87,147.9Z"/><path class="cls-1" d="M44,142.07s-.12,0-.11,0a7.55,7.55,0,0,1,.16-1c0-.11.17-.1.26-.14Z"/><path class="cls-1" d="M37.74,139.94a4.41,4.41,0,0,1,.18-.57.38.38,0,0,1,.26-.15.28.28,0,0,1,0,.06l0,.16-.09.38Z"/><path class="cls-1" d="M38,142l.13-.58a.66.66,0,0,1,.1.29,2.64,2.64,0,0,1-.1.49Z"/><path class="cls-1" d="M39.46,144.61c-.08,0-.17.11-.17.06s0-.44.07-.66c0,0,.13-.12.13-.06S39.47,144.35,39.46,144.61Z"/><path class="cls-1" d="M37.53,139.33c-.12.28-.22.53-.32.72s-.05,0-.08-.05c.1-.25.19-.51.29-.73C37.44,139.21,37.48,139.3,37.53,139.33Z"/><path class="cls-1" d="M36,142.59l.19-.54s.08,0,.07.14-.09.4-.14.6Z"/><path class="cls-1" d="M42.53,137.88l-.19,0c.09-.23.18-.49.27-.67s.11,0,.17,0Z"/><path class="cls-1" d="M37.46,150.86l-.14.07a1,1,0,0,1,.07-.22.53.53,0,0,1,.14-.1Z"/><path class="cls-1" d="M36,144.55l.07-.38s.08-.07.07,0a3.1,3.1,0,0,1-.07.38Z"/><path class="cls-1" d="M43.36,134.94l-.14.06a1.38,1.38,0,0,1,.07-.28.33.33,0,0,1,.14-.09Z"/><path class="cls-1" d="M41.39,134.11l-.14.11a1.59,1.59,0,0,1,.07-.28.48.48,0,0,1,.15-.14Z"/><path class="cls-1" d="M41.36,139.77a.52.52,0,0,1-.07-.2,1.75,1.75,0,0,1,.07-.26,1.31,1.31,0,0,1,.07.19S41.38,139.68,41.36,139.77Z"/><path class="cls-1" d="M41.44,144.89l-.08.4s-.07,0-.07,0a3.52,3.52,0,0,1,.07-.41Z"/><path class="cls-1" d="M38.7,139.3h-.07a4.13,4.13,0,0,1,.14-.42s0,0,.07,0Z"/><path class="cls-1" d="M38.77,148.93l-.14.07a1,1,0,0,1,.07-.24.8.8,0,0,1,.14-.09Z"/><path class="cls-1" d="M40.08,142.27l-.14.08a1.15,1.15,0,0,1,.07-.25.48.48,0,0,1,.15-.11Z"/><path class="cls-1" d="M40,149.58l.08-.26a.43.43,0,0,1,0,.44Z"/><path class="cls-1" d="M47.88,139.91l-.08-.12c.05-.12.1-.27.15-.36s0,.07.07.11Z"/></svg>