<svg id="Layer_1" data-name="Layer 1" xmlns="http://www.w3.org/2000/svg" viewBox="0 0 1650 1536"><defs><style>.cls-1{fill:#fff;}</style></defs><title>graphics</title><polygon class="cls-1" points="1607.33 461.35 1441.68 626.99 823.93 9.25 630.88 202.31 662.03 233.44 823.93 71.52 861.38 108.96 860.98 109.4 865.89 114.31 866.28 113.88 875.84 123.44 875.84 124.27 884 132.42 884 131.6 1410.55 658.12 1222.49 846.2 1253.63 877.33 1638.46 492.48 1607.33 461.35"/><polygon class="cls-1" points="826.38 1248.29 239.77 661.67 427.81 473.62 396.68 442.48 11.84 827.32 42.99 858.47 208.64 692.81 826.38 1310.57 1019.43 1117.52 988.28 1086.37 826.38 1248.29"/><path class="cls-1" d="M520.15,673.84c-8.19,0-10.81-1.31-11.56-2.4s-1.7-5-1.7-17.18.92-16,1.7-17.15,3.37-2.41,11.56-2.41a47.47,47.47,0,0,1,5.63.29v-5.65c-1.7-.13-3.54-.21-5.63-.21-9,0-14.36,1.21-16.41,3.68s-3,8.88-3,19.71c0,12.47.89,19.73,2.71,22.21,2.36,3.16,7.83,4.69,16.72,4.69,2.07,0,3.93-.1,5.63-.27v-5.6A47.47,47.47,0,0,1,520.15,673.84Z"/><polygon class="cls-1" points="941.6 890.56 941.6 841.26 933.03 841.26 919.5 855.93 919.18 856.29 923.33 860.21 935.17 847.07 935.17 890.56 941.6 890.56"/><polygon class="cls-1" points="906.69 890.56 906.69 841.26 898.13 841.26 884.61 855.93 884.28 856.29 888.42 860.21 900.27 847.07 900.27 890.56 906.69 890.56"/><polygon class="cls-1" points="570.41 855.93 570.09 856.29 574.23 860.21 586.07 847.07 586.07 890.56 592.5 890.56 592.5 841.26 583.94 841.26 570.41 855.93"/><polygon class="cls-1" points="532.84 855.93 532.52 856.29 536.66 860.21 548.5 847.07 548.5 890.56 554.93 890.56 554.93 841.26 546.37 841.26 532.84 855.93"/><polygon class="cls-1" points="673.31 847.07 673.31 890.56 679.74 890.56 679.74 841.26 671.18 841.26 657.66 855.93 657.33 856.29 661.47 860.21 673.31 847.07"/><path class="cls-1" d="M626.68,890.56c8.88,0,14.34-1.54,16.71-4.7,1.83-2.47,2.71-9.17,2.71-20.47,0-11.85-.94-18.83-2.85-21.34s-7.38-3.79-16.57-3.79c-9,0-14.36,1.21-16.41,3.69s-3,8.88-3,19.7c0,12.49.89,19.75,2.72,22.21C612.34,889,617.8,890.56,626.68,890.56Zm-11.56-42.32c.76-1.09,3.38-2.4,11.56-2.4s10.79,1.31,11.54,2.4,1.72,5,1.72,17.15-.94,16.05-1.72,17.18S634.85,885,626.68,885s-10.8-1.31-11.56-2.41-1.7-5-1.7-17.18S614.34,849.38,615.12,848.24Z"/><path class="cls-1" d="M696.63,844c-2,2.43-3,8.88-3,19.7,0,12.47.89,19.74,2.72,22.21,2.36,3.16,7.83,4.7,16.71,4.7s14.34-1.54,16.71-4.7c1.82-2.47,2.71-9.17,2.71-20.47,0-11.85-.93-18.83-2.86-21.34s-7.37-3.79-16.56-3.79C704,840.26,698.67,841.47,696.63,844Zm28,4.29c.78,1.14,1.7,5,1.7,17.15s-.92,16.05-1.7,17.18S721.21,885,713,885s-10.8-1.31-11.56-2.41c-1.12-1.64-1.7-7.43-1.7-17.18s.58-15.5,1.7-17.15c.76-1.09,3.38-2.4,11.56-2.4S723.82,847.15,724.58,848.24Z"/><path class="cls-1" d="M785.78,873.4c.13-2.42.2-5.12.2-8,0-11.85-.94-18.83-2.85-21.34s-7.39-3.79-16.58-3.79c-9,0-14.35,1.21-16.4,3.69s-3,8.88-3,19.7c0,12.47.89,19.74,2.71,22.21a1.93,1.93,0,0,0,.48.43l.23.19c2.66,2.74,7.91,4.08,16,4.08,8.88,0,14.35-1.54,16.72-4.7C784.6,884,785.43,880,785.78,873.4Zm-6.37,3.13c-.29,3.17-.74,5.2-1.31,6-.75,1.1-3.37,2.41-11.55,2.41a33.89,33.89,0,0,1-8.57-.85,5.4,5.4,0,0,1-3-1.56c-1.12-1.64-1.69-7.43-1.69-17.18s.57-15.5,1.69-17.15c.77-1.09,3.38-2.4,11.56-2.4s10.8,1.31,11.55,2.4,1.71,5,1.71,17.15C779.81,869.9,779.67,873.65,779.41,876.53Z"/><path class="cls-1" d="M713.82,539.85v-3.63a59.73,59.73,0,0,0-6.42-1.56v5.19Z"/><polygon class="cls-1" points="862.51 490.05 848.66 505.07 852.81 508.99 864.65 495.87 864.65 539.35 869.03 539.35 869.03 490.05 862.51 490.05"/><rect class="cls-1" x="937.37" y="533.31" width="2.91" height="6.03"/><rect class="cls-1" x="968" y="533.31" width="6.42" height="6.03"/><path class="cls-1" d="M1116.81,490.05h-2c.69.35,1.34.74,2,1.11Z"/><path class="cls-1" d="M521.13,534.27c-8.18,0-10.8-1.31-11.56-2.42-1.13-1.64-1.7-7.43-1.7-17.17,0-12.13.92-16,1.7-17.15s3.38-2.41,11.56-2.41c1.82,0,3.34.07,4.65.19v-5.58c-1.47-.1-2.93-.19-4.65-.19-9,0-14.35,1.21-16.41,3.69s-3,8.88-3,19.71c0,12.47.9,19.73,2.73,22.21,2.36,3.16,7.84,4.7,16.71,4.7,1.71,0,3.18-.11,4.65-.23v-5.54C524.47,534.19,523,534.27,521.13,534.27Z"/><path class="cls-1" d="M661,539.85c8.88,0,14.34-1.54,16.71-4.7a7.69,7.69,0,0,0,.9-1.84h-8.55a43.28,43.28,0,0,1-18.13,0H643.4a8.12,8.12,0,0,0,.88,1.84C646.65,538.31,652.13,539.85,661,539.85Z"/><path class="cls-1" d="M624.18,535.15a8.09,8.09,0,0,0,.9-1.84h-8.55a43.28,43.28,0,0,1-18.13,0h-4.29v4.29c3,1.46,7.4,2.25,13.35,2.25C616.34,539.85,621.82,538.31,624.18,535.15Z"/><path class="cls-1" d="M1009.2,539.85c8.87,0,14.34-1.54,16.71-4.7a7.38,7.38,0,0,0,.88-1.76c-1.58,0-3.09-.08-4.74-.08h-3.79a43.28,43.28,0,0,1-18.13,0h-8.52a7,7,0,0,0,.89,1.84C994.86,538.31,1000.32,539.85,1009.2,539.85Z"/><path class="cls-1" d="M1062.87,539.85a52.82,52.82,0,0,0,6.21-.33c-5.54-2.44-13.4-4.12-23.34-5.13a5.89,5.89,0,0,0,.42.76C1048.53,538.31,1054,539.85,1062.87,539.85Z"/><path class="cls-1" d="M819.31,775.46a44.94,44.94,0,0,1,6.26.4c2.88.41,4.66,1.08,5.29,2,.77,1.15,1.7,5,1.7,17.16s-.93,16-1.7,17.17c-.59.86-2.44,1.95-8,2.28-1.09.07-2.26.13-3.6.13-8.18,0-10.8-1.32-11.56-2.41-.94-1.37-1.49-5.65-1.65-12.67a61.3,61.3,0,0,1-5.57,8.41c.46,3.79,1.14,6.31,2.07,7.56,2.37,3.15,7.83,4.69,16.71,4.69.69,0,1.3,0,1.92-.09l1-.05c7.26-.34,11.78-1.83,13.83-4.55,1.82-2.46,2.71-9.15,2.71-20.47,0-11.85-.94-18.84-2.85-21.35-1.47-1.9-4.85-3-10.32-3.53-1.89-.17-4-.26-6.25-.26-1.2,0-2.16.08-3.23.12q-.52,2.88-1.15,5.63C816.19,775.53,817.61,775.46,819.31,775.46Z"/><polygon class="cls-1" points="518.76 785.05 518.42 785.4 522.56 789.33 525.78 785.76 525.78 777.42 518.76 785.05"/><polygon class="cls-1" points="522.54 575.01 522.22 575.36 525.78 578.74 525.78 571.49 522.54 575.01"/><polygon class="cls-1" points="1173.96 574.86 1178.11 578.79 1189.95 565.65 1189.95 609.14 1196.38 609.14 1196.38 559.84 1187.81 559.84 1174.29 574.51 1173.96 574.86"/><path class="cls-1" d="M734.69,574.86l4.14,3.93,2-2.22a65.15,65.15,0,0,0-.49-7.83L735,574.51Z"/><path class="cls-1" d="M807.69,604.94c.82-1.09,1.44-3.08,1.89-6a98.85,98.85,0,0,0,.82-14.44c0-3.74-.09-7-.29-9.74-.31,12.24-2,23.08-5.08,32.41A8.38,8.38,0,0,0,807.69,604.94Z"/><path class="cls-1" d="M633.64,677.36H605.3c3,1.71,7.63,2.56,14.16,2.56S630.68,679.07,633.64,677.36Z"/><path class="cls-1" d="M951.17,584.46c0-11.84-.94-18.81-2.85-21.33-1.51-2-5.16-3.14-11-3.57v5.64c3.84.45,5.38,1.33,5.93,2.12.78,1.14,1.7,5,1.7,17.14s-.92,16-1.7,17.18c-.55.8-2.09,1.69-5.93,2.14v5.59c5.59-.56,9.27-2,11.08-4.43S951.17,595.78,951.17,584.46Z"/><path class="cls-1" d="M1156,584.46c0,1.52,0,2.92,0,4.25.1,3.53.17,7.11.17,10.82,0,2.69,0,5.32-.08,7.92a9.23,9.23,0,0,0,3.42-2.51c1.83-2.47,2.71-9.16,2.71-20.48,0-11.83-.94-18.81-2.85-21.33-1-1.26-2.8-2.19-5.49-2.82q.5,3.84.88,7.87C1155.54,570.54,1156,576,1156,584.46Z"/><polygon class="cls-1" points="479.96 635.94 479.96 679.42 486.4 679.42 486.4 630.13 477.82 630.13 463.98 645.14 468.12 649.07 479.96 635.94"/><rect class="cls-1" x="668.8" y="677.36" width="6.42" height="2.06"/><path class="cls-1" d="M1152.7,648.57l11.83-13.13v43.49H1171V629.62h-8.57l-8.54,9.28c-.42,3.26-.9,6.39-1.43,9.41Z"/><path class="cls-1" d="M716.2,679.24c-4.56-.61-9.7-1.08-15.49-1.39a36.32,36.32,0,0,0,11.79,1.57C713.86,679.42,715,679.32,716.2,679.24Z"/><path class="cls-1" d="M861.57,671.44c-1.11-1.64-1.68-7.42-1.68-17.18s.57-15.51,1.68-17.15c.62-.88,2.51-1.9,7.46-2.26v-5.61c-4.42.23-7.77.85-9.94,1.88a6.42,6.42,0,0,0-2.35,1.69c-2,2.44-3,8.88-3,19.71,0,12.47.9,19.74,2.72,22.21a8.21,8.21,0,0,0,2.62,2.17c2.3,1.29,5.66,2.07,10,2.38v-5.59C864.07,673.32,862.19,672.32,861.57,671.44Z"/><polygon class="cls-1" points="670.21 713.23 668.63 714.94 672.77 718.87 684.61 705.73 684.61 749.21 691.04 749.21 691.04 699.91 682.48 699.91 670.21 713.23"/><path class="cls-1" d="M518.77,743.64c-8.18,0-10.81-1.31-11.56-2.42s-1.7-5-1.7-17.18.93-16,1.7-17.14,3.38-2.41,11.56-2.41a43.9,43.9,0,0,1,7,.46v-5.68a67.69,67.69,0,0,0-7-.35c-9,0-14.35,1.2-16.41,3.68s-3,8.89-3,19.71c0,12.47.89,19.73,2.72,22.2,2.36,3.17,7.83,4.7,16.71,4.7a51.25,51.25,0,0,0,7-.47v-5.57A43.68,43.68,0,0,1,518.77,743.64Z"/><path class="cls-1" d="M623,744.51c1.83-2.47,2.73-9.16,2.73-20.47,0-4-.13-7.54-.36-10.54-.43-5.63-1.25-9.16-2.51-10.8-2-2.54-7.36-3.78-16.57-3.78a42.13,42.13,0,0,0-12.18,1.38v8.25a5.78,5.78,0,0,1,.63-1.65c.76-1.1,3.38-2.41,11.55-2.41s10.8,1.31,11.56,2.42c.43.6,1,2.26,1.35,6.67.24,2.78.35,6.3.35,10.46,0,12.14-.92,16.05-1.71,17.18s-3.35,2.42-11.55,2.42-10.8-1.31-11.55-2.42a5.63,5.63,0,0,1-.63-1.59v7.85c2.94,1.11,6.88,1.73,12.18,1.73C615.18,749.21,620.64,747.67,623,744.51Z"/><path class="cls-1" d="M823.8,706.9c.77,1.14,1.7,5,1.7,17.14s-.93,16.05-1.7,17.18c-.63.91-2.37,1.57-5.09,2-.06,1.86-.07,3.78-.16,5.58.26,0,.53,0,.8-.06,4.78-.67,8-2.08,9.61-4.2,1.82-2.45,2.71-9.15,2.71-20.47,0-11.83-.93-18.81-2.85-21.34C827,700.33,822,699.14,814,699c.54,1.82,1.07,3.68,1.51,5.6C821.12,704.88,823.15,706,823.8,706.9Z"/><path class="cls-1" d="M1108.21,748.71h6.43V706.82c-2,.92-4.17,1.8-6.43,2.62Z"/><path class="cls-1" d="M1092.23,714.44l4.14,3.92,6.4-7.1c-3.16,1-6.52,1.85-10,2.65l-.17.18Z"/><polygon class="cls-1" points="1127.45 714.09 1127.12 714.44 1131.27 718.36 1143.11 705.23 1143.11 748.71 1149.54 748.71 1149.54 699.41 1140.97 699.41 1127.45 714.09"/><path class="cls-1" d="M967.44,724c0,12.14-.92,16.05-1.7,17.18s-3.37,2.42-11.56,2.42-10.8-1.31-11.55-2.42c-1.13-1.64-1.7-7.42-1.7-17.18,0-1.65,0-3.1.05-4.46h-3.61v24.74l.1.19c2.37,3.17,7.83,4.7,16.71,4.7s14.34-1.53,16.71-4.7c1.83-2.46,2.72-9.16,2.72-20.47,0-1.57,0-3-.05-4.46h-6.18C967.42,720.94,967.44,722.39,967.44,724Z"/><path class="cls-1" d="M1020.31,724c0,12.14-.93,16.05-1.7,17.18s-3.38,2.42-11.55,2.42-10.8-1.31-11.56-2.42c-1.13-1.64-1.69-7.42-1.69-17.18,0-1.61,0-3.06.05-4.46h-6.19c0,.89,0,1.77,0,2.73,0,12.48.9,19.75,2.73,22.2,2.37,3.17,7.83,4.7,16.7,4.7s14.34-1.53,16.72-4.7c1.82-2.45,2.7-9.14,2.7-20.47,0-1.63,0-3.15,0-4.6l-6.17.1C1020.29,720.9,1020.31,722.38,1020.31,724Z"/><path class="cls-1" d="M1075.31,724c0,12.14-.92,16.05-1.7,17.18s-3.37,2.42-11.55,2.42-10.81-1.31-11.57-2.42c-1.11-1.65-1.68-7.43-1.68-17.18,0-1.88,0-3.51.07-5-2.05.09-4.09.16-6.2.2,0,1,0,2,0,3.09,0,12.47.89,19.74,2.72,22.2,2.36,3.17,7.83,4.7,16.7,4.7s14.35-1.53,16.72-4.7c1.82-2.45,2.7-9.14,2.7-20.47q0-4.42-.17-7.95c-2,.31-4,.61-6.13.88C1075.27,719,1075.31,721.26,1075.31,724Z"/><polygon class="cls-1" points="763.44 401.48 763.44 352.18 754.86 352.18 741.35 366.86 741.02 367.21 745.16 371.13 757.01 358 757.01 401.48 763.44 401.48"/><polygon class="cls-1" points="612.11 358 612.11 401.48 618.53 401.48 618.53 352.18 609.97 352.18 596.45 366.86 596.12 367.21 600.26 371.13 612.11 358"/><polygon class="cls-1" points="852.15 401.48 852.15 352.18 843.58 352.18 830.05 366.86 829.73 367.21 833.88 371.13 845.72 358 845.72 401.48 852.15 401.48"/><polygon class="cls-1" points="886.16 401.48 886.16 352.18 877.59 352.18 864.07 366.86 863.74 367.21 867.88 371.13 879.72 358 879.72 401.48 886.16 401.48"/><polygon class="cls-1" points="948.35 366.86 948.02 367.21 952.16 371.13 964 358 964 401.48 970.43 401.48 970.43 352.18 961.87 352.18 948.35 366.86"/><polygon class="cls-1" points="997.71 358 997.71 401.48 1004.14 401.48 1004.14 352.18 995.58 352.18 982.06 366.86 981.73 367.21 985.87 371.13 997.71 358"/><polygon class="cls-1" points="1032.91 358 1032.91 401.48 1039.34 401.48 1039.34 352.18 1030.77 352.18 1017.25 366.86 1016.93 367.21 1021.07 371.13 1032.91 358"/><path class="cls-1" d="M654.63,402c8.88,0,14.34-1.54,16.7-4.69,1.83-2.48,2.72-9.18,2.72-20.48,0-11.85-.94-18.83-2.86-21.33s-7.38-3.79-16.56-3.79c-9,0-14.36,1.21-16.41,3.69s-3,8.87-3,19.7c0,12.47.88,19.73,2.7,22.21C640.28,400.45,645.74,402,654.63,402Zm-11.56-42.32c.76-1.09,3.37-2.4,11.56-2.4s10.79,1.31,11.54,2.4,1.71,5,1.71,17.15S667,392.86,666.17,394s-3.37,2.41-11.54,2.41-10.8-1.3-11.56-2.41c-1.13-1.64-1.7-7.42-1.7-17.18S641.94,361.31,643.07,359.66Z"/><path class="cls-1" d="M689.34,375.08c0,12.46.88,19.73,2.72,22.21,2.36,3.16,7.82,4.69,16.7,4.69s14.35-1.54,16.71-4.69c1.84-2.48,2.73-9.18,2.73-20.48,0-11.85-.94-18.83-2.87-21.33s-7.37-3.79-16.57-3.79c-9,0-14.35,1.21-16.4,3.69S689.34,364.26,689.34,375.08Zm7.87-15.42c.76-1.09,3.38-2.4,11.55-2.4s10.8,1.31,11.55,2.4,1.71,5,1.71,17.15-.92,16.05-1.71,17.18-3.35,2.41-11.55,2.41S698,395.1,697.21,394s-1.71-5-1.71-17.18S696.44,360.8,697.21,359.66Z"/><path class="cls-1" d="M781.64,355.38c-2,2.43-3,8.87-3,19.7,0,12.47.89,19.73,2.73,22.21,2.36,3.16,7.82,4.69,16.7,4.69s14.34-1.54,16.71-4.69c1.83-2.48,2.72-9.18,2.72-20.48,0-11.85-.94-18.83-2.87-21.33s-7.37-3.79-16.56-3.79C789.06,351.69,783.7,352.9,781.64,355.38Zm28,4.28c.77,1.14,1.7,5,1.7,17.15s-.93,16.05-1.7,17.18-3.38,2.41-11.55,2.41-10.79-1.3-11.55-2.41c-1.14-1.64-1.71-7.42-1.71-17.18s.57-15.5,1.71-17.14c.76-1.1,3.37-2.41,11.55-2.41S808.84,358.57,809.6,359.66Z"/><polygon class="cls-1" points="893.42 222.03 893.42 265.52 899.85 265.52 899.85 216.22 891.29 216.22 877.76 230.9 877.43 231.25 881.57 235.17 893.42 222.03"/><polygon class="cls-1" points="753.88 222.03 753.88 265.52 760.32 265.52 760.32 216.22 751.75 216.22 738.23 230.9 737.89 231.25 742.03 235.17 753.88 222.03"/><path class="cls-1" d="M795.92,266c8.88,0,14.34-1.54,16.71-4.7,1.82-2.46,2.71-9.16,2.71-20.48,0-11.84-.93-18.81-2.86-21.33s-7.37-3.79-16.56-3.79c-9,0-14.37,1.21-16.41,3.68s-3,8.89-3,19.71c0,12.48.9,19.75,2.73,22.21C781.57,264.48,787,266,795.92,266ZM784.35,223.7c.77-1.09,3.39-2.41,11.57-2.41s10.79,1.31,11.55,2.41,1.69,5,1.69,17.14-.92,16-1.69,17.19-3.38,2.41-11.55,2.41-10.8-1.31-11.57-2.42c-1.12-1.63-1.69-7.41-1.69-17.18S783.23,225.34,784.35,223.7Z"/><path class="cls-1" d="M827.94,239.11c0,12.49.9,19.75,2.72,22.21,2.36,3.16,7.83,4.7,16.71,4.7s14.35-1.54,16.72-4.7c1.81-2.47,2.7-9.17,2.7-20.48,0-11.84-.93-18.82-2.86-21.33s-7.37-3.79-16.56-3.79c-9,0-14.37,1.21-16.4,3.68S827.94,228.3,827.94,239.11Zm7.86-15.41c.76-1.09,3.39-2.41,11.57-2.41s10.8,1.31,11.55,2.41,1.7,5,1.7,17.14-.92,16-1.7,17.19-3.37,2.41-11.55,2.41-10.81-1.31-11.57-2.41-1.68-5-1.68-17.19S835,224.84,835.8,223.7Z"/><path class="cls-1" d="M824.83,205.91c8.88,0,14.35-1.54,16.71-4.71,1.83-2.46,2.71-9.16,2.71-20.47,0-11.85-.94-18.82-2.86-21.33s-7.37-3.79-16.56-3.79c-9,0-14.36,1.21-16.41,3.68s-3,8.9-3,19.71c0,12.49.89,19.75,2.71,22.2C810.48,204.37,815.94,205.91,824.83,205.91ZM813.27,163.6c.76-1.11,3.37-2.42,11.56-2.42s10.79,1.31,11.55,2.41,1.71,5,1.71,17.14-.94,16.05-1.71,17.18-3.37,2.42-11.55,2.42S814,199,813.27,197.91s-1.7-5-1.7-17.18S812.5,164.72,813.27,163.6Z"/><path class="cls-1" d="M900.32,375.08c0,12.47.88,19.73,2.71,22.21,2.37,3.16,7.83,4.69,16.7,4.69s14.36-1.54,16.71-4.69c1.83-2.48,2.72-9.18,2.72-20.48,0-11.85-.93-18.83-2.86-21.33s-7.38-3.79-16.57-3.79c-9,0-14.35,1.21-16.4,3.69S900.32,364.25,900.32,375.08Zm7.86-15.41c.76-1.1,3.38-2.41,11.55-2.41s10.8,1.31,11.56,2.4,1.7,5,1.7,17.15-.92,16.05-1.7,17.18-3.37,2.41-11.56,2.41-10.79-1.3-11.55-2.41-1.7-5-1.7-17.18S907.41,360.8,908.18,359.67Z"/><polygon class="cls-1" points="729.31 289.69 729.31 333.17 735.74 333.17 735.74 283.88 727.17 283.88 713.65 298.55 713.33 298.9 717.46 302.82 729.31 289.69"/><polygon class="cls-1" points="694.41 289.69 694.41 333.17 700.83 333.17 700.83 283.88 692.27 283.88 678.75 298.55 678.42 298.9 682.56 302.82 694.41 289.69"/><polygon class="cls-1" points="823.86 333.17 823.86 283.88 815.28 283.88 801.76 298.55 801.44 298.9 805.58 302.82 817.42 289.69 817.42 333.17 823.86 333.17"/><polygon class="cls-1" points="889.86 298.9 894 302.82 905.84 289.69 905.84 333.17 912.28 333.17 912.28 283.88 903.71 283.88 890.19 298.55 889.86 298.9"/><path class="cls-1" d="M750.33,306.77c0,12.47.89,19.74,2.71,22.2,2.36,3.17,7.83,4.71,16.72,4.71s14.34-1.54,16.7-4.71c1.83-2.46,2.73-9.16,2.73-20.47,0-11.84-.94-18.81-2.88-21.34s-7.36-3.78-16.55-3.78c-9,0-14.36,1.2-16.41,3.68S750.33,296,750.33,306.77Zm7.87-15.41c.75-1.1,3.37-2.41,11.56-2.41s10.79,1.31,11.54,2.41,1.7,5,1.7,17.14-.92,16.05-1.71,17.18-3.35,2.42-11.53,2.42-10.81-1.31-11.56-2.42-1.7-5-1.7-17.18S757.42,292.49,758.2,291.36Z"/><path class="cls-1" d="M841.63,287.06c-2,2.43-3,8.88-3,19.71,0,12.48.89,19.75,2.73,22.2,2.36,3.17,7.82,4.71,16.69,4.71s14.35-1.54,16.72-4.71c1.82-2.45,2.72-9.15,2.72-20.47,0-11.83-.93-18.81-2.87-21.34s-7.37-3.78-16.57-3.78C849,283.38,843.67,284.59,841.63,287.06Zm28,4.3c.77,1.14,1.7,5,1.7,17.14s-.93,16.05-1.7,17.18-3.36,2.42-11.56,2.42-10.8-1.31-11.55-2.42-1.69-5-1.69-17.18.92-16,1.69-17.14S849.85,289,858,289,868.83,290.26,869.58,291.36Z"/><path class="cls-1" d="M946.15,333.68c8.89,0,14.35-1.54,16.71-4.71,1.83-2.46,2.72-9.16,2.72-20.47,0-11.84-.94-18.81-2.87-21.34s-7.37-3.78-16.56-3.78c-9,0-14.35,1.2-16.41,3.68s-3,8.9-3,19.71c0,12.47.88,19.74,2.72,22.2C931.78,332.09,937.4,333.68,946.15,333.68ZM934.6,291.36c.76-1.1,3.38-2.41,11.55-2.41s10.8,1.31,11.55,2.41,1.71,5,1.71,17.14-.93,16.05-1.72,17.18-3.35,2.42-11.54,2.42-10.79-1.31-11.55-2.42-1.71-5-1.71-17.18S933.83,292.49,934.6,291.36Z"/><polygon class="cls-1" points="851.05 855.93 850.73 856.29 854.87 860.21 866.7 847.07 866.7 890.56 873.13 890.56 873.13 841.26 864.57 841.26 851.05 855.93"/><polygon class="cls-1" points="1029.72 890.56 1029.72 841.26 1021.14 841.26 1007.62 855.93 1007.3 856.29 1011.45 860.21 1023.28 847.07 1023.28 890.56 1029.72 890.56"/><polygon class="cls-1" points="1096.05 855.93 1095.73 856.29 1099.86 860.21 1111.71 847.07 1111.71 890.56 1118.14 890.56 1118.14 841.26 1109.57 841.26 1096.05 855.93"/><path class="cls-1" d="M956.19,863.65c0,12.47.89,19.73,2.72,22.21,2.36,3.16,7.83,4.7,16.7,4.7s14.37-1.54,16.72-4.7c1.82-2.47,2.72-9.17,2.72-20.47,0-11.85-.94-18.83-2.88-21.34s-7.36-3.79-16.56-3.79c-9,0-14.35,1.21-16.4,3.69S956.19,852.82,956.19,863.65Zm7.87-15.41c.76-1.09,3.38-2.4,11.55-2.4s10.8,1.31,11.56,2.4,1.69,5,1.69,17.15-.92,16.05-1.69,17.18S983.8,885,975.61,885s-10.79-1.31-11.55-2.41c-1.12-1.64-1.7-7.43-1.7-17.18S962.94,849.89,964.06,848.24Z"/><path class="cls-1" d="M1063.88,840.26c-9,0-14.35,1.21-16.38,3.69s-3,8.87-3,19.7c0,12.49.89,19.75,2.72,22.21,2.36,3.16,7.82,4.7,16.69,4.7s14.36-1.54,16.72-4.7c1.82-2.46,2.72-9.16,2.72-20.47,0-11.85-.94-18.83-2.86-21.34S1073.08,840.26,1063.88,840.26Zm11.56,42.31c-.75,1.1-3.36,2.41-11.56,2.41s-10.79-1.31-11.55-2.41-1.69-5-1.69-17.18.92-16,1.69-17.15,3.38-2.4,11.55-2.4,10.81,1.31,11.56,2.4,1.7,5,1.7,17.15S1076.22,881.44,1075.44,882.57Z"/><path class="cls-1" d="M883.28,1048.3c-9,0-14.34,1.2-16.4,3.68s-3,8.88-3,19.71c0,12.46.89,19.73,2.72,22.2,2.36,3.16,7.83,4.7,16.7,4.7s14.36-1.54,16.71-4.7c1.83-2.47,2.73-9.16,2.73-20.47,0-11.84-.94-18.82-2.87-21.34S892.48,1048.3,883.28,1048.3Zm11.55,42.3c-.75,1.11-3.35,2.42-11.55,2.42s-10.8-1.31-11.55-2.42-1.7-5-1.7-17.18.93-16,1.7-17.14,3.38-2.41,11.55-2.41,10.8,1.31,11.56,2.41,1.69,5,1.69,17.14C896.53,1083.18,896,1089,894.83,1090.6Z"/><polygon class="cls-1" points="595.63 426.57 595.63 470.06 602.05 470.06 602.05 420.76 593.48 420.76 579.96 435.43 579.64 435.78 583.78 439.7 595.63 426.57"/><polygon class="cls-1" points="613.93 435.28 618.09 439.21 629.92 426.07 629.92 469.56 636.36 469.56 636.36 420.25 627.78 420.25 614.27 434.93 613.93 435.28"/><polygon class="cls-1" points="866.11 469.56 866.11 420.25 857.56 420.25 844.03 434.93 843.7 435.28 847.84 439.21 859.69 426.07 859.69 469.56 866.11 469.56"/><polygon class="cls-1" points="953.36 469.56 953.36 420.25 944.8 420.25 931.28 434.93 930.95 435.28 935.08 439.21 946.93 426.07 946.93 469.56 953.36 469.56"/><path class="cls-1" d="M688.13,423.45c-2,2.43-3,8.88-3,19.7,0,12.47.9,19.73,2.71,22.21,2.37,3.16,7.85,4.7,16.72,4.7s14.34-1.54,16.71-4.7c1.83-2.47,2.72-9.17,2.72-20.47,0-11.85-.93-18.83-2.86-21.34s-7.38-3.79-16.57-3.79C695.54,419.76,690.17,421,688.13,423.45Zm28,4.29c.77,1.13,1.69,5,1.69,17.15s-.92,16-1.69,17.18-3.37,2.41-11.55,2.41-10.81-1.31-11.56-2.41c-1.12-1.65-1.69-7.43-1.69-17.18s.57-15.51,1.69-17.15c.75-1.1,3.37-2.41,11.56-2.41S715.33,426.64,716.08,427.74Z"/><path class="cls-1" d="M547.82,470.06c8.89,0,14.34-1.54,16.71-4.7,1.83-2.47,2.73-9.17,2.73-20.47,0-11.85-1-18.83-2.87-21.34s-7.38-3.79-16.57-3.79c-9,0-14.35,1.21-16.41,3.69s-3,8.88-3,19.7c0,12.47.88,19.73,2.71,22.21C533.48,468.52,538.94,470.06,547.82,470.06Zm-11.55-42.32c.75-1.1,3.37-2.41,11.55-2.41s10.8,1.31,11.56,2.41,1.69,5,1.69,17.15-.92,16-1.69,17.18-3.37,2.41-11.56,2.41-10.8-1.31-11.55-2.41c-1.13-1.65-1.7-7.43-1.7-17.18S535.14,429.38,536.27,427.74Z"/><path class="cls-1" d="M900.3,470.06c8.87,0,14.33-1.54,16.7-4.7,1.83-2.47,2.71-9.17,2.71-20.47,0-11.85-.93-18.83-2.85-21.34s-7.38-3.79-16.56-3.79c-9,0-14.37,1.21-16.42,3.69s-3,8.88-3,19.7c0,12.49.89,19.74,2.73,22.21C886,468.52,891.42,470.06,900.3,470.06Zm-11.57-42.32c.76-1.1,3.39-2.41,11.57-2.41s10.79,1.31,11.55,2.41,1.7,5,1.7,17.15-.93,16-1.7,17.18-3.38,2.41-11.55,2.41-10.81-1.31-11.57-2.41S887,457,887,444.89,888,428.87,888.73,427.74Z"/><path class="cls-1" d="M986.64,419.76c-9,0-14.36,1.21-16.4,3.69s-3,8.88-3,19.7c0,12.47.89,19.73,2.72,22.21,2.36,3.16,7.83,4.7,16.7,4.7s14.35-1.54,16.72-4.7c1.81-2.45,2.71-9.15,2.71-20.47,0-11.85-.94-18.83-2.86-21.34S995.83,419.76,986.64,419.76Zm11.56,42.31c-.75,1.1-3.37,2.41-11.56,2.41s-10.8-1.31-11.56-2.41c-1.12-1.65-1.69-7.43-1.69-17.18s.57-15.51,1.69-17.15c.76-1.1,3.38-2.41,11.56-2.41s10.8,1.31,11.56,2.41,1.69,5,1.69,17.15S999,460.93,998.2,462.07Z"/><path class="cls-1" d="M811.28,470.06c8.89,0,14.35-1.54,16.72-4.7,1.82-2.48,2.71-9.18,2.71-20.47,0-11.86-.93-18.84-2.86-21.34s-7.38-3.79-16.57-3.79c-9,0-14.35,1.21-16.4,3.69s-3,8.88-3,19.7c0,12.48.89,19.74,2.72,22.21C796.94,468.52,802.41,470.06,811.28,470.06Zm-11.56-42.32c.77-1.1,3.38-2.41,11.56-2.41s10.8,1.31,11.55,2.41c1.12,1.64,1.69,7.42,1.69,17.15s-.57,15.53-1.69,17.18c-.75,1.1-3.36,2.41-11.55,2.41s-10.8-1.31-11.56-2.41S798,457,798,444.89,799,428.87,799.72,427.74Z"/><polygon class="cls-1" points="670.07 469.56 670.07 420.25 661.5 420.25 647.98 434.93 647.64 435.28 651.79 439.21 663.63 426.07 663.63 469.56 670.07 469.56"/><path class="cls-1" d="M741.05,465.36c2.36,3.16,7.83,4.7,16.7,4.7s14.36-1.54,16.72-4.7c1.82-2.47,2.72-9.17,2.72-20.47,0-11.85-.94-18.83-2.88-21.34s-7.36-3.79-16.56-3.79c-9,0-14.35,1.21-16.4,3.69s-3,8.88-3,19.7C738.34,455.63,739.22,462.89,741.05,465.36Zm5.15-37.62c.76-1.1,3.38-2.41,11.55-2.41s10.81,1.31,11.56,2.41,1.7,5,1.7,17.15-.92,16-1.71,17.18-3.35,2.41-11.55,2.41-10.8-1.31-11.55-2.41-1.7-5-1.7-17.18S745.42,428.87,746.2,427.74Z"/><path class="cls-1" d="M1020.74,443.15c0,12.47.89,19.74,2.72,22.21,2.37,3.16,7.83,4.7,16.71,4.7s14.34-1.54,16.71-4.7c1.83-2.47,2.71-9.16,2.71-20.47,0-11.85-.93-18.83-2.85-21.34s-7.39-3.79-16.57-3.79c-9,0-14.36,1.21-16.4,3.69S1020.74,432.33,1020.74,443.15Zm7.87-15.41c.77-1.1,3.38-2.41,11.56-2.41s10.79,1.31,11.55,2.41,1.7,5,1.7,17.15-.92,16-1.7,17.18-3.37,2.41-11.55,2.41-10.8-1.31-11.56-2.41c-1.13-1.65-1.7-7.43-1.7-17.18S1027.48,429.38,1028.61,427.74Z"/><path class="cls-1" d="M842.53,979.1c-9,0-14.36,1.21-16.41,3.69s-3,8.89-3,19.7c0,12.47.89,19.73,2.72,22.21,2.36,3.16,7.83,4.7,16.71,4.7s14.34-1.54,16.71-4.7c1.84-2.48,2.72-9.18,2.72-20.48,0-11.83-.94-18.81-2.87-21.33S851.73,979.1,842.53,979.1Zm11.54,42.3c-.75,1.1-3.35,2.42-11.54,2.42s-10.8-1.32-11.55-2.42-1.71-5-1.71-17.18.93-16,1.71-17.14,3.36-2.4,11.55-2.4,10.79,1.3,11.54,2.4,1.72,5,1.72,17.14S854.85,1020.27,854.07,1021.4Z"/><path class="cls-1" d="M949.28,979.1c-9,0-14.34,1.21-16.41,3.69s-3,8.87-3,19.7c0,12.47.88,19.74,2.72,22.21,2.36,3.16,7.82,4.7,16.7,4.7s14.34-1.54,16.71-4.7c1.83-2.47,2.72-9.16,2.72-20.48,0-11.84-.94-18.82-2.86-21.33S958.48,979.1,949.28,979.1Zm11.55,42.3c-.75,1.1-3.36,2.42-11.55,2.42s-10.79-1.32-11.55-2.42-1.71-5-1.71-17.18.94-16,1.71-17.13,3.38-2.41,11.55-2.41,10.8,1.3,11.55,2.4,1.7,5,1.7,17.14S961.61,1020.27,960.83,1021.4Z"/><path class="cls-1" d="M895.75,979.1c-9,0-14.34,1.21-16.4,3.69s-3,8.9-3,19.7c0,12.47.89,19.73,2.72,22.21,2.37,3.16,7.83,4.7,16.7,4.7s14.36-1.54,16.72-4.7c1.83-2.49,2.72-9.18,2.72-20.48,0-11.83-.94-18.81-2.87-21.33S905,979.1,895.75,979.1Zm11.55,42.3c-.75,1.1-3.36,2.42-11.55,2.42s-10.79-1.32-11.55-2.42-1.7-5-1.7-17.18.92-16,1.7-17.14,3.37-2.4,11.55-2.4,10.8,1.3,11.55,2.4,1.72,5,1.72,17.14S908.08,1020.27,907.3,1021.4Z"/><path class="cls-1" d="M1094.28,470.06c8.88,0,14.34-1.54,16.71-4.7,1.83-2.47,2.71-9.16,2.71-20.47,0-11.85-.93-18.82-2.85-21.34s-7.38-3.79-16.57-3.79c-9,0-14.36,1.21-16.4,3.69s-3,8.88-3,19.7c0,12.48.89,19.74,2.72,22.21C1079.94,468.52,1085.41,470.06,1094.28,470.06Zm-11.55-42.32c.76-1.1,3.38-2.41,11.55-2.41s10.79,1.31,11.55,2.41,1.71,5,1.71,17.15-.94,16-1.71,17.18-3.36,2.41-11.55,2.41c-6.57,0-10.46-.81-11.55-2.41-.78-1.14-1.7-5-1.7-17.18S1082,428.87,1082.73,427.74Z"/><polygon class="cls-1" points="830.49 495.87 830.49 539.35 836.92 539.35 836.92 490.05 828.36 490.05 814.84 504.71 814.51 505.07 818.65 508.99 830.49 495.87"/><polygon class="cls-1" points="619.2 770.88 612.27 778.4 619.81 778.4 621.35 776.7 621.35 778.4 627.77 778.4 627.77 770.88 619.2 770.88"/><path class="cls-1" d="M707.48,770.38l-6.77,7.35c2.77-.1,5.42-.25,7.93-.46l1-1.07v1c2.25-.21,4.4-.44,6.43-.74v-6.06Z"/><polygon class="cls-1" points="1062.15 785.05 1061.83 785.4 1065.96 789.33 1077.81 776.2 1077.81 819.68 1084.23 819.68 1084.23 770.38 1075.67 770.38 1062.15 785.05"/><polygon class="cls-1" points="993.56 819.68 993.56 770.38 985 770.38 971.48 785.05 971.15 785.4 975.28 789.33 987.13 776.2 987.13 819.68 993.56 819.68"/><polygon class="cls-1" points="862.43 770.38 848.91 785.05 848.58 785.4 852.71 789.33 864.56 776.2 864.56 819.68 869.03 819.68 869.03 770.38 862.43 770.38"/><path class="cls-1" d="M484.43,769.38c-9,0-14.35,1.21-16.4,3.69s-3,8.88-3,19.71c0,12.47.89,19.73,2.72,22.19,2.37,3.17,7.83,4.71,16.7,4.71s14.35-1.54,16.71-4.71c1.84-2.46,2.72-9.16,2.72-20.47,0-11.84-.93-18.81-2.86-21.33S493.62,769.38,484.43,769.38ZM496,811.69c-.75,1.1-3.36,2.41-11.55,2.41s-10.79-1.31-11.55-2.41c-1.13-1.65-1.7-7.43-1.7-17.19,0-12.12.93-16,1.7-17.14s3.37-2.4,11.55-2.4,10.8,1.3,11.55,2.4,1.71,5,1.71,17.14S496.76,810.55,496,811.69Z"/><path class="cls-1" d="M661.35,769.88c-9,0-14.35,1.21-16.4,3.69a11.37,11.37,0,0,0-1.92,4.84h6.49a4,4,0,0,1,.27-.55c.77-1.1,3.38-2.4,11.56-2.4s10.79,1.3,11.55,2.4c.08.12.15.28.24.45l6.47-.14a11.63,11.63,0,0,0-1.69-4.5C676,771.13,670.55,769.88,661.35,769.88Z"/><path class="cls-1" d="M1044.6,815.49c1.83-2.47,2.72-9.17,2.72-20.47,0-11.84-.93-18.82-2.85-21.35s-7.4-3.79-16.58-3.79c-9,0-14.35,1.21-16.4,3.69s-3,8.88-3,19.71c0,12.47.89,19.74,2.72,22.21,2.37,3.15,7.83,4.69,16.7,4.69S1042.23,818.64,1044.6,815.49Zm-28.26-3.3c-1.13-1.65-1.7-7.43-1.7-17.17s.57-15.51,1.7-17.15c.76-1.1,3.39-2.41,11.55-2.41s10.79,1.31,11.55,2.4c1.14,1.65,1.71,7.42,1.71,17.16s-.57,15.52-1.71,17.17c-.76,1.1-3.37,2.41-11.55,2.41S1017.1,813.29,1016.34,812.19Z"/><polygon class="cls-1" points="1150.54 785.05 1150.22 785.4 1154.36 789.33 1166.2 776.2 1166.2 819.68 1172.63 819.68 1172.63 770.38 1164.07 770.38 1150.54 785.05"/><path class="cls-1" d="M1118.69,769.88c-9,0-14.36,1.21-16.41,3.69s-3,8.88-3,19.71c0,12.47.88,19.73,2.71,22.21,2.37,3.15,7.83,4.69,16.71,4.69s14.34-1.54,16.71-4.69c1.82-2.47,2.72-9.17,2.72-20.47,0-11.84-.94-18.82-2.86-21.35S1127.88,769.88,1118.69,769.88Zm11.55,42.31c-.76,1.1-3.37,2.41-11.55,2.41s-10.8-1.31-11.56-2.41-1.7-5-1.7-17.17.93-16,1.7-17.15,3.39-2.41,11.56-2.41,10.79,1.31,11.55,2.4,1.7,5,1.7,17.16S1131,811.05,1130.24,812.19Z"/><polygon class="cls-1" points="628.17 566.15 628.17 609.64 634.6 609.64 634.6 560.33 626.02 560.33 612.52 575.01 612.19 575.36 616.32 579.29 628.17 566.15"/><polygon class="cls-1" points="662.47 566.15 662.47 609.64 668.89 609.64 668.89 560.33 660.33 560.33 646.82 575.01 646.49 575.36 650.62 579.29 662.47 566.15"/><polygon class="cls-1" points="449.49 565.65 449.49 609.14 455.91 609.14 455.91 559.84 447.34 559.84 433.83 574.51 433.5 574.86 437.64 578.79 449.49 565.65"/><polygon class="cls-1" points="415.14 565.65 415.14 609.14 421.56 609.14 421.56 559.84 413 559.84 399.48 574.51 399.15 574.86 403.29 578.79 415.14 565.65"/><polygon class="cls-1" points="845 609.14 845 559.84 836.44 559.84 822.92 574.51 822.59 574.86 826.73 578.79 838.57 565.65 838.57 609.14 845 609.14"/><polygon class="cls-1" points="963.59 574.51 963.26 574.86 967.4 578.79 979.25 565.65 979.25 609.14 985.67 609.14 985.67 559.84 977.11 559.84 963.59 574.51"/><polygon class="cls-1" points="998.48 574.51 998.16 574.86 1002.3 578.79 1014.15 565.65 1014.15 609.14 1020.57 609.14 1020.57 559.84 1012.01 559.84 998.48 574.51"/><path class="cls-1" d="M1074,584.46c0-11.84-.94-18.81-2.87-21.33s-7.36-3.79-16.56-3.79c-9,0-14.36,1.21-16.39,3.68s-3,8.89-3,19.71c0,12.48.9,19.74,2.72,22.21,2.37,3.16,7.83,4.7,16.71,4.7s14.34-1.54,16.71-4.7C1073.14,602.47,1074,595.78,1074,584.46Zm-7.87,17.18c-.76,1.1-3.38,2.42-11.56,2.42s-10.8-1.32-11.56-2.42-1.69-5-1.69-17.18.92-16,1.69-17.13,3.39-2.41,11.56-2.41,10.8,1.3,11.56,2.4c1.12,1.65,1.69,7.41,1.69,17.14S1067.29,600,1066.17,601.64Z"/><path class="cls-1" d="M1230.26,609.64c8.88,0,14.34-1.54,16.71-4.7,1.83-2.47,2.71-9.16,2.71-20.48,0-11.84-.93-18.81-2.85-21.33s-7.38-3.79-16.57-3.79c-9,0-14.36,1.21-16.4,3.68s-3,8.89-3,19.71c0,12.48.89,19.74,2.72,22.21C1215.92,608.1,1221.39,609.64,1230.26,609.64Zm-11.56-42.32c.76-1.1,3.37-2.4,11.56-2.4s10.8,1.3,11.55,2.4,1.7,5,1.7,17.14-.92,16-1.69,17.18-3.39,2.42-11.56,2.42-10.8-1.32-11.56-2.42c-1.13-1.63-1.69-7.41-1.69-17.18S1217.57,569,1218.7,567.32Z"/><polygon class="cls-1" points="447.58 679.42 454.01 679.42 454.01 630.13 445.45 630.13 431.93 644.79 431.6 645.14 435.74 649.07 447.58 635.94 447.58 679.42"/><polygon class="cls-1" points="957.42 926.31 957.1 926.66 961.23 930.59 973.07 917.46 973.07 960.94 979.51 960.94 979.51 911.64 970.94 911.64 957.42 926.31"/><polygon class="cls-1" points="991.73 926.31 991.4 926.66 995.53 930.59 1007.38 917.46 1007.38 960.94 1013.81 960.94 1013.81 911.64 1005.25 911.64 991.73 926.31"/><polygon class="cls-1" points="1026.33 926.31 1026 926.66 1030.14 930.59 1041.98 917.46 1041.98 960.94 1048.4 960.94 1048.4 911.64 1039.85 911.64 1026.33 926.31"/><polygon class="cls-1" points="999.43 629.62 985.91 644.3 985.58 644.65 989.73 648.57 1001.57 635.44 1001.57 662.06 1007.99 662.06 1007.99 629.62 999.43 629.62"/><polygon class="cls-1" points="1237.15 644.3 1236.82 644.65 1240.96 648.57 1252.8 635.44 1252.8 678.92 1259.24 678.92 1259.24 629.62 1250.67 629.62 1237.15 644.3"/><path class="cls-1" d="M347.27,629.13c-9,0-14.35,1.21-16.4,3.68s-3,8.88-3,19.71c0,12.47.89,19.74,2.72,22.21,2.36,3.16,7.83,4.69,16.7,4.69s14.35-1.53,16.71-4.69c1.83-2.47,2.73-9.17,2.73-20.47,0-11.85-.94-18.83-2.87-21.35S356.47,629.13,347.27,629.13Zm11.56,42.31c-.76,1.09-3.37,2.4-11.56,2.4s-10.79-1.31-11.55-2.4-1.7-5.05-1.7-17.18.93-16,1.7-17.15,3.39-2.41,11.55-2.41,10.8,1.31,11.56,2.41,1.7,5,1.7,17.15S359.6,670.3,358.83,671.44Z"/><path class="cls-1" d="M418,674.73c1.83-2.48,2.73-9.18,2.73-20.47,0-11.85-.95-18.83-2.87-21.35s-7.36-3.78-16.57-3.78c-9,0-14.35,1.21-16.4,3.68s-3,8.88-3,19.71c0,12.47.88,19.74,2.72,22.21,2.36,3.16,7.82,4.69,16.7,4.69S415.59,677.89,418,674.73Zm-28.26-3.29c-.77-1.14-1.7-5.05-1.7-17.18s.93-16,1.7-17.15,3.38-2.41,11.55-2.41S412,636,412.8,637.11s1.7,5,1.7,17.15-.92,16-1.71,17.18-3.36,2.4-11.55,2.4S390.45,672.53,389.69,671.44Z"/><path class="cls-1" d="M818.36,679.42c8.88,0,14.34-1.53,16.71-4.69,1.83-2.47,2.71-9.17,2.71-20.47,0-11.85-.94-18.83-2.85-21.35s-7.38-3.78-16.57-3.78c-9,0-14.36,1.21-16.41,3.68s-3,8.88-3,19.71c0,12.12.84,19.27,2.57,21.94l.37.46C804.32,677.93,809.69,679.42,818.36,679.42Zm-11.57-42.31c.78-1.1,3.39-2.41,11.57-2.41s10.79,1.31,11.55,2.41,1.7,5,1.7,17.15-.93,16-1.7,17.18-3.38,2.4-11.55,2.4-10.8-1.31-11.57-2.4-1.69-5-1.69-17.18S806,638.25,806.79,637.11Z"/><path class="cls-1" d="M1039.82,629.62,1026.3,644.3l-.32.35,4.14,3.92L1042,635.44v25.43c2.24-.23,4.37-.49,6.41-.77V629.62Z"/><path class="cls-1" d="M973.52,632.91c-2-2.54-7.37-3.78-16.56-3.78-9,0-14.37,1.21-16.41,3.68s-3,8.88-3,19.71c0,3.64.09,6.78.25,9.54h6.1c-.11-2.23-.18-4.81-.18-7.8,0-9.74.58-15.51,1.7-17.15.76-1.1,3.39-2.41,11.56-2.41s10.79,1.31,11.56,2.41,1.69,5,1.69,17.15c0,3.12-.06,5.68-.16,7.8h6.16c.11-2.31.18-4.89.18-7.8C976.39,642.41,975.45,635.43,973.52,632.91Z"/><path class="cls-1" d="M1205.73,629.13c-9,0-14.36,1.21-16.4,3.68s-3,8.88-3,19.71c0,12.47.88,19.74,2.71,22.21,2.37,3.16,7.83,4.69,16.71,4.69s14.34-1.53,16.71-4.69c1.82-2.47,2.72-9.16,2.72-20.47,0-11.85-.94-18.83-2.86-21.35S1214.92,629.13,1205.73,629.13Zm11.57,42.3c-.77,1.1-3.39,2.41-11.57,2.41s-10.8-1.31-11.56-2.4c-1.12-1.65-1.69-7.43-1.69-17.18s.57-15.51,1.69-17.15c.76-1.1,3.39-2.41,11.56-2.41s10.79,1.31,11.56,2.41,1.69,5,1.69,17.15S1218.07,670.3,1217.3,671.43Z"/><path class="cls-1" d="M1310.85,632.91c-2-2.54-7.38-3.78-16.57-3.78-9,0-14.36,1.21-16.4,3.68s-3,8.88-3,19.71c0,12.47.89,19.74,2.73,22.21,2.37,3.16,7.83,4.69,16.7,4.69s14.34-1.53,16.71-4.69c1.83-2.47,2.72-9.16,2.72-20.47C1313.71,642.41,1312.77,635.43,1310.85,632.91Zm-5,38.52c-.76,1.1-3.38,2.41-11.56,2.41s-10.79-1.31-11.56-2.4c-1.12-1.65-1.69-7.43-1.69-17.18s.57-15.51,1.69-17.15c.77-1.1,3.38-2.41,11.56-2.41s10.79,1.31,11.55,2.41,1.71,5,1.71,17.15S1306.61,670.3,1305.84,671.43Z"/><polygon class="cls-1" points="749.24 1029.4 755.67 1029.4 755.67 980.09 747.11 980.09 733.58 994.77 733.26 995.12 737.4 999.05 749.24 985.91 749.24 1029.4"/><path class="cls-1" d="M702.17,979.1c-9,0-14.36,1.21-16.4,3.69s-3,8.88-3,19.7c0,12.47.89,19.74,2.71,22.21,2.37,3.16,7.84,4.7,16.72,4.7s14.34-1.54,16.71-4.7c1.83-2.47,2.71-9.16,2.71-20.48,0-11.84-.94-18.82-2.85-21.33S711.35,979.1,702.17,979.1Zm11.55,42.3c-.76,1.1-3.37,2.42-11.55,2.42s-10.81-1.32-11.56-2.42c-1.13-1.64-1.7-7.42-1.7-17.18s.57-15.5,1.7-17.14c.75-1.1,3.37-2.4,11.56-2.4s10.79,1.3,11.55,2.4,1.7,5,1.7,17.14S714.49,1020.27,713.72,1021.4Z"/><path class="cls-1" d="M809.86,1004.22c0-11.84-.94-18.81-2.87-21.33s-7.36-3.79-16.55-3.79c-9,0-14.37,1.21-16.41,3.69s-3,8.89-3,19.7c0,12.48.9,19.74,2.72,22.21,2.36,3.16,7.83,4.7,16.72,4.7s14.33-1.54,16.7-4.7C809,1022.23,809.86,1015.54,809.86,1004.22ZM802,1021.4c-.76,1.1-3.38,2.42-11.55,2.42s-10.81-1.32-11.57-2.42c-1.12-1.62-1.68-7.4-1.68-17.18s.56-15.51,1.68-17.13c.76-1.11,3.38-2.41,11.57-2.41s10.79,1.3,11.55,2.4,1.69,5,1.69,17.14S802.76,1020.27,802,1021.4Z"/><polygon class="cls-1" points="770.08 960.94 770.08 911.64 761.52 911.64 748 926.31 747.67 926.66 751.81 930.59 763.65 917.46 763.65 960.94 770.08 960.94"/><polygon class="cls-1" points="804.68 960.94 804.68 911.64 796.12 911.64 782.59 926.31 782.27 926.66 786.4 930.59 798.25 917.46 798.25 960.94 804.68 960.94"/><polygon class="cls-1" points="870.53 926.66 874.67 930.59 886.52 917.46 886.52 960.94 892.94 960.94 892.94 911.64 884.39 911.64 870.85 926.31 870.53 926.66"/><polygon class="cls-1" points="660.02 926.31 659.68 926.66 663.83 930.59 675.67 917.46 675.67 960.94 682.1 960.94 682.1 911.64 673.53 911.64 660.02 926.31"/><path class="cls-1" d="M628.32,910.65c-9,0-14.37,1.21-16.4,3.68s-3,8.88-3,19.7c0,12.48.89,19.74,2.71,22.21,2.37,3.17,7.84,4.7,16.72,4.7s14.34-1.53,16.71-4.7c1.81-2.47,2.71-9.17,2.71-20.47,0-11.85-.94-18.83-2.86-21.34S637.5,910.65,628.32,910.65ZM639.86,953c-.75,1.1-3.37,2.41-11.54,2.41s-10.81-1.31-11.57-2.41-1.69-5-1.69-17.18.91-16,1.69-17.14,3.39-2.41,11.57-2.41,10.79,1.31,11.54,2.4,1.7,5,1.7,17.15S640.64,951.82,639.86,953Z"/><path class="cls-1" d="M733,914.43c-2-2.55-7.38-3.78-16.57-3.78-9,0-14.36,1.21-16.4,3.68s-3,8.88-3,19.7c0,12.48.88,19.74,2.71,22.21,2.37,3.17,7.83,4.7,16.71,4.7s14.34-1.53,16.71-4.7c1.83-2.46,2.72-9.15,2.72-20.47C735.86,923.92,734.91,916.94,733,914.43ZM728,953c-.76,1.1-3.37,2.41-11.55,2.41s-10.8-1.31-11.56-2.41c-1.12-1.65-1.7-7.42-1.7-17.18s.58-15.5,1.7-17.14c.76-1.1,3.38-2.41,11.56-2.41s10.79,1.31,11.55,2.4,1.7,5,1.7,17.15S728.76,951.82,728,953Z"/><path class="cls-1" d="M823.05,914.33c-2,2.44-3,8.88-3,19.7,0,12.48.89,19.74,2.72,22.21,2.37,3.17,7.82,4.7,16.7,4.7s14.35-1.54,16.72-4.7c1.82-2.46,2.71-9.15,2.71-20.47,0-11.85-.93-18.82-2.85-21.34s-7.4-3.78-16.58-3.78C830.44,910.65,825.09,911.86,823.05,914.33ZM851,918.62c.78,1.14,1.7,5,1.7,17.15S851.77,951.82,851,953s-3.36,2.41-11.54,2.41-10.79-1.31-11.56-2.41-1.7-5-1.7-17.18.92-16,1.7-17.14,3.38-2.41,11.56-2.41S850.24,917.53,851,918.62Z"/><path class="cls-1" d="M947.14,935.77c0-11.84-.93-18.82-2.86-21.34s-7.38-3.78-16.57-3.78c-9,0-14.35,1.21-16.4,3.68s-3,8.87-3,19.7c0,12.48.89,19.74,2.72,22.21,2.37,3.17,7.83,4.7,16.7,4.7s14.35-1.54,16.72-4.7C946.25,953.78,947.14,947.09,947.14,935.77ZM939.26,953c-.75,1.1-3.37,2.41-11.55,2.41s-10.8-1.31-11.56-2.41-1.7-5-1.7-17.18.92-16,1.7-17.14,3.39-2.41,11.56-2.41,10.8,1.31,11.55,2.4,1.7,5,1.7,17.15S940,951.82,939.26,953Z"/><polygon class="cls-1" points="809.34 1098.01 815.76 1098.01 815.76 1048.7 807.2 1048.7 793.67 1063.38 793.35 1063.73 797.5 1067.66 809.34 1054.52 809.34 1098.01"/><polygon class="cls-1" points="827.98 1063.38 827.66 1063.73 831.8 1067.66 843.64 1054.52 843.64 1098.01 850.06 1098.01 850.06 1048.7 841.5 1048.7 827.98 1063.38"/><path class="cls-1" d="M764,1047.71c-9,0-14.35,1.21-16.4,3.68s-3,8.88-3,19.71c0,12.47.89,19.74,2.72,22.21,2.38,3.16,7.84,4.7,16.71,4.7s14.34-1.54,16.71-4.7c1.83-2.47,2.72-9.17,2.72-20.48,0-11.84-.94-18.82-2.86-21.33S773.16,1047.71,764,1047.71Zm11.55,42.3c-.76,1.11-3.37,2.42-11.55,2.42s-10.79-1.31-11.55-2.42-1.71-5-1.71-17.18.92-16,1.71-17.14,3.37-2.41,11.55-2.41,10.79,1.31,11.55,2.4,1.7,5,1.7,17.15S776.29,1088.87,775.52,1090Z"/><path class="cls-1" d="M825.44,1116.61c-9,0-14.35,1.21-16.4,3.68s-3,8.88-3,19.71c0,12.48.9,19.74,2.73,22.21,2.37,3.16,7.82,4.69,16.7,4.69s14.35-1.54,16.72-4.69c1.82-2.47,2.71-9.16,2.71-20.47,0-11.85-.94-18.83-2.85-21.35S834.62,1116.61,825.44,1116.61Zm11.54,42.3c-.74,1.1-3.35,2.42-11.54,2.42s-10.79-1.32-11.56-2.42-1.7-5-1.7-17.17.92-16,1.7-17.15,3.38-2.41,11.56-2.41,10.8,1.31,11.55,2.41c1.13,1.64,1.7,7.42,1.7,17.15S838.12,1157.27,837,1158.91Z"/><polygon class="cls-1" points="867 748.71 867 699.41 858.43 699.41 844.91 714.09 844.59 714.44 848.73 718.36 860.57 705.23 860.57 748.71 867 748.71"/><polygon class="cls-1" points="1196.74 714.09 1196.42 714.44 1200.56 718.36 1212.39 705.23 1212.39 748.71 1218.83 748.71 1218.83 699.41 1210.26 699.41 1196.74 714.09"/><polygon class="cls-1" points="1229.87 714.09 1229.53 714.44 1233.67 718.36 1245.51 705.23 1245.51 748.71 1251.95 748.71 1251.95 699.41 1243.38 699.41 1229.87 714.09"/><path class="cls-1" d="M411,698.92c-9,0-14.35,1.2-16.4,3.68s-3,8.89-3,19.71c0,12.47.89,19.74,2.72,22.2,2.36,3.17,7.83,4.7,16.7,4.7s14.34-1.54,16.71-4.7c1.83-2.46,2.72-9.16,2.72-20.47,0-11.84-.93-18.81-2.86-21.34S420.14,698.92,411,698.92Zm11.55,42.3c-.75,1.11-3.36,2.42-11.55,2.42s-10.8-1.31-11.55-2.42c-1.13-1.64-1.7-7.42-1.7-17.18,0-12.12.93-16,1.7-17.14s3.37-2.41,11.55-2.41,10.8,1.31,11.55,2.41,1.71,5,1.71,17.14S423.27,740.09,422.5,741.22Z"/><path class="cls-1" d="M483,724c0-11.84-.93-18.81-2.86-21.34s-7.38-3.78-16.57-3.78c-9,0-14.35,1.2-16.4,3.68s-3,8.88-3,19.71c0,12.47.89,19.73,2.72,22.2,2.38,3.17,7.84,4.7,16.71,4.7s14.35-1.54,16.71-4.7C482.13,742.05,483,735.35,483,724Zm-7.88,17.18c-.75,1.11-3.36,2.42-11.55,2.42s-10.79-1.31-11.56-2.42c-1.12-1.64-1.69-7.42-1.69-17.18,0-12.12.92-16,1.69-17.14s3.38-2.41,11.56-2.41,10.8,1.31,11.55,2.41,1.7,5,1.7,17.14S475.92,740.09,475.14,741.22Z"/><path class="cls-1" d="M837.38,885.86c1.82-2.46,2.71-9.16,2.71-20.47,0-11.84-.93-18.82-2.86-21.34s-7.38-3.79-16.56-3.79a58.88,58.88,0,0,0-8.72.61c-4,.62-6.49,1.62-7.69,3.08-1.72,2.06-2.68,7-2.94,15.08-.05,1.45-.08,3-.08,4.62,0,12.48.89,19.75,2.73,22.21,2.36,3.16,7.82,4.7,16.7,4.7S835,889,837.38,885.86Zm-28.27-3.29c-1.13-1.64-1.7-7.42-1.7-17.18,0-8.12.41-13.51,1.19-15.95.14-.24.26-.5.39-.76s.19-.4.24-.52c1.23-1.54,5.07-2.32,11.44-2.32,8.18,0,10.79,1.31,11.55,2.4s1.7,5,1.7,17.15-.93,16.05-1.7,17.18S828.85,885,820.67,885,809.87,883.67,809.11,882.57Z"/><path class="cls-1" d="M1143.86,495.87v25.51a114.87,114.87,0,0,1,6.05,18h.38v-49.3h-8.57L1131,501.66c1.3,1.34,2.54,2.79,3.75,4.3Z"/><polygon class="cls-1" points="1180.03 495.87 1180.03 539.35 1186.45 539.35 1186.45 490.05 1177.89 490.05 1165 504.03 1164.04 505.07 1168.19 508.99 1180.03 495.87"/><path class="cls-1" d="M794.82,497.53c.55.81,1.17,3.07,1.49,8.57a69,69,0,0,1,6.34,12.95c0-1.38,0-2.83,0-4.37,0-11.85-.93-18.83-2.85-21.35s-7.38-3.79-16.57-3.79c-1.62,0-3,.09-4.37.17a52.26,52.26,0,0,1,8.12,5.53C792.25,495.58,794.19,496.63,794.82,497.53Z"/><polygon class="cls-1" points="480.23 495.87 480.23 539.35 486.66 539.35 486.66 490.05 478.09 490.05 464.25 505.07 468.38 508.99 480.23 495.87"/><path class="cls-1" d="M939.62,775.46c8.17,0,10.79,1.31,11.56,2.4s1.69,5,1.69,17.16-.92,16-1.69,17.17-3.38,2.41-11.56,2.41c-.82,0-1.54,0-2.25,0v5.51c.77,0,1.42.11,2.25.11,8.87,0,14.34-1.54,16.71-4.69,1.56-2.11,2.43-7.3,2.66-15.87,0-1.45.06-3,.06-4.6s0-3.22-.06-4.71c-.24-9-1.15-14.48-2.81-16.64-2-2.54-7.37-3.79-16.56-3.79-.83,0-1.47.06-2.25.08v5.54C938.08,775.47,938.8,775.46,939.62,775.46Z"/><path class="cls-1" d="M703.77,609.64c8.88,0,14.34-1.54,16.71-4.7,1.82-2.47,2.72-9.17,2.72-20.48a97.31,97.31,0,0,0-1-15.94,13.19,13.19,0,0,0-1.87-5.39c-1.25-1.64-4.09-2.72-8.68-3.3a61.18,61.18,0,0,0-7.88-.49c-9,0-14.37,1.21-16.4,3.68s-3,8.88-3,19.71c0,12.48.9,19.73,2.71,22.21C689.42,608.1,694.89,609.64,703.77,609.64Zm-11.56-42.32c.75-1.1,3.37-2.4,11.56-2.4s10.8,1.3,11.54,2.4,1.7,5,1.7,17.14-.92,16-1.7,17.18-3.36,2.42-11.54,2.42-10.81-1.32-11.56-2.42-1.7-5-1.7-17.18S691.43,568.46,692.21,567.32Z"/><path class="cls-1" d="M599.58,584.46c0-11.84-.93-18.82-2.86-21.33a6.85,6.85,0,0,0-2.61-1.84v45.87a8.36,8.36,0,0,0,2.75-2.22C598.69,602.47,599.58,595.77,599.58,584.46Z"/><path class="cls-1" d="M471.54,582.73c0,12.47.9,19.73,2.73,22.21,2.37,3.16,7.83,4.7,16.71,4.7.18,0,.35,0,.51,0l.37,0c8.4-.11,13.57-1.63,15.83-4.65,1.83-2.48,2.72-9.18,2.72-20.48,0-11.85-.94-18.82-2.86-21.33s-7-3.66-15.7-3.76c-.32,0-.56,0-.87,0-9,0-14.35,1.21-16.41,3.68S471.54,571.92,471.54,582.73Zm7.88-15.41c.76-1.1,3.37-2.4,11.56-2.4.31,0,.55,0,.86,0,7.57.1,10,1.34,10.69,2.37,1.12,1.65,1.69,7.41,1.69,17.14s-.57,15.54-1.7,17.18c-.69,1-3.11,2.29-10.68,2.39-.31,0-.55,0-.86,0-8.18,0-10.8-1.32-11.56-2.42s-1.7-5-1.7-17.18S478.64,568.46,479.42,567.32Z"/><path class="cls-1" d="M866.36,601.64c-.77-1.13-1.68-5-1.68-17.18s.91-16,1.68-17.13a4.67,4.67,0,0,1,2.67-1.48V560c-3.74.57-6.3,1.54-7.5,3-2,2.45-3,8.89-3,19.71,0,12.48.89,19.74,2.72,22.21,1.39,1.86,4,3.09,7.81,3.83v-5.64A4.72,4.72,0,0,1,866.36,601.64Z"/><path class="cls-1" d="M778.81,652.2v.65c0,.46,0,.92,0,1.41,0,1,0,1.82,0,2.69a64.66,64.66,0,0,1,6.09,3.14c.05-1.8.1-3.71.1-5.83,0-4.25-.13-8-.39-11.06a46.23,46.23,0,0,0-.77-5.64,60.66,60.66,0,0,1-5.62,3.71A95,95,0,0,1,778.81,652.2Z"/><path class="cls-1" d="M1069.47,654.26c0-9.74.56-15.51,1.68-17.15.78-1.1,3.39-2.41,11.57-2.41h.45c.47-1.72.87-3.58,1.25-5.52-.6,0-1.06-.06-1.7-.06-9,0-14.36,1.21-16.4,3.68s-3,8.88-3,19.71c0,1.51,0,3,0,4.31a43.07,43.07,0,0,0,6.14-2.47Z"/><polygon class="cls-1" points="637.56 713.22 635.96 714.94 640.1 718.87 651.95 705.73 651.95 749.21 658.36 749.21 658.36 699.91 649.79 699.91 637.56 713.22"/><polygon class="cls-1" points="1164.36 714.09 1164.04 714.44 1168.17 718.36 1180.02 705.23 1180.02 748.71 1186.45 748.71 1186.45 699.41 1177.89 699.41 1164.36 714.09"/><path class="cls-1" d="M709.5,702.6c-1.56,1.88-2.49,6.12-2.84,13-.11,2.06-.16,4.33-.16,6.74,0,12.48.88,19.75,2.71,22.2,2.36,3.17,7.82,4.7,16.7,4.7s14.35-1.54,16.71-4.7a2.75,2.75,0,0,0,.26-.42l.09-.18c1.6-2.84,2.37-9.34,2.37-19.87,0-11.85-.94-18.82-2.86-21.34s-7.39-3.78-16.57-3.78C716.93,698.92,711.57,700.12,709.5,702.6Zm28,4.31c.78,1.12,1.7,5,1.7,17.13,0,3.53-.08,6.6-.24,9.13-.27,4.33-.76,7-1.47,8.05s-3.34,2.42-11.54,2.42-10.8-1.31-11.55-2.42-1.7-5-1.7-17.18c0-2.69.05-5.26.17-7.64.3-6.44,1-8.72,1.53-9.5.76-1.1,3.38-2.41,11.55-2.41S736.71,705.8,737.46,706.91Z"/><path class="cls-1" d="M55.68,1513.88H14v-97.76H52.6c20.41,0,27.89,8.22,27.89,21.44v10c0,7-3.08,12-10.86,15.41A18.46,18.46,0,0,1,84,1481v9.54C84,1504.33,75.21,1513.88,55.68,1513.88Zm2.79-73.1c0-4.25-2.64-6.9-8.8-6.9H36v22.31H49.67c5.87,0,8.8-2.93,8.8-6.9ZM62,1481.59c0-5.44-3.37-8.22-9.24-8.22H36v22.75H49.67c6.9,0,12.32-1.47,12.32-8.52Z"/><path class="cls-1" d="M159.22,1485.7v28.18h-22V1485.7l-30.38-69.58h23l18.35,45.36,18.34-45.36h23Z"/><path class="cls-1" d="M264.66,1435.64v78.24h-22v-78.24H216.37v-19.52h74.56v19.52Z"/><path class="cls-1" d="M322.84,1513.88v-97.76h61.5v19.52H344.86v17.91h36.39v19.53H344.86v21.28h39.48v19.52Z"/><path class="cls-1" d="M512,1484.23H495.24v29.65h-22v-97.76h39.93c23.77,0,32.58,9.4,32.58,27.75v12.77C545.73,1475,535.75,1484.23,512,1484.23Zm11.74-38.31c0-7-2.49-10.28-11.74-10.28H495.24v29.51H512c9.69,0,11.74-3.67,11.74-10.72Z"/><path class="cls-1" d="M652.49,1416.12v69.28c0,14.83-9.24,29.95-36.84,29.95s-36.84-15.12-36.84-29.95v-69.28h22v67.23c0,7.92,3.81,12.48,14.82,12.48s14.83-4.56,14.83-12.48v-67.23Z"/><path class="cls-1" d="M720.06,1515.35c-11.3,0-23.19-2.5-31.55-6.32l3.67-17a92.87,92.87,0,0,0,28.18,4.69c11.3,0,13.5-2.2,13.5-10.42,0-8.81-.44-9.83-16.44-13.35-23.62-5.14-27.15-9.84-27.15-31,0-19.52,6.9-27.3,33.76-27.3a142.3,142.3,0,0,1,29.65,3.23l-2.2,18.49c-11.16-1.91-18.35-2.79-27.16-2.79-9.83,0-12,1.76-12,9,0,9.39.45,9.53,15.86,13.2,26.42,6.31,27.74,11.45,27.74,30.68S749.57,1515.35,720.06,1515.35Z"/><path class="cls-1" d="M845.47,1513.88v-39.34H813.91v39.34h-22v-97.76h22V1455h31.56v-38.9h22v97.76Z"/><path class="cls-1" d="M907.17,1513.88v-97.76h61.5v19.52H929.19v17.91h36.4v19.53h-36.4v21.28h39.48v19.52Z"/><path class="cls-1" d="M1041.09,1483.5h-12.92v30.38h-22v-97.76h40.66c23.78,0,32.59,9.4,32.59,27.75v12c0,12.18-4.41,20.4-14.24,24.51l23.63,33.47h-26.12Zm16.29-37.58c0-7.34-2.79-10.28-11.74-10.28h-17.47v28.77h17.47c9.39,0,11.74-3.37,11.74-10.71Z"/><path class="cls-1" d="M1149.76,1515.35c-11.31,0-23.19-2.5-31.55-6.32l3.67-17a92.81,92.81,0,0,0,28.18,4.69c11.29,0,13.5-2.2,13.5-10.42,0-8.81-.44-9.83-16.44-13.35-23.63-5.14-27.16-9.84-27.16-31,0-19.52,6.9-27.3,33.77-27.3a142.3,142.3,0,0,1,29.65,3.23l-2.21,18.49c-11.15-1.91-18.35-2.79-27.16-2.79-9.83,0-12,1.76-12,9,0,9.39.44,9.53,15.86,13.2,26.41,6.31,27.74,11.45,27.74,30.68S1179.27,1515.35,1149.76,1515.35Z"/><path class="cls-1" d="M1229.66,1535.75l-9.54-5.43,8.36-16.44h-7v-24.36h21.14v25.83Z"/><path class="cls-1" d="M1334.37,1513.88v-97.76h22v97.76Z"/><path class="cls-1" d="M1417.76,1449.59v64.29h-21v-97.76h27l32.15,67.38v-67.38h21v97.76h-27.15Z"/><path class="cls-1" d="M1536.43,1481.88c0,8.51,2.79,13.5,13.65,13.5a161.37,161.37,0,0,0,25.25-2.35l3.08,19.23a131.61,131.61,0,0,1-28.33,3.09c-24.66,0-35.67-12.19-35.67-29.95v-40.8c0-17.76,11-29.94,35.67-29.94a132.23,132.23,0,0,1,28.33,3.08l-3.08,19.23a161.37,161.37,0,0,0-25.25-2.35c-10.86,0-13.65,5-13.65,13.5Z"/><path class="cls-1" d="M1615.15,1513.88v-24.36h21.14v24.36Z"/></svg>