<svg id="Layer_1" data-name="Layer 1" xmlns="http://www.w3.org/2000/svg" viewBox="0 0 129.43 109.96"><defs><style>.cls-1{fill:#3466aa;}</style></defs><title>graphics</title><path class="cls-1" d="M61.91,90H44.19a2.8,2.8,0,0,0-1.54.45c-4.56,2.89-15.18,6.94-24.09,9.92a30.56,30.56,0,0,0,5.62-19,2.88,2.88,0,0,0-1.06-3.21C12,70.17,5.88,59.4,5.88,47.89c0-23.24,25.13-42.14,56-42.14s56,18.9,56,42.14a31.8,31.8,0,0,1-.31,4.38,31.55,31.55,0,0,1,5.06,4,37.91,37.91,0,0,0,1-8.34C123.69,21.48,96,0,61.91,0S.13,21.48.13,47.89c0,12.92,6.48,24.93,18.29,34,.07,3.8-.62,16-11.78,20.85-3.1,1.35-5,2.17-5.09,4.28A3,3,0,0,0,3,109.72a2.69,2.69,0,0,0,1.31.24C11.2,110,37.94,99.74,45,95.78H61.91a78,78,0,0,0,18.38-2.16,38.32,38.32,0,0,1-9.09-4.21A74.44,74.44,0,0,1,61.91,90Z"/><path class="cls-1" d="M122.54,85.76c4.51-4.32,6.89-9.45,6.89-14.88s-2.52-10.53-6.74-14.65a39.54,39.54,0,0,1-2,6.29,14,14,0,0,1,3,8.36c0,5.05-3,8.87-5.61,11.18a2.73,2.73,0,0,0-.71,1c-.13.28-2.36,5.73,2,12.36a58.1,58.1,0,0,1-12.23-6.28,2.88,2.88,0,0,0-2.3-.4A42.32,42.32,0,0,1,94.48,90c-1,0-2,0-3-.11a72.38,72.38,0,0,1-11.17,3.69,46.88,46.88,0,0,0,14.19,2.16,48.25,48.25,0,0,0,10.58-1.17c9.8,6.13,15.79,7.58,19.25,7.58a7.08,7.08,0,0,0,3.78-.86,2.85,2.85,0,0,0,1.34-2.27,2.9,2.9,0,0,0-1.07-2.41C122,91.59,122.24,87.19,122.54,85.76Z"/><path class="cls-1" d="M65.26,70.88c0-10.56,13.11-19.16,29.22-19.16,8.63,0,16.37,2.48,21.72,6.4a31.82,31.82,0,0,0,1.43-5.85A43.61,43.61,0,0,0,94.48,46c-19.28,0-35,11.17-35,24.9,0,7.36,4.54,14,11.69,18.53a70.65,70.65,0,0,0,9.16-1.77C71.37,84.37,65.26,78.09,65.26,70.88Z"/><path class="cls-1" d="M80.36,87.64a70.65,70.65,0,0,1-9.16,1.77,38.32,38.32,0,0,0,9.09,4.21,72.38,72.38,0,0,0,11.17-3.69A40.2,40.2,0,0,1,80.36,87.64Z"/><path class="cls-1" d="M116.2,58.12a21.28,21.28,0,0,1,4.52,4.4,39.54,39.54,0,0,0,2-6.29,31.55,31.55,0,0,0-5.06-4A31.82,31.82,0,0,1,116.2,58.12Z"/></svg>