<svg id="Layer_1" data-name="Layer 1" xmlns="http://www.w3.org/2000/svg" viewBox="0 0 142.7 146.34"><defs><style>.cls-1{fill:#3466aa;}</style></defs><title>graphics</title><path class="cls-1" d="M68.85,108.12H51.13a2.82,2.82,0,0,0-1.54.45c-4.56,2.89-15.17,6.94-24.08,9.92a30.55,30.55,0,0,0,5.61-19,2.88,2.88,0,0,0-1.05-3.21C19,88.25,12.82,77.48,12.82,66c0-23.24,25.14-42.14,56-42.14s56,18.9,56,42.14a31.8,31.8,0,0,1-.31,4.38,31,31,0,0,1,5,4,37.31,37.31,0,0,0,1-8.34c0-26.41-27.71-47.89-61.78-47.89S7.07,39.56,7.07,66c0,12.92,6.48,24.93,18.29,34,.07,3.8-.61,16-11.77,20.85-3.1,1.35-5,2.17-5.1,4.28a3,3,0,0,0,1.45,2.71,2.72,2.72,0,0,0,1.31.24c6.89,0,33.64-10.22,40.67-14.18H68.85a78,78,0,0,0,18.38-2.16,38.5,38.5,0,0,1-9.09-4.21A74.44,74.44,0,0,1,68.85,108.12Z"/><path class="cls-1" d="M129.48,103.84c4.52-4.32,6.9-9.45,6.9-14.88s-2.53-10.53-6.75-14.65a38.54,38.54,0,0,1-2,6.29,14,14,0,0,1,3,8.36c0,5.05-3,8.87-5.6,11.18a2.76,2.76,0,0,0-.72,1c-.12.28-2.35,5.73,2,12.36a58.33,58.33,0,0,1-12.22-6.28,2.9,2.9,0,0,0-2.31-.4,42.26,42.26,0,0,1-10.39,1.3c-1,0-2,0-3-.11a72.5,72.5,0,0,1-11.18,3.69,46.93,46.93,0,0,0,14.19,2.16A48.34,48.34,0,0,0,112,112.69c9.8,6.13,15.78,7.58,19.24,7.58a7.05,7.05,0,0,0,3.78-.86,2.88,2.88,0,0,0,.27-4.68C129,109.67,129.19,105.27,129.48,103.84Z"/><path class="cls-1" d="M72.21,89c0-10.56,13.1-19.16,29.21-19.16,8.63,0,16.37,2.48,21.73,6.4a33.52,33.52,0,0,0,1.43-5.85,43.65,43.65,0,0,0-23.16-6.29c-19.28,0-35,11.17-35,24.9,0,7.36,4.53,14,11.68,18.53a70.65,70.65,0,0,0,9.16-1.77C78.31,102.45,72.21,96.17,72.21,89Z"/><path class="cls-1" d="M87.3,105.72a70.65,70.65,0,0,1-9.16,1.77,38.5,38.5,0,0,0,9.09,4.21A72.5,72.5,0,0,0,98.41,108,40.28,40.28,0,0,1,87.3,105.72Z"/><path class="cls-1" d="M123.15,76.2a21,21,0,0,1,4.51,4.4,38.54,38.54,0,0,0,2-6.29,31,31,0,0,0-5-4A33.52,33.52,0,0,1,123.15,76.2Z"/></svg>