<svg id="Layer_1" data-name="Layer 1" xmlns="http://www.w3.org/2000/svg" xmlns:xlink="http://www.w3.org/1999/xlink" viewBox="0 0 119.75 119.88"><defs><style>.cls-1{fill:none;}.cls-2{clip-path:url(#clip-path);}.cls-3{fill:#3466aa;}.cls-4{fill:#5e5e5e;stroke:#3466aa;stroke-linecap:round;stroke-linejoin:round;stroke-width:5px;}</style><clipPath id="clip-path"><rect class="cls-1" x="-2.88" y="-1.78" width="61.4" height="61.4"/></clipPath></defs><title>graphics</title><g class="cls-2"><path class="cls-3" d="M39.68,42a2.48,2.48,0,0,1,0-5,2.48,2.48,0,1,1,0,5Z"/><path class="cls-3" d="M27.42,12.48A2.45,2.45,0,0,1,29.88,15a2.48,2.48,0,1,1-2.46-2.47Z"/><path class="cls-3" d="M39.66,12.48a2.46,2.46,0,0,1,2.49,2.45,2.51,2.51,0,0,1-2.48,2.48,2.46,2.46,0,0,1-2.47-2.47A2.43,2.43,0,0,1,39.66,12.48Z"/><path class="cls-3" d="M49.48,51.71A2.48,2.48,0,0,1,52,49.24a2.48,2.48,0,1,1,0,4.95A2.45,2.45,0,0,1,49.48,51.71Z"/><path class="cls-3" d="M45.81,6.36a2.41,2.41,0,0,1,2.47,2.45,2.46,2.46,0,0,1-2.47,2.46A2.41,2.41,0,0,1,43.36,8.8,2.36,2.36,0,0,1,45.81,6.36Z"/><path class="cls-3" d="M5.36,27.23a2.44,2.44,0,0,1-2.49,2.44A2.45,2.45,0,0,1,.42,27.19a2.47,2.47,0,1,1,4.94,0Z"/><path class="cls-3" d="M51.94,29.67a2.47,2.47,0,1,1,0-4.93,2.47,2.47,0,1,1,0,4.93Z"/><path class="cls-3" d="M43.36,33.36a2.41,2.41,0,0,1,2.43-2.48,2.46,2.46,0,1,1,0,4.92A2.38,2.38,0,0,1,43.36,33.36Z"/><path class="cls-3" d="M27.42,42a2.48,2.48,0,1,1,2.46-2.49A2.5,2.5,0,0,1,27.42,42Z"/><path class="cls-3" d="M5.36,39.5a2.47,2.47,0,1,1-4.94,0,2.47,2.47,0,1,1,4.94,0Z"/><path class="cls-3" d="M17.62,2.74a2.48,2.48,0,0,1-2.54,2.41,2.51,2.51,0,0,1-2.4-2.56A2.49,2.49,0,0,1,15.23.2,2.45,2.45,0,0,1,17.62,2.74Z"/><path class="cls-3" d="M27.46.2a2.48,2.48,0,0,1,2.42,2.52,2.48,2.48,0,1,1-5-.1A2.5,2.5,0,0,1,27.46.2Z"/><path class="cls-3" d="M37.2,2.65A2.47,2.47,0,0,1,39.69.2a2.5,2.5,0,0,1,2.46,2.49,2.52,2.52,0,0,1-2.5,2.46A2.49,2.49,0,0,1,37.2,2.65Z"/><path class="cls-3" d="M49.48,2.65a2.47,2.47,0,0,1,4.94,0,2.5,2.5,0,0,1-2.49,2.46A2.47,2.47,0,0,1,49.48,2.65Z"/><path class="cls-3" d="M33.54,18.62a2.46,2.46,0,1,1-2.46,2.44A2.39,2.39,0,0,1,33.54,18.62Z"/><path class="cls-3" d="M27.39,54.19a2.48,2.48,0,1,1,2.49-2.46A2.49,2.49,0,0,1,27.39,54.19Z"/><path class="cls-3" d="M39.67,54.19a2.48,2.48,0,0,1,0-4.95,2.52,2.52,0,0,1,2.48,2.48A2.49,2.49,0,0,1,39.67,54.19Z"/><path class="cls-3" d="M54.42,39.5A2.47,2.47,0,1,1,52,37,2.48,2.48,0,0,1,54.42,39.5Z"/><path class="cls-3" d="M15.16,29.67a2.47,2.47,0,1,1,2.47-2.47A2.48,2.48,0,0,1,15.16,29.67Z"/><path class="cls-3" d="M27.42,29.67a2.47,2.47,0,1,1,2.46-2.48A2.48,2.48,0,0,1,27.42,29.67Z"/><path class="cls-3" d="M39.7,29.67a2.47,2.47,0,1,1-.06-4.93,2.47,2.47,0,1,1,.06,4.93Z"/><path class="cls-3" d="M33.49,35.8A2.46,2.46,0,1,1,36,33.37,2.42,2.42,0,0,1,33.49,35.8Z"/><path class="cls-3" d="M5.36,51.72a2.47,2.47,0,0,1-4.94,0,2.49,2.49,0,0,1,2.47-2.48A2.48,2.48,0,0,1,5.36,51.72Z"/><path class="cls-3" d="M9,6.36a2.39,2.39,0,0,1,2.47,2.45A2.42,2.42,0,0,1,9,11.27,2.46,2.46,0,0,1,6.56,8.83,2.41,2.41,0,0,1,9,6.36Z"/><path class="cls-3" d="M5.36,2.7A2.47,2.47,0,1,1,2.92.2,2.46,2.46,0,0,1,5.36,2.7Z"/><path class="cls-3" d="M17.63,51.71a2.48,2.48,0,1,1-4.95,0,2.48,2.48,0,0,1,4.95,0Z"/><path class="cls-3" d="M2.91,12.48A2.43,2.43,0,0,1,5.36,15a2.47,2.47,0,1,1-2.45-2.47Z"/><path class="cls-3" d="M49.48,15a2.43,2.43,0,0,1,2.44-2.48,2.46,2.46,0,0,1,2.5,2.43A2.49,2.49,0,0,1,52,17.41,2.46,2.46,0,0,1,49.48,15Z"/><path class="cls-3" d="M43.36,21.06a2.37,2.37,0,0,1,2.46-2.44,2.43,2.43,0,0,1,2.46,2.47,2.46,2.46,0,0,1-2.49,2.45A2.4,2.4,0,0,1,43.36,21.06Z"/><path class="cls-3" d="M17.63,39.46a2.48,2.48,0,0,1-4.95,0,2.48,2.48,0,0,1,4.95,0Z"/><path class="cls-3" d="M11.48,21.07A2.42,2.42,0,0,1,9,23.54a2.46,2.46,0,1,1,0-4.92A2.39,2.39,0,0,1,11.48,21.07Z"/><path class="cls-3" d="M36,8.84a2.46,2.46,0,1,1-4.92-.1,2.46,2.46,0,0,1,4.92.1Z"/><path class="cls-3" d="M17.62,15a2.46,2.46,0,0,1-2.53,2.41,2.5,2.5,0,0,1-2.41-2.54,2.46,2.46,0,0,1,2.6-2.39A2.43,2.43,0,0,1,17.62,15Z"/><path class="cls-3" d="M11.48,33.39A2.39,2.39,0,0,1,9,35.79a2.46,2.46,0,1,1,2.52-2.4Z"/><path class="cls-3" d="M23.72,21.05a2.44,2.44,0,1,1-2.48-2.43A2.39,2.39,0,0,1,23.72,21.05Z"/><path class="cls-3" d="M9.05,48a2.45,2.45,0,1,1,0-4.89,2.45,2.45,0,0,1,0,4.89Z"/><path class="cls-3" d="M45.83,48a2.45,2.45,0,1,1,0-4.89,2.45,2.45,0,1,1,0,4.89Z"/><path class="cls-3" d="M23.72,33.35a2.44,2.44,0,1,1-2.44-2.47A2.4,2.4,0,0,1,23.72,33.35Z"/><path class="cls-3" d="M33.52,48A2.45,2.45,0,1,1,36,45.59,2.41,2.41,0,0,1,33.52,48Z"/><path class="cls-3" d="M23.72,8.88a2.44,2.44,0,1,1-4.88-.12,2.44,2.44,0,1,1,4.88.12Z"/><path class="cls-3" d="M23.72,45.61a2.44,2.44,0,1,1-2.4-2.46A2.41,2.41,0,0,1,23.72,45.61Z"/></g><path class="cls-4" d="M2.62,67.08v50.4"/><path class="cls-4" d="M15.22,67.08v50.4"/><path class="cls-4" d="M27.82,67.08v50.4"/><path class="cls-4" d="M40.42,67.08v50.4"/><path class="cls-4" d="M53,67.08v50.4"/><path class="cls-4" d="M116.82,3.72H67"/><path class="cls-4" d="M116.82,16.32H67"/><path class="cls-4" d="M116.82,28.92H67"/><path class="cls-4" d="M116.82,41.52H67"/><path class="cls-4" d="M116.82,54.12H67"/><path class="cls-4" d="M67,67.79v49"/><path class="cls-4" d="M79.38,67.79v49"/><path class="cls-4" d="M92,67.79v49"/><path class="cls-4" d="M104.58,67.79v49"/><path class="cls-4" d="M117.18,67.79v49"/><path class="cls-4" d="M116.47,67.08h-49"/><path class="cls-4" d="M116.47,79.68h-49"/><path class="cls-4" d="M116.47,92.28h-49"/><path class="cls-4" d="M116.47,104.88h-49"/><path class="cls-4" d="M116.47,117.48h-49"/></svg>