<svg id="Layer_1" data-name="Layer 1" xmlns="http://www.w3.org/2000/svg" viewBox="0 0 142.7 146.34"><defs><style>.cls-1{fill:none;stroke:#3466aa;stroke-linecap:round;stroke-linejoin:round;stroke-width:5px;}</style></defs><title>graphics</title><path class="cls-1" d="M87.33,101.93s10.11-10.83,0-27.44L67.12,55s-10.84-8-22.39,3.61Z"/><path class="cls-1" d="M44.73,58.47S27.4,70.25,10.07,77c0,0,1.61,60.18,58.21,58.74,0,0,7.5-21.67,19-33.94"/><line class="cls-1" x1="16.57" y1="97.12" x2="40.76" y2="79.77"/><line class="cls-1" x1="28.66" y1="118.04" x2="48.7" y2="98.55"/><line class="cls-1" x1="48.7" y1="130.32" x2="68.28" y2="104.33"/><polyline class="cls-1" points="72.89 58.47 83.72 49.45 96.36 62.45 87.33 71.47"/><path class="cls-1" d="M95.8,58.11s26.82-25.19,33.59-31.36.82-10.51.82-10.51L131.83,18s-3.77-6.33-10.54-.17S87.7,49.21,87.7,49.21"/></svg>