<svg id="Layer_1" data-name="Layer 1" xmlns="http://www.w3.org/2000/svg" xmlns:xlink="http://www.w3.org/1999/xlink" viewBox="0 0 142.7 146.34"><defs><style>.cls-1{fill:none;}.cls-2{clip-path:url(#clip-path);}.cls-3{fill:#3466aa;}.cls-4{fill:#5e5e5e;stroke:#3466aa;stroke-linecap:round;stroke-linejoin:round;stroke-width:5px;}</style><clipPath id="clip-path"><rect class="cls-1" x="10.32" y="14.05" width="61.4" height="61.4"/></clipPath></defs><title>graphics</title><g class="cls-2"><path class="cls-3" d="M52.88,57.78a2.48,2.48,0,0,1,0-5,2.48,2.48,0,1,1,0,5Z"/><path class="cls-3" d="M40.62,28.31a2.47,2.47,0,1,1,0,4.94,2.51,2.51,0,0,1-2.47-2.49A2.48,2.48,0,0,1,40.62,28.31Z"/><path class="cls-3" d="M52.86,28.31a2.48,2.48,0,0,1,2.49,2.46,2.51,2.51,0,0,1-2.48,2.48,2.48,2.48,0,0,1-2.47-2.47A2.44,2.44,0,0,1,52.86,28.31Z"/><path class="cls-3" d="M62.68,67.54A2.47,2.47,0,1,1,65.13,70,2.48,2.48,0,0,1,62.68,67.54Z"/><path class="cls-3" d="M59,22.19a2.42,2.42,0,0,1,2.47,2.45A2.47,2.47,0,0,1,59,27.11a2.42,2.42,0,0,1-2.45-2.47A2.37,2.37,0,0,1,59,22.19Z"/><path class="cls-3" d="M18.56,43.06a2.47,2.47,0,0,1-4.94,0,2.47,2.47,0,1,1,4.94,0Z"/><path class="cls-3" d="M65.14,45.51a2.47,2.47,0,0,1,0-4.94,2.47,2.47,0,1,1,0,4.94Z"/><path class="cls-3" d="M56.56,49.19A2.41,2.41,0,0,1,59,46.71a2.46,2.46,0,0,1,2.49,2.45A2.43,2.43,0,0,1,59,51.63,2.37,2.37,0,0,1,56.56,49.19Z"/><path class="cls-3" d="M40.62,57.78a2.48,2.48,0,1,1,2.46-2.49A2.47,2.47,0,0,1,40.62,57.78Z"/><path class="cls-3" d="M18.56,55.33a2.47,2.47,0,1,1-4.94,0,2.47,2.47,0,1,1,4.94,0Z"/><path class="cls-3" d="M30.82,18.58A2.47,2.47,0,0,1,28.28,21,2.48,2.48,0,1,1,28.43,16,2.46,2.46,0,0,1,30.82,18.58Z"/><path class="cls-3" d="M40.66,16a2.48,2.48,0,0,1,2.42,2.53A2.48,2.48,0,1,1,40.66,16Z"/><path class="cls-3" d="M50.4,18.49A2.47,2.47,0,0,1,52.89,16a2.5,2.5,0,0,1,2.46,2.49A2.53,2.53,0,0,1,52.85,21,2.49,2.49,0,0,1,50.4,18.49Z"/><path class="cls-3" d="M62.68,18.49a2.47,2.47,0,1,1,4.94,0,2.47,2.47,0,1,1-4.94,0Z"/><path class="cls-3" d="M46.75,34.45a2.46,2.46,0,1,1-2.47,2.45A2.43,2.43,0,0,1,46.75,34.45Z"/><path class="cls-3" d="M40.59,70a2.48,2.48,0,1,1,2.49-2.46A2.5,2.5,0,0,1,40.59,70Z"/><path class="cls-3" d="M52.87,70a2.48,2.48,0,0,1,0-5,2.48,2.48,0,1,1,0,5Z"/><path class="cls-3" d="M67.62,55.34a2.48,2.48,0,0,1-2.5,2.44,2.45,2.45,0,0,1-2.44-2.49,2.47,2.47,0,1,1,4.94.05Z"/><path class="cls-3" d="M28.36,45.51A2.47,2.47,0,1,1,30.83,43,2.46,2.46,0,0,1,28.36,45.51Z"/><path class="cls-3" d="M40.62,45.51A2.47,2.47,0,1,1,43.08,43,2.49,2.49,0,0,1,40.62,45.51Z"/><path class="cls-3" d="M52.9,45.51a2.47,2.47,0,1,1-.06-4.94,2.47,2.47,0,1,1,.06,4.94Z"/><path class="cls-3" d="M46.69,51.63a2.41,2.41,0,0,1-2.41-2.45,2.46,2.46,0,1,1,2.41,2.45Z"/><path class="cls-3" d="M18.56,67.55a2.47,2.47,0,1,1-4.94,0,2.47,2.47,0,1,1,4.94,0Z"/><path class="cls-3" d="M22.22,22.19a2.39,2.39,0,0,1,2.46,2.45,2.44,2.44,0,0,1-2.47,2.47,2.47,2.47,0,0,1-2.45-2.45A2.42,2.42,0,0,1,22.22,22.19Z"/><path class="cls-3" d="M18.56,18.54A2.47,2.47,0,1,1,16.12,16,2.47,2.47,0,0,1,18.56,18.54Z"/><path class="cls-3" d="M30.83,67.55a2.48,2.48,0,1,1-4.95,0,2.48,2.48,0,1,1,4.95,0Z"/><path class="cls-3" d="M16.11,28.31a2.44,2.44,0,0,1,2.45,2.48,2.47,2.47,0,0,1-2.48,2.46,2.5,2.5,0,0,1-2.46-2.49A2.46,2.46,0,0,1,16.11,28.31Z"/><path class="cls-3" d="M62.68,30.8a2.47,2.47,0,0,1,4.94-.05,2.5,2.5,0,0,1-2.45,2.5A2.46,2.46,0,0,1,62.68,30.8Z"/><path class="cls-3" d="M56.56,36.89A2.39,2.39,0,0,1,59,34.45a2.46,2.46,0,1,1,0,4.92A2.4,2.4,0,0,1,56.56,36.89Z"/><path class="cls-3" d="M30.83,55.3a2.46,2.46,0,0,1-2.46,2.48,2.48,2.48,0,0,1-2.49-2.45,2.48,2.48,0,1,1,4.95,0Z"/><path class="cls-3" d="M24.68,36.9a2.41,2.41,0,0,1-2.45,2.47,2.46,2.46,0,1,1,0-4.92A2.4,2.4,0,0,1,24.68,36.9Z"/><path class="cls-3" d="M49.2,24.67a2.46,2.46,0,1,1-4.92-.09,2.46,2.46,0,0,1,4.92.09Z"/><path class="cls-3" d="M30.82,30.84a2.47,2.47,0,0,1-2.53,2.41,2.47,2.47,0,1,1,.19-4.94A2.44,2.44,0,0,1,30.82,30.84Z"/><path class="cls-3" d="M24.68,49.23a2.4,2.4,0,0,1-2.52,2.4,2.46,2.46,0,1,1,2.52-2.4Z"/><path class="cls-3" d="M36.92,36.89a2.44,2.44,0,1,1-2.48-2.44A2.41,2.41,0,0,1,36.92,36.89Z"/><path class="cls-3" d="M22.25,63.87a2.44,2.44,0,1,1,2.43-2.47A2.39,2.39,0,0,1,22.25,63.87Z"/><path class="cls-3" d="M59,63.87A2.44,2.44,0,1,1,59,59a2.44,2.44,0,1,1,0,4.88Z"/><path class="cls-3" d="M36.92,49.19a2.44,2.44,0,0,1-4.88,0,2.44,2.44,0,1,1,4.88,0Z"/><path class="cls-3" d="M46.73,63.87a2.44,2.44,0,1,1,2.47-2.44A2.4,2.4,0,0,1,46.73,63.87Z"/><path class="cls-3" d="M36.92,24.71A2.44,2.44,0,1,1,32,24.6a2.44,2.44,0,1,1,4.88.11Z"/><path class="cls-3" d="M36.92,61.45A2.44,2.44,0,1,1,34.52,59,2.39,2.39,0,0,1,36.92,61.45Z"/></g><path class="cls-4" d="M15.82,82.91v50.4"/><path class="cls-4" d="M28.42,82.91v50.4"/><path class="cls-4" d="M41,82.91v50.4"/><path class="cls-4" d="M53.62,82.91v50.4"/><path class="cls-4" d="M66.22,82.91v50.4"/><path class="cls-4" d="M130,19.56H80.16"/><path class="cls-4" d="M130,32.16H80.16"/><path class="cls-4" d="M130,44.76H80.16"/><path class="cls-4" d="M130,57.36H80.16"/><path class="cls-4" d="M130,70H80.16"/><path class="cls-4" d="M80.16,83.62v49"/><path class="cls-4" d="M92.58,83.62v49"/><path class="cls-4" d="M105.18,83.62v49"/><path class="cls-4" d="M117.78,83.62v49"/><path class="cls-4" d="M130.38,83.62v49"/><path class="cls-4" d="M129.67,82.91h-49"/><path class="cls-4" d="M129.67,95.51h-49"/><path class="cls-4" d="M129.67,108.11h-49"/><path class="cls-4" d="M129.67,120.71h-49"/><path class="cls-4" d="M129.67,133.31h-49"/></svg>