<?xml version="1.0" encoding="UTF-8" standalone="no"?>
<svg xmlns:dc="http://purl.org/dc/elements/1.1/" xmlns:cc="http://creativecommons.org/ns#" xmlns:rdf="http://www.w3.org/1999/02/22-rdf-syntax-ns#" xmlns:svg="http://www.w3.org/2000/svg" xmlns="http://www.w3.org/2000/svg" xmlns:sodipodi="http://sodipodi.sourceforge.net/DTD/sodipodi-0.dtd" xmlns:inkscape="http://www.inkscape.org/namespaces/inkscape" width="32px" height="32px" viewBox="0 0 31.999999 31.999998" id="svg16077" version="1.1" inkscape:version="0.91 r13725" sodipodi:docname="12 data center server web series hosting rack database.svg">
  <defs id="defs16079"/>
  <sodipodi:namedview id="base" pagecolor="#ffffff" bordercolor="#666666" borderopacity="1.0" inkscape:pageopacity="0.0" inkscape:pageshadow="2" inkscape:zoom="7.9195959" inkscape:cx="4.3657656" inkscape:cy="15.730443" inkscape:document-units="px" inkscape:current-layer="layer1" showgrid="true" units="px" inkscape:window-width="1366" inkscape:window-height="705" inkscape:window-x="-8" inkscape:window-y="-8" inkscape:window-maximized="1" inkscape:snap-bbox="true" inkscape:bbox-nodes="true" inkscape:bbox-paths="true" inkscape:snap-bbox-edge-midpoints="true" inkscape:snap-bbox-midpoints="true">
    <inkscape:grid type="xygrid" id="grid16085"/>
  </sodipodi:namedview>
  
  <g inkscape:label="Layer 1" inkscape:groupmode="layer" id="layer1" transform="translate(0,-1020.3622)">
    <path style="color:#000000;font-style:normal;font-variant:normal;font-weight:normal;font-stretch:normal;font-size:medium;line-height:normal;font-family:sans-serif;text-indent:0;text-align:start;text-decoration:none;text-decoration-line:none;text-decoration-style:solid;text-decoration-color:#000000;letter-spacing:normal;word-spacing:normal;text-transform:none;direction:ltr;block-progression:tb;writing-mode:lr-tb;baseline-shift:baseline;text-anchor:start;white-space:normal;clip-rule:nonzero;display:inline;overflow:visible;visibility:visible;opacity:1;isolation:auto;mix-blend-mode:normal;color-interpolation:sRGB;color-interpolation-filters:linearRGB;solid-color:#000000;solid-opacity:1;fill:#000000;fill-opacity:1;fill-rule:nonzero;stroke:none;stroke-width:0.99999994;stroke-linecap:round;stroke-linejoin:round;stroke-miterlimit:4;stroke-dasharray:none;stroke-dashoffset:0;stroke-opacity:1;color-rendering:auto;image-rendering:auto;shape-rendering:auto;text-rendering:auto;enable-background:accumulate" d="M 5.5 3 A 0.50005003 0.50005003 0 0 0 5 3.5 L 5 9.5 A 0.50005003 0.50005003 0 0 0 5.5 10 L 15.5 10 L 15.5 12 L 5.5 12 A 0.50005003 0.50005003 0 0 0 5 12.5 L 5 18.5 A 0.50005003 0.50005003 0 0 0 5.5 19 L 15.5 19 L 15.5 21 L 5.5 21 A 0.50005003 0.50005003 0 0 0 5 21.5 L 5 27.5 A 0.50005003 0.50005003 0 0 0 5.5 28 L 26.5 28 A 0.50005003 0.50005003 0 0 0 27 27.5 L 27 21.5 A 0.50005003 0.50005003 0 0 0 26.5 21 L 16.5 21 L 16.5 19 L 26.5 19 A 0.50005003 0.50005003 0 0 0 27 18.5 L 27 12.5 A 0.50005003 0.50005003 0 0 0 26.5 12 L 16.5 12 L 16.5 10 L 26.5 10 A 0.50005003 0.50005003 0 0 0 27 9.5 L 27 3.5 A 0.50005003 0.50005003 0 0 0 26.5 3 L 5.5 3 z M 6 4 L 26 4 L 26 9 L 6 9 L 6 4 z M 7.5019531 5 A 0.50005006 0.50005006 0 0 0 7.0019531 5.5 L 7.0019531 7.5 A 0.50005006 0.50005006 0 0 0 7.5019531 8 L 17.501953 8 A 0.50005006 0.50005006 0 0 0 18.001953 7.5 L 18.001953 5.5 A 0.50005006 0.50005006 0 0 0 17.501953 5 L 7.5019531 5 z M 8.0019531 6 L 17.001953 6 L 17.001953 7 L 8.0019531 7 L 8.0019531 6 z M 19 6 L 19 7 L 25 7 L 25 6 L 19 6 z M 6 13 L 26 13 L 26 18 L 6 18 L 6 13 z M 7.5019531 14 A 0.50005006 0.50005006 0 0 0 7.0019531 14.5 L 7.0019531 16.5 A 0.50005006 0.50005006 0 0 0 7.5019531 17 L 17.501953 17 A 0.50005006 0.50005006 0 0 0 18.001953 16.5 L 18.001953 14.5 A 0.50005006 0.50005006 0 0 0 17.501953 14 L 7.5019531 14 z M 8.0019531 15 L 17.001953 15 L 17.001953 16 L 8.0019531 16 L 8.0019531 15 z M 19 15 L 19 16 L 25 16 L 25 15 L 19 15 z M 6 22 L 26 22 L 26 27 L 6 27 L 6 22 z M 6.9785156 23 L 6.9785156 26 L 7.9785156 26 L 7.9785156 23 L 6.9785156 23 z M 9 23 L 9 26 L 10 26 L 10 23 L 9 23 z M 11 23 L 11 26 L 12 26 L 12 23 L 11 23 z M 16 23 C 15.177495 23 14.5 23.6775 14.5 24.5 C 14.5 25.3225 15.177495 26 16 26 C 16.822505 26 17.5 25.3225 17.5 24.5 C 17.5 23.6775 16.822505 23 16 23 z M 19.978516 23 L 19.978516 26 L 20.978516 26 L 20.978516 23 L 19.978516 23 z M 21.978516 23 L 21.978516 26 L 22.978516 26 L 22.978516 23 L 21.978516 23 z M 24 23 L 24 26 L 25 26 L 25 23 L 24 23 z M 16 24 C 16.282065 24 16.5 24.218 16.5 24.5 C 16.5 24.7821 16.282065 25 16 25 C 15.717935 25 15.5 24.7821 15.5 24.5 C 15.5 24.218 15.717935 24 16 24 z " transform="translate(0,1020.3622)" id="rect5753-6"/>
  </g>

	
	
	<metadata>
		<rdf:RDF xmlns:rdf="http://www.w3.org/1999/02/22-rdf-syntax-ns#" xmlns:rdfs="http://www.w3.org/2000/01/rdf-schema#" xmlns:dc="http://purl.org/dc/elements/1.1/">
			<rdf:Description about="https://iconscout.com/legal#licenses" dc:title="Data, Center, Server, Web, Series, Hosting, Rack, Database" dc:description="Data, Center, Server, Web, Series, Hosting, Rack, Database" dc:publisher="Iconscout" dc:date="2016-12-14" dc:format="image/svg+xml" dc:language="en">
				<dc:creator>
					<rdf:Bag>
						<rdf:li>Jemis Mali</rdf:li>
					</rdf:Bag>
				</dc:creator>
			</rdf:Description>
		</rdf:RDF>
    </metadata></svg>
