<?xml version="1.0" encoding="UTF-8"?><svg xmlns="http://www.w3.org/2000/svg" xmlns:xlink="http://www.w3.org/1999/xlink" width="32px" height="28px" viewBox="0 0 32 28" version="1.1"><title>Lager_37</title><g id="Page-1" stroke="none" stroke-width="1" fill="none" fill-rule="evenodd"><g id="Asset-1" transform="translate(-4.000000, -4.000000)" fill-rule="nonzero" fill="#140A0A"><g id="Lager_37" transform="translate(4.000000, 4.000000)"><path d="M26.06 0h-.12A5.94 5.94 0 0 0 20 5.94v.12a5.938 5.938 0 0 0 4 5.61V18a2 2 0 0 1-2 2h-.33a5.938 5.938 0 0 0-5.61-4h-.12a5.938 5.938 0 0 0-5.61 4H10a2 2 0 0 1-2-2v-6.33a5.938 5.938 0 0 0 4-5.61v-.12A5.94 5.94 0 0 0 6.06 0h-.12A5.94 5.94 0 0 0 0 5.94v.12a5.938 5.938 0 0 0 4 5.61v8.37A3.96 3.96 0 0 0 7.96 24h2.37a5.938 5.938 0 0 0 5.61 4h.12a5.938 5.938 0 0 0 5.61-4h2.37A3.96 3.96 0 0 0 28 20.04v-8.37a5.938 5.938 0 0 0 4-5.61v-.12A5.94 5.94 0 0 0 26.06 0zM6 8a2 2 0 1 1 0-4 2 2 0 0 1 0 4zm10 16a2 2 0 1 1 0-4 2 2 0 0 1 0 4zM26 8a2 2 0 1 1 0-4 2 2 0 0 1 0 4z" id="Shape"/></g></g></g><metadata><rdf:RDF xmlns:rdf="http://www.w3.org/1999/02/22-rdf-syntax-ns#" xmlns:rdfs="http://www.w3.org/2000/01/rdf-schema#" xmlns:dc="http://purl.org/dc/elements/1.1/"><rdf:Description about="https://iconscout.com/legal#licenses" dc:title="data,share,connection" dc:description="data,share,connection" dc:publisher="Iconscout" dc:date="2017-09-14" dc:format="image/svg+xml" dc:language="en"><dc:creator><rdf:Bag><rdf:li>Victor Erixon</rdf:li></rdf:Bag></dc:creator></rdf:Description></rdf:RDF></metadata></svg>