<?xml version="1.0" encoding="utf-8"?>
<!-- Generator: Adobe Illustrator 22.0.1, SVG Export Plug-In . SVG Version: 6.00 Build 0)  -->
<svg version="1.1" xmlns="http://www.w3.org/2000/svg" xmlns:xlink="http://www.w3.org/1999/xlink" x="0px" y="0px"
	 viewBox="0 0 300 300" style="enable-background:new 0 0 300 300;" xml:space="preserve">
<style type="text/css">
	.st0{fill:#010101;}
	.st1{fill:#7FBA56;}
	.st2{fill:#FFFFFF;}
	.st3{fill:#010201;}
	.st4{fill:#010401;}
	.st5{fill:#020601;}
	.st6{fill:#050D03;}
	.st7{fill:#77AF50;}
	.st8{fill:#72A74D;}
	.st9{fill:#7DB855;}
	.st10{fill:#6EA14A;}
	.st11{fill:#71A64D;}
</style>
<g id="Layer_1">
	<title>group</title>
	<path class="st0" d="M290.7,150c2.3,70.9-58.5,139.2-140.3,137.3c-75.8,0.8-137.7-60-138.5-135.8C11.1,75.7,71.9,13.8,147.7,13
		c3.4,0,6.8,0,10.5,0.4C234.4,14.9,293,79.8,290.7,150z"/>
	<g>
		<g>
			<polygon class="st0" points="291.2,150 290.8,150.9 291.4,151.8 291.1,152.7 290.2,153.6 290.2,154.6 290.2,155.5 291.6,156.4 
				290.3,157.3 291.1,158.2 291,159.1 290.5,160 290.2,160.9 290.7,161.8 290.1,162.7 290.3,163.6 290.5,164.6 290.5,165.5 
				290.4,166.4 290.7,167.3 289.4,168.1 289.8,169.1 289.2,169.9 289.6,170.9 289.2,171.7 289,172.6 289,173.5 289,174.5 
				289.4,175.5 288.9,176.3 288,177 287.9,178 288.7,179 288.7,180 287.4,180.6 288.4,181.8 287.4,182.5 287.9,183.5 286.6,184.2 
				286.3,185 287.1,186.2 287.1,187.1 286.5,187.9 286.5,188.8 286.4,189.8 286.1,190.6 285,191.3 284.5,192 284.6,193 284.9,194.1 
				284,194.7 283.2,195.4 283.2,196.4 283.6,197.5 282.6,198.1 283.1,199.3 283,200.2 282.5,201 281,201.4 281.2,202.4 281.2,203.4 
				281.2,204.4 279.8,204.8 279.8,205.8 279.6,206.7 279.1,207.4 279.1,208.5 278.2,209.1 277.8,209.9 278.3,211.1 277.9,211.9 
				277,212.5 275.8,212.9 275.4,213.7 275.8,215 274.9,215.5 274.8,216.5 274.1,217.2 274.2,218.3 273.8,219.1 272.5,219.4 
				272.2,220.2 271.7,221 271.8,222.2 271.4,222.9 270.4,223.4 270.5,224.6 269.1,224.8 269.4,226 268.6,226.6 268.1,227.3 
				268.2,228.5 266.5,228.5 267.2,230 265.9,230.3 266.1,231.5 264.9,231.8 264.1,232.3 264.2,233.5 264,234.5 263.5,235.2 
				262.3,235.5 262.3,236.6 261.5,237.2 261.1,238 259.8,238.2 259.8,239.3 258.6,239.5 258.1,240.3 257.5,241 257.2,241.9 
				256.8,242.8 256.2,243.4 255.2,243.7 255.2,245 253.7,244.8 253.3,245.7 252.4,246.1 252.7,247.7 251.6,247.9 250.9,248.5 
				249.9,248.8 250.2,250.3 249.5,251 248.4,251.1 247.5,251.5 246.7,252 246,252.5 246.1,254 244.8,254 244.5,255 243.4,255.1 
				243.5,256.6 242.8,257.2 241.4,256.9 240.7,257.5 240.3,258.5 240,259.5 239.2,260 238.1,260.1 237.1,260.3 237,261.7 
				236.3,262.2 235.2,262.3 234.4,262.7 234.2,264 233.4,264.4 232.6,264.9 231.9,265.4 230.9,265.6 230.5,266.7 229.3,266.6 
				228.8,267.4 227.8,267.6 227.3,268.5 226.1,268.3 225.7,269.4 224.7,269.5 224,270 223.2,270.5 222.1,270.3 221.4,271.1 
				221,272.2 220.4,273 219,272.3 218.3,272.9 217.6,273.6 216.6,273.6 216.4,275.1 215.6,275.5 214.6,275.6 213.7,275.9 212.7,276 
				212.3,277.1 210.9,276.4 210.5,277.6 209.7,278.1 208.7,278 207.6,277.9 206.9,278.5 206.5,279.8 205.3,279.3 204.6,280.2 
				203.8,280.5 202.9,280.7 202,280.8 201.4,281.9 200.1,281 199.3,281.6 198.7,282.5 197.6,282.2 197,283.3 195.9,282.8 195.4,284 
				194.5,284.4 193.6,284.6 192.8,284.9 191.7,284.6 190.7,284.4 189.9,284.8 189.3,286.1 188,284.9 187.2,285.3 186.5,286.1 
				185.7,286.6 184.5,285.9 183.9,287.3 183.1,287.6 181.9,286.6 181.3,288.1 180.2,287.3 179.2,287.1 178.3,287.3 177.6,288.2 
				176.7,288.4 175.7,288.1 174.8,288.2 174.1,289.4 173.2,289.2 172.1,288.6 171.3,289.1 170.3,288.7 169.5,289.7 168.6,289.6 
				167.7,289.3 166.7,289.4 165.9,290.4 165,290.5 164.1,290.8 163.2,290.9 162.2,289.8 161.4,290.7 160.4,290.1 159.5,290.5 
				158.6,290.2 157.7,291 156.8,290.2 155.9,291.2 155,291.2 154.1,291.1 153.2,291.3 152.2,290.6 151.3,290.1 150.4,290.8 
				149.5,291.2 148.6,290.6 147.7,291 146.8,291.5 145.9,290.6 144.9,290.8 144,290.6 143.1,291.1 142.2,290.7 141.3,290.5 
				140.4,291.1 139.5,290.2 138.6,290.1 137.6,290.5 136.8,290.2 135.9,290 134.9,290.2 134,289.9 133.1,289.8 132.2,289.7 
				131.2,290.1 130.5,288.8 129.5,289.3 128.6,289.2 127.7,289.1 126.8,288.8 126.1,287.9 125.2,287.8 124,289 123.2,288.5 
				122.4,287.6 121.5,287.8 120.6,287.6 119.7,287.4 118.6,287.9 117.9,286.8 117,286.6 116,287.2 115.1,287 114.5,285.4 
				113.7,285.2 112.6,285.7 111.7,285.5 111,284.5 110.1,284.4 108.9,285.1 108.4,283.7 107.2,284.5 106.5,283.6 105.4,284 
				104.9,282.8 103.7,283.3 103.2,282 102.2,282.2 101.5,281.4 100.5,281.4 99.6,281.3 99,280.3 98.1,280.3 97.2,280 96.1,280.2 
				95.6,279.1 94.5,279.5 93.8,278.6 92.9,278.4 92,278.2 91.1,277.9 90.1,277.9 89.5,277.1 89.1,275.9 87.8,276.5 86.8,276.3 
				86.1,275.7 85.4,275.2 84.9,274.1 84,273.8 82.9,274 82.2,273.3 81.2,273.3 80.6,272.4 80,271.6 79.1,271.3 78.2,271.1 
				77.5,270.5 76.7,270.1 75.8,269.8 75,269.4 74.6,268.3 73.6,268.1 73.2,267.2 71.9,267.4 71.6,266.3 70.3,266.5 70.1,265.2 
				69,265.1 68.9,263.8 67.3,264.4 67.4,262.8 66.6,262.3 65.6,262.1 65.1,261.3 64.4,260.6 62.9,261.1 62.5,260.1 62.3,258.9 
				61.6,258.4 60.4,258.4 59.5,258.1 59.1,257.2 58.6,256.2 57.9,255.7 56.6,255.8 56.1,255 55.5,254.3 55.3,253.2 54.8,252.3 
				53.5,252.4 53.1,251.5 52.7,250.6 52,250.1 51.2,249.6 50.2,249.3 50.1,248.1 48.7,248.2 48.3,247.3 47.3,246.9 47.5,245.5 
				46.2,245.5 45.6,244.8 44.9,244.2 44.5,243.4 44.4,242.2 43.8,241.5 42.8,241.2 42.5,240.2 41.9,239.6 41.1,239.1 40.5,238.4 
				40,237.6 39.6,236.7 39.1,235.9 38.7,235.1 37.3,235.1 37.2,233.9 36.7,233.2 36.3,232.4 35.7,231.7 35.4,230.8 34.3,230.5 
				34.6,229.1 33.9,228.5 33.5,227.7 32.9,227 31.7,226.7 31.4,225.8 30.6,225.2 30.6,224.1 30.4,223.2 30.2,222.3 28.6,222.1 
				28.8,221 28.6,220 27.9,219.4 27.5,218.6 26.5,218.1 26.4,217.1 26,216.3 25.8,215.4 25.2,214.6 25.1,213.7 24.5,212.9 
				23.5,212.4 23.6,211.3 23.5,210.4 22.8,209.7 22.3,209 21.7,208.2 21.4,207.3 21.8,206.2 20.8,205.6 19.9,205 19.9,204 
				19.3,203.3 18.9,202.5 19.2,201.3 18.6,200.6 17.9,199.9 17.5,199.1 18,197.9 17.3,197.2 17.2,196.3 16.8,195.5 16.7,194.5 
				16.2,193.7 15.7,192.9 16,191.9 14.9,191.3 14.8,190.3 15.1,189.3 14.2,188.6 14.8,187.5 14.5,186.6 14.6,185.7 13.1,185.1 
				13.7,184 13.6,183.1 13.9,182.1 12.5,181.5 13.2,180.4 12.1,179.7 12.9,178.6 12.8,177.7 11.9,177 11.9,176 11.7,175.1 
				11.3,174.3 11.8,173.3 11.6,172.4 10.5,171.6 11.6,170.5 10.4,169.8 10.3,168.9 10.5,167.9 9.8,167.1 10,166.2 10.1,165.2 
				9.6,164.4 9.4,163.5 10.4,162.5 9.2,161.6 9.1,160.7 10.5,159.7 9.3,158.9 10.1,157.9 10.1,157 9.2,156.1 9.6,155.2 9,154.3 
				9.7,153.4 9.3,152.5 9.2,151.6 9.6,150.7 9.4,149.7 10,148.8 9.5,147.9 8.8,147 9.9,146.1 9.8,145.2 9.2,144.3 10.1,143.4 
				9.7,142.5 10.3,141.6 10.1,140.7 9.7,139.7 9.4,138.8 9.9,137.9 10.7,137.1 10.1,136.1 9.8,135.1 9.7,134.2 10.1,133.3 
				10.5,132.5 10.6,131.6 10.9,130.7 10.9,129.8 11.7,129 11.6,128 10.7,127 10.8,126.1 11.7,125.3 12.5,124.5 11.7,123.4 
				11.6,122.5 12.2,121.7 12.5,120.8 12.1,119.8 12.5,118.9 12.4,118 12.9,117.2 14.2,116.5 13,115.3 14.7,114.8 13.9,113.6 
				13.8,112.7 15.2,112.1 15.2,111.2 15.1,110.2 15.7,109.4 15.1,108.3 16.2,107.7 15.8,106.6 17.2,106.1 16.6,104.9 17.3,104.2 
				18,103.5 17.1,102.2 17.4,101.4 18.1,100.6 18.3,99.7 18.9,99 19,98 19.2,97.1 20.6,96.7 20.6,95.7 21,94.9 21.5,94.1 21.6,93.2 
				21.4,92.1 22.8,91.8 22.6,90.7 22.9,89.8 23,88.8 23.3,88 23.5,87 25.3,86.9 25,85.8 24.9,84.7 25.9,84.2 25.9,83.1 27.3,82.9 
				27.8,82.1 27,80.6 28.1,80.2 28.9,79.6 28.4,78.2 29,77.5 29.8,77 30.5,76.3 30.9,75.5 31.1,74.5 31.5,73.7 32.3,73.1 33.3,72.7 
				33.5,71.8 34.1,71.1 34.3,70.1 34.8,69.3 35.9,69 35.6,67.7 37,67.5 37.1,66.5 37,65.3 37.8,64.8 38.2,63.9 39.5,63.8 40.2,63.1 
				40.1,61.9 40.5,61.1 41.4,60.6 41.7,59.7 43.1,59.7 42.9,58.3 43.6,57.7 43.9,56.8 45.3,56.8 46,56.1 45.8,54.8 47,54.6 47.7,54 
				47.7,52.8 48.9,52.7 49.2,51.7 50.2,51.4 50.2,50.1 50.9,49.5 52.1,49.4 52.9,49 53,47.8 54.4,48 54.3,46.5 55.4,46.3 56.2,45.8 
				56.9,45.3 57.8,44.9 58.5,44.3 58.8,43.3 58.9,42.1 60.1,42.1 60.7,41.4 61.9,41.4 62.1,40.1 62.8,39.5 63.3,38.8 64.5,38.8 
				65.1,38.1 65.5,37.1 66.1,36.3 67.6,36.9 68.4,36.4 68.3,34.8 69.6,34.9 70.5,34.7 70.6,33.3 71.4,32.9 72.4,32.7 73,31.8 
				74.3,32.2 74.6,31 75.2,30.3 76,29.9 76.7,29.2 77.8,29.3 78.3,28.3 79.3,28.1 80.3,28.2 80.9,27.3 81.6,26.7 82.4,26.4 
				83.3,26.1 84.3,25.9 85.2,25.8 85.4,24.2 86.4,24.1 87.6,24.5 88,23.3 88.8,22.9 90,23.1 90.6,22.2 91.4,22 92.3,21.5 93.3,21.5 
				94.1,21.2 94.8,20.6 95.7,20.4 96.7,20.4 97.6,20.2 98.1,19 99.2,19.4 100.1,19 100.9,18.6 101.3,17.2 102.6,17.9 103.3,17.2 
				104.2,17.1 105,16.7 105.7,16 106.5,15.5 107.4,15.2 108.3,14.9 109.3,15.1 110.2,14.9 111.2,15 112,14.6 112.7,13.8 113.8,14.5 
				114.4,13.1 115.4,13.4 116.2,12.8 117.2,13 118.1,13 119.1,13.3 119.8,12 120.9,12.6 121.8,12.8 122.4,11.3 123.6,12.2 
				124.5,12.2 125.3,11.9 126.2,11.6 126.9,10.4 128.1,11.6 128.9,11.1 129.9,11.4 130.8,11.3 131.5,9.8 132.5,10.7 133.4,10.7 
				134.3,10.8 135.1,9.8 136.1,10.1 137,10.1 137.8,9.2 138.8,9.5 139.7,9.6 140.6,9.6 141.5,9.2 142.4,9.4 143.4,10 144.2,9.3 
				145.1,8.8 146.1,9.6 147,8.6 147.9,8.9 148.8,9 149.7,8.8 150.6,9 151.5,8.8 152.5,8.5 153.4,9 154.3,8.8 155.2,10.1 156.1,9.2 
				157,10 157.9,9.4 158.8,10.2 159.7,9.3 160.6,10.1 161.6,9.4 162.4,10 163.4,9.1 164.3,9.8 165.2,9.6 166,10.4 167,10.4 168,9.7 
				168.9,9.9 169.7,10.6 170.6,10.4 171.6,10.3 172.5,10.6 173.3,11.1 174.2,11.1 175.1,11.5 176,11.3 177,11.1 177.7,12.3 
				178.8,11.4 179.4,12.9 180.5,12 181.4,12.6 182.3,12.6 183,13.4 184,13.1 185,12.8 185.9,13 186.7,13.8 187.6,13.9 188.3,14.8 
				189.1,15.2 190,15.4 191,15.4 191.7,16.1 192.6,16.3 193.5,16.4 194.7,15.8 195.5,16.2 196.4,16.4 196.9,17.7 198.1,17 
				198.5,18.5 199.6,18.1 200.4,18.6 201.6,18.1 202.1,19.2 203.2,18.9 204.1,19.2 204.5,20.6 205.6,20.5 206.4,20.8 207.2,21.2 
				207.9,21.9 208.7,22.3 210,21.7 210.7,22.5 211.1,23.7 212.1,23.6 213.2,23.4 214.1,23.8 214.6,24.7 215.4,25.3 216.3,25.3 
				217.3,25.4 218.2,25.8 219,26.2 219.2,27.7 220.6,27.1 221.1,28 221.5,29.2 222.6,29.1 223.6,29.2 223.8,30.5 225.2,30.1 
				225.6,31.2 226.7,31.2 227,32.4 227.7,33 228.6,33.1 229.7,33.1 230,34.4 231.1,34.4 231.7,35.1 232.4,35.7 232.9,36.6 
				234.3,36.2 234.3,37.8 235.8,37.2 236.1,38.3 236.5,39.3 237.3,39.8 238.4,39.8 238.9,40.7 239.5,41.4 240.4,41.7 241.5,41.9 
				242.1,42.5 242.3,43.7 243.6,43.6 244,44.5 245,44.7 244.8,46.3 245.4,47 246.3,47.3 247.7,47.2 247.8,48.4 248.7,48.8 
				248.7,50.1 249.4,50.7 250.1,51.2 251.4,51.3 251.4,52.5 252.7,52.5 253.2,53.3 253.5,54.3 254.3,54.8 254.4,55.9 255.9,55.8 
				256.1,56.9 257.1,57.2 256.9,58.6 257.7,59.1 258,60 259.2,60.2 259.1,61.5 260.1,61.8 260.6,62.5 261.7,62.8 262.4,63.5 
				262.5,64.5 262.6,65.6 263.2,66.3 264.5,66.4 265,67.2 265.1,68.2 265.8,68.9 265.9,69.9 266.2,70.8 266.7,71.6 267.7,72 
				267.8,73 268.8,73.5 269.2,74.3 270.1,74.8 269.7,76.1 271.1,76.3 270.7,77.6 272.3,77.7 272.1,78.9 272.2,79.9 273.4,80.2 
				273.8,81 273.9,82 274.2,82.9 275.1,83.5 275.6,84.2 276.1,85 275.6,86.3 276.9,86.7 276.7,87.8 277,88.6 277.7,89.3 278.5,89.9 
				278.8,90.8 279.5,91.5 278.6,92.9 279.8,93.3 280.1,94.2 280.9,94.8 281.3,95.6 281.2,96.7 281.5,97.5 281.6,98.5 282,99.3 
				283.1,99.9 283.3,100.8 282.4,102.1 282.9,102.9 284.1,103.4 284.6,104.2 283.8,105.4 284.2,106.2 284.4,107.1 285.6,107.7 
				286,108.5 285.5,109.6 286.3,110.3 285.9,111.4 286.8,112.1 285.9,113.3 286.2,114.1 287.2,114.8 286.8,115.9 287.9,116.5 
				287.5,117.6 288.2,118.3 288,119.3 288.8,120.1 288.3,121.1 289.2,121.9 288.2,123 288.9,123.8 289.3,124.6 289.1,125.6 
				289.9,126.4 288.9,127.4 290.2,128.2 290.3,129.1 289.4,130.1 289.3,131 289.7,131.9 289.6,132.8 291,133.6 289.8,134.6 
				290,135.5 290.4,136.4 290.5,137.3 291.3,138.1 291,139.1 291.4,140 290.9,140.9 290.8,141.8 291.3,142.7 291.5,143.6 
				290.2,144.6 290.5,145.5 291.4,146.4 291.5,147.3 290.7,148.2 290.5,149.1 			"/>
		</g>
		<path class="st1" d="M150.5,282.1c-73.9,0-133.6-60.8-132.5-134.7c1.5-70.5,59.7-131,135.5-129.5C224.1,19.4,283,76.5,282.6,150
			C282.6,224.7,221.8,282.1,150.5,282.1z"/>
		<g>
			<polygon class="st0" points="129.9,155.9 128.8,156.5 128.3,155.1 127,155.8 126.7,154.2 126,153.7 124.6,154.1 123.8,153.5 
				123.8,152.2 122.9,151.7 122.1,151.2 121.9,150.2 121.7,149.2 121.6,148.3 120.3,147.8 121.1,146.6 120.2,145.9 120.9,144.8 
				119.8,144 120.4,143.1 119.4,142.3 120.1,141.3 119.8,140.4 120,139.5 120.1,138.6 118.6,137.9 119.4,136.9 119.2,136 
				119.1,135.2 119.2,134.2 119.1,133.4 118.9,132.5 118.7,131.6 119.2,130.7 118,129.9 117.6,129.1 118.4,128.1 118.5,127.2 
				117.5,126.4 118.5,125.3 117.2,124.9 116.4,124.7 115.8,124.1 115.5,122.8 114.1,123.5 113.6,122.5 113.1,121.5 111.9,121.7 
				110.9,121.6 110.5,120.5 109.3,120.8 108.7,120.1 108.3,119 107.2,119 106.6,118.3 105.7,118 105.2,117.1 104.1,117.2 103,117.3 
				102.7,115.9 101.6,116.2 101.2,114.9 100.2,114.9 99.1,115.1 98.4,114.4 98.2,112.9 97.3,112.6 96.2,112.8 95.2,112.8 
				94.9,111.4 94.1,110.9 92.7,111.4 91.9,110.9 91.8,109.7 90.8,109.3 89.9,108.8 89.7,107.8 89.5,106.8 89.9,105.8 89.8,104.9 
				88.5,104.2 88.3,103.3 89.4,102.4 88.4,101.4 89.7,100.7 90.1,100 90.5,99.3 90.7,98.5 91.4,98 91.9,97.3 92.1,96.2 92.9,95.8 
				94,96 94.7,95.7 95.1,94.2 96.1,94.2 97.1,93.3 96.2,92.4 96.8,91.6 96.6,90.6 96.1,89.7 97.1,88.9 96.9,87.9 96.9,87 97.9,86.4 
				98.2,85.6 98.5,84.7 99.1,84.1 99.1,82.8 99.8,82.2 101.3,82.7 101.7,81.7 102.6,81.5 103.2,80.6 103.9,79.9 105.1,80.8 
				105.9,80.1 106.8,79.8 107.6,79.6 108.5,79.4 109.5,79.2 110.4,79.2 110.9,79.4 110.8,78.4 109.5,78 110.4,76.7 109.9,75.9 
				108.6,75.3 109,74.3 108.9,73.3 109.8,72.6 110,71.7 109.3,70.5 109.8,69.6 111.1,69.3 111.7,68.6 112,67.6 112.4,66.6 
				113.6,66.7 114.1,65.7 115.2,66 116,65.4 116.9,64.7 117.9,65.2 118.8,66 119.8,65.3 120.5,65.3 121.6,65.9 121.5,64.8 
				122.6,64.3 122.7,63.3 123.5,62.8 123.6,61.7 123.7,60.6 124.9,60.4 124.9,59.1 125.7,58.5 127.3,59.2 127.8,58.3 128.5,57.6 
				129.3,57.2 130.3,57.4 131.1,56.5 132.1,57.4 133,56.6 133.9,57.1 134.9,56.8 135.7,57.4 136.7,57.5 137.7,57.3 138.4,58.2 
				139.2,58.5 139.7,59.5 140.6,58.9 141.4,58.8 141.3,57.7 141.3,56.6 142.3,56.1 143.5,55.9 144,55.1 144.3,53.9 145.2,53.6 
				146.1,53.2 147,52.9 147.9,52.6 148.8,52.1 149.8,53.3 150.8,52.1 151.7,52.4 152.5,53.1 153.3,53.5 154,54.1 154.5,54.8 
				155.6,54.9 156,55.7 157,56.2 157.1,57.2 157.6,57.9 157.6,58.9 157,59.9 157.2,60.7 157.1,61.6 157.6,62.5 157.3,63.4 
				158.1,64.3 157.6,65.2 157.6,66.1 157.3,67 157.6,68 158.4,68.9 158.2,69.8 158.3,70.7 157,71.6 158,72.5 157.7,73.4 157.1,74.3 
				156.9,75.2 157.5,76.1 158.1,77 157.9,77.6 158.1,76.9 159.5,77.5 159.8,76 160.8,75.9 161.9,76.1 162.7,75.7 163.7,75.4 
				164.6,74.9 165.5,75.8 166.4,76.4 167.5,75.4 168.3,76.2 169.4,75.7 169.8,77.4 171.1,76.9 171.5,78.1 172.3,78.4 172.8,79.2 
				173.6,79.7 174.8,79.9 174.7,81.1 175.1,81.9 175.6,82.7 177,83 177.4,83.9 176.8,85 176.8,85.9 177.1,86.8 177.1,87.6 
				177.9,88.6 176.9,89.4 177.4,90.4 177.1,91.3 176,91.8 175.7,92.6 176.3,93.9 175.3,94.4 175.3,95.5 174.9,96.1 173.6,96.8 
				174.3,97.7 175.6,97.4 175.9,98.7 176.6,99.2 177.6,99.4 178.5,99.8 179.3,100.4 179.9,101.1 180.6,101.8 181.1,102.6 
				181.9,103.1 182.3,104 182.6,105 183.8,105.3 183.2,106.9 184.8,106.9 184.6,108.2 185.3,108.8 185.5,109.7 186,110.4 
				185.9,111.3 186.7,112 186.6,112.9 187.1,113.8 186.8,114.6 186.5,115.5 186.8,116.3 186.2,117.4 187.6,117.3 188.3,118 
				188.7,119 189.2,119.8 188.9,120.8 189.7,121.7 188.8,122.5 189.5,123.6 188.7,124.4 188.6,125.3 189.2,126.3 188.7,127.1 
				188,128 187.6,128.9 188.9,129.9 188.5,130.8 188.4,131.7 188.1,132.5 188.3,133.5 187.8,134.3 187.4,135.2 187.5,136.2 
				187.9,137.1 187.6,138 187.6,138.9 187.8,140.1 187.2,141 186.3,141.5 185.4,141.9 185.4,143.1 184.3,143.3 184.1,144.4 
				183.3,145 182.9,145.8 181.6,145.8 181.6,147.1 181.2,148 180.6,148.6 180,149.3 178.5,149.2 178.9,150.7 178.3,151.4 
				177.8,152.1 176.6,152.4 176.4,153.4 175.6,153.9 174.5,154.1 174.3,155.2 173.3,155.4 172.9,156.3 172.5,157.4 171.2,156.9 
				170.5,157.6 169.7,158.2 168.8,157.9 168,158.7 167,157.8 166.1,157.8 165.3,157.9 164.5,159 163.6,158.7 162.8,158 161.9,158.2 
				161.3,158.2 160.8,157.7 160,156.9 161,156 160.4,155 161.2,154.1 161.3,153.5 161.7,152.4 162.8,152.9 163.6,152.6 164.6,152.1 
				165.6,152.9 166.4,152 167.2,151.5 168.3,151.7 168.7,150.6 169.9,150.9 170.3,149.8 170.8,149.1 171.5,148.5 172,147.7 
				172.6,147 173.6,146.6 174.6,146.3 174.9,145.3 175.6,144.6 176.1,143.8 177,143.4 177.7,142.8 177.5,141.3 178.8,141.3 
				178.6,139.8 179.5,139.4 180,138.8 180.5,138.1 181.6,137.5 181.4,136.4 180.7,135.5 181.1,134.6 181.8,133.7 181.9,132.8 
				181,131.8 182.1,131 181.3,130 181.1,129 181.8,128.2 181.5,127.2 181.9,126.3 182.3,125.4 181.7,124.5 182.2,123.4 181.1,123.1 
				180.1,123.2 179,123.3 179,124.9 178.6,125.6 178.2,126.3 178.2,127.2 176.9,127.9 177.4,128.8 177.5,129.7 177.1,130.5 
				177.2,131.4 176.4,132.2 177.2,133.2 175.9,133.7 176.4,135 175.2,134.8 174.7,135.6 173.8,135.3 172.9,136.2 172,135.6 
				171.1,135.5 170.2,135.8 169.3,135.6 168.4,135.5 167.6,136.3 166.8,136.7 165.9,137 164.9,136.7 164,137.1 162.8,136.6 
				162.3,137.7 161.8,138.6 160.5,138.4 160.1,139.5 158.9,139.3 158.6,140.4 157.5,140.6 156.7,141.2 156.4,142.2 156.5,143.4 
				156,144.1 155.7,145 154.1,145.2 154.8,146.7 153.8,147.4 152.7,147.8 151.6,147.4 150.7,147.3 149.7,147.2 149,146.4 
				147.9,146.2 148.6,144.9 147.4,144.1 148.1,143.4 148.4,142.5 148.7,141.7 148.5,140.6 150,140.4 150.5,139.6 150.1,138.3 
				151.1,137.9 151.6,137.1 152.3,136.5 153.3,136.2 153.3,134.9 154.2,134.6 154.8,133.9 155.3,133 156.2,132.7 156.7,131.8 
				157.6,131.5 158.4,131 159.3,130.8 160.5,131.1 161,130.2 161.9,129.5 161.6,128.4 161.4,127.5 161.3,126.6 160.9,125.8 
				161.2,124.8 161.5,123.9 161.5,123 161.4,122.2 161.8,121.3 161.2,120.4 160.6,119.4 162,118.7 162.1,117.8 162.5,117 
				162.8,116.2 163,115.3 163.3,114.5 162.6,113.3 163.5,112.7 164.3,112.1 164.6,111.2 164.5,110.3 165,109.5 165.7,108.9 
				166.4,108.3 167.5,109 168.3,108.6 169.2,108.5 170.1,108.4 171.1,108.3 171.3,109.7 172,110.1 173.4,110 173.1,111.5 
				173.7,112.1 175,112.1 175.7,112.6 175.4,114.1 176.5,114.3 176.9,115.2 178,114.6 178.7,115.2 179.4,114.7 180.3,114.3 
				180.5,113.3 180.1,112.5 179.9,111.6 179.5,110.9 178.4,110.5 178,109.7 177.3,109 177.2,108 176.5,107.4 176.5,106.2 
				174.9,106.4 174.3,105.8 174.5,104.3 173.3,104.3 173.1,103.1 171.8,103.3 171,102.8 170.3,102.1 169.4,101.9 168.4,101.6 
				167.4,101.5 167,102.9 165.8,102.7 165.6,104 164.1,103.9 163.5,104.9 163.6,106.1 162.6,106.4 161.6,106.5 160.9,106.9 
				160.2,107.4 159.3,108.4 158.5,106.9 157.5,107.4 156.5,107.3 155.4,107.3 154.5,106.8 153.8,106 153,105.4 152.5,104.5 
				151.5,104 151.5,102.8 150.6,102.1 150.4,101.1 151.4,100 150.3,99.2 151.4,98.2 150.7,97.3 151.4,96.4 151.2,95.5 151.1,94.6 
				151.6,93.7 151.4,92.8 150.5,91.8 150.8,90.9 151.1,90 151,89.1 151.6,88.2 151.1,87.3 151,86.4 150.6,85.5 151.4,84.6 
				150.9,83.7 150.8,82.8 151.5,81.9 151.1,80.9 150.5,80 151.5,79.1 150.6,78.2 151,77.3 151.3,76.4 150.9,75.5 151.2,74.6 
				151.5,73.7 150.6,72.8 151.5,71.9 150.8,71 150.7,70.1 150.5,69.2 150.4,68.3 150.9,67.3 150.2,66.4 150.5,65.5 150.4,64.6 
				151.4,63.7 150.5,62.8 151.6,61.9 151.2,61.1 151,60 149.9,59.6 149,59.3 148.2,59.9 147,59.6 147.5,60.9 147,61.8 146.3,62.7 
				146.3,63.7 146.8,64.6 145.7,65.5 146.2,66.4 146.6,67.3 145.8,68.3 146.8,69.2 146.7,70.1 146.2,71 146.8,71.9 146.1,72.8 
				145.7,73.7 145.7,74.6 146.2,75.5 146.3,76.4 146.7,77.3 147,78.3 146.3,79.2 145.9,80.1 147,81 146.1,81.9 146.7,82.8 147,83.7 
				145.8,84.6 146.9,85.5 145.9,86.4 146.1,87.3 146.6,88.2 147,89.1 145.8,90 147.1,90.9 146,91.9 146.8,92.8 145.8,93.7 147,94.6 
				146.1,95.5 147.1,96.4 145.8,97.3 146.9,98.2 146.3,99.2 146.1,100.1 145.9,101 145.5,101.8 145.2,102.6 145.7,104 144.4,104.2 
				144.1,105.2 142.7,104.8 142.4,106.4 141.2,105.5 140.4,105.6 139.4,106.7 138.4,106.2 137.7,105.4 136.4,105.8 136.1,104.6 
				135.8,103.6 135.4,102.9 134.2,102.4 133.7,101.6 134,100.6 133,100 133.4,98.9 132.5,98.3 132.8,97.2 131.4,96.9 132,95.6 
				130.7,95.3 131,94.1 130.1,93.5 129.7,92.8 129.1,92 129.6,90.8 128.4,90.4 127.7,89.7 127.6,88.8 127.6,87.7 127.7,86.7 
				127.3,85.9 126.3,85.4 125.5,84.8 124.9,84.1 124.9,83.1 125.2,81.9 124.2,81.4 124.2,80.4 123.1,79.9 123.6,78.7 123.1,77.9 
				122.7,77.1 121.2,76.9 121.6,75.6 120.5,75.2 120.6,74.2 119.5,73.6 119.4,72.9 118.9,72 117.9,71.5 117.4,72.8 116.7,73.1 
				116.5,73.8 116.2,74.4 115.6,75.5 115.7,76.5 117.2,76.9 117.3,77.9 118,78.6 117.8,79.7 118.7,80.2 118.8,81.1 118.9,82.1 
				119.2,83 119.4,83.9 119.7,84.7 121.2,85 121.5,85.8 122.2,86.5 122.7,87.3 122.7,88.3 123.2,89 122.6,90.4 123.6,90.8 
				124.5,91.4 124.8,92.3 125.5,92.9 124.6,94.4 126.2,94.6 125.8,95.8 126.4,96.5 126.6,97.4 127,98.2 127.5,98.9 128,99.7 
				128.5,100.5 128.6,101.4 129.5,102 129.7,102.9 130.4,103.6 130.9,104.3 130.6,105.4 131.7,105.9 130.5,107.2 131.2,107.9 
				131.1,108.7 130.9,109.6 130.4,110.3 130.4,111.2 130.3,112.1 129.9,112.9 128.9,113.2 128.2,113.6 127.9,115 127,115.4 
				126,115.5 125.1,114.7 124.2,114.9 123.5,114.2 122.3,114.8 122,113.4 120.6,114 120,113.1 119.3,112.5 118.6,111.9 117.3,112.3 
				116.8,111.2 115.7,111.4 115,110.6 114.2,110.1 113.5,109.5 112.5,109.4 111.6,109.2 111.3,107.8 110.2,108 109.5,107.3 
				109,106.2 108.2,105.8 106.9,106.2 106.6,104.8 105.5,105 104.7,104.6 104.1,103.6 103.4,103.1 102.1,103.6 101.6,102.5 
				100.4,102.7 100,101.5 98.9,101.3 98.1,100.6 97,100 96.2,101.1 95.7,101.8 95.2,102.5 95,103.5 95.6,104.3 96.3,104.8 
				97.3,104.8 97.6,105.8 98.4,106 99,106.8 99.8,107.2 100.9,107.2 101.2,108.4 102.5,108 102.9,109.2 104.3,108.6 105,109.1 
				105.6,109.9 106.6,109.9 106.8,111.5 107.8,111.5 109,111.3 109.1,112.9 110.2,112.8 111.3,112.6 111.8,113.7 112.7,113.9 
				113.7,113.9 114.5,114.3 115.3,114.8 115.9,115.5 116.3,116.7 117.3,116.7 118.1,117.3 118.7,118 119.4,118.5 120.2,119 
				121.1,119.3 122,119.4 122.9,119.9 123,120.9 123.6,121.6 124.2,122.4 123.6,123.4 124.6,124.2 123.8,125.2 124.7,126 124,127 
				123.7,128 124.3,128.8 124.8,129.7 125.5,130.5 124.3,131.6 125.2,132.4 125.4,133.3 125.4,134.2 124.7,135.2 126,136 125.4,137 
				125.9,137.8 126.6,138.7 126,139.7 125.5,140.6 126,141.5 125.7,142.4 125.9,143.3 126.3,144.2 127.5,144.7 127.2,145.7 
				128.2,146 127.7,147.5 128.7,147.7 129.9,147.5 130.1,148.8 130.6,149.7 131.7,150.1 132.3,150.9 131.6,152 131.6,152.8 
				132.2,154.1 131.3,154.7 130.1,154.9 			"/>
		</g>
		<path class="st2" d="M129.9,156c0-0.4,0.4-0.4,0.4-0.8c0.4-1.5,1.5-2.6,1.5-4.1c0-1.5-1.9-1.5-3-2.6c-2.3-1.9-2.6-4.5-3-7.1
			c-0.8-6.4-1.9-12.8-2.6-19.1c0-1.5-0.8-1.9-1.9-2.6c-7.9-4.5-16.1-9-24-13.5c-1.1-0.8-1.9-1.1-2.3-2.6c-0.4-1.1,0.4-2.3,1.1-3
			c1.1-0.8,2.3-0.4,3.4,0.4c7.5,4.1,14.6,8.3,22.1,12.4c3.4,1.9,6,1.9,7.9-0.4c1.9-1.9,2.3-4.9,0.8-7.9c-4.9-9.8-9.8-19.5-14.6-29.3
			c-1.1-2.3-0.4-3.8,1.5-4.5c1.9-0.4,2.6,0.4,3.4,1.9c4.9,9.4,9.4,18.4,14.3,27.8c0.4,1.1,1.1,2.3,1.9,3c1.9,1.9,3.8,2.3,6,1.5
			c1.9-0.8,3.8-3.4,3.8-5.6c0-12.4,0-25.1,0-37.5c0-1.9,0.4-3.8,2.6-3.8c1.9-0.4,3,0.8,3,3.4c0,6,0,11.6,0,17.6c0,6.8,0,13.1,0,19.9
			c0,4.5,3.4,7.9,7.9,7.9c1.1,0,1.9,0,2.3-1.1c0.4-0.8,1.1-1.9,2.3-2.6c2.6-2.6,5.3-2.6,7.9-0.8c3.4,2.3,5.6,6,8.3,9.4
			c1.1,1.5,0.8,3-0.8,3.8c-1.5,1.1-2.6,0.8-3.8-0.8c-1.9-1.9-3.8-4.1-5.6-6c-0.8-1.1-1.5-1.1-2.3,0c-0.8,0.8-1.5,1.9-2.6,1.1
			c-0.8-0.4-0.8,0.8-1.1,1.1c-2.6,6-4.1,12-2.3,18.4c0.4,1.5-0.8,1.5-1.1,1.5c-5.6,2.3-10.1,6-12.4,11.6c-0.8,1.9-0.8,2.6,1.5,3.4
			c2.3,0.8,3.4,0.8,4.5-1.9c2.6-6,8.3-8.3,14.6-9.4c1.5-0.4,3-0.4,4.5-0.4c1.9,0.4,3-0.4,3-2.3c0-1.9,0.4-3.8,0.8-5.6
			c0.4-3.4,3-5.3,6.4-4.9c-1.1,4.5-0.8,9.4-1.5,13.9c0,1.1-0.4,1.9-1.1,2.6c-3,3.4-6,7.1-9,10.5c-1.5,2.3-3.4,3.4-6,3
			c-0.4,0-0.8,0-0.8,0c-3.8,0.4-3.8,0.4-3.8,3.8c0,0.8,0,1.1,0,1.9C150.5,157.1,140.4,156.8,129.9,156z"/>
		<g>
			<polygon class="st0" points="248.6,193.5 249.5,193.9 249.7,194.7 250.4,195.1 250.6,195.8 251.4,196.2 251.6,196.9 251.9,197.5 
				252.2,198.2 252.6,198.8 252.9,199.5 253.2,200.1 253.4,200.8 253.4,201.5 254,202.1 253.9,202.9 254.3,203.6 254.4,204.3 
				254.4,205 254.2,205.8 254.5,206.5 254.2,207.2 254.1,207.9 254.5,208.6 254.2,209.3 254.1,210.1 253.9,210.8 253.9,211.5 
				253.7,212.2 253.5,212.9 253.3,213.6 253,214.2 252.9,214.9 252.6,215.6 252.5,216.4 252.3,217 251.6,217.5 251.5,218.3 
				251.1,218.9 250.8,219.6 250.1,220 250,220.8 249.5,221.3 248.9,221.8 248.5,222.3 248,222.9 247.5,223.4 247,223.9 246.7,224.6 
				246.1,225.1 245.5,225.5 245.1,226.1 244.2,226.2 243.8,226.8 243.1,227.1 242.6,227.6 242,228.1 241.4,228.4 240.6,228.5 
				240,228.9 239.4,229.4 238.6,229.4 238.1,229.9 237.3,229.8 236.6,230.1 236,230.4 235.2,230.5 234.5,230.6 233.8,230.8 
				233.2,231.3 232.4,231.1 231.7,231.3 231,231.3 230.3,231.3 229.6,231.7 228.9,231.5 228.1,231.7 227.4,231.5 226.7,231.8 
				226,231.4 225.2,231.7 224.5,231.5 223.9,231 223.1,231.2 222.4,231 221.7,230.8 221.1,230.5 220.3,230.5 219.7,230 218.9,230 
				218.3,229.6 217.8,229.1 217.1,228.7 216.4,228.6 215.9,228.1 215.3,227.6 214.7,227.2 214.1,226.8 213.4,226.6 213,225.9 
				212.4,225.5 211.8,225 211.3,224.5 211,223.8 210.7,223.1 209.9,222.7 209.6,222 209.4,221.3 208.9,220.7 208.6,220 208.3,219.3 
				208.2,218.6 208.1,217.8 208,217.1 207.9,216.4 207.7,215.6 207.8,214.9 207.9,214.2 208,213.4 208.1,212.7 208.2,212 
				208.2,211.3 208.5,210.6 209.2,210.2 209.5,209.5 210,209 210.5,208.4 211.1,208.1 211.7,207.6 212.4,207.6 213.1,207.2 
				213.8,207.3 214.5,207.1 215.2,207.6 215.7,208 216.5,208 217,208.6 217.6,209 217.7,209.8 218.1,210.3 218.6,210.9 218.6,211.6 
				218.9,212.3 218.7,213.1 219.1,213.8 219.5,214.4 219.6,215.1 219.8,215.8 220,216.6 220.7,217 220.9,217.8 221.6,218 
				222.2,218.5 222.8,219 223.4,219.4 224.1,219.4 224.8,219.7 225.6,220 226.3,219.9 227.1,219.7 227.8,219.7 228.5,219.8 
				229.2,219.9 229.9,219.9 230.6,219.7 231.4,219.9 232.1,219.7 232.8,219.5 233.4,219 234.2,219.1 234.9,218.9 235.6,218.5 
				236.3,218.3 236.9,217.9 237.3,217.2 238,216.9 238.6,216.4 238.8,215.7 239.2,215.1 239.9,214.7 240.2,214 240.6,213.4 
				240.9,212.7 241.1,212 240.9,211.2 241.4,210.6 241.4,209.8 241.7,209.1 241.7,208.4 241.7,207.7 241.4,207 241.6,206.2 
				241.3,205.5 241.2,204.8 241,204.1 241.1,203.3 240.6,202.8 240.3,202.1 239.8,201.6 239.4,201 238.7,200.7 238.1,200.4 
				237.6,199.8 237,199.5 236.3,199.2 235.6,199.1 234.8,199.5 234.1,199.1 233.4,199.4 232.6,199.3 232,199.6 231.3,199.9 
				230.7,200.1 230,200.3 229.3,200 228.6,200.4 227.9,200.2 227.2,200.2 226.6,199.8 225.8,200 225.3,199.3 224.7,199.1 
				224.2,198.6 223.9,198 223.3,197.5 223.3,196.7 222.7,196.2 222.9,195.5 222.6,194.8 222.9,194.1 222.8,193.4 222.9,192.7 
				222.9,191.9 223.4,191.4 224,190.9 224.2,190.2 224.7,189.7 225.2,189.1 225.9,189 226.7,188.9 227.3,188.4 228,188.4 
				228.7,188.4 229.4,187.9 230.1,188 230.9,188 231.6,187.9 232.3,188 233.1,188 233.8,187.9 234.6,187.7 235.3,187.8 236.1,187.8 
				236.8,187.4 237.6,187.4 238.2,187.2 238.9,187.2 239.6,186.8 240.3,186.7 241,186.5 241.5,186 242.3,185.9 242.8,185.4 
				243.3,184.9 243.5,184.1 244.3,183.9 244.3,183 244.8,182.5 245.2,181.9 245.3,181.2 245.7,180.6 245.7,179.9 245.9,179.2 
				246.4,178.6 246.2,177.8 246.3,177 246.3,176.3 246,175.6 245.8,174.9 245.4,174.2 244.8,173.8 244.3,173.1 243.7,172.8 
				242.9,172.7 242.2,172.4 241.5,172.1 240.7,172.2 240,172.4 239.3,172.4 238.7,172.9 238.1,173.2 237.4,173.6 236.7,173.9 
				236.2,174.4 235.8,175.1 235.7,175.8 235.3,176.4 234.7,176.9 234.6,177.7 234,178.1 233.7,178.9 233,179.2 232.4,179.7 
				231.8,180 231.1,180.2 230.4,180.5 229.6,180.6 228.9,180.3 228.1,180.5 227.5,180 226.8,179.8 226.1,179.6 225.5,179.3 
				225.1,178.7 224.5,178.3 224.3,177.6 224,177 223.7,176.3 223.4,175.7 223.7,174.9 223.7,174.2 223.8,173.5 224,172.9 
				224.1,172.2 224.4,171.5 224.8,170.9 225.2,170.2 225.2,169.4 225.8,168.9 226.1,168.2 226.7,167.7 227.1,167.1 227.8,166.8 
				228.3,166.2 228.8,165.7 229.4,165.2 230.1,164.8 230.8,164.5 231.4,164.2 232.1,163.9 232.8,163.7 233.5,163.5 234.2,163.5 
				234.8,162.9 235.6,163 236.3,162.8 237,162.7 237.6,162.2 238.4,162.4 239.1,162.2 239.8,162 240.5,161.8 241.2,162.2 242,161.9 
				242.7,162.1 243.4,162.3 244.1,162.1 244.9,162 245.5,162.5 246.3,162.5 246.9,162.8 247.6,162.9 248.2,163.4 248.9,163.6 
				249.7,163.6 250.2,164.2 251,164.3 251.6,164.6 252.3,164.8 252.9,165.3 253.3,166 254.1,166.2 254.6,166.7 255.1,167.2 
				255.6,167.7 256.4,168 256.8,168.6 256.9,169.4 257.6,169.8 258.1,170.4 258.3,171.1 258.7,171.7 258.8,172.4 259.2,173.1 
				259.4,173.8 259.4,174.5 259.2,175.3 259.6,176 259.6,176.7 259.6,177.5 259.6,178.2 259.2,178.9 259,179.6 258.9,180.3 259,181 
				258.9,181.8 258.4,182.3 258.2,183 258.1,183.8 257.6,184.3 257.3,185 256.8,185.5 256.7,186.3 256.4,187 255.7,187.3 255.4,188 
				254.8,188.5 254.3,188.9 253.8,189.5 253.5,190.2 253,190.7 252.3,191 251.9,191.7 251.1,191.8 250.7,192.5 250.2,193 249.4,193 
							"/>
		</g>
		<g>
			<polygon class="st0" points="162.9,194.3 162.1,194.2 161.4,194.3 160.6,194.3 159.8,194.5 159.2,194 158.4,193.8 157.6,193.9 
				157.3,194.7 156.9,195.4 156.8,196.1 156.5,196.8 156.2,197.4 156.1,198.1 156,198.9 155.5,199.5 155.7,200.2 155.3,200.9 
				155,201.5 154.9,202.3 154.6,202.9 154.3,203.6 154,204.4 153.2,204.7 152.8,205.4 152,205.6 151.3,206.1 150.6,206.2 
				149.8,206.4 149.1,206 148.4,205.9 147.8,205.4 147,205.3 146.9,204.5 146.7,204 146.3,203.4 146.7,202.8 146.5,202 146.6,201.4 
				147.2,200.8 147.3,200.1 147.4,199.4 147.7,198.7 148.1,198.1 148.2,197.4 148.4,196.7 148.6,196 148.8,195.3 148.9,194.6 
				149.4,194 149.5,193.3 149.6,192.6 150.1,192 150.3,191.3 150.3,190.6 150.6,189.9 150.9,189.3 151.1,188.6 151.6,188 
				151.7,187.3 151.8,186.5 152.2,185.9 152.6,185.3 152.7,184.6 153.1,184 153.2,183.2 153.6,182.6 153.5,181.8 153.7,181.2 
				153.9,180.5 154.6,179.9 154.4,179.1 155,178.5 154.9,177.8 155.4,177.2 155.4,176.4 155.9,175.8 156.2,175.2 156.2,174.4 
				156.5,173.8 156.8,173.1 156.9,172.4 157.1,171.7 157.6,171.1 157.9,170.5 158,169.8 158.3,169.1 158.5,168.4 158.7,167.7 
				158.9,167 159.3,166.4 159.6,165.7 160,165.1 160.2,164.4 160.8,163.9 161.3,163.3 162,163.1 162.6,162.7 163.4,162.7 
				164.1,162.9 164.7,163.2 165.5,163.4 166.1,163.8 166.6,164.4 166.6,165.2 166.8,165.9 166.9,166.6 166.8,167.3 166.8,168 
				166.6,168.7 166,169.3 166,170 165.9,170.7 165.6,171.3 165.3,171.9 165.2,172.6 165.1,173.3 164.5,173.9 164.2,174.5 
				164.1,175.2 164.1,175.9 164.7,175.8 165.4,175.7 166.1,175.7 166.8,176 167.5,175.9 168.1,176.4 168.9,176.3 169.5,176.8 
				170.1,177.2 170.8,177.6 171.3,178 172,178.4 172.5,178.9 173,179.4 173.2,180.2 173.5,180.8 173.8,181.5 174.2,182.2 
				173.8,182.9 174.1,183.6 174.2,184.3 173.9,185 173.7,185.7 173.6,186.4 173.5,187.1 172.9,187.6 172.7,188.2 172.2,188.8 
				171.8,189.3 171.3,189.8 171.1,190.5 170.6,191.1 170.9,191.8 171.2,192.4 171.2,193.1 171.4,193.8 171.5,194.6 171.5,195.3 
				171.3,196 171.1,196.7 170.5,197.3 170.3,198 170.1,198.7 170.1,199.4 170.4,199.9 171.1,200.3 171.9,200.3 172.7,199.9 
				173.4,199.8 174,199.3 174.5,198.8 174.8,198.1 175.3,197.5 175.8,197 176.3,196.4 176.7,195.9 176.7,195 176.9,194.3 
				177.3,193.7 177.8,193.1 178,192.4 178.4,191.8 178.5,191 179.1,190.6 179.7,190.2 180.4,190 181.1,189.8 181.8,190.3 
				182.4,190.4 183.2,190.6 183.8,190.8 184.2,191.4 184.5,192 184.4,192.7 183.7,193 183.7,193.9 183,194.3 183.1,195.1 
				182.6,195.8 183,196.6 182.6,197.2 182.4,197.9 182.1,198.6 181.9,199.3 181.5,199.9 181.2,200.6 180.7,201.1 180.1,201.6 
				179.9,202.3 179.3,202.7 178.9,203.4 178.4,203.9 177.7,204.2 177,204.5 176.5,205.1 175.8,205.2 175.1,205.5 174.6,206.1 
				173.8,206.2 173.2,206.4 172.5,206.5 171.8,206.8 171.1,206.9 170.4,207 169.6,207 168.9,206.9 168.2,206.9 167.5,206.7 
				166.7,206.7 166,206.5 165.5,205.8 164.8,205.6 164.2,205.2 163.6,204.7 163.5,203.9 162.7,203.5 162.7,202.7 162.6,202 
				162.4,201.3 162.3,200.6 162.3,199.8 162.4,199.1 162.2,198.4 162.4,197.6 162.5,197 162.4,196.3 162.8,195.6 162.7,194.9 			"/>
		</g>
		<g>
			<polygon class="st0" points="78.5,175.9 78.7,175.8 79.2,175.9 79.9,175.9 80.6,176 81.3,175.9 82,176.1 82.8,176.1 83.5,176.1 
				84.1,176.6 84.7,177 85.3,177.3 86.1,177.5 86.5,178 87.2,178.4 87.7,178.9 87.9,179.6 88.3,180.2 88.5,180.9 88.4,181.6 
				88.6,182.3 88.9,183 88.7,183.7 88.5,184.4 88.5,185.1 88.5,185.9 88.5,186.6 87.9,187.2 88,188 87.4,188.5 87.5,189.3 
				86.9,189.8 86.9,190.6 86.5,191.2 86.2,191.8 86.3,192.6 86,193.3 85.5,193.9 85.6,194.7 85.2,195.3 84.9,195.9 84.8,196.7 
				84.5,197.3 84.2,198 84.1,198.8 84.4,199.6 85,200.1 85.8,200.1 86.5,199.9 87.2,199.7 87.6,199.1 88.1,198.6 88.7,198.3 
				89.3,197.9 89.8,197.4 90.5,197.1 90.9,196.4 90.9,197.3 90.4,197.9 90.7,198.6 90.4,199.3 90.5,200 90.6,200.7 90.6,201.4 
				90.9,202.1 91.3,202.6 91.8,203.2 91.6,203.9 91.5,204.5 90.9,204.9 90.3,205.3 89.7,205.6 88.9,205.6 88.2,205.9 87.6,206.3 
				86.9,206.5 86.1,206.3 85.4,206.7 84.7,206.4 84,206.3 83.2,206.6 82.5,206.4 81.8,206.1 81.2,205.7 80.5,205.5 80,205 
				79.2,204.8 78.6,204.4 78.2,203.8 77.7,203.3 77.5,202.6 77.1,202 76.8,201.4 76.4,200.8 76.6,200 76.3,199.3 76.6,198.6 
				76.7,197.9 76.6,197.2 76.9,196.5 77,195.8 77.5,195.3 77.7,194.6 78.1,194 78.3,193.3 78.2,192.6 78.6,191.9 78.6,191.2 
				79.2,190.7 79.3,190 79.5,189.3 79.9,188.7 80,188 80,187.2 80.6,186.7 80.7,186 81,185.4 81.3,184.8 80.9,184.1 80.7,183.6 
				80.2,183.2 79.6,182.8 78.8,182.8 78.1,183.1 77.4,183.5 76.9,183.9 76.2,184.1 75.9,184.7 75.4,185.3 75.4,186 74.9,186.5 
				74.9,187.2 74.7,187.9 74.1,188.5 74.2,189.2 73.9,189.9 73.5,190.5 73.2,191.2 73,191.9 72.6,192.5 72.5,193.2 72.3,193.9 
				71.9,194.5 71.7,195.2 71.8,195.9 71.3,196.5 71.2,197.2 71,197.9 70.3,198.4 70.3,199.2 70.3,199.9 69.9,200.5 69.8,201.3 
				69.1,201.8 69.1,202.5 68.8,203.1 68.7,203.8 68.1,204.3 67.8,204.9 67.5,205.5 67,206 66.5,206.4 65.9,206.8 65.2,206.9 
				64.5,206.5 63.8,206.8 63.2,206.3 62.5,206 62.2,205.3 61.4,204.8 61.3,204 61.4,203.3 61,202.5 61.4,201.9 61.3,201.1 
				61.6,200.5 62,199.9 62.2,199.2 62.3,198.5 62.8,197.9 63,197.2 63.2,196.5 63.6,195.9 63.6,195.2 63.8,194.5 64.1,193.8 
				64.2,193.1 64.7,192.5 64.9,191.8 65.2,191.2 65.3,190.5 65.4,189.7 65.6,189 66.2,188.5 66.2,187.7 66.7,187.2 66.9,186.5 
				67.1,185.8 67.3,185.1 67.5,184.4 67.9,183.8 68.1,183.1 68.4,182.5 68.3,181.7 68.7,181.1 69,180.4 69.4,179.8 69.5,179.1 
				69.9,178.5 70.1,177.8 70.5,177.1 70.7,176.5 70.9,175.8 70.9,175 71.4,174.5 71.4,173.7 71.7,173.1 72.1,172.4 72.1,171.7 
				72.5,171.1 72.6,170.3 72.7,169.6 73.3,169.1 73.2,168.3 73.7,167.7 73.6,166.9 74,166.2 74.3,165.5 75,165.2 75.5,164.7 
				76.2,164.5 76.6,163.8 77.3,163.9 77.9,163.8 78.6,163.6 79.1,164.1 79.9,164.2 80.6,164.5 80.7,165.3 81.1,165.9 81.5,166.5 
				81.5,167.3 81.2,167.9 81.3,168.6 81.2,169.3 81,170 80.8,170.7 80.5,171.4 80,171.9 79.8,172.6 79.7,173.3 79.2,173.9 
				78.9,174.5 78.9,175.3 			"/>
		</g>
		<g>
			<polygon class="st0" points="61.7,194.5 61.6,195.4 61.3,196.1 61.2,196.8 60.6,197.4 60.3,198.1 60.4,198.9 60,199.5 
				59.9,200.2 59.6,200.8 59.6,201.5 59.4,202.2 59.3,202.9 59.4,203.6 59.1,204.1 58.5,204.5 58.1,205.1 57.5,205.5 56.7,205.5 
				56,205.7 55.3,205.9 54.6,205.9 53.9,206.3 53.2,206.4 52.5,206.6 51.8,206.7 51.1,206.7 50.4,206.6 49.7,206.3 48.9,206.7 
				48.2,206.3 47.5,206.7 46.8,206.3 46.1,206.3 45.4,206 44.7,205.8 44,206 43.3,205.7 42.6,205.4 42,205 41.3,204.8 40.8,204.3 
				40,204.3 39.5,203.7 39,203.2 38.3,202.9 37.7,202.5 37.2,202 37,201.2 36.3,200.8 35.9,200.3 35.9,199.5 35.3,198.9 35.2,198.2 
				35,197.5 35.1,196.8 34.8,196.1 34.6,195.4 34.6,194.7 34.7,194 34.5,193.3 34.6,192.6 35,191.9 35,191.2 35.5,190.6 35.5,189.8 
				35.9,189.2 36,188.5 36.5,187.9 36.6,187.2 36.5,186.4 36.8,185.7 37.2,185.1 37.2,184.4 37.7,183.8 37.6,183 38.1,182.4 
				38.1,181.6 38.7,181.1 38.8,180.4 38.9,179.6 39.4,179.1 39.5,178.4 39.5,177.6 40,177 40.2,176.3 40.6,175.7 40.6,174.9 
				41,174.3 41.3,173.7 41.4,173 41.5,172.2 42.2,171.7 42.3,171 42.5,170.3 42.5,169.5 43.2,169 43.3,168.2 43.9,167.8 44.1,167 
				44.4,166.3 45.2,166 45.5,165.4 46,164.8 46.6,164.5 47.2,164 47.8,163.6 48.3,163 49.1,163.1 49.8,162.7 50.5,162.5 51.1,162 
				51.8,161.9 52.5,161.8 53.2,161.8 54,161.8 54.7,161.5 55.4,161.6 56.2,161.5 56.9,161.7 57.5,162.2 58.2,162.4 58.9,162.6 
				59.6,162.8 60.4,162.8 60.8,163.6 61.4,163.9 62.1,164.1 62.6,164.8 62.8,165.5 63.3,166 63.8,166.5 64,167.3 64.3,167.9 
				64.7,168.5 64.8,169.3 64.8,170 64.8,170.7 64.8,171.4 64.8,172.1 64.9,172.9 64.7,173.6 64.4,174.3 64.3,175 63.8,175.5 
				63.6,176.3 63.2,176.9 62.8,177.5 62.3,178 61.7,178.4 61,178.8 60.3,179.1 59.5,179 58.8,178.8 58.2,178.7 57.5,178.4 
				56.9,178.2 56.3,177.7 56,177 55.5,176.5 55.7,175.7 55.9,175 55.9,174.4 56.1,173.7 56,172.9 56.1,172.3 56.3,171.6 56.2,170.9 
				55.9,170.2 55.2,170 54.5,169.8 53.9,169.6 53.2,169.7 52.6,170 52.1,170.5 51.6,170.9 51.3,171.5 50.9,172.1 50.6,172.7 
				50.2,173.4 50,174 49.7,174.7 49.5,175.4 49.3,176 48.9,176.7 48.9,177.4 48.4,178 48.4,178.7 47.9,179.3 47.6,180 47.6,180.7 
				47.2,181.3 47.1,182.1 46.9,182.8 46.6,183.4 46.5,184.1 46.1,184.8 46.1,185.5 45.9,186.2 45.5,186.8 45.1,187.4 44.9,188.1 
				44.9,188.8 44.5,189.5 44.4,190.2 44.3,190.9 43.9,191.5 43.8,192.3 43.6,193 43.2,193.6 43.3,194.4 43.6,195.1 43.5,195.8 
				43.7,196.6 44.2,197.2 44.8,197.6 45.4,198 45.7,198.8 46.5,198.9 46.9,199.5 47.7,199.5 48.3,200.1 49.1,200 49.8,200.3 
				50.5,200.4 51.2,200 51.9,200.1 52.7,200.2 53.3,199.7 54,199.7 54.7,199.5 55.3,199 55.9,198.8 56.5,198.4 57.1,198 57.8,197.8 
				58.4,197.5 59,197 59.5,196.6 60.1,196.2 60.4,195.5 60.9,195 			"/>
		</g>
		<g>
			<polygon class="st0" points="121.3,195.7 121.4,196.5 121.6,197.3 121.3,198.1 121.8,198.7 121.8,199.6 122.1,200.2 122.8,200.8 
				123,201.5 123.6,201.9 123.5,202.6 123.3,203.2 122.8,203.8 122,203.9 121.5,204.4 121,205 120.3,205.3 119.5,205.4 119,205.9 
				118.3,206.2 117.5,206.2 116.8,206.1 116,206.4 115.3,206.2 114.6,206.5 113.8,206.4 113.1,206.4 112.4,206 111.7,205.7 
				111,205.5 110.2,205.4 109.6,205 109.1,204.4 108.4,204.1 108,203.5 107.3,203.8 106.5,203.9 106,204.3 105.4,204.8 105,205.4 
				104.2,205.5 103.7,206.1 103.1,206.4 102.3,206.4 101.7,206.7 101,206.7 100.2,206.6 99.5,206.8 98.8,206.4 98.1,206.6 
				97.4,206.3 96.8,205.9 96,205.9 95.3,205.6 94.8,205.1 94.2,204.7 93.7,204.1 93.4,203.4 93,202.8 92.5,202.3 92.3,201.5 
				92.5,200.8 92.5,200.1 92.2,199.4 92.2,198.6 92.2,197.9 92.4,197.2 92.8,196.6 93.1,195.9 93.4,195.2 93.6,194.5 93.8,193.8 
				93.9,193.1 94.4,192.5 94.5,191.7 94.7,191.1 95,190.4 95.3,189.7 95.3,188.9 95.6,188.3 95.7,187.6 96.1,186.9 96.4,186.3 
				96.7,185.6 96.9,184.9 96.9,184.1 97.3,183.5 97.6,182.8 98.1,182.2 98,181.4 98.4,180.8 98.5,180.1 99,179.6 99.2,178.9 
				99.6,178.3 99.8,177.6 100.4,177.2 100.7,176.4 101.6,176.4 102.2,175.9 102.9,176.1 103.7,175.8 104.4,176.2 105,176.7 
				105.5,177.1 106.2,177.4 106.4,178.1 106.5,178.8 107,179.5 106.8,180.2 106.3,180.8 106.1,181.5 106.2,182.3 105.6,182.8 
				105.6,183.6 105.4,184.2 104.9,184.8 105,185.6 104.5,186.2 104.4,186.9 104.1,187.5 103.7,188.1 103.7,188.9 103.3,189.5 
				103.4,190.3 103,190.9 102.6,191.5 102.6,192.2 102.1,192.8 101.9,193.5 101.5,194.1 101.7,194.9 101.1,195.4 100.9,196.1 
				100.8,196.8 100.7,197.5 100,198 100.2,198.7 100.3,199.3 100.6,200 101.4,200 102,200.2 102.7,199.9 103.1,199.3 104,199.1 
				104.3,198.4 105.1,198.2 105.3,197.4 105.7,196.9 106.1,196.3 106.6,195.8 106.8,195.2 107.3,194.6 107.4,193.9 107.8,193.3 
				107.8,192.5 107.9,191.8 108.2,191.1 108.6,190.5 109,189.8 109,189.1 109.3,188.4 109.5,187.6 109.7,186.9 109.9,186.2 
				110.1,185.5 110.7,184.9 111,184.2 110.9,183.4 111.3,182.8 111.4,182.1 111.9,181.4 111.9,180.7 112.2,180 112.5,179.2 
				113.1,178.6 113.2,177.7 113.9,177.3 114.1,176.5 114.9,176.4 115.5,176 116.2,175.7 116.9,175.8 117.6,175.9 118.3,176.1 
				118.9,176.5 119.6,176.8 119.8,177.5 120,178.2 120.5,178.7 120.3,179.4 120.4,180.1 120.2,180.8 120.1,181.5 119.7,182.1 
				119.2,182.7 119.1,183.4 118.8,184.1 118.5,184.7 118.5,185.5 118.4,186.2 117.9,186.8 117.8,187.5 117.5,188.1 117.2,188.8 
				117.2,189.5 116.9,190.2 116.8,190.9 116.6,191.5 116.3,192.2 116,192.8 115.5,193.4 115.7,194.2 115.1,194.8 115.3,195.6 
				114.8,196.1 114.7,196.8 114.3,197.4 114,198 114.1,198.7 114,199.3 114.2,199.9 114.7,200.3 115.4,200.2 116,200.5 116.6,199.8 
				117.3,199.7 117.9,199.3 118.3,198.7 118.8,198.2 119.3,197.7 120,197.4 120.2,196.7 120.6,196.1 			"/>
		</g>
		<g>
			<polygon class="st0" points="196.3,206.7 195.6,206.7 194.9,206.8 194.2,206.6 193.4,206.6 192.8,206 192.2,205.9 191.4,205.8 
				190.8,205.6 190.1,205.4 189.4,205.2 188.9,204.6 188.3,204.2 187.5,204 187,203.5 186.6,202.9 185.9,202.5 185.7,201.7 
				185.2,201.1 184.8,200.5 184.8,199.8 184.4,199.1 184.4,198.3 184.5,197.6 184.2,196.9 184.6,196.2 184.3,195.4 184.7,194.7 
				184.9,194 185.2,193.3 185.6,192.8 186,192.1 186.6,191.7 186.9,191 187.6,190.6 188.1,190 188.7,189.6 189.6,189.4 189.8,188.6 
				190.1,187.8 190.8,187.3 190.9,186.5 191.5,186 191.7,185.3 192.1,184.6 192.5,184 192.7,183.3 193.2,182.7 193.3,182 
				193.6,181.3 194.3,180.8 194.4,180.1 195,179.5 195.3,178.9 195.6,178.2 196,177.6 196.5,177.1 196.6,176.3 197.3,176 
				197.7,175.4 198.3,175 199.1,175.2 199.7,174.8 200.5,175 201.1,174.9 201.8,174.9 202.4,174.9 203.2,174.9 203.8,175.3 
				204.1,176 204.6,176.4 205,177 205.1,177.8 205.6,178.5 205.4,179.2 205.4,180 205.1,180.7 204.9,181.5 204.1,181.8 203.7,182.4 
				203.5,183.1 203.4,183.7 203.3,184.4 203.7,185 204.1,185.5 204.6,186.1 204.8,186.8 205.2,187.4 205.7,187.9 206.1,188.5 
				206.1,189.3 206.3,190 206.6,190.6 207.2,191.2 207.2,191.9 207.5,192.5 207.5,193.3 207.8,193.9 208,194.6 207.9,195.3 
				208.1,196 208.2,196.8 208.2,197.5 207.7,198.1 207.8,198.9 207.3,199.5 207.1,200.1 207,200.9 206.5,201.4 206.3,202.1 
				205.6,202.5 205.3,203.1 204.9,203.8 204.1,204 203.6,204.4 203.2,205.1 202.5,205.3 201.8,205.4 201.2,206 200.6,206.2 
				199.8,206.3 199.1,206.3 198.4,206.5 197.7,206.4 197,206.7 			"/>
		</g>
		<g>
			<polygon class="st0" points="147.2,194.6 146.7,195.3 146.5,195.9 146.5,196.7 146.1,197.3 145.6,197.9 145.3,198.6 145.2,199.3 
				145.1,200 145.2,200.7 144.7,201.4 144.7,202.1 144.6,202.8 144.4,203.5 144.2,204.2 143.5,204.5 143,205 142.4,205.3 
				141.7,205.4 141,205.7 140.4,206.1 139.6,205.9 138.9,206 138.2,206 137.5,206.3 136.8,206.5 136.1,206.1 135.4,206.3 134.7,206 
				133.9,206.2 133.2,206 132.6,205.8 131.8,205.8 131.2,205.4 130.5,205.2 130,204.6 129.3,204.3 128.6,204.1 127.9,203.7 
				127.2,203.5 126.8,202.8 126.4,202.2 125.9,201.7 125.5,201.1 124.9,200.6 124.4,200 124.2,199.3 123.9,198.6 123.9,197.9 
				123.8,197.1 123.7,196.4 123.9,195.7 123.9,195 123.8,194.2 123.9,193.4 124.1,192.7 124.4,192.1 124.9,191.5 125.1,190.8 
				125,190 125.3,189.4 125.7,188.7 126,188.1 126.2,187.4 126.2,186.7 126.6,186.1 126.7,185.4 127,184.7 127.4,184.1 127.3,183.3 
				127.5,182.6 127.9,181.9 128.3,181.3 128.6,180.7 129.3,180.3 129.6,179.6 130.1,179.1 130.7,178.6 131,177.9 131.7,177.6 
				132.3,177.1 132.9,176.7 133.7,176.6 134.4,176.4 134.9,175.8 135.7,175.7 136.4,175.7 137.1,175.6 137.9,175.5 138.6,175.4 
				139.3,175.5 140,175.8 140.8,175.9 141.5,176 142,176.6 142.8,176.8 143.3,177.3 143.8,177.8 144.4,178.2 144.8,178.9 145,179.6 
				145.6,180.1 145.6,180.8 146.2,181.4 146.1,182.2 146.2,182.9 146.2,183.6 146.4,184.3 146.1,185 146.1,185.8 145.9,186.5 
				145.8,187.2 145.5,187.9 145,188.5 144.7,189.1 144.2,189.7 143.5,190 143,190.3 142.3,190.7 141.6,190.5 141,190.3 140.2,190.5 
				139.7,190 138.9,190 138.6,189.3 138.1,188.9 137.9,188.3 137.4,187.6 137.9,187 137.7,186.2 138.2,185.7 138.4,185 138.7,184.4 
				138.5,183.7 138.2,183.2 137.9,182.5 137,182.6 136.5,182.8 135.7,183.1 135.4,183.8 135.3,184.6 134.7,185.1 134.9,186 
				134.4,186.6 134.1,187.3 134,188 133.7,188.7 133.4,189.4 133.4,190.1 133,190.7 132.9,191.5 132.3,192.1 132.1,192.8 
				132.1,193.5 131.9,194.2 131.8,194.9 132,195.6 131.8,196.4 132.1,197.1 132.7,197.5 133.1,198.1 133.6,198.6 134.3,198.8 
				134.9,199.2 135.6,199.3 136.3,199.4 137,199.6 137.7,199.5 138.4,199.6 139.1,199.6 139.7,199.2 140.5,199.3 141,198.8 
				141.8,198.7 142.3,198.3 142.9,197.9 143.5,197.5 144,197 144.6,196.6 145,196.1 145.6,195.8 146,195.3 146.5,194.9 147.2,194.5 
							"/>
		</g>
		<g>
			<polygon class="st3" points="161.4,223.2 160.7,222.9 159.9,223.1 159.3,222.7 158.5,222.5 158,223.2 157.4,223.7 157.3,224.4 
				157.3,225.2 156.8,225.8 156.8,226.7 156.3,227.4 155.7,227.9 154.9,228.1 154.2,228.1 153.6,227.9 152.9,227.7 152.4,227.2 
				152.3,226.5 152.4,225.8 152.8,225.2 153,224.5 152.9,223.7 153.5,223.1 153.6,222.4 153.9,221.8 153.9,221 154.3,220.4 
				154.7,219.8 154.7,219 155.3,218.5 155.1,217.6 155.8,217.1 155.6,216.3 156.2,215.7 156.1,214.9 156.4,214.3 156.9,213.7 
				157,213 157.4,212.4 157.4,211.6 157.6,210.9 158.1,210.3 158.1,209.6 158.4,208.9 158.7,208.2 159.2,207.7 159.9,207.5 
				160.5,207.1 161.2,207.3 161.6,207.9 162.3,208.2 163,208.5 163.7,208.2 164.4,208 165.2,208 165.9,208.1 166.5,208.6 
				167.2,208.8 167.8,209.2 168.3,209.8 169,210.2 169.1,210.9 169.1,211.6 169.1,212.3 169.2,213.1 169,213.8 168.9,214.5 
				168.9,215.3 168.4,216 168.2,216.7 168.2,217.5 167.8,218.1 167.3,218.7 166.8,219.3 166.7,220.1 166.4,220.8 166.2,221.5 
				165.4,221.7 164.8,222.2 164.2,222.5 163.5,222.8 162.9,223.1 162.1,223 			"/>
		</g>
		<g>
			<polygon class="st3" points="193.1,223.1 192.2,223.1 191.6,222.9 191,223 190.6,223.6 190.1,224 189.7,224.7 189.4,225.3 
				189.5,226.2 189.3,226.9 188.7,227.4 188.2,227.8 187.6,228.4 186.9,228.3 186.2,228 185.6,227.5 185.1,227.1 185.2,226.4 
				185.4,225.7 185.3,224.9 186,224.4 186.2,223.7 186.3,222.9 186.3,222.2 186.7,221.5 187.1,220.9 187.4,220.2 187.6,219.5 
				187.8,218.8 188.2,218.1 188.5,217.5 188.5,216.7 188.8,216 188.9,215.3 189.2,214.6 189.3,213.8 189.8,213.2 189.9,212.5 
				190.3,211.8 190.4,211.1 190.5,210.4 191.1,209.8 191.3,209.2 191.8,208.8 192.3,208.4 193,208.4 193.6,208.7 194.2,209.1 
				194.7,209.6 194.6,210.4 194.8,211.2 194.4,211.9 194.2,212.6 193.8,213.3 193.8,214.1 194.5,214.6 195.2,214.7 195.9,215 
				196.6,215.2 197.4,215.4 197.9,216 198,216.7 198.3,217.4 198.1,218.2 198,218.9 198,219.6 197.4,220.2 197.1,220.8 196.8,221.5 
				196.6,222.2 196.5,222.9 196.6,223.6 196.6,224.4 196.3,225 196.4,225.6 196.8,225.6 197.3,225.2 197.9,224.9 198.6,224.5 
				198.9,223.8 199.2,223.1 199.3,222.4 199.6,221.8 200.1,221.4 200.6,221.1 201.3,221.1 201.8,221.5 202.4,221.7 202.9,222.3 
				202.8,223 202.3,223.6 201.8,224.1 201.8,225 201.2,225.6 200.6,226.1 200.3,226.8 199.6,227.1 199.1,227.7 198.5,228.2 
				197.8,228.3 197.2,228.8 196.4,228.9 195.7,228.8 195,228.5 194.4,228.3 193.8,227.9 193.2,227.5 192.9,226.8 192.7,226.1 
				192.6,225.4 192.9,224.7 192.9,223.9 			"/>
		</g>
		<g>
			<polygon class="st3" points="189.6,164.6 189.2,164 188.6,163.6 188.5,162.9 188,162.3 187.7,161.7 187.8,161 187.4,160.3 
				187.9,159.7 188.2,159.1 188.3,158.4 188.9,158 189.3,157.4 189.9,156.9 190.6,156.5 191.3,156.4 192.1,156.4 192.8,156.7 
				193.5,156.8 194.2,157 194.8,157.5 195.2,158.1 196,158.4 196,159.3 196.4,159.9 196.5,160.6 196.6,161.3 196.9,162 196.7,162.8 
				196.9,163.5 196.4,164.2 196.4,165 196,165.6 195.4,166.2 194.8,166.6 194.5,167.2 193.9,167.8 193.2,168.1 192.6,168.4 
				191.9,168.7 191.2,168.8 190.5,169.3 189.8,169.4 189,169.2 188.3,169.6 187.5,169.4 186.9,168.9 186.1,169 185.5,168.5 
				185,167.9 184.5,167.3 184.7,166.5 185.2,165.9 185.6,165.3 186.1,164.8 187,164.8 187.6,165.1 188.3,165.2 188.9,164.8 			"/>
		</g>
		<g>
			<polygon class="st4" points="185.4,223.2 185,223.8 184.9,224.5 184.9,225.3 184.3,225.8 184.1,226.4 183.8,227.1 183.4,227.7 
				182.6,227.9 182,228.2 181.4,228.6 180.7,228.6 180,228.6 179.3,228.2 178.6,228.4 177.8,228.3 177.2,227.8 176.5,227.7 176,227 
				175.4,226.6 175.1,226 175.1,225.2 174.6,224.6 174.6,223.8 175,223.2 174.8,222.4 174.8,221.7 175.4,221.1 175.4,220.4 
				175.5,219.7 175.7,219 176.3,218.5 176.4,217.8 176.6,217.1 177.1,216.5 177.6,216 178.2,215.6 178.8,215.3 179.3,214.8 
				180,214.6 180.7,214.7 181.4,214.7 182.1,214.8 182.8,214.9 183.5,215 184,215.6 184.4,216.2 184.9,216.7 184.9,217.4 185.2,218 
				185.2,218.7 184.9,219.4 184.9,220.1 184.7,220.8 184,221.1 183.5,221.7 182.8,221.8 182.2,221.3 181.3,221.3 181.2,220.5 
				181.2,219.7 181.7,219.1 181.4,218.5 181.2,218 180.7,218 180.2,218.3 179.9,218.9 179.5,219.6 179.5,220.3 178.9,220.8 
				178.9,221.6 178.7,222.2 178.3,222.8 178.5,223.6 178.1,224.3 178.5,225 179.2,225.1 179.8,225.5 180.5,225.4 181.2,225.3 
				181.9,225.1 182.5,225 183.2,224.7 183.9,224.6 184.3,224 184.8,223.5 			"/>
		</g>
		<g>
			<polygon class="st5" points="174.2,222.8 174,223.5 174.1,224.3 174.7,224.9 175.1,225.6 174.9,226.5 174.3,227 173.6,227.4 
				172.8,227.6 172.2,228.1 171.4,228.1 170.6,228.2 169.9,227.8 169.2,227.8 168.5,227.4 167.8,227.1 167.7,226.3 167.1,225.9 
				167,225.2 166.8,224.5 167,223.9 166.9,223.2 167.1,222.5 167.5,221.9 167.7,221.2 168.1,220.6 168.3,220 168.1,219.2 
				168.4,218.5 168.9,218 169.2,217.4 169.3,216.6 169.4,216 169.9,215.4 170.2,214.7 170.9,214.4 171.6,214.3 172.3,214.4 
				173,214.9 173.4,215.6 173.4,216.4 173.2,217.3 172.9,217.9 172.6,218.5 172.5,219.2 171.8,219.8 171.8,220.5 171.6,221.2 
				171.1,221.8 170.9,222.5 170.9,223.2 170.4,223.8 170.1,224.6 170.8,225.1 171.4,225.2 172.1,225.3 172.7,224.9 173,224.3 
				173.4,223.8 173.8,223.3 			"/>
		</g>
		<g>
			<polygon class="st6" points="173.4,208 174.1,208 174.8,208.3 175.4,208.7 175.4,209.4 175.5,210 175.7,210.8 175.1,211.4 
				174.6,212.1 173.8,211.8 173,212 172.4,211.4 172.2,210.7 171.9,210 172,209.4 172.3,208.8 172.7,208.1 			"/>
		</g>
		<path class="st2" d="M108.5,97.8c-3.8,0-6.4-2.6-6.4-6.4s2.6-6.8,6.4-6.4c3.8,0,6.4,2.6,6.4,6.4S112.3,97.8,108.5,97.8z"/>
		<path class="st2" d="M139.3,69c0,3.8-2.6,6.8-6.4,6.8c-3.4,0-6.4-3-6.4-6.4c0-3.8,3-6.4,6.4-6.4C136.6,62.2,139.3,65.2,139.3,69z"
			/>
		<path class="st2" d="M171.9,87.3c0,3.4-2.6,6.4-6.4,6.8c-3.4,0-6.8-3-6.8-6.4s3-6.4,6.4-6.4C168.9,81,171.9,84,171.9,87.3z"/>
		<path class="st1" d="M131.4,81.3c1.9-0.4,3.4,0,5.3-0.4c1.5-0.4,2.6-1.1,4.5-1.9c0,6.8,0,13.5,0,19.9h-0.4
			C137.4,93,134.4,87,131.4,81.3z"/>
		<path class="st1" d="M119.8,97.1c1.9,4.1,3.8,7.5,5.3,11.3l-0.4,0.4c-3.4-1.9-6.8-3.8-10.1-5.6C116.4,101.2,118.3,99.7,119.8,97.1
			z"/>
		<path class="st7" d="M171.2,122.6c0-0.8,0.4-1.5,0.4-2.3c0-0.4,0-1.1,0.4-1.1c0.4,0,0.8,0.4,0.8,0.4c0.8,0.4,0.4,1.1,0,1.5
			C172.3,121.5,171.9,121.9,171.2,122.6L171.2,122.6z"/>
		<path class="st8" d="M158,97.1c0.8,0.8,2.3,0.8,1.9,1.9c0,0.4-0.8,1.1-1.5,1.1C157.7,99.7,158,98.6,158,97.1z"/>
		<path class="st9" d="M171.2,122.6L171.2,122.6c0.4,0.8,0.4,1.5,0.4,2.6C170.8,123.7,171.2,123,171.2,122.6z"/>
		<path class="st9" d="M160.3,186.8c0.4-1.9,0.8-3,2.3-4.1c1.1-0.8,2.3-1.1,3.8-0.8c0.8,0.4,1.1,1.1,0.8,1.9c-0.4,1.5-1.5,2.3-3,2.6
			C162.5,187.2,161.4,186.8,160.3,186.8z"/>
		<path class="st9" d="M198.2,191.3c0.8,1.5,1.5,2.6,1.5,4.5c0,1.9-0.4,3.4-2.3,4.1c-1.9,0.8-3.4,0.8-5.3-1.1
			c1.9-0.4,3.4-0.8,4.5-2.3c1.1-1.5,1.1-3.4,1.1-4.9C197.4,191.3,197.8,191.3,198.2,191.3z"/>
		<path class="st10" d="M198.2,191.3l-0.4,0.4c-0.4-0.8-0.8-1.1-1.1-2.3C197.8,190.2,198.2,190.5,198.2,191.3z"/>
		<path class="st1" d="M165.5,213.4c-0.4,1.5-1.1,3.4-1.9,5.3c-0.4,0.8-1.5,1.1-2.3,0.8c-1.1-0.4-1.1-1.1-0.8-2.3
			c0.4-1.9,1.1-3.4,1.9-5.3c0.4-1.1,1.5-1.1,2.3-1.1C165.2,211.2,165.5,211.9,165.5,213.4z"/>
		<path class="st11" d="M193.3,219.4c-0.8,0-1.1,0-1.1-0.8c0.4-0.8,0.8-1.5,1.9-1.5c0.4,0,1.1,0.4,0.8,0.8
			C194.8,219,194.1,219.4,193.3,219.4z"/>
	</g>
</g>
<g id="Layer_2">
</g>
</svg>
