<svg id="Layer_1" data-name="Layer 1" xmlns="http://www.w3.org/2000/svg" viewBox="0 0 75 75"><defs><style>.cls-1{fill:#010101;}.cls-2{fill:#7fbb57;}.cls-3{fill:#fff;}.cls-4{fill:#010201;}.cls-5{fill:#020301;}.cls-6{fill:#020502;}.cls-7{fill:#030602;}.cls-8{fill:#050d03;}.cls-9{fill:#fefefe;}.cls-10{fill:#7fbb56;}.cls-11{fill:#7eba56;}.cls-12{fill:#77af50;}.cls-13{fill:#72a74d;}.cls-14{fill:#7db955;}.cls-15{fill:#7db855;}.cls-16{fill:#6ea24a;}.cls-17{fill:#71a64c;}</style></defs><title>bytePushersWorksPageChucksPick3Background</title><path class="cls-1" d="M75,37.5c.63,19.37-16,38-38.42,37.49A37.5,37.5,0,1,1,38.64,0C59.58.58,75.55,18.33,75,37.5Z"/><path class="cls-2" d="M37.56,72.71A35.21,35.21,0,1,1,72.82,37.53,35.28,35.28,0,0,1,37.56,72.71Z"/><path class="cls-1" d="M32.14,39.06a3.53,3.53,0,0,1-2.63-3.21c-.23-1.57-.45-3.14-.64-4.72a.82.82,0,0,0-.48-.72l-5.91-3.3a2.25,2.25,0,0,1-1.29-2.37,2.16,2.16,0,0,1,1.72-2c.25-.07.27-.18.28-.39,0-2.56,1.15-3.64,3.69-3.65,0,0,.06,0,.13-.06a2.77,2.77,0,0,1-.32-2.09,2.35,2.35,0,0,1,2.67-1.64c.24,0,.39.08.54-.22C31,12.56,32.88,12,35,13.29c.11-.24.21-.49.34-.73A2.34,2.34,0,0,1,38,11.48a2.14,2.14,0,0,1,1.6,2.14c0,1.5,0,3,0,4.59a3.83,3.83,0,0,1,2.13-.63,3.24,3.24,0,0,1,2.49,5.2c-.25.33-.25.45.11.68a10.73,10.73,0,0,1,2.65,2.89,2,2,0,0,1,.31,1.8.52.52,0,0,0,.19.65,1.27,1.27,0,0,1,.47,1.29,37.74,37.74,0,0,0-.43,4.1,1.57,1.57,0,0,1-.37.9c-1,1.16-2,2.33-3,3.54a2.23,2.23,0,0,1-1.4.85,6.84,6.84,0,0,1-2.3.16,1.78,1.78,0,0,1-.11-1.22.43.43,0,0,1,.31-.36,1,1,0,0,1,.48-.12,2.61,2.61,0,0,0,2.51-1.34,22.58,22.58,0,0,1,1.61-1.91,2.26,2.26,0,0,0,.65-1.46c0-.89.14-1.79.2-2.68,0-.44-.16-.47-.48-.3a1.25,1.25,0,0,0-.74,1c-.07.54-.09,1.08-.17,1.62a.72.72,0,0,1-.84.71,7,7,0,0,0-1.94.15,4.44,4.44,0,0,0-3.22,2.46c-.27.58-.59.58-1.5.22-.54-.21-.33-.64-.18-1a5.51,5.51,0,0,1,3-3c.48-.21.58-.46.49-1A7.26,7.26,0,0,1,41.2,27a1.4,1.4,0,0,1,2.23-.28,15.47,15.47,0,0,0,1.1,1.2c.23.21.49.36.78.13a.58.58,0,0,0,.11-.84,9,9,0,0,0-2.07-2.33,1.34,1.34,0,0,0-1.84.08,2.39,2.39,0,0,0-.35.36c-.34.45-.72.83-1.36.68A2.32,2.32,0,0,1,38,24.74a3,3,0,0,1-.18-1.23V14.35a4,4,0,0,0,0-.69.5.5,0,0,0-.49-.48.56.56,0,0,0-.58.39,2.22,2.22,0,0,0-.08.81V23.6a2.35,2.35,0,0,1-.11,1,1.73,1.73,0,0,1-1.45,1.15,1.66,1.66,0,0,1-1.64-1C33,23.87,32.47,23,32,22c-.79-1.59-1.65-3.15-2.45-4.74a2.26,2.26,0,0,0-.11-.22c-.18-.32-.43-.47-.78-.3s-.38.46-.27.79a6.21,6.21,0,0,0,.34.74c1.2,2.38,2.39,4.75,3.52,7.15a2.15,2.15,0,0,1,.29,1.14A1.67,1.67,0,0,1,30,28c-1.89-1-3.74-2.06-5.61-3.1a4.12,4.12,0,0,0-.73-.36.5.5,0,0,0-.66.2.54.54,0,0,0,.1.69,2.65,2.65,0,0,0,.67.46l5.86,3.28a1.61,1.61,0,0,1,.89,1.32c.23,1.79.47,3.57.74,5.35A2,2,0,0,0,32,37.13C32.86,37.78,32.89,38.25,32.14,39.06Z"/><path class="cls-3" d="M32.14,39.06l.08-.18a3.33,3.33,0,0,0,.35-1.05c0-.42-.54-.43-.81-.66A2.66,2.66,0,0,1,31,35.26c-.24-1.72-.49-3.43-.71-5.15a.84.84,0,0,0-.5-.7l-6.44-3.59c-.28-.16-.55-.32-.63-.65a.76.76,0,0,1,.34-.82c.29-.22.59-.09.87.07l5.89,3.28A1.69,1.69,0,0,0,32,27.64a1.79,1.79,0,0,0,.18-2.13q-1.94-3.92-3.86-7.84c-.27-.57-.09-1,.43-1.2s.7.11.89.47l3.81,7.38a3,3,0,0,0,.49.79,1.52,1.52,0,0,0,1.62.38,1.65,1.65,0,0,0,1-1.45q0-5,0-10c0-.53.12-1,.74-1s.78.21.79.86v10a2,2,0,0,0,2.09,2.09.58.58,0,0,0,.61-.3,3,3,0,0,1,.56-.68,1.51,1.51,0,0,1,2.15-.16,10.33,10.33,0,0,1,2.2,2.46.7.7,0,0,1-.21,1,.67.67,0,0,1-1-.15c-.49-.55-1-1.07-1.47-1.63-.22-.25-.36-.26-.6,0s-.35.47-.74.29c-.2-.1-.23.19-.28.32a7,7,0,0,0-.6,4.91c.11.36-.15.37-.35.45a5.87,5.87,0,0,0-3.33,3.12c-.22.49-.19.67.38.85s.88.19,1.19-.48c.75-1.62,2.25-2.2,3.9-2.47a3.91,3.91,0,0,1,1.18,0c.55.07.78-.08.78-.65a14.75,14.75,0,0,1,.16-1.49A1.4,1.4,0,0,1,46.34,30c-.25,1.23-.21,2.49-.37,3.73a1.25,1.25,0,0,1-.32.71c-.8.93-1.62,1.86-2.38,2.83a1.84,1.84,0,0,1-1.63.84,1.87,1.87,0,0,0-.25,0c-1,.08-1,.08-1,1,0,.17,0,.33,0,.5Z"/><path class="cls-1" d="M63.85,49.06c2.9,2.79,1.32,8-2.72,9.56-2.51,1-4.94.83-7-1.09a3.81,3.81,0,0,1-1.24-3.21A1.73,1.73,0,0,1,53.59,53a1.37,1.37,0,0,1,2.22,1,2.05,2.05,0,0,0,2,2c2.57.33,4.38-1.24,4-4a1.78,1.78,0,0,0-2.27-1.4,3.74,3.74,0,0,1-1.11.18,1.5,1.5,0,0,1-1.49-1.11,1.71,1.71,0,0,1,.78-1.94,2.94,2.94,0,0,1,1.45-.33,8.9,8.9,0,0,0,1.63-.14A2.61,2.61,0,0,0,63.05,45a1.29,1.29,0,0,0-.72-1.52,1.58,1.58,0,0,0-1.79.3,3.4,3.4,0,0,0-.53.77,1.72,1.72,0,0,1-2.2.79,1.54,1.54,0,0,1-.7-2.08,3.53,3.53,0,0,1,1.82-2,5.89,5.89,0,0,1,5.71.06A3.51,3.51,0,0,1,66.58,45,5.26,5.26,0,0,1,63.85,49.06Z"/><path class="cls-1" d="M40.92,49.35c-.33,0-.65.09-.85,0-.58-.33-.66,0-.8.45-.19.6-.42,1.18-.62,1.77a1.17,1.17,0,0,1-.89.8,1.09,1.09,0,0,1-1.06-.23.91.91,0,0,1-.08-1l3.09-8.78a6.17,6.17,0,0,1,.36-.93,1,1,0,0,1,1.33-.5,1,1,0,0,1,.54,1.29c-.22.71-.48,1.41-.73,2.13a5.42,5.42,0,0,1,1.08.06,1.93,1.93,0,0,1,1.5,1.37,2,2,0,0,1-.55,2.13c-.23.24-.38.38-.23.78a2.32,2.32,0,0,1-.19,1.52c0,.15-.2.37,0,.51a.55.55,0,0,0,.59,0,3.58,3.58,0,0,0,1.39-2,1,1,0,0,1,1.38-.53c.32.17.47.36.23.74a2.47,2.47,0,0,0-.32.87,3.62,3.62,0,0,1-3.68,2.76A1.83,1.83,0,0,1,40.72,50C40.77,49.79,40.84,49.59,40.92,49.35Z"/><path class="cls-1" d="M18.41,44.39c.06,0,.08.06.1.06,2.21-.21,3.15,1,2.4,3.11L20,50.1c-.07.2-.18.4,0,.57a.59.59,0,0,0,.66,0,4.74,4.74,0,0,0,1-.83,2.05,2.05,0,0,0,.2,1.82c.15.21,0,.28-.15.38a2.9,2.9,0,0,1-3.09,0A1.93,1.93,0,0,1,18,49.77c.3-.94.63-1.86,1-2.78.09-.28.24-.57-.07-.8s-.56,0-.8.14a1.92,1.92,0,0,0-.71,1c-.48,1.36-1,2.71-1.45,4.06a3.17,3.17,0,0,1-.19.46,1,1,0,0,1-1.19.56.94.94,0,0,1-.68-1.12,3.47,3.47,0,0,1,.19-.72c1-2.87,2.06-5.73,3.08-8.6a1.91,1.91,0,0,1,.51-.85.88.88,0,0,1,1-.22.9.9,0,0,1,.57.89,2.36,2.36,0,0,1-.2.91C18.8,43.28,18.6,43.84,18.41,44.39Z"/><path class="cls-1" d="M13.92,49.44c-.15.43-.31.86-.45,1.29-.07.21-.22.46-.16.65.17.63-.23.74-.66.86A5.47,5.47,0,0,1,8.56,52a3,3,0,0,1-1.63-3.78c.59-1.82,1.21-3.63,1.89-5.42a3.39,3.39,0,0,1,4.43-2.07,2.58,2.58,0,0,1,1.05,4,1.12,1.12,0,0,1-1.41.31.91.91,0,0,1-.4-1.28c.14-.35.25-.79-.19-1a.88.88,0,0,0-1.1.35,2.21,2.21,0,0,0-.33.67c-.52,1.42-1,2.86-1.54,4.29-.25.67-.54,1.37.07,2a2.47,2.47,0,0,0,2.32.64A4.61,4.61,0,0,0,13.92,49.44Z"/><path class="cls-1" d="M29.83,49.65a2.39,2.39,0,0,0,.47,1.51c.2.25.18.4-.06.61a2.9,2.9,0,0,1-3.78.08c-.21-.19-.3-.19-.49,0a2.54,2.54,0,0,1-1.7.69,1.91,1.91,0,0,1-2-2.66c.48-1.42,1-2.82,1.51-4.24.06-.15.1-.31.17-.47a1,1,0,0,1,1.4-.69c.56.21.76.71.51,1.4-.46,1.3-.94,2.58-1.4,3.88-.11.31-.43.72-.07,1s.74-.09,1-.36a3,3,0,0,0,.8-1.18c.43-1.24.87-2.48,1.32-3.71a2.38,2.38,0,0,1,.28-.63,1,1,0,0,1,1.26-.36.88.88,0,0,1,.54,1.18c-.48,1.38-1,2.75-1.45,4.13-.05.15-.12.31-.17.47s-.1.33,0,.47a.47.47,0,0,0,.53.06C29.11,50.61,29.41,50.13,29.83,49.65Z"/><path class="cls-1" d="M49.76,52.62a3.78,3.78,0,0,1-2-.53,2.31,2.31,0,0,1,0-4.05,1.07,1.07,0,0,0,.39-.46c.46-.86.92-1.73,1.39-2.59a1.55,1.55,0,0,1,1.25-.92A1.06,1.06,0,0,1,52,44.7,1,1,0,0,1,51.77,46a.52.52,0,0,0-.13.79c.27.5.56,1,.81,1.48A2.83,2.83,0,0,1,49.76,52.62Z"/><path class="cls-4" d="M36.65,49.44a6.21,6.21,0,0,0-.58,1.75c0,1.05-.72,1.1-1.45,1.23a4.32,4.32,0,0,1-2.58-.3,2.55,2.55,0,0,1-1.51-3.23c.27-.9.57-1.79.92-2.66a2.89,2.89,0,0,1,3.46-1.76,2.24,2.24,0,0,1,1,3.5,1,1,0,0,1-1.3.25.81.81,0,0,1-.36-1.17c.13-.29.31-.64-.1-.8s-.61.19-.73.51c-.29.78-.57,1.57-.82,2.36a1.2,1.2,0,0,0,1.11,1.63A2.82,2.82,0,0,0,36,50c.21-.19.4-.4.6-.6Z"/><path class="cls-4" d="M40.51,57c-.07,0-.14,0-.19,0-.76-.43-.85.17-1,.65a1.31,1.31,0,0,1-.17.4.52.52,0,0,1-.67.19.45.45,0,0,1-.26-.62c.53-1.51,1-3,1.61-4.53.16-.43.5-.65.94-.34.23.16.44.09.66.09,1,0,1.5.61,1.24,1.54a13.38,13.38,0,0,1-.6,1.64A1.59,1.59,0,0,1,40.51,57Z"/><path class="cls-5" d="M48.93,57c-.42-.17-.7-.08-.77.39a1.34,1.34,0,0,1-.07.18c-.13.43-.29.93-.87.72s-.17-.68-.06-1c.41-1.24.87-2.47,1.3-3.71.13-.38.31-.7.75-.53s.31.55.17.86-.29.71.38.8a.86.86,0,0,1,.44,1.37c-.35.42-.16.88-.31,1.3-.1.27.2.17.32.09a1.52,1.52,0,0,0,.52-.77c.12-.33.34-.49.67-.35s.2.4.1.65a2.24,2.24,0,0,1-.69,1,1.35,1.35,0,0,1-1.57.24C48.72,57.94,48.81,57.44,48.93,57Z"/><path class="cls-5" d="M48,41.39c-.61-.72-.68-1.25-.21-1.76a1.19,1.19,0,0,1,1.64-.13,1.48,1.48,0,0,1,.47,1.59,2.17,2.17,0,0,1-2.79,1.4c-.27-.12-.43-.29-.36-.57a.51.51,0,0,1,.6-.43A.75.75,0,0,0,48,41.39Z"/><path class="cls-6" d="M47,57c-.33,1.34-.89,1.68-2,1.29a1.2,1.2,0,0,1-.82-1.54,8.75,8.75,0,0,1,.5-1.41,1.3,1.3,0,0,1,1.6-.64,1,1,0,0,1,.58,1.18c-.06.34-.21.64-.59.6s-.52-.3-.34-.68c.05-.1.05-.21-.09-.25a.19.19,0,0,0-.25.12A8.66,8.66,0,0,0,45.12,57c0,.33.23.5.57.53A1.66,1.66,0,0,0,47,57Z"/><path class="cls-7" d="M43.88,57c-.16.51.49.74,0,1.14a1.38,1.38,0,0,1-1.53.09A.91.91,0,0,1,42,57l.66-1.94c.12-.33.34-.57.71-.44s.31.45.22.73c-.18.54-.39,1.06-.56,1.59,0,.16-.26.36,0,.51s.43,0,.58-.22Z"/><path class="cls-8" d="M43.68,53c.45,0,.63.17.63.53s-.23.53-.55.53a.49.49,0,0,1-.51-.51C43.25,53.23,43.39,53,43.68,53Z"/><path class="cls-9" d="M26.42,23.64A1.66,1.66,0,0,1,24.69,22a1.71,1.71,0,1,1,3.42,0A1.65,1.65,0,0,1,26.42,23.64Z"/><path class="cls-9" d="M34.64,15.85a1.71,1.71,0,1,1-3.42,0,1.72,1.72,0,0,1,1.7-1.73A1.69,1.69,0,0,1,34.64,15.85Z"/><path class="cls-9" d="M43.31,20.8a1.72,1.72,0,0,1-1.68,1.75,1.76,1.76,0,0,1-1.77-1.73,1.73,1.73,0,0,1,3.45,0Z"/><path class="cls-10" d="M32.47,19.15A9.28,9.28,0,0,0,33.82,19,9.92,9.92,0,0,0,35,18.49V23.8l-.09,0Z"/><path class="cls-11" d="M29.36,23.36l1.43,2.95-.13.1-2.73-1.52A4.59,4.59,0,0,0,29.36,23.36Z"/><path class="cls-12" d="M43.08,30.16l.09-.61c0-.13,0-.27.15-.33s.17.08.25.15.07.25,0,.37l-.36.42C43.15,30.22,43.11,30.22,43.08,30.16Z"/><path class="cls-13" d="M39.57,23.39c.22.22.57.17.53.5,0,.11-.2.35-.35.28S39.55,23.76,39.57,23.39Z"/><path class="cls-14" d="M43.08,30.16h.1v.72A1.06,1.06,0,0,1,43.08,30.16Z"/><path class="cls-15" d="M40.17,47.35a1.67,1.67,0,0,1,.58-1.08.87.87,0,0,1,1-.15.41.41,0,0,1,.18.55.9.9,0,0,1-.81.67C40.81,47.37,40.52,47.35,40.17,47.35Z"/><path class="cls-14" d="M50.31,48.5a2.22,2.22,0,0,1,.4,1.16,1.09,1.09,0,0,1-.6,1.14,1.16,1.16,0,0,1-1.37-.27A1.81,1.81,0,0,0,50,50a1.87,1.87,0,0,0,.25-1.32C50.14,48.51,50.2,48.48,50.31,48.5Z"/><path class="cls-16" d="M50.31,48.5l-.11.13-.33-.56A.59.59,0,0,1,50.31,48.5Z"/><path class="cls-11" d="M41.57,54.36c-.15.4-.31.91-.53,1.4a.49.49,0,0,1-.64.23.41.41,0,0,1-.25-.56,14.61,14.61,0,0,1,.5-1.4.52.52,0,0,1,.63-.28C41.55,53.81,41.56,54,41.57,54.36Z"/><path class="cls-17" d="M49,56c-.16,0-.35,0-.29-.17a.49.49,0,0,1,.48-.41c.13,0,.27.08.24.22A.38.38,0,0,1,49,56Z"/></svg>