<svg id="Layer_1" data-name="Layer 1" xmlns="http://www.w3.org/2000/svg" viewBox="0 0 127.5 125.92"><defs><style>.cls-1{fill:none;stroke:#3466aa;stroke-linecap:round;stroke-linejoin:round;stroke-width:5px;}</style></defs><title>graphics</title><path class="cls-1" d="M79.88,89.6s10.11-10.83,0-27.44L59.66,42.66s-10.83-7.94-22.38,3.61Z"/><path class="cls-1" d="M37.28,46.14S20,57.92,2.62,64.66c0,0,1.6,60.18,58.21,58.74,0,0,7.5-21.66,19-33.94"/><line class="cls-1" x1="9.12" y1="84.78" x2="33.31" y2="67.44"/><line class="cls-1" x1="21.21" y1="105.71" x2="41.25" y2="86.21"/><line class="cls-1" x1="41.25" y1="117.99" x2="60.83" y2="91.99"/><polyline class="cls-1" points="65.44 46.14 76.27 37.11 88.91 50.11 79.88 59.13"/><path class="cls-1" d="M88.35,45.78s26.81-25.2,33.59-31.36.82-10.52.82-10.52l1.62,1.78s-3.77-6.33-10.54-.16-33.6,31.36-33.6,31.36"/></svg>