<svg id="Layer_1" data-name="Layer 1" xmlns="http://www.w3.org/2000/svg" viewBox="0 0 1622.29 121.09"><title>bytePushersLogoWithoutText</title><path d="M41.68,99.22H0V1.46H38.6C59,1.46,66.48,9.69,66.48,22.9v10c0,7-3.07,12-10.85,15.41A18.47,18.47,0,0,1,70,66.34v9.54C70,89.68,61.2,99.22,41.68,99.22Zm2.79-73.09c0-4.26-2.64-6.91-8.81-6.91H22V41.54H35.66c5.88,0,8.81-2.94,8.81-6.91ZM48,66.93c0-5.43-3.37-8.22-9.24-8.22H22V81.46H35.66C42.56,81.46,48,80,48,72.94Z"/><path d="M145.21,71V99.22h-22V71L92.81,1.46h23l18.35,45.36L152.55,1.46h23Z"/><path d="M250.66,21V99.22h-22V21H202.37V1.46h74.56V21Z"/><path d="M308.84,99.22V1.46h61.49V21H330.85V38.9h36.4V58.42h-36.4V79.7h39.48V99.22Z"/><path d="M498,69.57H481.23V99.22h-22V1.46h39.92c23.78,0,32.58,9.4,32.58,27.75V42C531.72,60.32,521.74,69.57,498,69.57Zm11.74-38.31c0-7-2.49-10.27-11.74-10.27H481.23v29.5H498c9.68,0,11.74-3.67,11.74-10.72Z"/><path d="M638.49,1.46V70.75c0,14.82-9.25,29.94-36.84,29.94s-36.84-15.12-36.84-29.94V1.46h22V68.69c0,7.92,3.82,12.48,14.83,12.48s14.82-4.56,14.82-12.48V1.46Z"/><path d="M706.06,100.69c-11.3,0-23.19-2.5-31.56-6.32l3.67-17a93,93,0,0,0,28.18,4.7c11.31,0,13.51-2.2,13.51-10.43,0-8.8-.44-9.83-16.44-13.35-23.63-5.14-27.15-9.84-27.15-31C676.27,7.78,683.16,0,710,0a142.16,142.16,0,0,1,29.65,3.23l-2.2,18.49c-11.15-1.9-18.35-2.79-27.15-2.79-9.83,0-12,1.76-12,9,0,9.39.44,9.54,15.85,13.2,26.42,6.31,27.75,11.45,27.75,30.68C741.88,91.15,735.56,100.69,706.06,100.69Z"/><path d="M831.46,99.22V59.88H799.91V99.22h-22V1.46h22v38.9h31.55V1.46h22V99.22Z"/><path d="M893.17,99.22V1.46h61.5V21H915.18V38.9h36.41V58.42H915.18V79.7h39.49V99.22Z"/><path d="M1027.08,68.84h-12.92V99.22h-22V1.46h40.66c23.78,0,32.59,9.4,32.59,27.75v12c0,12.18-4.41,20.4-14.25,24.52l23.64,33.46h-26.12Zm16.29-37.58c0-7.34-2.78-10.27-11.73-10.27h-17.48V49.75h17.48c9.39,0,11.73-3.37,11.73-10.71Z"/><path d="M1135.75,100.69c-11.3,0-23.18-2.5-31.55-6.32l3.67-17a92.87,92.87,0,0,0,28.18,4.7c11.3,0,13.51-2.2,13.51-10.43,0-8.8-.44-9.83-16.45-13.35-23.62-5.14-27.15-9.84-27.15-31,0-19.52,6.9-27.3,33.76-27.3a142.23,142.23,0,0,1,29.65,3.23l-2.21,18.49c-11.15-1.9-18.34-2.79-27.15-2.79-9.84,0-12,1.76-12,9,0,9.39.45,9.54,15.86,13.2,26.42,6.31,27.74,11.45,27.74,30.68C1171.57,91.15,1165.26,100.69,1135.75,100.69Z"/><path d="M1215.66,121.09l-9.55-5.43,8.37-16.44h-7V74.86h21.14v25.83Z"/><path d="M1320.37,99.22V1.46h22V99.22Z"/><path d="M1403.76,34.93V99.22h-21V1.46h27l32.15,67.38V1.46h21V99.22h-27.15Z"/><path d="M1522.42,67.22c0,8.51,2.8,13.5,13.65,13.5a161.51,161.51,0,0,0,25.26-2.34l3.08,19.23a132.25,132.25,0,0,1-28.34,3.08c-24.65,0-35.66-12.19-35.66-29.94V29.94c0-17.76,11-29.94,35.66-29.94a132.25,132.25,0,0,1,28.34,3.08l-3.08,19.23A161.6,161.6,0,0,0,1536.07,20c-10.85,0-13.65,5-13.65,13.5Z"/><path d="M1601.15,99.22V74.86h21.14V99.22Z"/></svg>