<?xml version="1.0" encoding="utf-8"?>
<!-- Generator: Adobe Illustrator 22.0.1, SVG Export Plug-In . SVG Version: 6.00 Build 0)  -->
<svg version="1.1" id="Layer_1" xmlns="http://www.w3.org/2000/svg" xmlns:xlink="http://www.w3.org/1999/xlink" x="0px" y="0px"
	 viewBox="0 0 296 239" style="enable-background:new 0 0 296 239;" xml:space="preserve">
<style type="text/css">
	.st0{fill:#3466AA;}
</style>
<title>graphics</title>
<path class="st0" d="M159.1,133.3c-1.8,0-3.5,0.9-4.4,2.4c-1.1,1.6-1.6,4.1-1.6,7.5c0,3.4,0.5,5.9,1.6,7.5c0.9,1.5,2.6,2.5,4.4,2.4
	c1.8,0,3.5-0.9,4.4-2.4c1.1-1.6,1.6-4.1,1.6-7.5c0-3.4-0.5-5.9-1.6-7.5C162.6,134.2,160.9,133.3,159.1,133.3z"/>
<path class="st0" d="M141.8,80.3c-1.8,0-3.5,0.9-4.4,2.4c-1.1,1.6-1.6,4.1-1.6,7.5s0.5,5.9,1.6,7.5c1.5,2.4,4.8,3.2,7.2,1.6
	c0.6-0.4,1.2-1,1.6-1.6c1.1-1.6,1.6-4.1,1.6-7.5c0-3.4-0.5-5.9-1.6-7.5C145.3,81.2,143.6,80.3,141.8,80.3z"/>
<path d="M153.4,98.9c1.2-2.7,1.8-5.6,1.7-8.6c0.1-3-0.5-5.9-1.7-8.6c-1-2.2-2.6-4.2-4.7-5.5c-4.2-2.5-9.5-2.5-13.7,0
	c-2.1,1.3-3.7,3.3-4.7,5.5c-1.2,2.7-1.8,5.6-1.7,8.6c-0.1,3,0.5,5.9,1.7,8.6c1,2.3,2.6,4.2,4.7,5.5c4.2,2.5,9.5,2.5,13.7,0
	C150.7,103,152.4,101.1,153.4,98.9z M146.3,97.8c-1.5,2.4-4.8,3.2-7.2,1.6c-0.6-0.4-1.2-1-1.6-1.6c-1.1-1.6-1.6-4.1-1.6-7.5
	c0-3.4,0.5-5.9,1.6-7.5c1.5-2.4,4.8-3.2,7.2-1.6c0.6,0.4,1.2,1,1.6,1.6c1.1,1.6,1.6,4.1,1.6,7.5S147.3,96.2,146.3,97.8z"/>
<polygon points="163.1,105.7 170.2,105.7 170.2,74.8 156.9,74.8 156.9,80.6 163.1,80.6 "/>
<polygon points="127.2,133.6 133.3,133.6 133.3,158.7 140.5,158.7 140.5,127.8 127.2,127.8 "/>
<path d="M170.7,134.7c-1-2.2-2.6-4.2-4.7-5.5c-4.2-2.5-9.5-2.5-13.7,0c-2.1,1.3-3.7,3.3-4.7,5.5c-2.3,5.5-2.3,11.7,0,17.2
	c1,2.2,2.6,4.2,4.7,5.5c4.2,2.5,9.5,2.5,13.7,0c2.1-1.3,3.7-3.2,4.7-5.5C172.9,146.4,172.9,140.2,170.7,134.7z M163.6,150.8
	c-0.9,1.5-2.6,2.5-4.4,2.4c-1.8,0-3.5-0.9-4.4-2.4c-1.1-1.6-1.6-4.1-1.6-7.5s0.5-5.9,1.6-7.5c0.9-1.5,2.6-2.5,4.4-2.4
	c1.8,0,3.5,0.9,4.4,2.4c1.1,1.6,1.6,4.1,1.6,7.5S164.6,149.2,163.6,150.8L163.6,150.8z"/>
<polygon points="288,84 258.3,113.7 147.6,3 113.1,37.6 118.6,43.2 147.6,14.1 154.3,20.9 154.3,20.9 155.1,21.8 155.2,21.7 
	156.9,23.5 156.9,23.6 158.4,25.1 158.4,24.9 252.7,119.2 219,152.9 224.6,158.5 293.5,89.6 "/>
<polygon points="148.1,224.9 43,119.9 76.7,86.2 71.1,80.6 2.2,149.5 7.7,155.1 37.4,125.4 148.1,236.1 182.6,201.5 177.1,195.9 "/>
</svg>
